<svg width="305" height="125" viewBox="0 0 305 125" fill="none" xmlns="http://www.w3.org/2000/svg">
<path d="M1.75781 32V19.1504H11.3291V32H9.85254V20.4688H3.25195V32H1.75781ZM25.0151 32H17.8608V19.1504H25.0151V20.4688H19.355V24.626H24.6899V25.9268H19.355V30.6816H25.0151V32ZM34.21 19.1504C35.8682 19.1504 37.0781 19.4756 37.8398 20.126C38.6074 20.7705 38.9912 21.6963 38.9912 22.9033C38.9912 23.4482 38.9004 23.9668 38.7187 24.459C38.543 24.9453 38.2559 25.376 37.8574 25.751C37.459 26.1201 36.9346 26.4131 36.2842 26.6299C35.6396 26.8408 34.8486 26.9463 33.9111 26.9463H32.3467V32H30.8525V19.1504H34.21ZM34.0693 20.4248H32.3467V25.6631H33.7441C34.5644 25.6631 35.2471 25.5752 35.792 25.3994C36.3428 25.2236 36.7559 24.9395 37.0312 24.5469C37.3066 24.1484 37.4443 23.6211 37.4443 22.9648C37.4443 22.1094 37.1719 21.4736 36.6269 21.0576C36.082 20.6357 35.2295 20.4248 34.0693 20.4248ZM50.3218 32L46.0063 20.627H45.936C45.9595 20.8672 45.98 21.1602 45.9976 21.5059C46.0151 21.8516 46.0298 22.2295 46.0415 22.6396C46.0532 23.0439 46.0591 23.457 46.0591 23.8789V32H44.6704V19.1504H46.8852L50.9546 29.8379H51.0161L55.147 19.1504H57.3442V32H55.8677V23.7734C55.8677 23.3926 55.8735 23.0117 55.8852 22.6309C55.897 22.2441 55.9116 21.8809 55.9292 21.541C55.9468 21.1953 55.9643 20.8965 55.9819 20.6445H55.9116L51.5434 32H50.3218ZM63.8496 32V19.1504H65.3437V24.6172H67.7871C68.9473 24.6172 69.876 24.7754 70.5732 25.0918C71.2764 25.4023 71.7832 25.833 72.0937 26.3838C72.4101 26.9287 72.5684 27.5498 72.5684 28.2471C72.5684 29.3955 72.1904 30.3096 71.4346 30.9893C70.6787 31.6631 69.5303 32 67.9893 32H63.8496ZM65.3437 30.7168H67.831C68.8975 30.7168 69.6973 30.5146 70.2305 30.1104C70.7637 29.7002 71.0303 29.0791 71.0303 28.2471C71.0303 27.667 70.8984 27.207 70.6348 26.8672C70.3711 26.5273 69.9844 26.2842 69.4746 26.1377C68.9707 25.9912 68.3467 25.918 67.6025 25.918H65.3437V30.7168ZM79.6977 29.9082L79.812 30.1104C79.7065 30.5381 79.5718 30.9951 79.4077 31.4814C79.2495 31.9678 79.0737 32.4541 78.8804 32.9404C78.6929 33.4326 78.5024 33.8926 78.3091 34.3203H77.2192C77.3423 33.8516 77.4624 33.3564 77.5796 32.835C77.6968 32.3193 77.8022 31.8096 77.896 31.3057C77.9956 30.7959 78.0747 30.3301 78.1333 29.9082H79.6977ZM102.772 32H100.961L95.0552 25.4785V32H93.561V19.1504H95.0552V25.373L100.812 19.1504H102.526L96.8393 25.3906L102.772 32ZM116.897 19.1504L112.714 28.4668C112.351 29.2871 111.981 29.9727 111.606 30.5234C111.231 31.0742 110.786 31.4873 110.27 31.7627C109.755 32.0381 109.102 32.1758 108.311 32.1758C107.971 32.1758 107.654 32.1494 107.361 32.0967C107.074 32.0498 106.816 31.9883 106.588 31.9121V30.4268C106.822 30.5381 107.074 30.626 107.344 30.6904C107.619 30.749 107.909 30.7783 108.214 30.7783C108.665 30.7783 109.052 30.7109 109.374 30.5762C109.696 30.4355 109.98 30.2158 110.227 29.917C110.473 29.6123 110.707 29.2109 110.93 28.7129L105.973 19.1504H107.607L111.264 26.3311C111.311 26.4189 111.36 26.5215 111.413 26.6387C111.466 26.75 111.519 26.8672 111.571 26.9902C111.624 27.1074 111.671 27.2246 111.712 27.3418H111.773C111.809 27.2539 111.847 27.1514 111.888 27.0342C111.935 26.917 111.981 26.7998 112.028 26.6826C112.075 26.5654 112.116 26.4658 112.151 26.3838L115.307 19.1504H116.897ZM121.671 19.1504H123.069V26.5771C123.069 26.8584 123.066 27.166 123.06 27.5C123.054 27.8281 123.045 28.1504 123.034 28.4668C123.022 28.7832 123.007 29.0703 122.99 29.3281C122.978 29.5859 122.966 29.7852 122.955 29.9258H123.025L130.179 19.1504H131.823V32H130.425V24.6611C130.425 24.3506 130.431 24.0225 130.443 23.6768C130.455 23.3252 130.466 22.9854 130.478 22.6572C130.496 22.3291 130.513 22.0361 130.531 21.7783C130.548 21.5146 130.56 21.3125 130.566 21.1719H130.487L123.324 32H121.671V19.1504ZM130.232 15.1777C130.179 15.7695 130.03 16.2646 129.784 16.6631C129.543 17.0615 129.189 17.3633 128.72 17.5684C128.251 17.7676 127.651 17.8672 126.918 17.8672C126.163 17.8672 125.553 17.7705 125.09 17.5771C124.633 17.3779 124.293 17.0791 124.071 16.6807C123.854 16.2822 123.725 15.7812 123.684 15.1777H125.055C125.12 15.8223 125.292 16.2617 125.574 16.4961C125.855 16.7305 126.312 16.8477 126.945 16.8477C127.507 16.8477 127.95 16.7246 128.272 16.4785C128.594 16.2324 128.788 15.7988 128.852 15.1777H130.232ZM138.319 32V19.1504H145.869V20.4688H139.813V24.6172H141.809C143.045 24.6172 144.012 24.7695 144.709 25.0742C145.406 25.3789 145.895 25.8037 146.177 26.3486C146.464 26.8936 146.607 27.5264 146.607 28.2471C146.607 29.4307 146.253 30.3535 145.544 31.0156C144.841 31.6719 143.672 32 142.037 32H138.319ZM139.813 30.7168H141.879C143.039 30.7168 143.859 30.5146 144.34 30.1104C144.826 29.7002 145.069 29.0791 145.069 28.2471C145.069 27.667 144.952 27.207 144.718 26.8672C144.483 26.5273 144.114 26.2842 143.61 26.1377C143.106 25.9912 142.444 25.918 141.624 25.918H139.813V30.7168ZM152.331 32V19.1504H153.825V24.6172H155.881C157.041 24.6172 157.964 24.7754 158.65 25.0918C159.335 25.4023 159.828 25.833 160.126 26.3838C160.425 26.9287 160.575 27.5498 160.575 28.2471C160.575 29.3955 160.211 30.3096 159.485 30.9893C158.764 31.6631 157.63 32 156.083 32H152.331ZM153.825 30.7256H155.934C156.995 30.7256 157.774 30.5205 158.272 30.1104C158.776 29.7002 159.028 29.0791 159.028 28.2471C159.028 27.667 158.905 27.21 158.659 26.876C158.418 26.5361 158.052 26.2959 157.56 26.1553C157.074 26.0088 156.458 25.9355 155.714 25.9355H153.825V30.7256ZM162.526 32V19.1504H164.02V32H162.526ZM185.634 32H170.596V19.1504H172.09V30.6641H177.354V19.1504H178.849V30.6641H184.122V19.1504H185.634V32ZM199.32 32H192.165V19.1504H199.32V20.4688H193.66V24.626H198.995V25.9268H193.66V30.6816H199.32V32ZM205.157 19.1504H208.796C210.401 19.1504 211.608 19.3906 212.417 19.8711C213.226 20.3516 213.63 21.1689 213.63 22.3232C213.63 22.8213 213.533 23.2695 213.34 23.668C213.152 24.0605 212.877 24.3857 212.514 24.6436C212.15 24.9014 211.702 25.0801 211.169 25.1797V25.2676C211.731 25.3555 212.229 25.5166 212.663 25.751C213.097 25.9854 213.436 26.3135 213.683 26.7354C213.929 27.1572 214.052 27.6934 214.052 28.3438C214.052 29.1348 213.867 29.8027 213.498 30.3477C213.135 30.8926 212.619 31.3057 211.951 31.5869C211.283 31.8623 210.492 32 209.578 32H205.157V19.1504ZM206.651 24.6611H209.112C210.231 24.6611 211.005 24.4766 211.433 24.1074C211.866 23.7383 212.083 23.1992 212.083 22.4902C212.083 21.7578 211.825 21.2305 211.31 20.9082C210.8 20.5859 209.985 20.4248 208.866 20.4248H206.651V24.6611ZM206.651 25.918V30.7256H209.323C210.466 30.7256 211.274 30.5029 211.749 30.0576C212.224 29.6064 212.461 29 212.461 28.2383C212.461 27.752 212.353 27.3359 212.136 26.9902C211.925 26.6445 211.579 26.3809 211.099 26.1992C210.624 26.0117 209.988 25.918 209.191 25.918H206.651ZM227.843 32L226.261 27.9219H221.111L219.538 32H218.026L223.053 19.0977H224.398L229.39 32H227.843ZM225.813 26.5947L224.31 22.543C224.275 22.4375 224.216 22.2646 224.134 22.0244C224.058 21.7842 223.979 21.5352 223.897 21.2773C223.815 21.0195 223.748 20.8115 223.695 20.6533C223.636 20.8936 223.572 21.1338 223.501 21.374C223.437 21.6084 223.373 21.8281 223.308 22.0332C223.244 22.2324 223.188 22.4023 223.141 22.543L221.612 26.5947H225.813ZM246.391 32H244.967V22.8945C244.967 22.5488 244.967 22.2529 244.967 22.0068C244.973 21.7549 244.979 21.5264 244.985 21.3213C244.997 21.1104 245.011 20.8965 245.029 20.6797C244.847 20.8672 244.677 21.0283 244.519 21.1631C244.361 21.292 244.165 21.4531 243.93 21.6465L242.462 22.8242L241.698 21.8311L245.178 19.1504H246.391V32ZM262.67 32H254.25V30.7783L257.686 27.2891C258.325 26.6445 258.861 26.0703 259.295 25.5664C259.734 25.0625 260.068 24.5674 260.297 24.0811C260.525 23.5889 260.64 23.0498 260.64 22.4639C260.64 21.7373 260.423 21.1836 259.989 20.8027C259.561 20.416 258.996 20.2227 258.293 20.2227C257.678 20.2227 257.133 20.3281 256.658 20.5391C256.184 20.75 255.697 21.0488 255.199 21.4355L254.417 20.4512C254.757 20.1641 255.126 19.9092 255.524 19.6865C255.929 19.4639 256.359 19.2881 256.816 19.1592C257.279 19.0303 257.771 18.9658 258.293 18.9658C259.084 18.9658 259.767 19.1035 260.341 19.3789C260.915 19.6543 261.357 20.0469 261.668 20.5566C261.984 21.0664 262.143 21.6729 262.143 22.376C262.143 23.0557 262.008 23.6885 261.738 24.2744C261.469 24.8545 261.091 25.4316 260.604 26.0059C260.118 26.5742 259.55 27.1777 258.899 27.8164L256.104 30.6025V30.6641H262.67V32ZM271.786 18.9658C272.53 18.9658 273.189 19.083 273.763 19.3174C274.337 19.5518 274.786 19.8975 275.108 20.3545C275.436 20.8057 275.6 21.3623 275.6 22.0244C275.6 22.5459 275.486 23.0029 275.257 23.3955C275.035 23.7822 274.733 24.1221 274.352 24.415C273.971 24.7021 273.549 24.96 273.086 25.1885C273.637 25.4404 274.132 25.7246 274.572 26.041C275.017 26.3574 275.369 26.7295 275.626 27.1572C275.884 27.585 276.013 28.0918 276.013 28.6777C276.013 29.3984 275.837 30.0225 275.486 30.5498C275.14 31.0713 274.654 31.4727 274.027 31.7539C273.4 32.0352 272.665 32.1758 271.821 32.1758C270.913 32.1758 270.139 32.041 269.5 31.7715C268.868 31.4961 268.384 31.1035 268.05 30.5938C267.722 30.0781 267.558 29.46 267.558 28.7393C267.558 28.1475 267.684 27.6348 267.936 27.2012C268.188 26.7617 268.522 26.3838 268.938 26.0674C269.354 25.751 269.808 25.4844 270.3 25.2676C269.873 25.0332 269.48 24.7666 269.123 24.4678C268.771 24.1689 268.49 23.8203 268.279 23.4219C268.074 23.0176 267.971 22.5488 267.971 22.0156C267.971 21.3652 268.135 20.8145 268.463 20.3633C268.797 19.9062 269.251 19.5605 269.826 19.3262C270.406 19.0859 271.059 18.9658 271.786 18.9658ZM268.991 28.748C268.991 29.4043 269.222 29.9463 269.685 30.374C270.148 30.7959 270.848 31.0068 271.786 31.0068C272.676 31.0068 273.365 30.7959 273.851 30.374C274.337 29.9463 274.581 29.3867 274.581 28.6953C274.581 28.2676 274.469 27.8926 274.247 27.5703C274.024 27.2422 273.707 26.9492 273.297 26.6914C272.887 26.4336 272.404 26.1992 271.847 25.9883L271.531 25.874C270.992 26.0967 270.532 26.3457 270.151 26.6211C269.776 26.8906 269.489 27.1982 269.29 27.5439C269.09 27.8896 268.991 28.291 268.991 28.748ZM271.768 20.1611C271.077 20.1611 270.511 20.3281 270.072 20.6621C269.632 20.9902 269.413 21.4648 269.413 22.0859C269.413 22.5312 269.518 22.9092 269.729 23.2197C269.946 23.5244 270.239 23.7881 270.608 24.0107C270.977 24.2275 271.39 24.4297 271.847 24.6172C272.292 24.4297 272.688 24.2246 273.034 24.002C273.379 23.7734 273.652 23.5039 273.851 23.1934C274.05 22.8828 274.15 22.5107 274.15 22.0771C274.15 21.4561 273.93 20.9814 273.491 20.6533C273.057 20.3252 272.483 20.1611 271.768 20.1611ZM281.701 19.1504H285.34C286.945 19.1504 288.152 19.3906 288.961 19.8711C289.77 20.3516 290.174 21.1689 290.174 22.3232C290.174 22.8213 290.077 23.2695 289.884 23.668C289.696 24.0605 289.421 24.3857 289.058 24.6436C288.694 24.9014 288.246 25.0801 287.713 25.1797V25.2676C288.275 25.3555 288.773 25.5166 289.207 25.751C289.641 25.9854 289.98 26.3135 290.227 26.7354C290.473 27.1572 290.596 27.6934 290.596 28.3438C290.596 29.1348 290.411 29.8027 290.042 30.3477C289.679 30.8926 289.163 31.3057 288.495 31.5869C287.827 31.8623 287.036 32 286.122 32H281.701V19.1504ZM283.195 24.6611H285.656C286.775 24.6611 287.549 24.4766 287.977 24.1074C288.41 23.7383 288.627 23.1992 288.627 22.4902C288.627 21.7578 288.369 21.2305 287.853 20.9082C287.344 20.5859 286.529 20.4248 285.41 20.4248H283.195V24.6611ZM283.195 25.918V30.7256H285.867C287.01 30.7256 287.818 30.5029 288.293 30.0576C288.768 29.6064 289.005 29 289.005 28.2383C289.005 27.752 288.896 27.3359 288.68 26.9902C288.469 26.6445 288.123 26.3809 287.643 26.1992C287.168 26.0117 286.532 25.918 285.735 25.918H283.195Z" fill="#F1F6FC"/>
<path d="M5.73047 62.0566H9.35156V63.252H5.73047V66.9785H4.52637V63.252H0.905273V62.0566H4.52637V58.3125H5.73047V62.0566ZM15.8394 69L21.1128 57.4863H14.1079V56.1504H22.6772V57.2754L17.439 69H15.8394ZM27.3018 64.0693C27.3018 63.0791 27.3955 62.1152 27.583 61.1777C27.7764 60.2402 28.0693 59.3467 28.4619 58.4971C28.8545 57.6475 29.3496 56.8652 29.9473 56.1504H31.3447C30.4951 57.2637 29.8564 58.5 29.4287 59.8594C29.001 61.2188 28.7871 62.6162 28.7871 64.0518C28.7871 64.9893 28.8809 65.915 29.0684 66.8291C29.2617 67.7373 29.5459 68.6133 29.9209 69.457C30.3018 70.3008 30.7705 71.0977 31.3271 71.8477H29.9473C29.3496 71.1445 28.8545 70.377 28.4619 69.5449C28.0693 68.7188 27.7764 67.8428 27.583 66.917C27.3955 65.9912 27.3018 65.042 27.3018 64.0693ZM44.2046 61.626C44.2046 62.4053 44.1489 63.1641 44.0376 63.9023C43.9321 64.6406 43.7476 65.3291 43.4839 65.9678C43.2261 66.6064 42.8745 67.166 42.4292 67.6465C41.9839 68.127 41.4243 68.5049 40.7505 68.7803C40.0825 69.0498 39.2827 69.1846 38.3511 69.1846C38.0991 69.1846 37.812 69.167 37.4897 69.1318C37.1675 69.1025 36.9038 69.0586 36.6987 69V67.7344C36.9155 67.8105 37.1704 67.8721 37.4634 67.9189C37.7563 67.96 38.0434 67.9805 38.3247 67.9805C39.4204 67.9805 40.2817 67.7461 40.9087 67.2773C41.5356 66.8027 41.9868 66.1611 42.2622 65.3525C42.5376 64.5381 42.6929 63.624 42.728 62.6104H42.6226C42.4468 62.8916 42.2153 63.1523 41.9282 63.3926C41.647 63.627 41.3042 63.8174 40.8999 63.9639C40.4956 64.1045 40.0239 64.1748 39.4849 64.1748C38.7407 64.1748 38.0903 64.0225 37.5337 63.7178C36.9829 63.4131 36.5522 62.9707 36.2417 62.3906C35.937 61.8105 35.7847 61.1104 35.7847 60.29C35.7847 59.4053 35.9517 58.6406 36.2856 57.9961C36.6255 57.3457 37.1001 56.8447 37.7095 56.4932C38.3188 56.1416 39.0366 55.9658 39.8628 55.9658C40.4956 55.9658 41.0757 56.0859 41.603 56.3262C42.1304 56.5664 42.5874 56.9268 42.9741 57.4072C43.3667 57.8818 43.6684 58.4707 43.8794 59.1738C44.0962 59.877 44.2046 60.6943 44.2046 61.626ZM39.8628 57.2051C39.0835 57.2051 38.4507 57.46 37.9643 57.9697C37.4839 58.4795 37.2436 59.2471 37.2436 60.2725C37.2436 61.1221 37.4517 61.793 37.8677 62.2852C38.2837 62.7773 38.9253 63.0234 39.7925 63.0234C40.3901 63.0234 40.9058 62.9033 41.3393 62.6631C41.7788 62.4229 42.1157 62.1182 42.3501 61.749C42.5903 61.3799 42.7104 61.002 42.7104 60.6152C42.7104 60.2285 42.6518 59.8359 42.5347 59.4375C42.4233 59.0391 42.2505 58.6729 42.0161 58.3389C41.7817 57.999 41.4858 57.7266 41.1284 57.5215C40.771 57.3105 40.3491 57.2051 39.8628 57.2051ZM57.4775 69H49.0576V67.7783L52.4941 64.2891C53.1328 63.6445 53.6689 63.0703 54.1025 62.5664C54.542 62.0625 54.876 61.5674 55.1045 61.0811C55.333 60.5889 55.4473 60.0498 55.4473 59.4639C55.4473 58.7373 55.2305 58.1836 54.7969 57.8027C54.3691 57.416 53.8037 57.2227 53.1006 57.2227C52.4853 57.2227 51.9404 57.3281 51.4658 57.5391C50.9912 57.75 50.5049 58.0488 50.0068 58.4355L49.2246 57.4512C49.5644 57.1641 49.9336 56.9092 50.332 56.6865C50.7363 56.4639 51.167 56.2881 51.624 56.1592C52.0869 56.0303 52.5791 55.9658 53.1006 55.9658C53.8916 55.9658 54.5742 56.1035 55.1484 56.3789C55.7226 56.6543 56.165 57.0469 56.4756 57.5566C56.792 58.0664 56.9502 58.6729 56.9502 59.376C56.9502 60.0557 56.8154 60.6885 56.5459 61.2744C56.2764 61.8545 55.8984 62.4316 55.4121 63.0059C54.9258 63.5742 54.3574 64.1777 53.707 64.8164L50.9121 67.6025V67.6641H57.4775V69ZM70.7681 69H62.3481V67.7783L65.7847 64.2891C66.4233 63.6445 66.9595 63.0703 67.3931 62.5664C67.8325 62.0625 68.1665 61.5674 68.395 61.0811C68.6235 60.5889 68.7378 60.0498 68.7378 59.4639C68.7378 58.7373 68.521 58.1836 68.0874 57.8027C67.6597 57.416 67.0942 57.2227 66.3911 57.2227C65.7759 57.2227 65.2309 57.3281 64.7563 57.5391C64.2817 57.75 63.7954 58.0488 63.2974 58.4355L62.5151 57.4512C62.855 57.1641 63.2241 56.9092 63.6225 56.6865C64.0268 56.4639 64.4575 56.2881 64.9145 56.1592C65.3774 56.0303 65.8696 55.9658 66.3911 55.9658C67.1821 55.9658 67.8647 56.1035 68.439 56.3789C69.0132 56.6543 69.4556 57.0469 69.7661 57.5566C70.0825 58.0664 70.2407 58.6729 70.2407 59.376C70.2407 60.0557 70.1059 60.6885 69.8364 61.2744C69.5669 61.8545 69.189 62.4316 68.7026 63.0059C68.2163 63.5742 67.6479 64.1777 66.9975 64.8164L64.2026 67.6025V67.6641H70.7681V69ZM79.3389 64.0518C79.3389 65.0303 79.2422 65.9854 79.0488 66.917C78.8613 67.8428 78.5713 68.7217 78.1787 69.5537C77.792 70.3857 77.2969 71.1504 76.6933 71.8477H75.3135C75.876 71.1035 76.3447 70.3066 76.7197 69.457C77.1006 68.6074 77.3848 67.7285 77.5723 66.8203C77.7656 65.9062 77.8623 64.9805 77.8623 64.043C77.8623 63.0879 77.7656 62.1475 77.5723 61.2217C77.3789 60.2959 77.0918 59.4053 76.7109 58.5498C76.3359 57.6943 75.8642 56.8945 75.2959 56.1504H76.6933C77.2969 56.8711 77.792 57.6562 78.1787 58.5059C78.5713 59.3496 78.8613 60.2402 79.0488 61.1777C79.2422 62.1094 79.3389 63.0674 79.3389 64.0518ZM91.8823 59.1475C91.8823 59.7217 91.771 60.2197 91.5483 60.6416C91.3257 61.0635 91.0151 61.4092 90.6167 61.6787C90.2182 61.9424 89.7495 62.127 89.2104 62.2324V62.3027C90.23 62.4316 90.9946 62.7598 91.5044 63.2871C92.02 63.8145 92.2778 64.5059 92.2778 65.3613C92.2778 66.1055 92.102 66.7646 91.7505 67.3389C91.4048 67.9131 90.8716 68.3643 90.1509 68.6924C89.436 69.0146 88.519 69.1758 87.3999 69.1758C86.7202 69.1758 86.0903 69.1201 85.5102 69.0088C84.936 68.9033 84.3852 68.7246 83.8579 68.4727V67.1016C84.3911 67.3652 84.9712 67.5732 85.5981 67.7256C86.2251 67.8721 86.8315 67.9453 87.4175 67.9453C88.5893 67.9453 89.436 67.7139 89.9575 67.251C90.479 66.7822 90.7397 66.1436 90.7397 65.335C90.7397 64.7783 90.5932 64.3301 90.3003 63.9902C90.0132 63.6445 89.5972 63.3926 89.0522 63.2344C88.5132 63.0703 87.8628 62.9883 87.1011 62.9883H85.8179V61.7402H87.1098C87.8071 61.7402 88.3989 61.6377 88.8852 61.4326C89.3716 61.2275 89.7407 60.9404 89.9927 60.5713C90.2505 60.1963 90.3794 59.7539 90.3794 59.2441C90.3794 58.5938 90.1626 58.0928 89.729 57.7412C89.2954 57.3838 88.7065 57.2051 87.9624 57.2051C87.5054 57.2051 87.0893 57.252 86.7143 57.3457C86.3393 57.4395 85.9878 57.5684 85.6597 57.7324C85.3315 57.8965 85.0034 58.0869 84.6753 58.3037L83.937 57.3018C84.4057 56.9385 84.977 56.625 85.6509 56.3613C86.3247 56.0977 87.0893 55.9658 87.9448 55.9658C89.2573 55.9658 90.2417 56.2646 90.8979 56.8623C91.5542 57.46 91.8823 58.2217 91.8823 59.1475ZM105.647 69H97.2275V67.7783L100.664 64.2891C101.303 63.6445 101.839 63.0703 102.272 62.5664C102.712 62.0625 103.046 61.5674 103.274 61.0811C103.503 60.5889 103.617 60.0498 103.617 59.4639C103.617 58.7373 103.4 58.1836 102.967 57.8027C102.539 57.416 101.974 57.2227 101.27 57.2227C100.655 57.2227 100.11 57.3281 99.6357 57.5391C99.1611 57.75 98.6748 58.0488 98.1767 58.4355L97.3945 57.4512C97.7344 57.1641 98.1035 56.9092 98.5019 56.6865C98.9062 56.4639 99.3369 56.2881 99.7939 56.1592C100.257 56.0303 100.749 55.9658 101.27 55.9658C102.062 55.9658 102.744 56.1035 103.318 56.3789C103.893 56.6543 104.335 57.0469 104.645 57.5566C104.962 58.0664 105.12 58.6729 105.12 59.376C105.12 60.0557 104.985 60.6885 104.716 61.2744C104.446 61.8545 104.068 62.4316 103.582 63.0059C103.096 63.5742 102.527 64.1777 101.877 64.8164L99.082 67.6025V67.6641H105.647V69ZM114.579 61.1426C115.452 61.1426 116.21 61.292 116.855 61.5908C117.499 61.8838 117.998 62.3115 118.349 62.874C118.707 63.4365 118.885 64.1191 118.885 64.9219C118.885 65.8008 118.695 66.5596 118.314 67.1982C117.933 67.8311 117.385 68.3203 116.67 68.666C115.956 69.0059 115.1 69.1758 114.104 69.1758C113.436 69.1758 112.815 69.1172 112.241 69C111.666 68.8828 111.183 68.707 110.791 68.4727V67.084C111.218 67.3418 111.737 67.5469 112.346 67.6992C112.956 67.8516 113.547 67.9277 114.122 67.9277C114.772 67.9277 115.34 67.8252 115.827 67.6201C116.319 67.4092 116.7 67.0928 116.969 66.6709C117.245 66.2432 117.382 65.707 117.382 65.0625C117.382 64.207 117.119 63.5479 116.591 63.085C116.07 62.6162 115.244 62.3818 114.113 62.3818C113.749 62.3818 113.351 62.4111 112.917 62.4697C112.484 62.5283 112.126 62.5928 111.845 62.6631L111.107 62.1797L111.599 56.1504H117.989V57.4863H112.847L112.522 61.3623C112.745 61.3154 113.032 61.2686 113.383 61.2217C113.735 61.1689 114.133 61.1426 114.579 61.1426ZM123.642 64.8164V63.5156H128.001V64.8164H123.642ZM134.26 69L139.534 57.4863H132.529V56.1504H141.098V57.2754L135.86 69H134.26ZM151.321 69H149.897V59.8945C149.897 59.5488 149.897 59.2529 149.897 59.0068C149.903 58.7549 149.909 58.5264 149.915 58.3213C149.927 58.1104 149.941 57.8965 149.959 57.6797C149.777 57.8672 149.607 58.0283 149.449 58.1631C149.291 58.292 149.095 58.4531 148.86 58.6465L147.393 59.8242L146.628 58.8311L150.108 56.1504H151.321V69ZM159.013 64.8164V63.5156H163.373V64.8164H159.013ZM176.408 61.626C176.408 62.4053 176.353 63.1641 176.241 63.9023C176.136 64.6406 175.951 65.3291 175.687 65.9678C175.43 66.6064 175.078 67.166 174.633 67.6465C174.187 68.127 173.628 68.5049 172.954 68.7803C172.286 69.0498 171.486 69.1846 170.555 69.1846C170.303 69.1846 170.016 69.167 169.693 69.1318C169.371 69.1025 169.107 69.0586 168.902 69V67.7344C169.119 67.8105 169.374 67.8721 169.667 67.9189C169.96 67.96 170.247 67.9805 170.528 67.9805C171.624 67.9805 172.485 67.7461 173.112 67.2773C173.739 66.8027 174.19 66.1611 174.466 65.3525C174.741 64.5381 174.896 63.624 174.932 62.6104H174.826C174.65 62.8916 174.419 63.1523 174.132 63.3926C173.851 63.627 173.508 63.8174 173.103 63.9639C172.699 64.1045 172.228 64.1748 171.688 64.1748C170.944 64.1748 170.294 64.0225 169.737 63.7178C169.186 63.4131 168.756 62.9707 168.445 62.3906C168.141 61.8105 167.988 61.1104 167.988 60.29C167.988 59.4053 168.155 58.6406 168.489 57.9961C168.829 57.3457 169.304 56.8447 169.913 56.4932C170.522 56.1416 171.24 55.9658 172.066 55.9658C172.699 55.9658 173.279 56.0859 173.807 56.3262C174.334 56.5664 174.791 56.9268 175.178 57.4072C175.57 57.8818 175.872 58.4707 176.083 59.1738C176.3 59.877 176.408 60.6943 176.408 61.626ZM172.066 57.2051C171.287 57.2051 170.654 57.46 170.168 57.9697C169.687 58.4795 169.447 59.2471 169.447 60.2725C169.447 61.1221 169.655 61.793 170.071 62.2852C170.487 62.7773 171.129 63.0234 171.996 63.0234C172.594 63.0234 173.109 62.9033 173.543 62.6631C173.982 62.4229 174.319 62.1182 174.554 61.749C174.794 61.3799 174.914 61.002 174.914 60.6152C174.914 60.2285 174.855 59.8359 174.738 59.4375C174.627 59.0391 174.454 58.6729 174.22 58.3389C173.985 57.999 173.689 57.7266 173.332 57.5215C172.975 57.3105 172.553 57.2051 172.066 57.2051ZM190.323 66.0205H188.398V69H186.974V66.0205H180.76V64.79L186.877 56.0801H188.398V64.7021H190.323V66.0205ZM186.974 64.7021V60.501C186.974 60.1787 186.977 59.8887 186.983 59.6309C186.989 59.3672 186.998 59.124 187.009 58.9014C187.021 58.6729 187.03 58.4561 187.036 58.251C187.047 58.0459 187.056 57.8438 187.062 57.6445H186.992C186.88 57.8789 186.751 58.1279 186.605 58.3916C186.464 58.6494 186.321 58.8809 186.174 59.0859L182.21 64.7021H186.974Z" fill="#F1F6FC"/>
<path d="M1.75781 106V93.1504H3.25195V106H1.75781ZM19.8208 106H18.0981L11.0933 95.207H11.0229C11.0405 95.4941 11.061 95.8223 11.0845 96.1914C11.1079 96.5547 11.1255 96.9443 11.1372 97.3604C11.1548 97.7705 11.1636 98.1895 11.1636 98.6172V106H9.7749V93.1504H11.4888L18.4673 103.908H18.5288C18.5171 103.703 18.5024 103.413 18.4849 103.038C18.4673 102.657 18.4497 102.25 18.4321 101.816C18.4204 101.377 18.4145 100.97 18.4145 100.595V93.1504H19.8208V106ZM27.8115 106H26.3174V93.1504H33.4717V94.4688H27.8115V99.1797H33.1289V100.489H27.8115V106ZM49.7505 99.5576C49.7505 100.548 49.6245 101.45 49.3726 102.265C49.1206 103.073 48.7456 103.771 48.2476 104.356C47.7554 104.937 47.1431 105.385 46.4106 105.701C45.6782 106.018 44.8286 106.176 43.8618 106.176C42.8657 106.176 41.9956 106.018 41.2515 105.701C40.5132 105.385 39.8979 104.934 39.4058 104.348C38.9194 103.762 38.5532 103.062 38.3071 102.247C38.0669 101.433 37.9468 100.53 37.9468 99.54C37.9468 98.2275 38.1636 97.0762 38.5972 96.0859C39.0308 95.0957 39.687 94.3252 40.5659 93.7744C41.4507 93.2236 42.5581 92.9482 43.8882 92.9482C45.1597 92.9482 46.229 93.2207 47.0962 93.7656C47.9692 94.3105 48.6284 95.0781 49.0737 96.0684C49.5249 97.0527 49.7505 98.2158 49.7505 99.5576ZM39.52 99.5576C39.52 100.647 39.6753 101.591 39.9858 102.388C40.2964 103.185 40.771 103.8 41.4097 104.233C42.0542 104.667 42.8716 104.884 43.8618 104.884C44.8579 104.884 45.6724 104.667 46.3052 104.233C46.9438 103.8 47.4155 103.185 47.7202 102.388C48.0249 101.591 48.1772 100.647 48.1772 99.5576C48.1772 97.8994 47.8286 96.6045 47.1313 95.6729C46.4399 94.7354 45.3589 94.2666 43.8882 94.2666C42.8921 94.2666 42.0718 94.4805 41.4272 94.9082C40.7827 95.3359 40.3022 95.9453 39.9858 96.7363C39.6753 97.5215 39.52 98.4619 39.52 99.5576ZM68.956 99.584C68.956 100.141 68.8916 100.686 68.7627 101.219C68.6396 101.746 68.4492 102.224 68.1914 102.651C67.9336 103.073 67.6113 103.41 67.2246 103.662C66.8437 103.914 66.3926 104.04 65.8711 104.04C65.3262 104.04 64.8926 103.882 64.5703 103.565C64.248 103.249 64.0547 102.874 63.9902 102.44H63.9111C63.6885 102.903 63.3603 103.287 62.9268 103.592C62.499 103.891 61.9717 104.04 61.3447 104.04C60.4307 104.04 59.7246 103.738 59.2266 103.135C58.7344 102.525 58.4883 101.717 58.4883 100.709C58.4883 99.9238 58.6435 99.2295 58.9541 98.626C59.2705 98.0166 59.7129 97.5391 60.2812 97.1934C60.8555 96.8418 61.5322 96.666 62.3115 96.666C62.833 96.666 63.3398 96.71 63.832 96.7979C64.3242 96.8857 64.7168 96.9824 65.0098 97.0879L64.834 100.63C64.8281 100.847 64.8223 101.014 64.8164 101.131C64.8105 101.242 64.8076 101.33 64.8076 101.395C64.8076 102.027 64.9189 102.455 65.1416 102.678C65.3701 102.895 65.6455 103.003 65.9678 103.003C66.3603 103.003 66.6885 102.851 66.9521 102.546C67.2217 102.235 67.4268 101.822 67.5674 101.307C67.708 100.785 67.7783 100.208 67.7783 99.5752C67.7783 98.4561 67.5527 97.501 67.1016 96.71C66.6504 95.9189 66.0264 95.3154 65.2295 94.8994C64.4385 94.4834 63.5273 94.2754 62.4961 94.2754C61.4707 94.2754 60.5596 94.4365 59.7627 94.7588C58.9717 95.0811 58.3008 95.5381 57.75 96.1299C57.2051 96.7158 56.792 97.4131 56.5107 98.2217C56.2295 99.0303 56.0889 99.9238 56.0889 100.902C56.0889 102.098 56.2998 103.114 56.7217 103.952C57.1494 104.79 57.7734 105.429 58.5937 105.868C59.4199 106.302 60.4248 106.519 61.6084 106.519C62.3232 106.519 63.0117 106.439 63.6738 106.281C64.3359 106.123 64.9277 105.944 65.4492 105.745V106.888C64.9336 107.104 64.3564 107.28 63.7178 107.415C63.0791 107.556 62.376 107.626 61.6084 107.626C60.1963 107.626 58.9893 107.359 57.9873 106.826C56.9853 106.299 56.2178 105.537 55.6846 104.541C55.1514 103.545 54.8848 102.35 54.8848 100.955C54.8848 99.8242 55.0576 98.7842 55.4033 97.835C55.7549 96.8857 56.2588 96.0625 56.915 95.3652C57.5771 94.668 58.3769 94.1289 59.3144 93.748C60.2578 93.3613 61.3184 93.168 62.4961 93.168C63.7559 93.168 64.8691 93.4287 65.8359 93.9502C66.8086 94.4658 67.5703 95.2041 68.1211 96.165C68.6777 97.1201 68.956 98.2598 68.956 99.584ZM59.7978 100.744C59.7978 101.523 59.9531 102.095 60.2637 102.458C60.5742 102.821 61.0049 103.003 61.5557 103.003C62.2353 103.003 62.7334 102.748 63.0498 102.238C63.3721 101.729 63.5566 101.055 63.6035 100.217L63.709 97.9229C63.5391 97.8701 63.331 97.8262 63.085 97.791C62.8447 97.75 62.5928 97.7295 62.3291 97.7295C61.7256 97.7295 61.2363 97.873 60.8613 98.1602C60.4922 98.4473 60.2226 98.8193 60.0527 99.2764C59.8828 99.7334 59.7978 100.223 59.7978 100.744ZM78.2036 93.1504C79.2583 93.1504 80.1284 93.2822 80.814 93.5459C81.5054 93.8037 82.021 94.1992 82.3608 94.7324C82.7007 95.2656 82.8706 95.9453 82.8706 96.7715C82.8706 97.4512 82.7476 98.0195 82.5015 98.4766C82.2554 98.9277 81.9331 99.2939 81.5347 99.5752C81.1362 99.8564 80.7114 100.073 80.2602 100.226L83.7847 106H82.0444L78.8979 100.639H76.2261V106H74.7319V93.1504H78.2036ZM78.1157 94.4424H76.2261V99.373H78.2651C79.314 99.373 80.0845 99.1592 80.5767 98.7314C81.0747 98.3037 81.3237 97.6738 81.3237 96.8418C81.3237 95.9688 81.0601 95.3506 80.5327 94.9873C80.0112 94.624 79.2056 94.4424 78.1157 94.4424ZM88.831 106V93.1504H90.3252V106H88.831ZM102.341 99.2676H106.833V105.499C106.159 105.728 105.464 105.897 104.749 106.009C104.041 106.12 103.247 106.176 102.368 106.176C101.032 106.176 99.9038 105.909 98.9839 105.376C98.0698 104.843 97.3755 104.084 96.9009 103.1C96.4263 102.109 96.1889 100.935 96.1889 99.5752C96.1889 98.2451 96.4497 97.085 96.9712 96.0947C97.4985 95.1045 98.2573 94.3369 99.2475 93.792C100.244 93.2412 101.439 92.9658 102.833 92.9658C103.548 92.9658 104.225 93.0332 104.864 93.168C105.508 93.2969 106.106 93.4814 106.657 93.7217L106.085 95.0225C105.611 94.8174 105.086 94.6416 104.512 94.4951C103.944 94.3486 103.355 94.2754 102.746 94.2754C101.697 94.2754 100.797 94.4922 100.047 94.9258C99.3032 95.3594 98.7319 95.9717 98.3335 96.7627C97.9409 97.5537 97.7446 98.4912 97.7446 99.5752C97.7446 100.647 97.9175 101.582 98.2632 102.379C98.6089 103.17 99.1479 103.785 99.8804 104.225C100.613 104.664 101.556 104.884 102.71 104.884C103.291 104.884 103.789 104.852 104.205 104.787C104.621 104.717 104.999 104.635 105.338 104.541V100.604H102.341V99.2676ZM112.934 106V93.1504H114.428V106H112.934ZM130.997 106H129.274L122.269 95.207H122.199C122.216 95.4941 122.237 95.8223 122.26 96.1914C122.284 96.5547 122.301 96.9443 122.313 97.3604C122.331 97.7705 122.339 98.1895 122.339 98.6172V106H120.951V93.1504H122.665L129.643 103.908H129.705C129.693 103.703 129.678 103.413 129.661 103.038C129.643 102.657 129.625 102.25 129.608 101.816C129.596 101.377 129.59 100.97 129.59 100.595V93.1504H130.997V106ZM141.439 106H139.937V94.4688H135.894V93.1504H145.465V94.4688H141.439V106ZM157.551 106H150.397V93.1504H157.551V94.4688H151.891V98.626H157.226V99.9268H151.891V104.682H157.551V106ZM163.389 106V93.1504H164.883V104.664H170.587V106H163.389ZM179.14 93.1504C180.798 93.1504 182.008 93.4756 182.77 94.126C183.538 94.7705 183.921 95.6963 183.921 96.9033C183.921 97.4482 183.831 97.9668 183.649 98.459C183.473 98.9453 183.186 99.376 182.788 99.751C182.389 100.12 181.865 100.413 181.214 100.63C180.57 100.841 179.779 100.946 178.841 100.946H177.277V106H175.783V93.1504H179.14ZM178.999 94.4248H177.277V99.6631H178.674C179.495 99.6631 180.177 99.5752 180.722 99.3994C181.273 99.2236 181.686 98.9395 181.961 98.5469C182.237 98.1484 182.374 97.6211 182.374 96.9648C182.374 96.1094 182.102 95.4736 181.557 95.0576C181.012 94.6357 180.16 94.4248 178.999 94.4248ZM193.072 93.1504C194.127 93.1504 194.997 93.2822 195.683 93.5459C196.374 93.8037 196.89 94.1992 197.229 94.7324C197.569 95.2656 197.739 95.9453 197.739 96.7715C197.739 97.4512 197.616 98.0195 197.37 98.4766C197.124 98.9277 196.802 99.2939 196.403 99.5752C196.005 99.8564 195.58 100.073 195.129 100.226L198.653 106H196.913L193.767 100.639H191.095V106H189.601V93.1504H193.072ZM192.984 94.4424H191.095V99.373H193.134C194.183 99.373 194.953 99.1592 195.445 98.7314C195.943 98.3037 196.192 97.6738 196.192 96.8418C196.192 95.9688 195.929 95.3506 195.401 94.9873C194.88 94.624 194.074 94.4424 192.984 94.4424ZM214.844 99.5576C214.844 100.548 214.718 101.45 214.466 102.265C214.214 103.073 213.839 103.771 213.341 104.356C212.849 104.937 212.237 105.385 211.504 105.701C210.772 106.018 209.922 106.176 208.956 106.176C207.959 106.176 207.089 106.018 206.345 105.701C205.607 105.385 204.992 104.934 204.499 104.348C204.013 103.762 203.647 103.062 203.401 102.247C203.161 101.433 203.04 100.53 203.04 99.54C203.04 98.2275 203.257 97.0762 203.691 96.0859C204.124 95.0957 204.781 94.3252 205.66 93.7744C206.544 93.2236 207.652 92.9482 208.982 92.9482C210.253 92.9482 211.323 93.2207 212.19 93.7656C213.063 94.3105 213.722 95.0781 214.167 96.0684C214.619 97.0527 214.844 98.2158 214.844 99.5576ZM204.614 99.5576C204.614 100.647 204.769 101.591 205.08 102.388C205.39 103.185 205.865 103.8 206.503 104.233C207.148 104.667 207.965 104.884 208.956 104.884C209.952 104.884 210.766 104.667 211.399 104.233C212.038 103.8 212.509 103.185 212.814 102.388C213.119 101.591 213.271 100.647 213.271 99.5576C213.271 97.8994 212.922 96.6045 212.225 95.6729C211.534 94.7354 210.453 94.2666 208.982 94.2666C207.986 94.2666 207.165 94.4805 206.521 94.9082C205.876 95.3359 205.396 95.9453 205.08 96.7363C204.769 97.5215 204.614 98.4619 204.614 99.5576ZM220.26 105.086C220.26 104.676 220.359 104.386 220.559 104.216C220.758 104.04 221.001 103.952 221.288 103.952C221.587 103.952 221.839 104.04 222.044 104.216C222.249 104.386 222.352 104.676 222.352 105.086C222.352 105.49 222.249 105.786 222.044 105.974C221.839 106.155 221.587 106.246 221.288 106.246C221.001 106.246 220.758 106.155 220.559 105.974C220.359 105.786 220.26 105.49 220.26 105.086ZM231.889 93.1504C232.944 93.1504 233.814 93.2822 234.499 93.5459C235.191 93.8037 235.707 94.1992 236.046 94.7324C236.386 95.2656 236.556 95.9453 236.556 96.7715C236.556 97.4512 236.433 98.0195 236.187 98.4766C235.941 98.9277 235.619 99.2939 235.22 99.5752C234.822 99.8564 234.397 100.073 233.946 100.226L237.47 106H235.73L232.583 100.639H229.912V106H228.417V93.1504H231.889ZM231.801 94.4424H229.912V99.373H231.951C232.999 99.373 233.77 99.1592 234.262 98.7314C234.76 98.3037 235.009 97.6738 235.009 96.8418C235.009 95.9688 234.746 95.3506 234.218 94.9873C233.697 94.624 232.891 94.4424 231.801 94.4424ZM252.237 93.1504V101.465C252.237 102.373 252.053 103.182 251.684 103.891C251.32 104.6 250.769 105.159 250.031 105.569C249.293 105.974 248.367 106.176 247.254 106.176C245.666 106.176 244.456 105.745 243.624 104.884C242.798 104.022 242.385 102.871 242.385 101.43V93.1504H243.888V101.474C243.888 102.563 244.175 103.404 244.749 103.996C245.329 104.588 246.193 104.884 247.342 104.884C248.127 104.884 248.769 104.743 249.267 104.462C249.77 104.175 250.143 103.776 250.383 103.267C250.629 102.751 250.752 102.156 250.752 101.482V93.1504H252.237Z" fill="#F1F6FC"/>
</svg>
