<?xml version="1.0" encoding="UTF-8"?>
<!DOCTYPE svg PUBLIC "-//W3C//DTD SVG 1.1//EN" "http://www.w3.org/Graphics/SVG/1.1/DTD/svg11.dtd">
<!-- Creator: CorelDRAW 2020 (64-Bit) -->
<svg xmlns="http://www.w3.org/2000/svg" xml:space="preserve" width="921px" height="398px" version="1.1" style="shape-rendering:geometricPrecision; text-rendering:geometricPrecision; image-rendering:optimizeQuality; fill-rule:evenodd; clip-rule:evenodd"
viewBox="0 0 34.44 14.89"
 xmlns:xlink="http://www.w3.org/1999/xlink"
 xmlns:xodm="http://www.corel.com/coreldraw/odm/2003">
 <defs>
  <style type="text/css">
   <![CDATA[
    .fil0 {fill:#C1D7ED;fill-rule:nonzero}
    .fil2 {fill:#025CB5;fill-rule:nonzero}
    .fil3 {fill:#025CB5;fill-rule:nonzero}
    .fil1 {fill:#0B2E75;fill-rule:nonzero}
   ]]>
  </style>
 </defs>
 <g id="Слой_x0020_1">
  <metadata id="CorelCorpID_0Corel-Layer"/>
  <g id="_2466699192976">
   <path class="fil0" d="M21.65 2.42l-4.61 -1.9 0.02 3.06c0.2,0.02 0.37,0.11 0.51,0.25 0.06,0.06 0.12,0.14 0.16,0.22l3.92 -1.63zm-4.72 -2.42l2.64 1.09 2.63 1.09 1.09 2.63 1.09 2.63 -1.09 2.63 -1.09 2.64 -2.63 1.09 -2.64 1.09 -2.63 -1.09 -2.63 -1.09 -1.09 -2.64 -1.09 -2.63 1.09 -2.63 1.09 -2.63 2.63 -1.09 2.63 -1.09zm-2.09 8.85c0.05,0 0.11,0.01 0.16,0.02l1.52 -3.68c-0.06,-0.04 -0.12,-0.08 -0.18,-0.14 -0.1,-0.1 -0.18,-0.23 -0.22,-0.37l-3 0.27c-0.01,0.2 -0.09,0.37 -0.22,0.5 -0.03,0.03 -0.05,0.05 -0.08,0.07l1.86 3.35c0.05,-0.02 0.1,-0.02 0.16,-0.02zm0.36 0.11c0.03,0.02 0.06,0.05 0.09,0.08 0.1,0.09 0.16,0.21 0.18,0.35l2.64 -0.03c0.04,-0.22 0.14,-0.41 0.29,-0.56 0.06,-0.07 0.14,-0.12 0.23,-0.17l-1.4 -3.37c-0.09,0.03 -0.18,0.05 -0.28,0.05 -0.08,0 -0.15,-0.01 -0.22,-0.03l-1.53 3.68zm0.27 0.65c-0.02,0.13 -0.09,0.25 -0.18,0.34 -0.03,0.03 -0.06,0.06 -0.1,0.09l1.78 4.3 1.64 -3.95c-0.08,-0.04 -0.15,-0.1 -0.21,-0.16 -0.17,-0.17 -0.28,-0.4 -0.3,-0.65l-2.63 0.03zm-0.48 0.51c-0.05,0.01 -0.1,0.02 -0.15,0.02 -0.14,0 -0.27,-0.04 -0.37,-0.11l-2.36 2.39 4.62 1.91 -1.74 -4.21zm-0.68 -0.25c-0.08,-0.1 -0.12,-0.23 -0.12,-0.38 0,-0.04 0,-0.09 0.02,-0.14l-4.17 -1.72 1.92 4.63 2.35 -2.39zm-0.02 -0.72c0.02,-0.04 0.05,-0.08 0.09,-0.11 0.03,-0.03 0.06,-0.06 0.1,-0.08l-1.85 -3.33c-0.08,0.03 -0.17,0.05 -0.27,0.05 -0.17,0 -0.33,-0.06 -0.45,-0.15l-1.86 1.86 4.24 1.76zm7.41 -4.67c0.05,0.02 0.11,0.06 0.15,0.1 0.09,0.09 0.14,0.21 0.14,0.35 0,0.09 -0.02,0.18 -0.07,0.26l1.8 1.81 -1.73 -4.18 -0.29 1.66zm0.06 0.86c-0.07,0.05 -0.16,0.08 -0.25,0.08 -0.05,0 -0.1,-0.01 -0.14,-0.02l-1.79 3.22c0.09,0.05 0.17,0.11 0.25,0.18 0.06,0.06 0.11,0.13 0.15,0.2l3.85 -1.59 -2.07 -2.07zm-0.58 -0.05c-0.01,0 -0.01,-0.01 -0.02,-0.02 -0.07,-0.07 -0.12,-0.17 -0.14,-0.28l-3.24 -0.3c-0.04,0.14 -0.11,0.26 -0.21,0.36 -0.05,0.05 -0.09,0.08 -0.14,0.12l1.4 3.38c0.09,-0.03 0.18,-0.04 0.28,-0.04 0.09,0 0.18,0.01 0.27,0.03l1.8 -3.25zm-0.14 -0.51c0.03,-0.08 0.07,-0.14 0.12,-0.2 0.08,-0.08 0.2,-0.13 0.32,-0.14l0.33 -1.85 -4.01 1.66c0.01,0.06 0.02,0.13 0.02,0.19 0,0.01 0,0.03 0,0.04l3.22 0.3zm-4.95 -0.32c0,-0.01 0,-0.01 0,-0.02 0,-0.06 0,-0.12 0.01,-0.17l-4.04 -1.68 0.28 1.57c0.01,0 0.01,0 0.02,0 0.21,0 0.4,0.08 0.54,0.22 0.1,0.1 0.17,0.22 0.2,0.36l2.99 -0.28zm0.08 -0.4c0.05,-0.09 0.1,-0.17 0.17,-0.23 0.13,-0.13 0.31,-0.22 0.5,-0.25l-0.01 -3.06 -4.61 1.9 3.95 1.64zm-4.42 1.31c-0.09,-0.13 -0.15,-0.28 -0.15,-0.45 0,-0.21 0.09,-0.4 0.22,-0.54 0.09,-0.09 0.19,-0.15 0.3,-0.19l-0.24 -1.38 -1.72 4.16 1.59 -1.6zm8.32 3.83c0.03,0.1 0.05,0.21 0.05,0.32 0,0.24 -0.09,0.47 -0.23,0.64l2.02 2.1 1.91 -4.61 -3.75 1.55zm-0.34 1.11c-0.17,0.14 -0.39,0.22 -0.62,0.22 -0.11,0 -0.21,-0.02 -0.3,-0.05l-1.58 3.81 4.53 -1.87 -2.03 -2.11z"/>
   <path class="fil1" d="M0.27 5.33l0.39 0 0 -0.93 -0.39 0 0 0.93zm3.12 -0.55c0,0.09 -0.18,0.16 -0.39,0.16l-1.56 0 0 -0.38 1.56 0c0.21,0 0.39,0.07 0.39,0.16l0 0.06zm0.39 0.55l0 -0.02 -0.54 -0.22c0.32,-0.05 0.54,-0.17 0.54,-0.31l0 -0.06c0,-0.18 -0.37,-0.32 -0.78,-0.32l-1.95 0 0 0.93 0.39 0 0 -0.23 1.28 0 0.5 0.23 0.56 0z"/>
   <path class="fil2" d="M2.76 6.3c0.3,0 0.55,0.25 0.55,0.55l0 1.1 -2.76 0 0 -1.1c0,-0.3 0.25,-0.55 0.55,-0.55l1.66 0zm1.1 0.55c-0.01,-0.61 -0.51,-1.1 -1.1,-1.1l-1.66 0c-0.61,0 -1.1,0.52 -1.1,1.1l0 2.76 0.55 0 0 -1.1 2.76 0 0 1.1 0.55 0 0 -2.76zm4.36 1.66c0,-0.62 -0.52,-1.11 -1.1,-1.11l-1.66 0c-0.3,0 -0.55,-0.25 -0.55,-0.55 0,-0.3 0.25,-0.55 0.55,-0.55l1.66 0c0.3,0 0.55,0.25 0.55,0.55l0.55 0c-0.01,-0.61 -0.51,-1.1 -1.1,-1.1l-1.66 0c-0.61,0 -1.1,0.52 -1.1,1.1 0,0.62 0.51,1.1 1.1,1.1l1.66 0c0.3,0 0.55,0.25 0.55,0.56 0,0.3 -0.25,0.55 -0.55,0.55l-1.66 0c-0.3,0 -0.55,-0.25 -0.55,-0.55l-0.55 0c0.02,0.62 0.5,1.1 1.1,1.1l1.66 0c0.62,0 1.1,-0.52 1.1,-1.1zm4.31 0c0,-0.62 -0.52,-1.11 -1.1,-1.11l-1.66 0c-0.3,0 -0.55,-0.25 -0.55,-0.55 0,-0.3 0.25,-0.55 0.55,-0.55l1.66 0c0.3,0 0.55,0.25 0.55,0.55l0.55 0c-0.02,-0.61 -0.51,-1.1 -1.1,-1.1l-1.66 0c-0.62,0 -1.1,0.52 -1.1,1.1 0,0.62 0.51,1.1 1.1,1.1l1.66 0c0.3,0 0.55,0.25 0.55,0.56 0,0.3 -0.25,0.55 -0.55,0.55l-1.66 0c-0.3,0 -0.55,-0.25 -0.55,-0.55l-0.55 0c0.01,0.62 0.5,1.1 1.1,1.1l1.66 0c0.61,0 1.1,-0.52 1.1,-1.1zm0.5 1.1l0.55 0 0 -3.86 -0.55 0 0 3.86zm4.91 -1.1c0,-0.62 -0.53,-1.11 -1.11,-1.11l-1.65 0c-0.3,0 -0.55,-0.25 -0.55,-0.55 0,-0.3 0.25,-0.55 0.55,-0.55l1.65 0c0.31,0 0.56,0.25 0.56,0.55l0.55 0c-0.02,-0.61 -0.51,-1.1 -1.11,-1.1l-1.65 0c-0.62,0 -1.11,0.52 -1.11,1.1 0,0.62 0.52,1.1 1.11,1.1l1.65 0c0.31,0 0.56,0.25 0.56,0.56 0,0.3 -0.25,0.55 -0.56,0.55l-1.65 0c-0.3,0 -0.55,-0.25 -0.55,-0.55l-0.56 0c0.02,0.62 0.51,1.1 1.11,1.1l1.65 0c0.62,0 1.11,-0.52 1.11,-1.1zm3.97 -2.21l0 -0.55 -3.86 0 0 0.55 1.65 0 0 3.31 0.56 0 0 -3.31 1.65 0zm2.87 0c0.31,0 0.55,0.25 0.55,0.55l0 1.1 -2.76 0 0 -1.1c0,-0.3 0.25,-0.55 0.56,-0.55l1.65 0zm1.11 0.55c-0.02,-0.61 -0.52,-1.1 -1.11,-1.1l-1.65 0c-0.62,0 -1.11,0.52 -1.11,1.1l0 2.76 0.55 0 0 -1.1 2.76 0 0 1.1 0.56 0 0 -2.76zm4.41 -1.1l-0.55 0 0 2.92 -2.76 -2.92 -0.55 0 0 3.86 0.55 0 0 -2.97 2.76 2.97 0.55 0 0 -3.86zm4.14 0.55l0 -0.55 -3.86 0 0 0.55 1.65 0 0 3.31 0.56 0 0 -3.31 1.65 0z"/>
   <polygon class="fil3" points="0.88,11.7 1.32,11.06 1.32,11.83 1.47,11.83 1.47,10.79 1.32,10.79 0.88,11.44 0.43,10.79 0.28,10.79 0.28,11.83 0.43,11.83 0.43,11.06 "/>
   <path id="1" class="fil3" d="M2.37 10.94c0.08,0 0.14,0.07 0.14,0.15l0 0.3 -0.74 0 0 -0.3c0,-0.08 0.07,-0.15 0.15,-0.15l0.45 0zm0.29 0.15c0,-0.17 -0.14,-0.3 -0.29,-0.3l-0.45 0c-0.17,0 -0.3,0.14 -0.3,0.3l0 0.74 0.15 0 0 -0.29 0.74 0 0 0.29 0.15 0 0 -0.74z"/>
   <polygon id="2" class="fil3" points="3.85,10.79 3.7,10.79 3.7,11.58 2.96,10.79 2.81,10.79 2.81,11.83 2.96,11.83 2.96,11.03 3.7,11.83 3.85,11.83 "/>
   <path id="3" class="fil3" d="M4.75 10.94c0.08,0 0.14,0.07 0.14,0.15l0 0.3 -0.74 0 0 -0.3c0,-0.08 0.07,-0.15 0.15,-0.15l0.45 0zm0.29 0.15c0,-0.17 -0.14,-0.3 -0.29,-0.3l-0.45 0c-0.17,0 -0.3,0.14 -0.3,0.3l0 0.74 0.15 0 0 -0.29 0.74 0 0 0.29 0.15 0 0 -0.74z"/>
   <path id="4" class="fil3" d="M5.62 11.39l0.45 0 0 0.15c0,0.08 -0.07,0.14 -0.15,0.14l-0.45 0c-0.08,0 -0.14,-0.06 -0.14,-0.14l0 -0.45c0,-0.08 0.06,-0.15 0.14,-0.15l0.45 0c0.08,0 0.15,0.07 0.15,0.15l0.15 0c-0.01,-0.17 -0.14,-0.3 -0.3,-0.3l-0.45 0c-0.16,0 -0.29,0.14 -0.29,0.3l0 0.45c0,0.16 0.13,0.29 0.29,0.29l0.45 0c0.17,0 0.3,-0.14 0.3,-0.29l0 -0.3 -0.6 0 0 0.15z"/>
   <polygon id="5" class="fil3" points="6.5,10.94 7.39,10.94 7.39,10.79 6.35,10.79 6.35,11.83 7.39,11.83 7.39,11.68 6.5,11.68 6.5,11.39 7.24,11.39 7.24,11.24 6.5,11.24 "/>
   <polygon id="6" class="fil3" points="8.11,11.7 8.55,11.06 8.55,11.83 8.7,11.83 8.7,10.79 8.55,10.79 8.11,11.44 7.66,10.79 7.51,10.79 7.51,11.83 7.66,11.83 7.66,11.06 "/>
   <polygon id="7" class="fil3" points="9,10.94 9.89,10.94 9.89,10.79 8.85,10.79 8.85,11.83 9.89,11.83 9.89,11.68 9,11.68 9,11.39 9.74,11.39 9.74,11.24 9,11.24 "/>
   <polygon id="8" class="fil3" points="11.05,10.79 10.9,10.79 10.9,11.58 10.16,10.79 10.01,10.79 10.01,11.83 10.16,11.83 10.16,11.03 10.9,11.83 11.05,11.83 "/>
   <polygon id="9" class="fil3" points="12.17,10.94 12.17,10.79 11.13,10.79 11.13,10.94 11.57,10.94 11.57,11.83 11.72,11.83 11.72,10.94 "/>
   <path id="10" class="fil3" d="M13.86 11.54c0,-0.17 -0.14,-0.3 -0.29,-0.3l-0.45 0c-0.08,0 -0.15,-0.07 -0.15,-0.15 0,-0.08 0.07,-0.15 0.15,-0.15l0.45 0c0.08,0 0.14,0.07 0.14,0.15l0.15 0c0,-0.17 -0.14,-0.3 -0.29,-0.3l-0.45 0c-0.17,0 -0.3,0.14 -0.3,0.3 0,0.17 0.14,0.3 0.3,0.3l0.45 0c0.08,0 0.14,0.06 0.14,0.15 0,0.08 -0.06,0.14 -0.14,0.14l-0.45 0c-0.08,0 -0.15,-0.06 -0.15,-0.14l-0.15 0c0.01,0.16 0.14,0.29 0.3,0.29l0.45 0c0.16,0 0.29,-0.14 0.29,-0.29z"/>
   <polygon id="11" class="fil3" points="14.96,11.01 14.96,10.79 14.82,10.79 14.82,10.95 14.44,11.36 14.07,10.95 14.07,10.79 13.92,10.79 13.92,11.01 14.37,11.51 14.37,11.83 14.52,11.83 14.52,11.51 "/>
   <path id="12" class="fil3" d="M16.06 11.54c0,-0.17 -0.14,-0.3 -0.29,-0.3l-0.45 0c-0.08,0 -0.15,-0.07 -0.15,-0.15 0,-0.08 0.07,-0.15 0.15,-0.15l0.45 0c0.08,0 0.15,0.07 0.15,0.15l0.14 0c0,-0.17 -0.13,-0.3 -0.29,-0.3l-0.45 0c-0.17,0 -0.3,0.14 -0.3,0.3 0,0.17 0.14,0.3 0.3,0.3l0.45 0c0.08,0 0.15,0.06 0.15,0.15 0,0.08 -0.07,0.14 -0.15,0.14l-0.45 0c-0.08,0 -0.15,-0.06 -0.15,-0.14l-0.15 0c0.01,0.16 0.14,0.29 0.3,0.29l0.45 0c0.16,0 0.29,-0.14 0.29,-0.29z"/>
   <polygon id="13" class="fil3" points="17.14,10.94 17.14,10.79 16.09,10.79 16.09,10.94 16.54,10.94 16.54,11.83 16.69,11.83 16.69,10.94 "/>
   <polygon id="14" class="fil3" points="17.36,10.94 18.25,10.94 18.25,10.79 17.21,10.79 17.21,11.83 18.25,11.83 18.25,11.68 17.36,11.68 17.36,11.39 18.1,11.39 18.1,11.24 17.36,11.24 "/>
   <polygon id="15" class="fil3" points="18.97,11.7 19.41,11.06 19.41,11.83 19.56,11.83 19.56,10.79 19.41,10.79 18.97,11.44 18.52,10.79 18.37,10.79 18.37,11.83 18.52,11.83 18.52,11.06 "/>
  </g>
 </g>
</svg>
