<svg width="253" height="62" viewBox="0 0 253 62" fill="none" xmlns="http://www.w3.org/2000/svg">
<path d="M44.654 8.92316L27.7486 1.90669L27.8031 13.1757C28.5284 13.2639 29.1797 13.5955 29.6708 14.0876C29.9066 14.324 30.1056 14.5974 30.2587 14.899L44.654 8.92316ZM27.3455 0L37.0128 4.01269L46.6801 8.02538L50.6846 17.7123L54.6892 27.4009L50.6846 37.0878L46.6801 46.7747L37.0128 50.7874L27.3455 54.8001L17.6764 50.7874L8.00914 46.7747L4.00457 37.0878L0 27.4009L4.00457 17.7123L8.00914 8.02538L17.6764 4.01269L27.3455 0V0ZM19.6373 32.5724C19.8468 32.5724 20.051 32.6007 20.2446 32.6518L25.8387 19.118C25.5923 18.9769 25.3652 18.8023 25.1663 18.603C24.7878 18.2238 24.5044 17.7511 24.3548 17.2219L13.3357 18.2397C13.2987 18.9558 12.9942 19.5996 12.5207 20.074C12.4326 20.1622 12.3376 20.2451 12.2373 20.3227L19.0565 32.6448C19.2431 32.5971 19.4384 32.5724 19.6373 32.5724ZM20.9734 32.9852C21.0984 33.0681 21.2128 33.1651 21.3184 33.2709C21.6634 33.6166 21.9028 34.0682 21.9838 34.5726L31.681 34.4491C31.8042 33.6554 32.1809 32.9446 32.7213 32.4014C32.9712 32.1527 33.2546 31.9392 33.5644 31.7699L28.4386 19.3703C28.1182 19.4779 27.775 19.5378 27.4177 19.5378C27.1272 19.5378 26.8473 19.499 26.5798 19.4249L20.9734 32.9852ZM21.9767 35.3751C21.8905 35.8637 21.6546 36.2994 21.3184 36.6363C21.2022 36.7527 21.0755 36.8568 20.9382 36.9467L27.4828 52.7788L33.487 38.2519C33.2071 38.0897 32.9501 37.8904 32.7213 37.6611C32.0982 37.0367 31.6968 36.1918 31.6423 35.2534L21.9767 35.3751ZM20.2024 37.266C20.0211 37.3101 19.8327 37.3348 19.6373 37.3348C19.1339 37.3348 18.6657 37.176 18.282 36.9079L9.63209 45.7111L26.6044 52.7541L20.2024 37.266ZM17.7099 36.3435C17.4282 35.9519 17.2628 35.4722 17.2628 34.9536C17.2628 34.7719 17.2821 34.5955 17.3209 34.4262L2.01373 28.0729L9.06881 45.1397L17.7099 36.3435ZM17.6271 33.6836C17.7222 33.5337 17.8331 33.3944 17.9581 33.2709C18.069 33.1598 18.1904 33.0593 18.3207 32.9711L11.5367 20.7125C11.2286 20.8289 10.8942 20.8942 10.5457 20.8942C9.92077 20.8942 9.34517 20.6878 8.8787 20.3404L2.04541 27.2157L17.6271 33.6836ZM44.8424 16.4882C45.0571 16.5781 45.2507 16.7104 45.4127 16.8727C45.7366 17.1972 45.9372 17.647 45.9372 18.1426C45.9372 18.4954 45.8369 18.8235 45.6626 19.1004L52.2741 25.7518L45.9179 10.3765L44.8424 16.4882ZM45.0941 19.6683C44.8177 19.8412 44.4921 19.94 44.1436 19.94C43.971 19.94 43.8038 19.917 43.6454 19.8712L37.0761 31.7399C37.4071 31.9163 37.7098 32.1385 37.9704 32.4014C38.1921 32.6236 38.3858 32.8741 38.546 33.1457L52.6649 27.2845L45.0941 19.6683ZM42.9448 19.4814C42.9219 19.4584 42.8973 19.4373 42.8762 19.4144C42.6033 19.1427 42.4185 18.7829 42.3657 18.3825L30.4646 17.2819C30.3097 17.7864 30.0334 18.2379 29.6708 18.603C29.5159 18.7582 29.3451 18.8976 29.1603 19.0175L34.3038 31.4612C34.6347 31.3642 34.985 31.3131 35.3458 31.3131C35.6856 31.3131 36.013 31.3589 36.3245 31.4436L42.9448 19.4814ZM42.4396 17.5817C42.5276 17.3119 42.679 17.0702 42.8762 16.8727C43.1789 16.5676 43.5926 16.3718 44.052 16.3488L45.2472 9.54755L30.5298 15.6557C30.5773 15.8779 30.6037 16.109 30.6037 16.3453C30.6037 16.3929 30.6037 16.4406 30.6002 16.4882L42.4396 17.5817ZM24.2334 16.4264C24.2334 16.4 24.2334 16.3718 24.2334 16.3453C24.2334 16.1284 24.2545 15.9167 24.2967 15.7121L9.45254 9.55108L10.4629 15.2976C10.4893 15.2958 10.5175 15.2958 10.5457 15.2958C11.3166 15.2958 12.0155 15.6098 12.5207 16.116C12.8797 16.4741 13.1403 16.9309 13.2617 17.4406L24.2334 16.4264ZM24.5537 14.9484C24.7086 14.6291 24.9163 14.3381 25.1663 14.0876C25.6504 13.6026 26.2893 13.2745 27.0022 13.181L26.9477 1.90316L10.0352 8.92316L24.5537 14.9484ZM8.3119 19.7742C7.96161 19.3068 7.7539 18.7247 7.7539 18.095C7.7539 17.3225 8.06546 16.6222 8.57066 16.116C8.87694 15.8109 9.25187 15.5745 9.67081 15.4369L8.77837 10.3624L2.45027 25.6689L8.3119 19.7742ZM38.8769 33.8777C38.9948 34.241 39.0582 34.6291 39.0582 35.0312C39.0582 35.9378 38.7343 36.7686 38.1974 37.4141L45.6239 45.1326L52.6385 28.1664L38.8769 33.8777ZM37.6201 37.9733C36.9917 38.4601 36.2031 38.7511 35.3458 38.7511C34.955 38.7511 34.5766 38.6894 34.221 38.5765L28.4175 52.6165L45.0642 45.7076L37.6201 37.9733Z" fill="#025CB5"/>
<path d="M82.4694 23.2859C82.4694 24.5453 81.2777 25.5771 79.8202 25.5771H69.227V18.7017H79.8202C81.2777 18.7017 82.4694 19.7318 82.4694 20.9929V23.2859ZM85.1168 20.9929C85.0376 18.4495 82.6542 16.4105 79.8202 16.4105H66.5796V32.4524H69.227V27.8683H79.8202C82.788 27.8683 85.1168 25.7147 85.1168 23.2859V20.9929ZM87.2361 32.4524H89.8835L103.126 23.076V32.4524H105.775V19.9823H103.126L89.8835 29.1294V19.9823H87.2361V32.4524ZM124.312 22.2752V19.9823H108.422V32.4524H111.072V22.2752H124.312ZM129.243 32.4524H131.892L145.134 19.924V32.3484H147.782V16.8303H145.134L131.892 29.1294V16.8303H129.243V32.4524ZM153.078 19.9346H150.431V32.3484H153.078L153.096 27.2915H166.338L166.321 32.4524H168.97V19.9734H166.321L166.338 25.0003H153.096L153.078 19.9346ZM188.831 22.2646V19.9734H170.294V22.2646H178.239V32.4524H180.887V22.2646H188.831ZM192.804 22.2646H208.695V19.9734H190.156V32.4524H208.695V30.1595H192.804L192.823 27.2915H206.064V25.0003H192.823L192.804 22.2646ZM216.109 19.9734C213.143 19.9734 210.813 21.6632 210.813 24.1378V32.4524H213.462V24.1378C213.462 22.8767 214.654 22.2646 216.109 22.2646H226.702V32.4524H229.352V19.9734H216.109Z" fill="#025CB5"/>
<path fill-rule="evenodd" clip-rule="evenodd" d="M55.3406 59.6982C55.6521 59.6982 55.9338 59.8216 56.1397 60.0227L67.7785 50.6709C67.6975 50.4893 67.6535 50.2882 67.6535 50.0765C67.6535 49.4874 67.9985 48.9794 68.4984 48.7431L67.9721 45.2825C67.2258 45.2119 66.6431 44.5822 66.6431 43.815C66.6431 43.0019 67.3015 42.3422 68.1129 42.3422C68.685 42.3422 69.1814 42.6703 69.4243 43.15L82.1456 42.1535C82.3217 41.6226 82.8216 41.238 83.4113 41.238C84.0749 41.238 84.6241 41.7231 84.7262 42.3581L95.6679 45.6829C95.983 45.1696 96.5498 44.8292 97.194 44.8292C97.8911 44.8292 98.4966 45.2278 98.7923 45.8099L109.053 43.307C109.1 42.7408 109.574 42.2963 110.151 42.2963C110.605 42.2963 110.996 42.5732 111.165 42.9683L123.059 43.3405C123.193 43.1553 123.411 43.0336 123.658 43.0336C124.013 43.0336 124.311 43.2858 124.378 43.6227L130.34 46.0727C130.531 45.8734 130.801 45.7499 131.1 45.7499C131.404 45.7499 131.677 45.8769 131.871 46.0832L144.024 42.9066C144.106 42.4039 144.541 42.0194 145.068 42.0194C145.516 42.0194 145.9 42.3016 146.053 42.6985L163.668 44.5752C163.839 44.3388 164.117 44.1836 164.432 44.1836C164.731 44.1836 164.999 44.3247 165.171 44.5434L183.11 44.0584C183.209 43.912 183.378 43.815 183.568 43.815C183.684 43.815 183.791 43.852 183.881 43.9138L204.951 44.898C205.08 44.6898 205.31 44.5523 205.574 44.5523C205.805 44.5523 206.009 44.6581 206.145 44.8239L222.506 43.1606C222.592 42.8484 222.878 42.6191 223.216 42.6191C223.622 42.6191 223.951 42.9489 223.951 43.3546C223.951 43.7621 223.622 44.0919 223.216 44.0919C222.902 44.0919 222.635 43.8961 222.529 43.6192L206.308 45.2684V45.2895C206.308 45.6952 205.979 46.025 205.574 46.025C205.189 46.025 204.874 45.7287 204.842 45.353L184.119 44.3847C184.11 44.681 183.865 44.9209 183.568 44.9209C183.334 44.9209 183.135 44.7745 183.054 44.5699L174.541 47.0798C174.555 47.1327 174.562 47.1874 174.562 47.2456C174.562 47.6142 174.265 47.9123 173.897 47.9123C173.529 47.9123 173.23 47.6142 173.23 47.2456C173.23 47.2174 173.232 47.1892 173.235 47.1609L165.27 45.5576C165.115 45.8628 164.798 46.0709 164.432 46.0709C164.054 46.0709 163.728 45.8487 163.578 45.5276L149.223 48.3215C149.239 48.3903 149.248 48.4609 149.248 48.535C149.248 49.0553 148.826 49.4786 148.306 49.4786C147.785 49.4786 147.365 49.0553 147.365 48.535C147.365 48.5014 147.366 48.4679 147.37 48.4362L135.705 47.5631L125.974 51.7257C125.992 51.8033 126.001 51.8827 126.001 51.9638C126.001 52.5494 125.527 53.0221 124.944 53.0221C124.36 53.0221 123.886 52.5494 123.886 51.9638C123.886 51.8421 123.908 51.7257 123.946 51.6164L116.036 48.886C115.939 49.1505 115.685 49.3393 115.388 49.3393C115.168 49.3393 114.973 49.237 114.846 49.0764L105.425 54.2638C105.509 54.4632 105.557 54.6819 105.557 54.9094C105.557 55.8248 104.816 56.5674 103.902 56.5674C102.989 56.5674 102.248 55.8248 102.248 54.9094C102.248 54.8159 102.256 54.7224 102.272 54.6325L90.8483 50.2106C90.674 50.5933 90.2903 50.8597 89.8432 50.8597C89.5968 50.8597 89.3679 50.7768 89.1849 50.6392L80.4945 59.2678C80.6265 59.4883 80.7005 59.7458 80.7005 60.021C80.7005 60.8341 80.0421 61.4937 79.2307 61.4937C78.4368 61.4937 77.789 60.8623 77.7626 60.0739L56.483 60.9681C56.4231 61.5484 55.9338 62 55.3406 62C54.7069 62 54.1929 61.4849 54.1929 60.8482C54.1929 60.2132 54.7069 59.6982 55.3406 59.6982ZM56.4002 60.4037C56.4143 60.439 56.4284 60.4743 56.439 60.5113L77.8172 59.6117C77.8894 59.3613 78.0267 59.139 78.208 58.9627L70.1953 51.0854C69.9277 51.3712 69.5458 51.5493 69.1233 51.5493C68.6885 51.5493 68.296 51.3606 68.0267 51.059L56.4002 60.4037ZM70.4558 50.6992L78.5899 58.6946C78.7836 58.5993 79.0018 58.5464 79.2307 58.5464C79.243 58.5464 79.2553 58.5482 79.2676 58.5482L81.4099 49.8719L70.5931 50.0236C70.5931 50.0413 70.5931 50.0589 70.5931 50.0765C70.5931 50.2988 70.5438 50.5087 70.4558 50.6992ZM68.4333 45.2543L68.942 48.6143C69.0019 48.6073 69.0617 48.6037 69.1233 48.6037C69.4067 48.6037 69.669 48.6831 69.8943 48.8225L82.1104 42.8608C82.0928 42.7831 82.084 42.702 82.0805 42.6209L69.5669 43.5998C69.5775 43.6703 69.5827 43.7427 69.5827 43.815C69.5827 44.5187 69.0916 45.1079 68.4333 45.2543ZM95.4795 46.1044L84.7191 42.8343C84.5959 43.4463 84.0573 43.9085 83.4113 43.9085C83.3919 43.9085 83.3725 43.9067 83.3549 43.9067L81.9978 49.4045L88.8346 49.3093C89.0053 48.9212 89.3926 48.6496 89.8432 48.6496C90.1372 48.6496 90.403 48.7643 90.6001 48.9512L95.4162 46.8382C95.4074 46.7676 95.4021 46.6953 95.4021 46.623C95.4021 46.4431 95.4302 46.2685 95.4795 46.1044ZM80.2006 58.9133L88.8821 50.2935C88.7941 50.1383 88.7431 49.9601 88.7413 49.7696L81.8834 49.8649L79.72 58.6311C79.8996 58.6946 80.0615 58.7916 80.2006 58.9133ZM70.5033 49.565L81.5225 49.4116L82.9061 43.8079C82.6491 43.7021 82.4326 43.5187 82.2865 43.2876L70.2675 49.1505C70.366 49.274 70.447 49.4133 70.5033 49.565ZM95.5288 47.2879L90.8642 49.3357C90.917 49.4645 90.9469 49.6056 90.9469 49.7538V49.7573L102.411 54.1933C102.677 53.6377 103.246 53.2532 103.902 53.2532C104.112 53.2532 104.312 53.292 104.497 53.3643L107.518 47.9141L98.9455 47.0057C98.7712 47.8136 98.053 48.4185 97.194 48.4185C96.4389 48.4185 95.7929 47.9511 95.5288 47.2879ZM132.156 46.8364L135.629 47.0974L144.087 43.4781C144.075 43.4446 144.062 43.4093 144.052 43.374L132.11 46.4942C132.14 46.593 132.158 46.6988 132.158 46.8082C132.158 46.817 132.156 46.8276 132.156 46.8364ZM149 47.8965L163.492 45.0761C163.492 45.0567 163.494 45.0391 163.496 45.0197L146.12 43.1677C146.099 43.4111 145.997 43.6315 145.84 43.8009L147.998 47.6425C148.095 47.609 148.199 47.5913 148.306 47.5913C148.581 47.5913 148.829 47.7095 149 47.8965ZM109.109 43.7638L98.9455 46.2455C98.9666 46.3425 98.9807 46.4448 98.9842 46.5489L107.759 47.4767L109.516 44.3053C109.329 44.173 109.185 43.9843 109.109 43.7638ZM109.94 44.4852L108.254 47.5296L114.842 48.2281C114.969 48.064 115.166 47.9582 115.388 47.9582C115.476 47.9582 115.56 47.9758 115.638 48.0058L122.779 43.792L111.253 43.4287C111.237 44.0266 110.75 44.5064 110.151 44.5064C110.079 44.5064 110.009 44.4993 109.94 44.4852ZM108.013 47.9652L104.897 53.5865C105.006 53.6694 105.105 53.7647 105.189 53.8705L114.636 48.6672L108.013 47.9652ZM123.042 44.1695L115.997 48.3268C116.009 48.3498 116.02 48.3727 116.029 48.3974L124.196 51.216C124.388 51.0237 124.652 50.9055 124.944 50.9055C125.122 50.9055 125.289 50.9496 125.437 51.0272L130.123 47.2086C130.072 47.0851 130.044 46.9493 130.044 46.8082C130.044 46.69 130.063 46.5754 130.098 46.4695L124.318 44.0937C124.198 44.3371 123.948 44.5064 123.658 44.5064C123.399 44.5064 123.172 44.3723 123.042 44.1695ZM130.385 47.586L125.856 51.2777L134.712 47.489L132.042 47.2897C131.867 47.6319 131.51 47.8665 131.1 47.8665C130.824 47.8665 130.574 47.7606 130.385 47.586ZM147.613 47.8947L145.46 44.0619C145.339 44.1113 145.207 44.1378 145.068 44.1378C144.793 44.1378 144.543 44.0337 144.356 43.8626L136.622 47.1715L147.539 47.9882C147.562 47.9547 147.586 47.9247 147.613 47.8947ZM181.455 44.5628L165.365 44.9967C165.37 45.0338 165.374 45.0726 165.374 45.1114L173.462 46.7394C173.578 46.6389 173.73 46.5771 173.897 46.5771C174.029 46.5771 174.154 46.6177 174.258 46.6847L181.455 44.5628Z" fill="#025CB5"/>
<path d="M244.442 17.325H241.631H241.621H241.605C241.453 17.325 241.309 17.2826 241.168 17.1962C241.029 17.1098 240.931 17.0004 240.869 16.8699L239.366 13.568C239.361 13.5522 239.35 13.5451 239.336 13.5451C239.32 13.5451 239.313 13.5575 239.313 13.5821V15.5841C239.239 15.4271 239.142 15.2772 239.065 15.122C239.015 15.0232 238.949 14.9315 238.903 14.8292C238.891 14.8045 238.892 14.7762 238.891 14.748C238.88 14.6193 238.892 14.4887 238.868 14.3618C238.838 14.2206 238.787 14.0848 238.727 13.9525C238.674 13.8344 238.607 13.7197 238.528 13.6139C238.479 13.5469 238.422 13.4887 238.364 13.4287V12.7761C238.364 12.5591 238.442 12.3739 238.595 12.224C238.75 12.0758 238.942 12 239.169 12C239.32 12 239.464 12.0441 239.602 12.1305C239.737 12.2152 239.836 12.3245 239.897 12.4568L241.401 15.7587C241.406 15.7781 241.416 15.7887 241.431 15.7887C241.446 15.7887 241.453 15.7763 241.453 15.7516V12.4498C241.453 12.3228 241.497 12.2152 241.587 12.1305C241.675 12.0441 241.79 12 241.932 12C242.07 12 242.182 12.0441 242.27 12.1341C242.358 12.2222 242.402 12.3281 242.402 12.4498V16.4501H244.442C244.731 16.4501 244.939 16.3901 245.064 16.2684C245.19 16.1467 245.254 15.9368 245.254 15.637C245.254 15.45 245.194 15.3177 245.073 15.2419C244.951 15.1661 244.715 15.092 244.367 15.0214C244.224 14.9914 244.108 14.965 244.016 14.9438C243.927 14.9244 243.812 14.8927 243.678 14.8486C243.545 14.8062 243.436 14.7604 243.349 14.7128C243.263 14.6651 243.171 14.6016 243.075 14.5223C242.98 14.4429 242.904 14.3582 242.848 14.263C242.791 14.1695 242.745 14.0548 242.707 13.9208C242.67 13.7867 242.65 13.6386 242.65 13.4763C242.65 12.4921 243.245 12 244.434 12H245.604C245.74 12 245.854 12.0459 245.946 12.1376C246.037 12.2293 246.081 12.3298 246.081 12.441C246.081 12.5538 246.035 12.6544 245.942 12.7461C245.847 12.8378 245.738 12.8837 245.611 12.8837H244.434C244.141 12.8837 243.927 12.9278 243.789 13.016C243.652 13.1042 243.583 13.2576 243.583 13.4763C243.583 13.5733 243.597 13.6545 243.626 13.7233C243.654 13.792 243.687 13.8485 243.724 13.8908C243.763 13.9349 243.83 13.9719 243.927 14.0055C244.022 14.0372 244.11 14.0637 244.187 14.0813C244.266 14.0989 244.388 14.1236 244.555 14.1536C244.819 14.1995 245.043 14.2542 245.224 14.3177C245.405 14.3812 245.576 14.4658 245.733 14.5752C245.889 14.6845 246.005 14.8274 246.081 15.002C246.159 15.1766 246.196 15.3883 246.196 15.637C246.196 16.7623 245.611 17.325 244.442 17.325ZM237 13.217C237.125 14.0178 237.264 15.0973 238.364 15.0532V16.877C238.364 17.004 238.41 17.1098 238.5 17.1962C238.591 17.2826 238.702 17.325 238.834 17.325C238.971 17.325 239.084 17.2826 239.176 17.1962C239.267 17.1098 239.313 17.004 239.313 16.877V16.5207C239.283 16.115 239.084 15.1872 238.762 14.8715C238.646 14.8415 238.544 14.7692 238.435 14.7216C238.34 14.6792 238.237 14.6493 238.148 14.5999V14.5981C238.067 14.5822 237.998 14.5681 237.877 14.5875C237.834 14.5946 237.794 14.6105 237.752 14.621C237.855 14.5452 237.908 14.5187 238.037 14.5346C237.644 14.2947 237.533 14.1095 237.343 13.6756C237.444 13.7938 237.537 13.9208 237.646 14.0319C237.745 14.1325 237.834 14.2118 237.917 14.2771C237.847 14.1413 237.847 14.0637 237.866 13.9014C237.875 13.9561 237.88 14.0108 237.894 14.0654C237.929 14.2048 237.97 14.2771 238.014 14.3512C238.142 14.4429 238.26 14.5064 238.384 14.5734C238.296 14.4517 238.294 14.3935 238.315 14.2595C238.324 14.3018 238.331 14.3441 238.343 14.3847C238.384 14.5046 238.429 14.5593 238.48 14.6263C238.568 14.6739 238.66 14.7251 238.762 14.7921C238.788 14.6739 238.781 14.5223 238.762 14.4094C238.732 14.2312 238.676 14.046 238.563 13.9067C238.442 13.7532 238.301 13.7056 238.12 13.6315C237.762 13.4869 237.53 13.6262 237 13.217ZM237.192 12.4498C237.209 12.5627 237.222 12.6791 237.246 12.792C237.294 13.016 237.516 13.2276 237.764 13.217C237.82 13.2153 237.885 13.1923 237.915 13.1447C237.949 13.0883 237.94 13.0124 237.929 12.9489C237.859 12.5309 237.489 12.5062 237.192 12.4498Z" fill="#7E9626"/>
<path d="M251.564 16.1503C250.735 21.4365 249.82 28.557 242.571 28.2572L240.632 27.9185C239.966 27.9591 239.482 28.3312 239.183 28.9609C238.732 29.9028 238.378 31.335 238.942 32.2575L237.416 32.2451C238.033 30.1339 238.887 28.1002 239.949 27.0613C240.711 26.862 241.385 26.3946 242.108 26.0771C242.733 25.8019 243.397 25.6026 243.994 25.2675L244.001 25.2639C244.525 25.1616 244.983 25.0682 245.782 25.1969C246.064 25.2428 246.328 25.3398 246.602 25.4121C245.923 24.9129 245.578 24.733 244.724 24.8406C247.313 23.2638 248.042 22.0344 249.304 19.1752C248.637 19.9584 248.026 20.7944 247.303 21.5264C246.652 22.1861 246.065 22.7099 245.52 23.1438C245.984 22.2461 245.981 21.7345 245.856 20.6639C245.793 21.0255 245.757 21.3924 245.668 21.7487C245.437 22.6623 245.173 23.1385 244.877 23.6289C244.029 24.2374 243.254 24.6572 242.434 25.0982C243.02 24.3009 243.029 23.9164 242.893 23.031C242.83 23.3079 242.793 23.5883 242.703 23.8599C242.443 24.6501 242.138 25.0117 241.795 25.4456C241.225 25.7578 240.619 26.1035 239.943 26.5462C239.765 25.7578 239.82 24.7577 239.943 24.0152C240.14 22.844 240.508 21.6252 241.251 20.6992C242.059 19.6938 242.981 19.371 244.177 18.8877C246.541 17.93 248.074 18.8578 251.564 16.1503ZM252.196 12.1641C251.726 12.9401 251.712 13.3105 251.557 14.0566C251.248 15.5382 249.783 16.9334 248.144 16.8629C247.775 16.847 247.34 16.6936 247.146 16.3796C245.696 14.0267 250.959 12.7302 252.196 12.1641Z" fill="#7E9626"/>
</svg>
