<svg width="336" height="84" viewBox="0 0 336 84" fill="none" xmlns="http://www.w3.org/2000/svg">
<path d="M60.4989 12.0894L37.5948 2.58325L37.6687 17.8509C38.6513 17.9704 39.5336 18.4197 40.199 19.0864C40.5186 19.4066 40.7881 19.777 40.9956 20.1857L60.4989 12.0894ZM37.0486 0L50.1462 5.43653L63.2438 10.8731L68.6694 23.9972L74.0949 37.1237L68.6694 50.2479L63.2438 63.372L50.1462 68.8086L37.0486 74.2451L23.9487 68.8086L10.8511 63.372L5.42553 50.2479L0 37.1237L5.42553 23.9972L10.8511 10.8731L23.9487 5.43653L37.0486 0ZM26.6054 44.1303C26.8892 44.1303 27.1658 44.1685 27.4282 44.2378L35.0072 25.9018C34.6733 25.7106 34.3657 25.474 34.0962 25.204C33.5834 24.6902 33.1995 24.0498 32.9968 23.3329L18.0676 24.7117C18.0175 25.6819 17.605 26.5542 16.9634 27.197C16.8442 27.3165 16.7154 27.4288 16.5795 27.5339L25.8184 44.2283C26.0712 44.1638 26.3359 44.1303 26.6054 44.1303ZM28.4155 44.6895C28.5848 44.8018 28.7398 44.9332 28.8829 45.0766C29.3503 45.545 29.6747 46.1568 29.7844 46.8402L42.9225 46.6729C43.0895 45.5976 43.5998 44.6345 44.332 43.8985C44.6706 43.5616 45.0546 43.2724 45.4743 43.043L38.5296 26.2435C38.0956 26.3893 37.6305 26.4705 37.1464 26.4705C36.7529 26.4705 36.3737 26.418 36.0112 26.3176L28.4155 44.6895ZM29.7748 47.9275C29.658 48.5895 29.3384 49.1797 28.8829 49.6361C28.7255 49.7939 28.5538 49.9348 28.3678 50.0567L37.2347 71.5065L45.3694 51.8251C44.9902 51.6052 44.642 51.3352 44.332 51.0245C43.4877 50.1786 42.944 49.0339 42.8701 47.7626L29.7748 47.9275ZM27.3709 50.4893C27.1253 50.549 26.8701 50.5825 26.6054 50.5825C25.9233 50.5825 25.2889 50.3674 24.769 50.0041L13.0499 61.9311L36.0446 71.4731L27.3709 50.4893ZM23.994 49.2394C23.6124 48.7089 23.3882 48.0589 23.3882 47.3564C23.3882 47.1102 23.4145 46.8713 23.4669 46.6419L2.72827 38.0342L12.2867 61.1568L23.994 49.2394ZM23.8819 45.6358C24.0107 45.4327 24.1609 45.2439 24.3302 45.0766C24.4805 44.9261 24.645 44.7899 24.8215 44.6704L15.6303 28.0621C15.213 28.2198 14.7598 28.3082 14.2876 28.3082C13.441 28.3082 12.6612 28.0286 12.0292 27.5578L2.77119 36.8728L23.8819 45.6358ZM60.754 22.3388C61.045 22.4606 61.3073 22.6399 61.5267 22.8597C61.9655 23.2994 62.2374 23.9088 62.2374 24.5803C62.2374 25.0582 62.1015 25.5027 61.8654 25.8779L70.8229 34.8894L62.2112 14.0585L60.754 22.3388ZM61.0951 26.6474C60.7206 26.8816 60.2795 27.0154 59.8073 27.0154C59.5735 27.0154 59.347 26.9843 59.1323 26.9222L50.2321 43.0024C50.6804 43.2413 51.0906 43.5424 51.4436 43.8985C51.7441 44.1996 52.0064 44.5389 52.2234 44.907L71.3523 36.966L61.0951 26.6474ZM58.1832 26.3941C58.1522 26.363 58.1188 26.3343 58.0902 26.3033C57.7205 25.9352 57.4701 25.4478 57.3986 24.9053L41.2746 23.4141C41.0647 24.0976 40.6903 24.7093 40.199 25.204C39.9892 25.4143 39.7578 25.6031 39.5074 25.7656L46.4759 42.6248C46.9243 42.4934 47.3989 42.4241 47.8878 42.4241C48.3481 42.4241 48.7916 42.4862 49.2138 42.6009L58.1832 26.3941ZM57.4987 23.8204C57.618 23.4548 57.8231 23.1274 58.0902 22.8597C58.5004 22.4463 59.0608 22.1811 59.6832 22.15L61.3025 12.9354L41.3628 21.2108C41.4272 21.5119 41.463 21.825 41.463 22.1452C41.463 22.2097 41.463 22.2742 41.4582 22.3388L57.4987 23.8204ZM32.8322 22.2551C32.8322 22.2193 32.8322 22.1811 32.8322 22.1452C32.8322 21.8513 32.8608 21.5645 32.9181 21.2873L12.8066 12.9401L14.1755 20.7257C14.2113 20.7233 14.2495 20.7233 14.2876 20.7233C15.3322 20.7233 16.279 21.1487 16.9634 21.8345C17.4499 22.3197 17.8029 22.9386 17.9675 23.6292L32.8322 22.2551ZM33.2663 20.2526C33.4761 19.82 33.7575 19.4257 34.0962 19.0864C34.752 18.4292 35.6177 17.9848 36.5836 17.8581L36.5097 2.57847L13.596 12.0894L33.2663 20.2526ZM11.2613 26.7908C10.7867 26.1575 10.5053 25.3689 10.5053 24.5158C10.5053 23.4691 10.9274 22.5204 11.6118 21.8345C12.0268 21.4211 12.5348 21.1009 13.1024 20.9145L11.8932 14.0394L3.31971 34.7771L11.2613 26.7908ZM52.6718 45.8987C52.8316 46.3909 52.9174 46.9167 52.9174 47.4615C52.9174 48.6898 52.4786 49.8154 51.7512 50.69L61.8129 61.1472L71.3165 38.1609L52.6718 45.8987ZM50.969 51.4475C50.1176 52.1071 49.0492 52.5014 47.8878 52.5014C47.3583 52.5014 46.8456 52.4177 46.3639 52.2648L38.501 71.2867L61.0545 61.9263L50.969 51.4475Z" fill="white"/>
<path d="M111.733 31.5484C111.733 33.2546 110.118 34.6526 108.143 34.6526H93.7914V25.3376H108.143C110.118 25.3376 111.733 26.7331 111.733 28.4418V31.5484ZM115.319 28.4418C115.212 24.9958 111.983 22.2334 108.143 22.2334H90.2046V43.9675H93.7914V37.7568H108.143C112.164 37.7568 115.319 34.8389 115.319 31.5484V28.4418ZM118.191 43.9675H121.778L139.719 31.264V43.9675H143.308V27.0725H139.719L121.778 39.4654V27.0725H118.191V43.9675ZM168.423 30.1791V27.0725H146.895V43.9675H150.484V30.1791H168.423ZM175.103 43.9675H178.692L196.633 26.9936V43.8265H200.22V22.8021H196.633L178.692 39.4654V22.8021H175.103V43.9675ZM207.396 27.008H203.809V43.8265H207.396L207.42 36.9753H225.361L225.337 43.9675H228.927V27.0605H225.337L225.361 33.8711H207.42L207.396 27.008ZM255.835 30.1647V27.0605H230.72V30.1647H241.485V43.9675H245.072V30.1647H255.835ZM261.217 30.1647H282.748V27.0605H257.631V43.9675H282.748V40.861H261.217L261.244 36.9753H279.182V33.8711H261.244L261.217 30.1647ZM292.793 27.0605C288.774 27.0605 285.617 29.3498 285.617 32.7026V43.9675H289.206V32.7026C289.206 30.9939 290.82 30.1647 292.793 30.1647H307.145V43.9675H310.734V27.0605H292.793Z" fill="white"/>
<path fill-rule="evenodd" clip-rule="evenodd" d="M74.9773 80.8816C75.3994 80.8816 75.781 81.0489 76.06 81.3213L91.8286 68.6512C91.7189 68.405 91.6593 68.1326 91.6593 67.8458C91.6593 67.0477 92.1267 66.3595 92.804 66.0392L92.091 61.3507C91.0798 61.2551 90.2904 60.402 90.2904 59.3625C90.2904 58.2608 91.1823 57.3671 92.2818 57.3671C93.0568 57.3671 93.7294 57.8116 94.0585 58.4615L111.294 57.1114C111.532 56.3921 112.21 55.8711 113.008 55.8711C113.908 55.8711 114.652 56.5283 114.79 57.3886L129.614 61.8931C130.041 61.1977 130.809 60.7365 131.682 60.7365C132.626 60.7365 133.447 61.2766 133.847 62.0652L147.749 58.6742C147.813 57.9071 148.455 57.3049 149.237 57.3049C149.852 57.3049 150.381 57.6801 150.61 58.2154L166.725 58.7196C166.906 58.4687 167.202 58.3038 167.536 58.3038C168.017 58.3038 168.42 58.6456 168.511 59.102L176.589 62.4213C176.849 62.1512 177.213 61.9839 177.619 61.9839C178.031 61.9839 178.401 62.156 178.663 62.4356L195.128 58.1318C195.24 57.4507 195.83 56.9298 196.543 56.9298C197.151 56.9298 197.671 57.3121 197.878 57.8498L221.743 60.3924C221.975 60.0722 222.351 59.8619 222.778 59.8619C223.184 59.8619 223.546 60.0531 223.78 60.3494L248.084 59.6922C248.218 59.4939 248.446 59.3625 248.704 59.3625C248.861 59.3625 249.007 59.4126 249.129 59.4963L277.675 60.8297C277.849 60.5477 278.162 60.3613 278.519 60.3613C278.832 60.3613 279.108 60.5047 279.292 60.7294L301.459 58.4759C301.576 58.0529 301.962 57.7423 302.42 57.7423C302.971 57.7423 303.417 58.1891 303.417 58.7388C303.417 59.2908 302.971 59.7376 302.42 59.7376C301.996 59.7376 301.633 59.4724 301.49 59.0972L279.514 61.3316V61.3602C279.514 61.9099 279.068 62.3567 278.519 62.3567C277.997 62.3567 277.57 61.9553 277.527 61.4463L249.45 60.1343C249.439 60.5358 249.107 60.8608 248.704 60.8608C248.387 60.8608 248.117 60.6624 248.008 60.3852L236.475 63.7858C236.494 63.8575 236.503 63.9315 236.503 64.0104C236.503 64.5098 236.1 64.9137 235.602 64.9137C235.103 64.9137 234.698 64.5098 234.698 64.0104C234.698 63.9722 234.7 63.9339 234.705 63.8957L223.914 61.7235C223.704 62.1369 223.274 62.4189 222.778 62.4189C222.266 62.4189 221.824 62.1178 221.622 61.6828L202.173 65.4681C202.195 65.5613 202.207 65.6569 202.207 65.7573C202.207 66.4622 201.634 67.0357 200.931 67.0357C200.225 67.0357 199.655 66.4622 199.655 65.7573C199.655 65.7119 199.657 65.6664 199.662 65.6234L183.858 64.4405L170.674 70.0802C170.698 70.1853 170.71 70.2929 170.71 70.4028C170.71 71.1962 170.068 71.8366 169.279 71.8366C168.487 71.8366 167.846 71.1962 167.846 70.4028C167.846 70.2379 167.874 70.0802 167.927 69.932L157.209 66.2328C157.078 66.5913 156.735 66.847 156.332 66.847C156.034 66.847 155.769 66.7084 155.597 66.4909L142.833 73.519C142.948 73.789 143.012 74.0853 143.012 74.3936C143.012 75.6338 142.008 76.6399 140.771 76.6399C139.533 76.6399 138.529 75.6338 138.529 74.3936C138.529 74.2669 138.541 74.1403 138.562 74.0184L123.084 68.0275C122.848 68.546 122.328 68.9069 121.723 68.9069C121.389 68.9069 121.079 68.7945 120.831 68.6082L109.057 80.2985C109.236 80.5972 109.336 80.9461 109.336 81.3189C109.336 82.4205 108.444 83.3143 107.344 83.3143C106.269 83.3143 105.391 82.4588 105.355 81.3906L76.5251 82.6022C76.444 83.3884 75.781 84.0001 74.9773 84.0001C74.1187 84.0001 73.4224 83.3023 73.4224 82.4397C73.4224 81.5794 74.1187 80.8816 74.9773 80.8816ZM76.413 81.8375C76.432 81.8852 76.4511 81.933 76.4654 81.9832L105.429 80.7645C105.527 80.4252 105.713 80.1241 105.959 79.8851L95.103 69.2127C94.7405 69.5999 94.223 69.8412 93.6507 69.8412C93.0616 69.8412 92.5298 69.5855 92.1649 69.1769L76.413 81.8375ZM95.456 68.6894L106.476 79.5218C106.739 79.3928 107.034 79.3211 107.344 79.3211C107.361 79.3211 107.378 79.3235 107.395 79.3235L110.297 67.5686L95.642 67.7741C95.642 67.798 95.642 67.8219 95.642 67.8458C95.642 68.1469 95.5752 68.4313 95.456 68.6894ZM92.7158 61.3124L93.405 65.8648C93.4861 65.8552 93.5672 65.8505 93.6507 65.8505C94.0346 65.8505 94.39 65.958 94.6952 66.1468L111.246 58.0696C111.222 57.9645 111.21 57.8546 111.206 57.7446L94.2516 59.0709C94.2659 59.1665 94.2731 59.2645 94.2731 59.3625C94.2731 60.3159 93.6077 61.1141 92.7158 61.3124ZM129.359 62.4643L114.78 58.0338C114.613 58.863 113.884 59.4891 113.008 59.4891C112.982 59.4891 112.956 59.4867 112.932 59.4867L111.093 66.9354L120.356 66.8063C120.588 66.2806 121.112 65.9126 121.723 65.9126C122.121 65.9126 122.481 66.0679 122.748 66.3212L129.273 63.4584C129.261 63.3628 129.254 63.2648 129.254 63.1668C129.254 62.9231 129.292 62.6865 129.359 62.4643ZM108.659 79.8182L120.421 68.1398C120.301 67.9295 120.232 67.6881 120.23 67.43L110.938 67.5591L108.007 79.4358C108.251 79.5218 108.47 79.6533 108.659 79.8182ZM95.5204 67.1528L110.45 66.9449L112.324 59.3529C111.976 59.2095 111.683 58.961 111.485 58.6479L95.2008 66.5913C95.3344 66.7585 95.4441 66.9473 95.5204 67.1528ZM129.426 64.0678L123.106 66.8422C123.177 67.0166 123.218 67.2078 123.218 67.4085V67.4133L138.751 73.4234C139.111 72.6706 139.881 72.1497 140.771 72.1497C141.054 72.1497 141.326 72.2022 141.577 72.3002L145.669 64.9161L134.055 63.6854C133.819 64.7799 132.846 65.5995 131.682 65.5995C130.659 65.5995 129.784 64.9663 129.426 64.0678ZM179.05 63.456L183.755 63.8097L195.214 58.906C195.198 58.8606 195.181 58.8128 195.167 58.765L178.988 62.9924C179.028 63.1262 179.052 63.2696 179.052 63.4178C179.052 63.4297 179.05 63.444 179.05 63.456ZM201.87 64.8922L221.505 61.0711C221.505 61.0448 221.507 61.0209 221.51 60.9946L197.969 58.4854C197.94 58.8152 197.802 59.1139 197.59 59.3433L200.513 64.5481C200.645 64.5027 200.785 64.4788 200.931 64.4788C201.303 64.4788 201.639 64.6389 201.87 64.8922ZM147.825 59.2932L134.055 62.6554C134.083 62.7869 134.102 62.9255 134.107 63.0665L145.996 64.3234L148.376 60.0268C148.123 59.8476 147.927 59.5919 147.825 59.2932ZM148.951 60.2705L146.666 64.3951L155.592 65.3415C155.764 65.1192 156.031 64.9758 156.332 64.9758C156.451 64.9758 156.565 64.9997 156.67 65.0404L166.346 59.3314L150.73 58.8391C150.708 59.6492 150.048 60.2992 149.237 60.2992C149.139 60.2992 149.044 60.2897 148.951 60.2705ZM146.339 64.9854L142.118 72.6013C142.266 72.7136 142.399 72.8427 142.514 72.9861L155.313 65.9365L146.339 64.9854ZM166.701 59.8428L157.157 65.4753C157.174 65.5063 157.188 65.5374 157.2 65.5709L168.265 69.3896C168.525 69.1291 168.883 68.969 169.279 68.969C169.52 68.969 169.746 69.0287 169.947 69.1339L176.295 63.9602C176.226 63.7929 176.188 63.6089 176.188 63.4178C176.188 63.2576 176.214 63.1023 176.262 62.9589L168.43 59.74C168.268 60.0698 167.929 60.2992 167.536 60.2992C167.185 60.2992 166.877 60.1176 166.701 59.8428ZM176.651 64.4716L170.514 69.4732L182.513 64.3402L178.895 64.0701C178.659 64.5337 178.175 64.8516 177.619 64.8516C177.244 64.8516 176.906 64.7082 176.651 64.4716ZM199.991 64.8898L197.074 59.697C196.91 59.7639 196.731 59.7998 196.543 59.7998C196.171 59.7998 195.832 59.6588 195.579 59.427L185.1 63.91L199.891 65.0165C199.922 64.9711 199.955 64.9304 199.991 64.8898ZM245.842 60.3757L224.042 60.9635C224.049 61.0137 224.054 61.0663 224.054 61.1189L235.013 63.3246C235.17 63.1883 235.375 63.1047 235.602 63.1047C235.781 63.1047 235.95 63.1597 236.091 63.2505L245.842 60.3757Z" fill="white"/>
<path d="M325.446 23.0699H321.638H321.623H321.602C321.397 23.0699 321.201 23.0126 321.01 22.8955C320.822 22.7784 320.688 22.6302 320.605 22.4534L318.568 17.9799C318.561 17.9584 318.547 17.9488 318.528 17.9488C318.506 17.9488 318.497 17.9656 318.497 17.999V20.7113C318.397 20.4986 318.265 20.2955 318.16 20.0852C318.094 19.9514 318.003 19.8271 317.941 19.6885C317.924 19.6551 317.927 19.6168 317.924 19.5786C317.91 19.4041 317.927 19.2273 317.893 19.0553C317.853 18.8641 317.784 18.6801 317.703 18.5008C317.631 18.3407 317.54 18.1854 317.433 18.042C317.366 17.9512 317.29 17.8724 317.211 17.7911V16.9069C317.211 16.613 317.316 16.3621 317.524 16.159C317.734 15.9582 317.993 15.8555 318.301 15.8555C318.506 15.8555 318.702 15.9152 318.888 16.0323C319.071 16.147 319.205 16.2952 319.288 16.4744L321.325 20.9479C321.332 20.9742 321.347 20.9885 321.366 20.9885C321.387 20.9885 321.397 20.9718 321.397 20.9383V16.4648C321.397 16.2928 321.456 16.147 321.578 16.0323C321.697 15.9152 321.852 15.8555 322.045 15.8555C322.231 15.8555 322.384 15.9152 322.503 16.0371C322.623 16.1566 322.682 16.3 322.682 16.4648V21.8846H325.446C325.837 21.8846 326.119 21.8034 326.288 21.6385C326.46 21.4736 326.546 21.1892 326.546 20.783C326.546 20.5297 326.464 20.3505 326.3 20.2477C326.135 20.1449 325.816 20.0446 325.344 19.949C325.15 19.9084 324.993 19.8725 324.869 19.8438C324.747 19.8176 324.592 19.7745 324.411 19.7148C324.23 19.6575 324.082 19.5953 323.965 19.5308C323.848 19.4663 323.724 19.3802 323.593 19.2727C323.464 19.1652 323.362 19.0505 323.285 18.9214C323.209 18.7948 323.147 18.6394 323.095 18.4578C323.045 18.2762 323.018 18.0755 323.018 17.8556C323.018 16.5222 323.824 15.8555 325.434 15.8555H327.02C327.204 15.8555 327.359 15.9176 327.483 16.0419C327.607 16.1661 327.666 16.3023 327.666 16.4529C327.666 16.6058 327.604 16.742 327.478 16.8663C327.349 16.9906 327.201 17.0527 327.03 17.0527H325.434C325.038 17.0527 324.747 17.1124 324.561 17.2319C324.375 17.3514 324.282 17.5593 324.282 17.8556C324.282 17.9871 324.301 18.097 324.34 18.1902C324.378 18.2834 324.423 18.3599 324.473 18.4172C324.526 18.4769 324.616 18.5271 324.747 18.5725C324.876 18.6156 324.995 18.6514 325.1 18.6753C325.208 18.6992 325.372 18.7326 325.599 18.7733C325.957 18.8354 326.259 18.9095 326.505 18.9955C326.751 19.0815 326.982 19.1962 327.194 19.3444C327.407 19.4926 327.564 19.6861 327.666 19.9227C327.771 20.1593 327.821 20.446 327.821 20.783C327.821 22.3076 327.03 23.0699 325.446 23.0699ZM315.363 17.5043C315.532 18.5893 315.721 20.0518 317.211 19.992V22.4629C317.211 22.635 317.273 22.7784 317.395 22.8955C317.519 23.0126 317.669 23.0699 317.848 23.0699C318.034 23.0699 318.187 23.0126 318.311 22.8955C318.435 22.7784 318.497 22.635 318.497 22.4629V21.9802C318.456 21.4306 318.187 20.1736 317.75 19.7459C317.593 19.7052 317.455 19.6073 317.307 19.5427C317.178 19.4854 317.04 19.4448 316.918 19.3779V19.3755C316.808 19.354 316.715 19.3348 316.551 19.3611C316.493 19.3707 316.439 19.3922 316.381 19.4065C316.522 19.3038 316.594 19.2679 316.768 19.2894C316.236 18.9644 316.086 18.7135 315.828 18.1257C315.964 18.2858 316.09 18.4578 316.238 18.6084C316.372 18.7446 316.493 18.8521 316.605 18.9405C316.51 18.7565 316.51 18.6514 316.536 18.4315C316.548 18.5056 316.555 18.5797 316.574 18.6538C316.622 18.8426 316.677 18.9405 316.737 19.0409C316.911 19.1652 317.071 19.2512 317.237 19.342C317.118 19.1771 317.116 19.0983 317.144 18.9167C317.156 18.974 317.166 19.0314 317.183 19.0863C317.237 19.2488 317.299 19.3229 317.369 19.4137C317.488 19.4782 317.612 19.5475 317.75 19.6383C317.786 19.4782 317.776 19.2727 317.75 19.1198C317.71 18.8784 317.633 18.6275 317.481 18.4387C317.316 18.2308 317.125 18.1663 316.88 18.0659C316.396 17.87 316.081 18.0588 315.363 17.5043ZM315.623 16.4648C315.647 16.6178 315.663 16.7755 315.697 16.9284C315.761 17.2319 316.062 17.5187 316.398 17.5043C316.474 17.502 316.563 17.4709 316.603 17.4064C316.648 17.3299 316.636 17.2271 316.622 17.1411C316.527 16.5748 316.026 16.5413 315.623 16.4648Z" fill="#7E9626"/>
<path d="M335.095 21.4787C333.972 28.6406 332.732 38.2878 322.911 37.8816L320.283 37.4227C319.381 37.4777 318.726 37.9819 318.32 38.835C317.71 40.1111 317.23 42.0516 317.993 43.3014L315.926 43.2846C316.763 40.4242 317.92 37.6689 319.358 36.2613C320.39 35.9913 321.304 35.358 322.284 34.9279C323.13 34.5551 324.03 34.2851 324.838 33.831L324.848 33.8263C325.558 33.6877 326.178 33.561 327.261 33.7354C327.643 33.7976 328 33.929 328.372 34.027C327.452 33.3507 326.984 33.107 325.828 33.2527C329.336 31.1164 330.323 29.4507 332.033 25.5771C331.129 26.6381 330.302 27.7708 329.322 28.7625C328.439 29.6563 327.645 30.366 326.906 30.9539C327.535 29.7375 327.531 29.0445 327.361 27.594C327.275 28.0838 327.228 28.5809 327.106 29.0636C326.794 30.3015 326.436 30.9467 326.035 31.611C324.886 32.4355 323.836 33.0042 322.725 33.6016C323.519 32.5215 323.531 32.0005 323.347 30.8009C323.262 31.1761 323.212 31.5561 323.09 31.9241C322.737 32.9946 322.324 33.4845 321.859 34.0724C321.087 34.4954 320.266 34.9637 319.35 35.5636C319.11 34.4954 319.183 33.1404 319.35 32.1344C319.618 30.5476 320.116 28.8963 321.122 27.6417C322.217 26.2796 323.467 25.8423 325.086 25.1875C328.289 23.8899 330.366 25.1469 335.095 21.4787ZM335.951 16.0781C335.315 17.1295 335.296 17.6314 335.086 18.6422C334.666 20.6495 332.682 22.5398 330.461 22.4442C329.961 22.4227 329.372 22.2148 329.109 21.7894C327.144 18.6016 334.275 16.8451 335.951 16.0781Z" fill="#7E9626"/>
</svg>
