<svg width="916" height="916" viewBox="0 0 916 916" fill="none" xmlns="http://www.w3.org/2000/svg">
<g filter="url(#filter0_d_213_101)">
<path d="M728.293 166.054L464.298 56.706L465.16 232.345C476.491 233.71 486.649 238.885 494.316 246.552C498 250.229 501.108 254.49 503.493 259.175L728.293 166.054ZM457.997 27L608.965 89.5331L759.934 152.066L822.467 303.035L885 453.997L822.467 604.965L759.934 755.934L608.965 818.467L457.997 881L307.035 818.467L156.066 755.934L93.5331 604.965L31 453.997L93.5331 303.035L156.066 152.066L307.035 89.5331L457.997 27V27ZM337.655 534.606C340.929 534.606 344.096 535.031 347.118 535.826L434.48 324.922C430.623 322.715 427.091 320.011 423.977 316.89C418.079 310.993 413.653 303.624 411.307 295.381L239.234 311.251C238.664 322.39 233.913 332.429 226.518 339.824C225.133 341.209 223.648 342.508 222.085 343.694L328.577 535.726C331.479 534.991 334.521 534.606 337.655 534.606V534.606ZM358.515 541.021C360.443 542.339 362.239 543.83 363.889 545.474C369.27 550.861 373.013 557.892 374.279 565.757L525.698 563.849C527.646 551.477 533.504 540.411 541.966 531.943C545.842 528.066 550.269 524.74 555.113 522.083L475.079 328.858C470.077 330.547 464.716 331.462 459.15 331.462C454.611 331.462 450.217 330.852 446.043 329.719L358.515 541.021V541.021ZM374.173 578.268C372.815 585.881 369.13 592.687 363.889 597.935C362.08 599.737 360.085 601.361 357.945 602.765L460.144 849.505L553.92 623.102C549.54 620.564 545.524 617.469 541.966 613.911C532.232 604.177 525.95 591.004 525.089 576.366L374.173 578.268V578.268ZM346.455 607.748C343.639 608.437 340.69 608.802 337.655 608.802C329.776 608.802 322.474 606.344 316.464 602.156L181.412 739.335L446.434 849.114L346.455 607.748V607.748ZM307.538 593.369C303.145 587.273 300.561 579.792 300.561 571.701C300.561 568.878 300.872 566.135 301.469 563.491L62.4355 464.48L172.599 730.436L307.538 593.369ZM306.266 551.928C307.744 549.582 309.473 547.422 311.421 545.474C313.151 543.744 315.053 542.187 317.094 540.822L211.145 349.777C206.334 351.599 201.125 352.6 195.679 352.6C185.925 352.6 176.919 349.393 169.657 343.986L62.9325 451.134L306.266 551.928ZM731.235 283.938C734.581 285.356 737.596 287.403 740.121 289.934C745.19 295.004 748.331 302.008 748.331 309.741C748.331 315.227 746.754 320.343 744.024 324.67L847.269 428.32L748.013 188.703L731.235 283.938V283.938ZM735.151 333.503C730.851 336.193 725.768 337.75 720.321 337.75C717.625 337.75 715.014 337.373 712.549 336.657L609.966 521.639C615.134 524.362 619.839 527.848 623.934 531.943C627.387 535.402 630.408 539.291 632.906 543.532L853.386 452.208L735.151 333.503V333.503ZM701.602 330.581C701.231 330.243 700.866 329.898 700.515 329.547C696.268 325.306 693.385 319.707 692.55 313.465L506.707 296.322C504.295 304.188 499.988 311.225 494.316 316.89C491.897 319.316 489.227 321.483 486.351 323.371L566.676 517.285C571.838 515.774 577.298 514.966 582.95 514.966C588.238 514.966 593.354 515.675 598.224 517L701.602 330.581V330.581ZM693.697 301C695.082 296.779 697.441 293.002 700.515 289.934C705.266 285.183 711.714 282.129 718.877 281.764L737.55 175.775L507.721 270.97C508.483 274.435 508.887 278.033 508.887 281.724C508.887 282.473 508.867 283.215 508.841 283.951L693.697 301V301ZM409.419 282.99C409.412 282.566 409.406 282.142 409.406 281.724C409.406 278.338 409.743 275.038 410.386 271.844L178.596 175.835L194.373 265.39C194.804 265.377 195.241 265.37 195.679 265.37C207.719 265.37 218.626 270.254 226.518 278.146C232.11 283.739 236.192 290.842 238.094 298.787L409.419 282.99V282.99ZM414.408 259.963C416.84 254.967 420.087 250.435 423.977 246.552C431.531 238.991 441.51 233.855 452.649 232.404L451.788 56.6663L187.7 166.054L414.408 259.963ZM160.784 335.146C155.311 327.857 152.064 318.799 152.064 308.985C152.064 296.945 156.947 286.038 164.839 278.146C169.604 273.382 175.462 269.717 182.008 267.557L168.08 188.478L69.2673 427.021L160.784 335.146V335.146ZM638.062 554.943C639.91 560.608 640.911 566.652 640.911 572.927C640.911 587.054 635.855 600.002 627.453 610.061L743.441 730.336L852.961 465.931L638.062 554.943ZM618.434 618.755C608.634 626.362 596.316 630.888 582.95 630.888C576.821 630.888 570.917 629.933 565.37 628.171L474.742 846.967L734.681 739.302L618.434 618.755V618.755Z" fill="#010C43" fill-opacity="0.13" shape-rendering="crispEdges"/>
</g>
<defs>
<filter id="filter0_d_213_101" x="0" y="0" width="916" height="916" filterUnits="userSpaceOnUse" color-interpolation-filters="sRGB">
<feFlood flood-opacity="0" result="BackgroundImageFix"/>
<feColorMatrix in="SourceAlpha" type="matrix" values="0 0 0 0 0 0 0 0 0 0 0 0 0 0 0 0 0 0 127 0" result="hardAlpha"/>
<feOffset dy="4"/>
<feGaussianBlur stdDeviation="15.5"/>
<feComposite in2="hardAlpha" operator="out"/>
<feColorMatrix type="matrix" values="0 0 0 0 0.0705882 0 0 0 0 0.388235 0 0 0 0 1 0 0 0 0.2 0"/>
<feBlend mode="normal" in2="BackgroundImageFix" result="effect1_dropShadow_213_101"/>
<feBlend mode="normal" in="SourceGraphic" in2="effect1_dropShadow_213_101" result="shape"/>
</filter>
</defs>
</svg>
