<svg width="84" height="84" viewBox="0 0 84 84" fill="none" xmlns="http://www.w3.org/2000/svg">
<path d="M42 84C65.196 84 84 65.196 84 42C84 18.804 65.196 0 42 0C18.804 0 0 18.804 0 42C0 65.196 18.804 84 42 84Z" fill="#BDC598"/>
<path fill-rule="evenodd" clip-rule="evenodd" d="M40.392 37.7827C39.0985 37.4107 38.0821 36.7597 36.5114 36.3877C32.5385 35.2718 26.0708 34.7138 25.5165 32.0169C24.8697 28.669 28.4731 27.5531 31.4297 27.6461C36.3266 27.9251 36.3266 30.622 36.9734 32.2959H40.2996C40.5768 33.2259 40.392 36.5737 40.392 37.7827ZM25.1469 44.1994H19.0488C19.326 54.522 30.8754 55.824 37.4354 53.5921C38.5441 53.1271 39.4681 52.4761 40.392 52.1971V53.5921L46.3053 53.6851C46.3977 51.7322 46.3053 49.5932 46.3053 47.7333C46.3053 46.1524 47.414 44.9434 48.7999 44.1064L54.0664 53.6851H61.0884L53.1425 39.8286L58.871 33.3189C59.7025 32.4819 60.2569 32.0169 60.8113 31.0869C58.9634 31.0869 57.1155 31.0869 55.2676 31.0869C53.3273 30.9939 53.7893 30.808 51.7566 33.2259C51.1098 33.9698 47.2292 38.8986 46.3053 39.3636V23.2752C45.5661 23.0893 41.1312 23.0893 40.392 23.2752V25.6002C39.8376 25.2282 39.4681 24.8562 38.8213 24.3912C34.6635 21.6013 27.7339 21.7873 23.761 24.1122C21.7283 25.3212 19.8804 27.5531 19.6032 30.808C18.4021 44.1064 37.5278 38.7127 37.8974 45.0364C38.0821 48.5703 34.2016 49.3142 31.0601 49.1283C27.7339 49.0353 25.3317 47.6403 25.1469 44.1994Z" fill="#656766"/>
<path d="M20.3633 57.1475H22.0274L23.8501 61.1096L25.3557 57.1475H26.9406L24.4048 62.9322C24.0878 63.5662 23.8501 64.0416 23.5331 64.3586C23.2161 64.6756 22.8991 64.8341 22.4237 64.8341C21.9482 64.8341 21.6312 64.8341 21.3142 64.7548V63.6454C21.552 63.6454 21.7897 63.6454 21.9482 63.6454C22.2652 63.6454 22.5029 63.5662 22.6614 63.4869C22.8199 63.3285 22.9784 63.0115 23.1369 62.6153L20.3633 57.1475ZM27.5746 59.287H29.001V60.5549C29.001 60.8719 29.0803 61.1096 29.0803 61.2681C29.1595 61.4266 29.2388 61.5059 29.4765 61.6643C29.635 61.7436 29.8727 61.7436 30.1104 61.7436C30.3482 61.7436 30.6652 61.7436 30.9821 61.5851V59.287H32.4086V64.7548H30.9821V62.536C30.4274 62.6945 29.952 62.7738 29.635 62.7738C29.2388 62.7738 28.8425 62.6945 28.4463 62.536C28.1293 62.2983 27.8916 62.0606 27.7331 61.7436C27.5746 61.5059 27.5746 61.0304 27.5746 60.5549V59.287ZM34.9444 60.9512L33.6765 60.7134C33.7557 60.1587 34.0727 59.7625 34.3897 59.5248C34.7859 59.287 35.3406 59.1285 36.0538 59.1285C36.6878 59.1285 37.1633 59.2078 37.4803 59.3663C37.7972 59.5248 38.035 59.6833 38.1142 59.921C38.2727 60.1587 38.352 60.6342 38.352 61.2681V62.9322C38.352 63.4077 38.352 63.8039 38.4312 64.0416C38.4312 64.2794 38.5104 64.5171 38.6689 64.7548H37.2425C37.1633 64.6756 37.1633 64.5171 37.084 64.3586C37.084 64.2794 37.0048 64.2001 37.0048 64.2001C36.7671 64.4379 36.5293 64.5964 36.2123 64.7548C35.9746 64.8341 35.6576 64.9133 35.3406 64.9133C34.7859 64.9133 34.3104 64.7548 33.9935 64.4379C33.6765 64.1209 33.518 63.7247 33.518 63.2492C33.518 62.9322 33.5972 62.6945 33.6765 62.4568C33.835 62.219 34.0727 61.9813 34.3104 61.9021C34.6274 61.7436 35.0237 61.6643 35.4991 61.5851C36.2123 61.4266 36.6878 61.2681 36.9255 61.1889V61.0304C36.9255 60.7927 36.8463 60.5549 36.6878 60.3964C36.5293 60.3172 36.2916 60.238 35.8954 60.238C35.6576 60.238 35.4199 60.3172 35.3406 60.3964C35.1821 60.4757 35.0237 60.7134 34.9444 60.9512ZM36.9255 62.1398C36.6878 62.219 36.4501 62.2983 36.0538 62.3775C35.6576 62.4568 35.3406 62.536 35.2614 62.6153C35.0237 62.7738 34.9444 62.9322 34.9444 63.0907C34.9444 63.3285 35.0237 63.4869 35.1821 63.6454C35.3406 63.8039 35.4991 63.8832 35.7369 63.8832C36.0538 63.8832 36.2916 63.8039 36.5293 63.6454C36.6878 63.4869 36.7671 63.3285 36.8463 63.17C36.9255 63.0115 36.9255 62.7738 36.9255 62.4568V62.1398ZM44.6123 60.8719L43.1859 61.1096C43.1067 60.8719 43.0274 60.6342 42.7897 60.4757C42.6312 60.3964 42.3935 60.3172 42.1557 60.3172C41.7595 60.3172 41.5218 60.3964 41.284 60.6342C41.0463 60.9512 40.9671 61.3474 40.9671 61.9021C40.9671 62.6153 41.0463 63.0115 41.284 63.3285C41.5218 63.5662 41.8388 63.7247 42.1557 63.7247C42.4727 63.7247 42.7104 63.6454 42.8689 63.4869C43.0274 63.3285 43.1859 63.0115 43.1859 62.6945L44.6916 62.9322C44.5331 63.5662 44.2161 64.0417 43.8199 64.4379C43.3444 64.7548 42.7897 64.9133 42.0765 64.9133C41.284 64.9133 40.6501 64.6756 40.1746 64.1209C39.6991 63.6454 39.4614 62.9322 39.4614 62.0606C39.4614 61.1096 39.6991 60.3964 40.1746 59.921C40.6501 59.3663 41.284 59.1285 42.1557 59.1285C42.7897 59.1285 43.3444 59.287 43.7406 59.604C44.1369 59.8417 44.3746 60.3172 44.6123 60.8719ZM45.0086 59.287H50.001V60.3964H48.2576V64.7548H46.752V60.3964H45.0086V59.287ZM50.7935 59.287H52.2991V61.2681H54.3595V59.287H55.8652V64.7548H54.3595V62.4568H52.2991V64.7548H50.7935V59.287ZM57.2916 59.287H58.6387V62.6945L60.9369 59.287H62.3633V64.7548H60.9369V61.2681L58.6387 64.7548H57.2916V59.287ZM63.7897 59.287H65.2161V61.5059C65.4538 61.5059 65.6123 61.4266 65.7708 61.2681C65.8501 61.1889 65.9293 60.8719 66.0878 60.4757C66.2463 59.921 66.484 59.604 66.7218 59.4455C66.9595 59.287 67.1972 59.2078 67.5935 59.2078C67.6727 59.2078 67.9104 59.2078 68.1482 59.287V60.238C67.7519 60.238 67.5142 60.238 67.435 60.3172C67.3557 60.3964 67.1972 60.6342 67.0387 61.0304C66.8802 61.5059 66.6425 61.8228 66.3255 61.9021C66.801 62.0606 67.1972 62.4568 67.5142 63.17C67.5142 63.17 67.5142 63.2492 67.5935 63.2492L68.3859 64.7548H66.801L66.0878 63.17C65.9293 62.853 65.8501 62.6153 65.6916 62.536C65.6123 62.4568 65.4538 62.3775 65.2161 62.3775V64.7548H63.7897V59.287Z" fill="#656766"/>
</svg>
