<svg width="688" height="688" viewBox="0 0 688 688" fill="none" xmlns="http://www.w3.org/2000/svg">
<g filter="url(#filter0_df_268_8)">
<path d="M554.158 120.117L348.897 35.0969L349.567 171.659C358.377 172.721 366.275 176.744 372.236 182.706C375.101 185.564 377.517 188.877 379.372 192.52L554.158 120.117ZM343.998 12L461.378 60.6206L578.759 109.241L627.379 226.622L676 343.998L627.379 461.378L578.759 578.759L461.378 627.379L343.998 676L226.622 627.379L109.241 578.759L60.6206 461.378L12 343.998L60.6206 226.622L109.241 109.241L226.622 60.6206L343.998 12ZM250.43 406.673C252.975 406.673 255.438 407.003 257.787 407.621L325.713 243.64C322.714 241.924 319.968 239.821 317.547 237.395C312.961 232.81 309.519 227.08 307.695 220.671L173.906 233.01C173.462 241.671 169.768 249.476 164.019 255.226C162.942 256.303 161.787 257.313 160.572 258.235L243.371 407.543C245.628 406.972 247.993 406.673 250.43 406.673ZM266.649 411.66C268.148 412.685 269.544 413.844 270.827 415.123C275.011 419.311 277.921 424.778 278.905 430.893L396.636 429.41C398.151 419.79 402.706 411.186 409.285 404.602C412.299 401.588 415.741 399.002 419.507 396.936L357.279 246.7C353.39 248.013 349.222 248.725 344.894 248.725C341.365 248.725 337.949 248.25 334.703 247.369L266.649 411.66ZM278.823 440.621C277.767 446.54 274.902 451.832 270.827 455.912C269.421 457.313 267.869 458.576 266.205 459.667L345.667 651.512L418.579 475.48C415.174 473.506 412.051 471.1 409.285 468.334C401.717 460.765 396.832 450.523 396.163 439.142L278.823 440.621ZM257.272 463.542C255.082 464.077 252.789 464.361 250.43 464.361C244.304 464.361 238.626 462.45 233.953 459.194L128.948 565.853L335.007 651.208L257.272 463.542ZM227.013 452.362C223.598 447.622 221.588 441.805 221.588 435.515C221.588 433.32 221.83 431.187 222.294 429.131L36.4417 352.148L122.096 558.934L227.013 452.362ZM226.024 420.141C227.173 418.317 228.518 416.637 230.032 415.123C231.377 413.778 232.856 412.567 234.443 411.506L152.066 262.965C148.325 264.381 144.275 265.16 140.041 265.16C132.457 265.16 125.455 262.666 119.808 258.462L36.8281 341.772L226.024 420.141ZM556.445 211.774C559.047 212.876 561.391 214.468 563.354 216.436C567.295 220.378 569.737 225.824 569.737 231.836C569.737 236.102 568.511 240.079 566.389 243.444L646.663 324.033L569.49 137.727L556.445 211.774ZM559.49 250.311C556.146 252.403 552.194 253.614 547.959 253.614C545.863 253.614 543.833 253.32 541.916 252.764L462.156 396.59C466.174 398.708 469.833 401.418 473.017 404.602C475.701 407.291 478.05 410.315 479.992 413.613L651.42 342.607L559.49 250.311ZM533.405 248.04C533.116 247.777 532.833 247.509 532.56 247.236C529.258 243.938 527.016 239.585 526.367 234.732L381.871 221.403C379.995 227.519 376.646 232.99 372.236 237.395C370.356 239.281 368.28 240.966 366.043 242.434L428.498 393.205C432.511 392.03 436.756 391.402 441.151 391.402C445.262 391.402 449.24 391.953 453.027 392.984L533.405 248.04ZM527.259 225.04C528.335 221.758 530.17 218.821 532.56 216.436C536.254 212.742 541.267 210.367 546.836 210.083L561.355 127.675L382.659 201.691C383.251 204.385 383.566 207.183 383.566 210.052C383.566 210.635 383.55 211.212 383.53 211.784L527.259 225.04ZM306.227 211.037C306.222 210.707 306.217 210.377 306.217 210.052C306.217 207.42 306.479 204.854 306.979 202.371L126.758 127.722L139.025 197.352C139.36 197.342 139.7 197.337 140.041 197.337C149.402 197.337 157.883 201.134 164.019 207.27C168.367 211.619 171.54 217.142 173.019 223.319L306.227 211.037ZM310.106 193.133C311.997 189.248 314.522 185.725 317.547 182.706C323.42 176.827 331.179 172.833 339.839 171.705L339.17 35.0661L133.837 120.117L310.106 193.133ZM112.909 251.589C108.654 245.922 106.129 238.879 106.129 231.248C106.129 221.887 109.926 213.407 116.062 207.27C119.767 203.566 124.322 200.717 129.411 199.037L118.582 137.552L41.7535 323.023L112.909 251.589ZM484.001 422.485C485.438 426.89 486.217 431.589 486.217 436.468C486.217 447.452 482.285 457.519 475.753 465.34L565.935 558.856L651.089 353.277L484.001 422.485ZM468.74 472.1C461.121 478.014 451.543 481.534 441.151 481.534C436.385 481.534 431.795 480.791 427.482 479.421L357.017 649.539L559.124 565.827L468.74 472.1Z" fill="#010C43" fill-opacity="0.13"/>
</g>
<defs>
<filter id="filter0_df_268_8" x="0" y="0" width="688" height="688" filterUnits="userSpaceOnUse" color-interpolation-filters="sRGB">
<feFlood flood-opacity="0" result="BackgroundImageFix"/>
<feColorMatrix in="SourceAlpha" type="matrix" values="0 0 0 0 0 0 0 0 0 0 0 0 0 0 0 0 0 0 127 0" result="hardAlpha"/>
<feOffset dy="4"/>
<feGaussianBlur stdDeviation="2"/>
<feComposite in2="hardAlpha" operator="out"/>
<feColorMatrix type="matrix" values="0 0 0 0 0 0 0 0 0 0 0 0 0 0 0 0 0 0 0.25 0"/>
<feBlend mode="normal" in2="BackgroundImageFix" result="effect1_dropShadow_268_8"/>
<feBlend mode="normal" in="SourceGraphic" in2="effect1_dropShadow_268_8" result="shape"/>
<feGaussianBlur stdDeviation="6" result="effect2_foregroundBlur_268_8"/>
</filter>
</defs>
</svg>
