<?xml version="1.0" encoding="UTF-8"?>
<!DOCTYPE svg PUBLIC "-//W3C//DTD SVG 1.1//EN" "http://www.w3.org/Graphics/SVG/1.1/DTD/svg11.dtd">
<!-- Creator: CorelDRAW 2020 (64-Bit) -->
<svg xmlns="http://www.w3.org/2000/svg" xml:space="preserve" width="788px" height="194px" version="1.1" style="shape-rendering:geometricPrecision; text-rendering:geometricPrecision; image-rendering:optimizeQuality; fill-rule:evenodd; clip-rule:evenodd"
viewBox="0 0 390.27 95.94"
 xmlns:xlink="http://www.w3.org/1999/xlink"
 xmlns:xodm="http://www.corel.com/coreldraw/odm/2003">
 <defs>
  <style type="text/css">
   <![CDATA[
    .fil1 {fill:#025CB5}
    .fil0 {fill:#025CB5;fill-rule:nonzero}
    .fil2 {fill:#7E9626;fill-rule:nonzero}
   ]]>
  </style>
 </defs>
 <g id="Слой_x0020_1">
  <metadata id="CorelCorpID_0Corel-Layer"/>
  <g id="_3020942979040">
   <path class="fil0" d="M69.1 13.81l-26.16 -10.86 0.08 17.44c1.13,0.14 2.14,0.65 2.9,1.41 0.36,0.37 0.67,0.79 0.91,1.26l22.27 -9.25zm-26.78 -13.81l14.96 6.21 14.96 6.21 6.19 14.99 6.2 14.99 -6.2 14.99 -6.19 14.99 -14.96 6.21 -14.96 6.21 -14.97 -6.21 -14.96 -6.21 -6.19 -14.99 -6.2 -14.99 6.2 -14.99 6.19 -14.99 14.96 -6.21 14.97 -6.21 0 0zm-11.93 50.41c0.32,0 0.64,0.04 0.94,0.12l8.66 -20.95c-0.39,-0.21 -0.74,-0.48 -1.05,-0.79 -0.58,-0.59 -1.02,-1.32 -1.25,-2.14l-17.05 1.58c-0.06,1.1 -0.53,2.1 -1.26,2.83 -0.14,0.14 -0.29,0.27 -0.44,0.39l10.55 19.07c0.29,-0.08 0.59,-0.11 0.9,-0.11zm2.07 0.63c0.19,0.13 0.37,0.28 0.53,0.45 0.53,0.53 0.9,1.23 1.03,2.01l15.01 -0.19c0.19,-1.23 0.77,-2.33 1.61,-3.17 0.38,-0.38 0.82,-0.71 1.3,-0.98l-7.93 -19.18c-0.5,0.16 -1.03,0.25 -1.58,0.25 -0.45,0 -0.88,-0.06 -1.3,-0.17l-8.67 20.98zm1.55 3.7c-0.13,0.76 -0.5,1.43 -1.02,1.95 -0.18,0.18 -0.38,0.35 -0.59,0.48l10.13 24.5 9.29 -22.48c-0.43,-0.25 -0.83,-0.55 -1.18,-0.91 -0.97,-0.97 -1.59,-2.27 -1.67,-3.73l-14.96 0.19zm-2.75 2.93c-0.28,0.07 -0.57,0.11 -0.87,0.11 -0.78,0 -1.51,-0.25 -2.1,-0.67l-13.38 13.63 26.26 10.9 -9.91 -23.97zm-3.85 -1.43c-0.44,-0.6 -0.7,-1.35 -0.7,-2.15 0,-0.28 0.03,-0.55 0.09,-0.82l-23.68 -9.83 10.91 26.41 13.38 -13.61zm-0.13 -4.12c0.14,-0.23 0.32,-0.44 0.51,-0.63 0.17,-0.18 0.36,-0.33 0.56,-0.47l-10.5 -18.97c-0.47,0.18 -0.99,0.28 -1.53,0.28 -0.97,0 -1.86,-0.32 -2.58,-0.85l-10.57 10.64 24.11 10zm42.11 -26.6c0.34,0.13 0.63,0.34 0.89,0.59 0.5,0.5 0.81,1.2 0.81,1.97 0,0.54 -0.16,1.05 -0.43,1.48l10.23 10.29 -9.83 -23.79 -1.67 9.46zm0.39 4.92c-0.43,0.26 -0.93,0.42 -1.47,0.42 -0.27,0 -0.52,-0.04 -0.77,-0.11l-10.17 18.37c0.52,0.27 0.99,0.61 1.39,1.02 0.34,0.34 0.64,0.73 0.89,1.15l21.85 -9.07 -11.72 -11.78zm-3.32 -0.29c-0.04,-0.04 -0.08,-0.07 -0.11,-0.11 -0.42,-0.42 -0.71,-0.97 -0.79,-1.59l-18.42 -1.71c-0.24,0.78 -0.66,1.48 -1.22,2.05 -0.24,0.24 -0.51,0.45 -0.79,0.64l7.95 19.26c0.52,-0.15 1.06,-0.23 1.62,-0.23 0.52,0 1.03,0.07 1.51,0.2l10.25 -18.51zm-0.79 -2.94c0.14,-0.42 0.38,-0.79 0.68,-1.1 0.47,-0.47 1.11,-0.77 1.82,-0.81l1.85 -10.53 -22.78 9.46c0.08,0.34 0.12,0.7 0.12,1.06 0,0.08 0,0.15 -0.01,0.23l18.32 1.69zm-28.17 -1.79c0,-0.04 0,-0.08 0,-0.13 0,-0.33 0.03,-0.66 0.1,-0.98l-22.97 -9.53 1.56 8.89c0.04,0 0.09,0 0.13,0 1.19,0 2.27,0.49 3.06,1.27 0.55,0.55 0.95,1.26 1.14,2.05l16.98 -1.57zm0.5 -2.29c0.24,-0.49 0.56,-0.94 0.94,-1.33 0.75,-0.75 1.74,-1.26 2.85,-1.4l-0.09 -17.45 -26.17 10.86 22.47 9.32zm-25.14 7.47c-0.54,-0.72 -0.86,-1.62 -0.86,-2.6 0,-1.19 0.48,-2.28 1.26,-3.06 0.48,-0.47 1.06,-0.84 1.71,-1.05l-1.39 -7.85 -9.79 23.68 9.07 -9.12zm47.3 21.83c0.18,0.56 0.28,1.16 0.28,1.78 0,1.4 -0.5,2.69 -1.33,3.69l11.49 11.94 10.86 -26.25 -21.3 8.84zm-1.94 6.33c-0.98,0.76 -2.2,1.21 -3.52,1.21 -0.61,0 -1.19,-0.1 -1.74,-0.27l-8.98 21.72 25.76 -10.69 -11.52 -11.97z"/>
   <path class="fil0" d="M127.62 36.03c0,1.95 -1.84,3.55 -4.1,3.55l-16.39 0 0 -10.64 16.39 0c2.26,0 4.1,1.59 4.1,3.55l0 3.54zm4.1 -3.54c-0.13,-3.94 -3.81,-7.09 -8.2,-7.09l-20.49 0 0 24.82 4.1 0 0 -7.09 16.39 0c4.59,0 8.2,-3.34 8.2,-7.1l0 -3.54zm3.28 17.73l4.09 0 20.5 -14.51 0 14.51 4.1 0 0 -19.3 -4.1 0 -20.5 14.16 0 -14.16 -4.09 0 0 19.3zm57.37 -15.75l0 -3.55 -24.59 0 0 19.3 4.1 0 0 -15.75 20.49 0zm7.63 15.75l4.1 0 20.49 -19.39 0 19.23 4.1 0 0 -24.02 -4.1 0 -20.49 19.04 0 -19.04 -4.1 0 0 24.18zm36.89 -19.37l-4.1 0 0 19.21 4.1 0 0.02 -7.83 20.5 0 -0.03 7.99 4.1 0 0 -19.31 -4.1 0 0.03 7.78 -20.5 0 -0.02 -7.84zm55.32 3.6l0 -3.54 -28.68 0 0 3.54 12.29 0 0 15.77 4.1 0 0 -15.77 12.29 0zm6.15 0l24.59 0 0 -3.54 -28.69 0 0 19.31 28.69 0 0 -3.55 -24.59 0 0.03 -4.44 20.49 0 0 -3.54 -20.49 0 -0.03 -4.24zm36.07 -3.54c-4.59,0 -8.2,2.61 -8.2,6.44l0 12.87 4.1 0 0 -12.87c0,-1.95 1.84,-2.9 4.1,-2.9l16.39 0 0 15.77 4.1 0 0 -19.31 -20.49 0z"/>
   <path class="fil1" d="M85.64 92.38c0.48,0 0.92,0.19 1.24,0.5l18.01 -14.47c-0.13,-0.28 -0.2,-0.59 -0.2,-0.92 0,-0.91 0.54,-1.7 1.31,-2.06l-0.81 -5.36c-1.16,-0.11 -2.06,-1.08 -2.06,-2.27 0,-1.26 1.02,-2.28 2.27,-2.28 0.89,0 1.66,0.51 2.03,1.25l19.69 -1.54c0.27,-0.82 1.05,-1.41 1.96,-1.41 1.02,0 1.87,0.75 2.03,1.73l16.93 5.14c0.49,-0.79 1.37,-1.32 2.37,-1.32 1.08,0 2.01,0.62 2.47,1.52l15.88 -3.87c0.07,-0.88 0.8,-1.57 1.7,-1.57 0.7,0 1.3,0.43 1.57,1.04l18.4 0.58c0.21,-0.29 0.55,-0.48 0.93,-0.48 0.55,0 1.01,0.39 1.11,0.92l9.23 3.79c0.29,-0.31 0.71,-0.5 1.18,-0.5 0.47,0 0.89,0.19 1.19,0.51l18.8 -4.91c0.13,-0.78 0.8,-1.38 1.62,-1.38 0.69,0 1.29,0.44 1.52,1.06l27.26 2.9c0.27,-0.37 0.7,-0.61 1.19,-0.61 0.46,0 0.87,0.22 1.14,0.56l27.76 -0.75c0.15,-0.23 0.41,-0.38 0.71,-0.38 0.18,0 0.34,0.06 0.48,0.16l32.61 1.52c0.2,-0.32 0.55,-0.54 0.96,-0.54 0.36,0 0.68,0.17 0.89,0.42l25.31 -2.57c0.14,-0.48 0.58,-0.84 1.1,-0.84 0.63,0 1.14,0.51 1.14,1.14 0,0.63 -0.51,1.14 -1.14,1.14 -0.48,0 -0.9,-0.3 -1.06,-0.73l-25.1 2.55 0 0.04c0,0.62 -0.51,1.13 -1.14,1.13 -0.59,0 -1.08,-0.46 -1.13,-1.04l-32.07 -1.49c-0.01,0.45 -0.39,0.82 -0.85,0.82 -0.36,0 -0.67,-0.22 -0.8,-0.54l-13.17 3.89c0.02,0.08 0.03,0.16 0.03,0.25 0,0.57 -0.46,1.03 -1.03,1.03 -0.57,0 -1.03,-0.46 -1.03,-1.03 0,-0.04 0,-0.09 0.01,-0.13l-12.33 -2.48c-0.24,0.47 -0.73,0.79 -1.29,0.79 -0.59,0 -1.09,-0.34 -1.33,-0.84l-22.21 4.33c0.03,0.1 0.04,0.21 0.04,0.33 0,0.8 -0.65,1.46 -1.46,1.46 -0.8,0 -1.46,-0.66 -1.46,-1.46 0,-0.05 0.01,-0.11 0.01,-0.16l-18.05 -1.35 -15.06 6.45c0.03,0.11 0.05,0.24 0.05,0.36 0,0.91 -0.74,1.64 -1.64,1.64 -0.9,0 -1.64,-0.73 -1.64,-1.64 0,-0.18 0.04,-0.36 0.1,-0.53l-12.25 -4.23c-0.15,0.41 -0.54,0.7 -1,0.7 -0.34,0 -0.64,-0.16 -0.84,-0.4l-14.58 8.02c0.13,0.31 0.21,0.65 0.21,1 0,1.42 -1.15,2.57 -2.56,2.57 -1.42,0 -2.56,-1.15 -2.56,-2.57 0,-0.14 0.01,-0.29 0.03,-0.43l-17.67 -6.84c-0.27,0.59 -0.87,1 -1.56,1 -0.38,0 -0.73,-0.12 -1.02,-0.34l-13.45 13.36c0.21,0.34 0.32,0.74 0.32,1.16 0,1.26 -1.02,2.28 -2.27,2.28 -1.23,0 -2.23,-0.98 -2.27,-2.2l-32.93 1.39c-0.1,0.9 -0.85,1.59 -1.77,1.59 -0.98,0 -1.78,-0.79 -1.78,-1.78 0,-0.98 0.8,-1.78 1.78,-1.78zm1.64 1.09c0.02,0.06 0.04,0.11 0.06,0.17l33.08 -1.39c0.11,-0.39 0.33,-0.73 0.61,-1.01l-12.4 -12.19c-0.42,0.45 -1.01,0.72 -1.66,0.72 -0.68,0 -1.28,-0.29 -1.7,-0.76l-17.99 14.46zm21.75 -15.01l12.59 12.37c0.3,-0.15 0.63,-0.23 0.99,-0.23 0.02,0 0.04,0 0.06,0l3.31 -13.42 -16.74 0.23c0,0.03 0,0.06 0,0.08 0,0.35 -0.07,0.67 -0.21,0.97zm-3.13 -8.43l0.79 5.2c0.09,-0.01 0.18,-0.02 0.28,-0.02 0.44,0 0.84,0.13 1.19,0.34l18.91 -9.22c-0.03,-0.12 -0.05,-0.25 -0.05,-0.37l-19.37 1.51c0.02,0.11 0.03,0.22 0.03,0.33 0,1.09 -0.76,2 -1.78,2.23zm41.85 1.32l-16.65 -5.06c-0.19,0.94 -1.02,1.66 -2.02,1.66 -0.03,0 -0.06,0 -0.09,0l-2.1 8.5 10.58 -0.14c0.26,-0.6 0.86,-1.03 1.56,-1.03 0.46,0 0.87,0.18 1.17,0.47l7.46 -3.27c-0.02,-0.11 -0.03,-0.22 -0.03,-0.33 0,-0.28 0.05,-0.55 0.12,-0.8zm-23.64 19.82l13.43 -13.34c-0.13,-0.24 -0.21,-0.52 -0.21,-0.81l-10.62 0.15 -3.34 13.56c0.27,0.1 0.52,0.25 0.74,0.44zm-15.01 -14.47l17.06 -0.24 2.14 -8.67c-0.4,-0.16 -0.74,-0.45 -0.96,-0.8l-18.6 9.07c0.15,0.19 0.28,0.41 0.36,0.64zm38.73 -3.52l-7.22 3.17c0.08,0.2 0.13,0.41 0.13,0.64l0 0.01 17.74 6.86c0.41,-0.86 1.29,-1.45 2.31,-1.45 0.32,0 0.63,0.06 0.92,0.17l4.67 -8.43 -13.26 -1.41c-0.27,1.25 -1.38,2.19 -2.71,2.19 -1.17,0 -2.17,-0.73 -2.58,-1.75zm56.68 -0.7l5.37 0.4 13.09 -5.6c-0.02,-0.05 -0.04,-0.1 -0.05,-0.16l-18.48 4.83c0.04,0.15 0.07,0.32 0.07,0.49 0,0.01 0,0.03 0,0.04zm26.06 1.64l22.43 -4.37c0,-0.03 0,-0.05 0.01,-0.08l-26.89 -2.87c-0.03,0.38 -0.19,0.72 -0.44,0.98l3.34 5.95c0.15,-0.06 0.32,-0.08 0.48,-0.08 0.43,0 0.81,0.18 1.07,0.47zm-61.73 -6.4l-15.72 3.84c0.03,0.15 0.05,0.31 0.06,0.47l13.58 1.44 2.71 -4.91c-0.28,-0.2 -0.51,-0.49 -0.63,-0.84zm1.29 1.12l-2.61 4.71 10.2 1.08c0.19,-0.25 0.5,-0.41 0.84,-0.41 0.14,0 0.27,0.02 0.39,0.07l11.05 -6.52 -17.84 -0.56c-0.02,0.92 -0.78,1.66 -1.7,1.66 -0.11,0 -0.22,-0.01 -0.33,-0.03zm-2.98 5.39l-4.82 8.69c0.17,0.13 0.32,0.28 0.45,0.44l14.62 -8.05 -10.25 -1.08zm23.26 -5.88l-10.91 6.44c0.02,0.03 0.04,0.07 0.05,0.1l12.64 4.37c0.3,-0.3 0.71,-0.48 1.16,-0.48 0.27,0 0.53,0.06 0.76,0.18l7.25 -5.91c-0.08,-0.19 -0.12,-0.4 -0.12,-0.61 0,-0.19 0.03,-0.37 0.08,-0.53l-8.94 -3.68c-0.19,0.38 -0.57,0.64 -1.02,0.64 -0.4,0 -0.75,-0.2 -0.95,-0.52zm11.36 5.29l-7.01 5.71 13.7 -5.86 -4.13 -0.31c-0.27,0.53 -0.82,0.89 -1.45,0.89 -0.43,0 -0.82,-0.16 -1.11,-0.43zm26.66 0.48l-3.33 -5.93c-0.19,0.07 -0.39,0.11 -0.61,0.11 -0.43,0 -0.81,-0.16 -1.1,-0.42l-11.97 5.12 16.89 1.26c0.04,-0.05 0.08,-0.1 0.12,-0.14zm52.37 -5.16l-24.9 0.67c0.01,0.06 0.01,0.12 0.01,0.18l12.52 2.52c0.18,-0.16 0.41,-0.25 0.67,-0.25 0.21,0 0.4,0.06 0.56,0.16l11.14 -3.28z"/>
   <path class="fil2" d="M378.27 26.81l-4.35 0 -0.02 0 -0.02 0c-0.24,0 -0.46,-0.07 -0.68,-0.2 -0.21,-0.13 -0.36,-0.3 -0.46,-0.5l-2.32 -5.11c-0.01,-0.03 -0.03,-0.04 -0.05,-0.04 -0.03,0 -0.04,0.02 -0.04,0.06l0 3.1c-0.11,-0.25 -0.26,-0.48 -0.38,-0.72 -0.08,-0.15 -0.18,-0.29 -0.25,-0.45 -0.02,-0.04 -0.02,-0.08 -0.02,-0.13 -0.02,-0.2 0,-0.4 -0.04,-0.6 -0.04,-0.21 -0.12,-0.42 -0.21,-0.63 -0.09,-0.18 -0.19,-0.36 -0.31,-0.52 -0.08,-0.11 -0.17,-0.2 -0.26,-0.29l0 -1.01c0,-0.34 0.13,-0.62 0.36,-0.85 0.24,-0.23 0.54,-0.35 0.89,-0.35 0.23,0 0.46,0.07 0.67,0.2 0.21,0.13 0.36,0.3 0.46,0.51l2.32 5.11c0.01,0.03 0.03,0.04 0.05,0.04 0.02,0 0.03,-0.02 0.03,-0.05l0 -5.11c0,-0.2 0.07,-0.37 0.21,-0.5 0.14,-0.13 0.32,-0.2 0.54,-0.2 0.21,0 0.38,0.07 0.52,0.21 0.14,0.13 0.2,0.3 0.2,0.49l0 6.19 3.16 0c0.45,0 0.77,-0.1 0.96,-0.28 0.2,-0.19 0.3,-0.52 0.3,-0.98 0,-0.29 -0.1,-0.5 -0.28,-0.61 -0.19,-0.12 -0.56,-0.24 -1.1,-0.34 -0.22,-0.05 -0.4,-0.09 -0.54,-0.12 -0.14,-0.03 -0.31,-0.08 -0.52,-0.15 -0.21,-0.07 -0.38,-0.14 -0.51,-0.21 -0.13,-0.08 -0.28,-0.17 -0.43,-0.3 -0.14,-0.12 -0.26,-0.25 -0.35,-0.4 -0.08,-0.14 -0.16,-0.32 -0.21,-0.53 -0.06,-0.21 -0.09,-0.43 -0.09,-0.69 0,-1.52 0.92,-2.28 2.76,-2.28l1.81 0c0.21,0 0.39,0.07 0.53,0.21 0.14,0.14 0.21,0.3 0.21,0.47 0,0.18 -0.07,0.33 -0.22,0.47 -0.15,0.15 -0.31,0.22 -0.51,0.22l-1.82 0c-0.46,0 -0.79,0.07 -1,0.2 -0.21,0.14 -0.32,0.38 -0.32,0.71 0,0.15 0.02,0.28 0.07,0.39 0.04,0.1 0.09,0.19 0.15,0.26 0.06,0.06 0.16,0.12 0.31,0.17 0.15,0.05 0.29,0.09 0.41,0.12 0.12,0.03 0.31,0.07 0.57,0.11 0.4,0.07 0.75,0.16 1.03,0.26 0.28,0.09 0.54,0.23 0.79,0.4 0.24,0.16 0.42,0.39 0.54,0.66 0.12,0.27 0.17,0.59 0.17,0.98 0,1.74 -0.9,2.61 -2.71,2.61zm-11.52 -6.36c0.2,1.24 0.41,2.91 2.11,2.84l0 2.83c0,0.19 0.08,0.36 0.21,0.49 0.15,0.13 0.32,0.2 0.52,0.2 0.21,0 0.39,-0.07 0.53,-0.2 0.14,-0.13 0.21,-0.3 0.21,-0.49l0 -0.55c-0.04,-0.63 -0.35,-2.07 -0.85,-2.56 -0.18,-0.04 -0.34,-0.15 -0.51,-0.23 -0.14,-0.06 -0.3,-0.11 -0.44,-0.19l0 0c-0.12,-0.02 -0.23,-0.05 -0.42,-0.02 -0.07,0.02 -0.13,0.04 -0.19,0.06 0.16,-0.12 0.24,-0.16 0.44,-0.14 -0.61,-0.37 -0.78,-0.66 -1.08,-1.33 0.16,0.19 0.3,0.38 0.47,0.55 0.16,0.16 0.29,0.28 0.42,0.38 -0.11,-0.21 -0.11,-0.33 -0.08,-0.58 0.02,0.09 0.03,0.17 0.05,0.26 0.05,0.21 0.11,0.32 0.18,0.44 0.2,0.14 0.38,0.24 0.58,0.34 -0.14,-0.19 -0.14,-0.28 -0.11,-0.48 0.01,0.06 0.02,0.13 0.04,0.19 0.07,0.19 0.13,0.27 0.21,0.37 0.14,0.08 0.28,0.16 0.44,0.26 0.04,-0.18 0.03,-0.42 0,-0.59 -0.05,-0.28 -0.13,-0.56 -0.31,-0.78 -0.18,-0.24 -0.4,-0.31 -0.68,-0.43 -0.56,-0.22 -0.92,0 -1.74,-0.64zm0.3 -1.18c0.03,0.17 0.05,0.35 0.08,0.53 0.08,0.34 0.42,0.67 0.81,0.65 0.08,0 0.18,-0.03 0.23,-0.11 0.05,-0.09 0.04,-0.2 0.02,-0.3 -0.11,-0.65 -0.68,-0.69 -1.14,-0.77z"/>
   <path class="fil2" d="M389.29 24.99c-1.28,8.18 -2.7,19.2 -13.91,18.74l-3.01 -0.53c-1.03,0.07 -1.78,0.64 -2.24,1.62 -0.7,1.45 -1.24,3.67 -0.37,5.1l-2.36 -0.02c0.95,-3.27 2.27,-6.41 3.92,-8.02 1.18,-0.31 2.22,-1.03 3.34,-1.53 0.97,-0.42 1.99,-0.73 2.92,-1.25l0.01 0c0.81,-0.16 1.52,-0.31 2.75,-0.11 0.44,0.07 0.85,0.22 1.27,0.33 -1.05,-0.77 -1.58,-1.05 -2.9,-0.88 4,-2.44 5.13,-4.34 7.08,-8.77 -1.03,1.22 -1.97,2.51 -3.09,3.64 -1.01,1.02 -1.92,1.83 -2.76,2.5 0.72,-1.38 0.71,-2.18 0.52,-3.83 -0.1,0.56 -0.15,1.12 -0.29,1.68 -0.36,1.41 -0.77,2.15 -1.23,2.91 -1.31,0.94 -2.51,1.59 -3.78,2.27 0.91,-1.23 0.92,-1.83 0.71,-3.2 -0.09,0.43 -0.15,0.86 -0.29,1.28 -0.4,1.23 -0.88,1.79 -1.41,2.46 -0.88,0.48 -1.82,1.02 -2.86,1.7 -0.28,-1.22 -0.19,-2.77 0,-3.92 0.3,-1.81 0.87,-3.7 2.02,-5.13 1.25,-1.55 2.68,-2.05 4.53,-2.8 3.66,-1.48 6.03,-0.05 11.43,-4.24zm0.98 -6.17c-0.73,1.21 -0.75,1.78 -0.99,2.93 -0.48,2.3 -2.74,4.45 -5.28,4.35 -0.57,-0.03 -1.24,-0.27 -1.55,-0.75 -2.24,-3.64 5.91,-5.65 7.82,-6.53z"/>
  </g>
 </g>
</svg>
