<svg width="337" height="84" viewBox="0 0 337 84" fill="none" xmlns="http://www.w3.org/2000/svg">
<path d="M336.96 53.7321H314.876V68.2374H336.96V53.7321Z" fill="#B5D800"/>
<path d="M60.4989 12.0894L37.5948 2.58325L37.6687 17.8509C38.6513 17.9704 39.5336 18.4197 40.199 19.0864C40.5186 19.4066 40.7881 19.777 40.9956 20.1857L60.4989 12.0894V12.0894ZM37.0486 0L50.1462 5.43653L63.2438 10.8731L68.6694 23.9972L74.0949 37.1237L68.6694 50.2479L63.2438 63.372L50.1462 68.8086L37.0486 74.2451L23.9487 68.8086L10.8511 63.372L5.42553 50.2479L0 37.1237L5.42553 23.9972L10.8511 10.8731L23.9487 5.43653L37.0486 0V0ZM26.6054 44.1303C26.8892 44.1303 27.1658 44.1685 27.4282 44.2378L35.0072 25.9018C34.6733 25.7106 34.3657 25.474 34.0962 25.204C33.5834 24.6902 33.1995 24.0498 32.9968 23.3329L18.0676 24.7117C18.0175 25.6819 17.605 26.5542 16.9634 27.197C16.8442 27.3165 16.7154 27.4288 16.5795 27.5339L25.8184 44.2283C26.0712 44.1638 26.3359 44.1303 26.6054 44.1303V44.1303ZM28.4155 44.6895C28.5848 44.8018 28.7398 44.9332 28.8829 45.0766C29.3503 45.545 29.6747 46.1568 29.7844 46.8402L42.9225 46.6729C43.0895 45.5976 43.5998 44.6345 44.332 43.8985C44.6706 43.5616 45.0546 43.2724 45.4743 43.043L38.5296 26.2435C38.0956 26.3893 37.6305 26.4705 37.1464 26.4705C36.7529 26.4705 36.3737 26.418 36.0112 26.3176L28.4155 44.6895V44.6895ZM29.7748 47.9275C29.658 48.5895 29.3384 49.1797 28.8829 49.6361C28.7255 49.7939 28.5538 49.9348 28.3678 50.0567L37.2347 71.5065L45.3694 51.8251C44.9902 51.6052 44.642 51.3352 44.332 51.0245C43.4877 50.1786 42.944 49.0339 42.8701 47.7626L29.7748 47.9275V47.9275ZM27.3709 50.4893C27.1253 50.549 26.8701 50.5825 26.6054 50.5825C25.9233 50.5825 25.2889 50.3674 24.769 50.0041L13.0499 61.9311L36.0446 71.4731L27.3709 50.4893V50.4893ZM23.994 49.2394C23.6124 48.7089 23.3882 48.0589 23.3882 47.3564C23.3882 47.1102 23.4145 46.8713 23.4669 46.6419L2.72827 38.0342L12.2867 61.1568L23.994 49.2394ZM23.8819 45.6358C24.0107 45.4327 24.1609 45.2439 24.3302 45.0766C24.4805 44.9261 24.645 44.7899 24.8215 44.6704L15.6303 28.0621C15.213 28.2198 14.7598 28.3082 14.2876 28.3082C13.441 28.3082 12.6612 28.0286 12.0292 27.5578L2.77119 36.8728L23.8819 45.6358V45.6358ZM60.754 22.3388C61.045 22.4606 61.3073 22.6399 61.5267 22.8597C61.9655 23.2994 62.2374 23.9088 62.2374 24.5803C62.2374 25.0582 62.1015 25.5027 61.8654 25.8779L70.8229 34.8894L62.2112 14.0585L60.754 22.3388V22.3388ZM61.0951 26.6474C60.7206 26.8816 60.2795 27.0154 59.8073 27.0154C59.5735 27.0154 59.347 26.9843 59.1323 26.9222L50.2321 43.0024C50.6804 43.2413 51.0906 43.5424 51.4436 43.8985C51.7441 44.1996 52.0064 44.5389 52.2234 44.907L71.3523 36.966L61.0951 26.6474V26.6474ZM58.1832 26.3941C58.1522 26.363 58.1188 26.3343 58.0902 26.3033C57.7205 25.9352 57.4701 25.4478 57.3986 24.9053L41.2746 23.4141C41.0647 24.0976 40.6903 24.7093 40.199 25.204C39.9892 25.4143 39.7578 25.6031 39.5074 25.7656L46.4759 42.6248C46.9243 42.4934 47.3989 42.4241 47.8878 42.4241C48.3481 42.4241 48.7916 42.4862 49.2138 42.6009L58.1832 26.3941V26.3941ZM57.4987 23.8204C57.618 23.4548 57.8231 23.1274 58.0902 22.8597C58.5004 22.4463 59.0608 22.1811 59.6832 22.15L61.3025 12.9354L41.3628 21.2108C41.4272 21.5119 41.463 21.825 41.463 22.1452C41.463 22.2097 41.463 22.2742 41.4582 22.3388L57.4987 23.8204V23.8204ZM32.8322 22.2551C32.8322 22.2193 32.8322 22.1811 32.8322 22.1452C32.8322 21.8513 32.8608 21.5645 32.9181 21.2873L12.8066 12.9401L14.1755 20.7257C14.2113 20.7233 14.2495 20.7233 14.2876 20.7233C15.3322 20.7233 16.279 21.1487 16.9634 21.8345C17.4499 22.3197 17.8029 22.9386 17.9675 23.6292L32.8322 22.2551V22.2551ZM33.2663 20.2526C33.4761 19.82 33.7575 19.4257 34.0962 19.0864C34.752 18.4292 35.6177 17.9848 36.5836 17.8581L36.5097 2.57847L13.596 12.0894L33.2663 20.2526ZM11.2613 26.7908C10.7867 26.1575 10.5053 25.3689 10.5053 24.5158C10.5053 23.4691 10.9274 22.5204 11.6118 21.8345C12.0268 21.4211 12.5348 21.1009 13.1024 20.9145L11.8932 14.0394L3.31971 34.7771L11.2613 26.7908V26.7908ZM52.6718 45.8987C52.8316 46.3909 52.9174 46.9167 52.9174 47.4615C52.9174 48.6898 52.4786 49.8154 51.7512 50.69L61.8129 61.1472L71.3165 38.1609L52.6718 45.8987V45.8987ZM50.969 51.4475C50.1176 52.1071 49.0492 52.5014 47.8878 52.5014C47.3583 52.5014 46.8456 52.4177 46.3639 52.2648L38.501 71.2867L61.0545 61.9263L50.969 51.4475V51.4475Z" fill="white"/>
<path d="M111.733 31.5488C111.733 33.255 110.118 34.653 108.143 34.653H93.7914V25.338H108.143C110.118 25.338 111.733 26.7335 111.733 28.4422V31.5488V31.5488ZM115.319 28.4422C115.212 24.9962 111.983 22.2338 108.143 22.2338H90.2046V43.9679H93.7914V37.7572H108.143C112.164 37.7572 115.319 34.8393 115.319 31.5488V28.4422ZM118.191 43.9679H121.778L139.719 31.2644V43.9679H143.308V27.0729H139.719L121.778 39.4658V27.0729H118.191V43.9679V43.9679ZM168.423 30.1795V27.0729H146.895V43.9679H150.484V30.1795H168.423ZM175.103 43.9679H178.692L196.633 26.994V43.8269H200.22V22.8025H196.633L178.692 39.4658V22.8025H175.103V43.9679ZM207.396 27.0084H203.809V43.8269H207.396L207.42 36.9757H225.361L225.337 43.9679H228.927V27.0609H225.337L225.361 33.8715H207.42L207.396 27.0084ZM255.835 30.1651V27.0609H230.72V30.1651H241.485V43.9679H245.072V30.1651H255.835V30.1651ZM261.217 30.1651H282.748V27.0609H257.631V43.9679H282.748V40.8614H261.217L261.244 36.9757H279.182V33.8715H261.244L261.217 30.1651V30.1651ZM292.793 27.0609C288.774 27.0609 285.617 29.3502 285.617 32.703V43.9679H289.206V32.703C289.206 30.9943 290.82 30.1651 292.793 30.1651H307.145V43.9679H310.734V27.0609H292.793V27.0609Z" fill="white"/>
<path fill-rule="evenodd" clip-rule="evenodd" d="M74.9773 80.8812C75.3994 80.8812 75.781 81.0485 76.06 81.3209L91.8286 68.6508C91.7189 68.4046 91.6593 68.1322 91.6593 67.8454C91.6593 67.0473 92.1267 66.3591 92.804 66.0388L92.091 61.3503C91.0798 61.2547 90.2904 60.4016 90.2904 59.3621C90.2904 58.2604 91.1823 57.3667 92.2818 57.3667C93.0568 57.3667 93.7294 57.8112 94.0585 58.4611L111.294 57.111C111.532 56.3917 112.21 55.8707 113.008 55.8707C113.908 55.8707 114.652 56.5279 114.79 57.3882L129.614 61.8927C130.041 61.1973 130.809 60.7361 131.682 60.7361C132.626 60.7361 133.447 61.2762 133.847 62.0648L147.749 58.6738C147.813 57.9067 148.455 57.3045 149.237 57.3045C149.852 57.3045 150.381 57.6797 150.61 58.215L166.725 58.7192C166.906 58.4683 167.202 58.3034 167.536 58.3034C168.017 58.3034 168.42 58.6452 168.511 59.1016L176.589 62.4209C176.849 62.1508 177.213 61.9835 177.619 61.9835C178.031 61.9835 178.401 62.1556 178.663 62.4352L195.128 58.1314C195.24 57.4503 195.83 56.9294 196.543 56.9294C197.151 56.9294 197.671 57.3117 197.878 57.8494L221.743 60.392C221.975 60.0718 222.351 59.8615 222.778 59.8615C223.184 59.8615 223.546 60.0527 223.78 60.349L248.084 59.6918C248.218 59.4935 248.446 59.3621 248.704 59.3621C248.861 59.3621 249.007 59.4122 249.129 59.4959L277.675 60.8293C277.849 60.5473 278.162 60.3609 278.519 60.3609C278.832 60.3609 279.108 60.5043 279.292 60.729L301.459 58.4755C301.576 58.0525 301.962 57.7419 302.42 57.7419C302.971 57.7419 303.417 58.1887 303.417 58.7384C303.417 59.2904 302.971 59.7372 302.42 59.7372C301.996 59.7372 301.633 59.472 301.49 59.0968L279.514 61.3312V61.3598C279.514 61.9095 279.068 62.3563 278.519 62.3563C277.997 62.3563 277.57 61.9549 277.527 61.4459L249.45 60.1339C249.439 60.5354 249.107 60.8604 248.704 60.8604C248.387 60.8604 248.117 60.662 248.008 60.3848L236.475 63.7854C236.494 63.8571 236.503 63.9311 236.503 64.01C236.503 64.5094 236.1 64.9133 235.602 64.9133C235.103 64.9133 234.698 64.5094 234.698 64.01C234.698 63.9718 234.7 63.9335 234.705 63.8953L223.914 61.7231C223.704 62.1365 223.274 62.4185 222.778 62.4185C222.266 62.4185 221.824 62.1174 221.622 61.6824L202.173 65.4677C202.195 65.5609 202.207 65.6565 202.207 65.7569C202.207 66.4618 201.634 67.0353 200.931 67.0353C200.225 67.0353 199.655 66.4618 199.655 65.7569C199.655 65.7115 199.657 65.666 199.662 65.623L183.858 64.4401L170.674 70.0798C170.698 70.1849 170.71 70.2925 170.71 70.4024C170.71 71.1958 170.068 71.8362 169.279 71.8362C168.487 71.8362 167.846 71.1958 167.846 70.4024C167.846 70.2375 167.874 70.0798 167.927 69.9316L157.209 66.2324C157.078 66.5909 156.735 66.8466 156.332 66.8466C156.034 66.8466 155.769 66.708 155.597 66.4905L142.833 73.5186C142.948 73.7886 143.012 74.0849 143.012 74.3932C143.012 75.6334 142.008 76.6395 140.771 76.6395C139.533 76.6395 138.529 75.6334 138.529 74.3932C138.529 74.2665 138.541 74.1399 138.562 74.018L123.084 68.0271C122.848 68.5456 122.328 68.9065 121.723 68.9065C121.389 68.9065 121.079 68.7941 120.831 68.6078L109.057 80.2981C109.236 80.5968 109.336 80.9457 109.336 81.3185C109.336 82.4201 108.444 83.3139 107.344 83.3139C106.269 83.3139 105.391 82.4584 105.355 81.3902L76.5251 82.6018C76.444 83.388 75.781 83.9997 74.9773 83.9997C74.1187 83.9997 73.4224 83.3019 73.4224 82.4393C73.4224 81.579 74.1187 80.8812 74.9773 80.8812V80.8812ZM76.413 81.8371C76.432 81.8848 76.4511 81.9326 76.4654 81.9828L105.429 80.7641C105.527 80.4248 105.713 80.1237 105.959 79.8847L95.103 69.2123C94.7405 69.5995 94.223 69.8408 93.6507 69.8408C93.0616 69.8408 92.5298 69.5851 92.1649 69.1765L76.413 81.8371V81.8371ZM95.456 68.689L106.476 79.5214C106.739 79.3924 107.034 79.3207 107.344 79.3207C107.361 79.3207 107.378 79.3231 107.395 79.3231L110.297 67.5682L95.642 67.7737C95.642 67.7976 95.642 67.8215 95.642 67.8454C95.642 68.1465 95.5752 68.4309 95.456 68.689ZM92.7158 61.312L93.405 65.8644C93.4861 65.8548 93.5672 65.8501 93.6507 65.8501C94.0346 65.8501 94.39 65.9576 94.6952 66.1464L111.246 58.0692C111.222 57.9641 111.21 57.8542 111.206 57.7442L94.2516 59.0705C94.2659 59.1661 94.2731 59.2641 94.2731 59.3621C94.2731 60.3155 93.6077 61.1137 92.7158 61.312V61.312ZM129.359 62.4639L114.78 58.0334C114.613 58.8626 113.884 59.4887 113.008 59.4887C112.982 59.4887 112.956 59.4863 112.932 59.4863L111.093 66.935L120.356 66.8059C120.588 66.2802 121.112 65.9122 121.723 65.9122C122.121 65.9122 122.481 66.0675 122.748 66.3208L129.273 63.458C129.261 63.3624 129.254 63.2644 129.254 63.1664C129.254 62.9227 129.292 62.6861 129.359 62.4639V62.4639ZM108.659 79.8178L120.421 68.1394C120.301 67.9291 120.232 67.6877 120.23 67.4296L110.938 67.5587L108.007 79.4354C108.251 79.5214 108.47 79.6529 108.659 79.8178ZM95.5204 67.1524L110.45 66.9445L112.324 59.3525C111.976 59.2091 111.683 58.9606 111.485 58.6475L95.2008 66.5909C95.3344 66.7581 95.4441 66.9469 95.5204 67.1524V67.1524ZM129.426 64.0674L123.106 66.8418C123.177 67.0162 123.218 67.2074 123.218 67.4081V67.4129L138.751 73.423C139.111 72.6702 139.881 72.1493 140.771 72.1493C141.054 72.1493 141.326 72.2018 141.577 72.2998L145.669 64.9157L134.055 63.685C133.819 64.7795 132.846 65.5991 131.682 65.5991C130.659 65.5991 129.784 64.9659 129.426 64.0674V64.0674ZM179.05 63.4556L183.755 63.8093L195.214 58.9056C195.198 58.8602 195.181 58.8124 195.167 58.7646L178.988 62.992C179.028 63.1258 179.052 63.2692 179.052 63.4174C179.052 63.4293 179.05 63.4436 179.05 63.4556V63.4556ZM201.87 64.8918L221.505 61.0707C221.505 61.0444 221.507 61.0205 221.51 60.9942L197.969 58.485C197.94 58.8148 197.802 59.1135 197.59 59.3429L200.513 64.5477C200.645 64.5023 200.785 64.4784 200.931 64.4784C201.303 64.4784 201.639 64.6385 201.87 64.8918ZM147.825 59.2928L134.055 62.655C134.083 62.7865 134.102 62.9251 134.107 63.0661L145.996 64.323L148.376 60.0264C148.123 59.8472 147.927 59.5915 147.825 59.2928V59.2928ZM148.951 60.2701L146.666 64.3947L155.592 65.3411C155.764 65.1188 156.031 64.9754 156.332 64.9754C156.451 64.9754 156.565 64.9993 156.67 65.04L166.346 59.331L150.73 58.8387C150.708 59.6488 150.048 60.2988 149.237 60.2988C149.139 60.2988 149.044 60.2893 148.951 60.2701V60.2701ZM146.339 64.985L142.118 72.6009C142.266 72.7132 142.399 72.8423 142.514 72.9857L155.313 65.9361L146.339 64.985V64.985ZM166.701 59.8424L157.157 65.4749C157.174 65.5059 157.188 65.537 157.2 65.5705L168.265 69.3892C168.525 69.1287 168.883 68.9686 169.279 68.9686C169.52 68.9686 169.746 69.0283 169.947 69.1335L176.295 63.9598C176.226 63.7925 176.188 63.6085 176.188 63.4174C176.188 63.2572 176.214 63.1019 176.262 62.9585L168.43 59.7396C168.268 60.0694 167.929 60.2988 167.536 60.2988C167.185 60.2988 166.877 60.1172 166.701 59.8424V59.8424ZM176.651 64.4712L170.514 69.4728L182.513 64.3398L178.895 64.0697C178.659 64.5333 178.175 64.8512 177.619 64.8512C177.244 64.8512 176.906 64.7078 176.651 64.4712ZM199.991 64.8894L197.074 59.6966C196.91 59.7635 196.731 59.7994 196.543 59.7994C196.171 59.7994 195.832 59.6584 195.579 59.4266L185.1 63.9096L199.891 65.0161C199.922 64.9707 199.955 64.93 199.991 64.8894V64.8894ZM245.842 60.3753L224.042 60.9631C224.049 61.0133 224.054 61.0659 224.054 61.1185L235.013 63.3242C235.17 63.1879 235.375 63.1043 235.602 63.1043C235.781 63.1043 235.95 63.1593 236.091 63.2501L245.842 60.3753V60.3753Z" fill="white"/>
<path d="M325.446 23.0699H321.638H321.623H321.602C321.397 23.0699 321.201 23.0126 321.01 22.8955C320.822 22.7784 320.688 22.6302 320.605 22.4534L318.568 17.9799C318.561 17.9584 318.547 17.9488 318.528 17.9488C318.506 17.9488 318.497 17.9656 318.497 17.999V20.7113C318.397 20.4986 318.265 20.2955 318.16 20.0852C318.094 19.9514 318.003 19.8271 317.941 19.6885C317.924 19.6551 317.927 19.6168 317.924 19.5786C317.91 19.4041 317.927 19.2273 317.893 19.0553C317.853 18.8641 317.784 18.6801 317.703 18.5008C317.631 18.3407 317.54 18.1854 317.433 18.042C317.366 17.9512 317.29 17.8724 317.211 17.7911V16.9069C317.211 16.613 317.316 16.3621 317.524 16.159C317.734 15.9582 317.993 15.8555 318.301 15.8555C318.506 15.8555 318.702 15.9152 318.888 16.0323C319.071 16.147 319.205 16.2952 319.288 16.4744L321.325 20.9479C321.332 20.9742 321.347 20.9885 321.366 20.9885C321.387 20.9885 321.397 20.9718 321.397 20.9383V16.4648C321.397 16.2928 321.456 16.147 321.578 16.0323C321.697 15.9152 321.852 15.8555 322.045 15.8555C322.231 15.8555 322.384 15.9152 322.503 16.0371C322.623 16.1566 322.682 16.3 322.682 16.4648V21.8846H325.446C325.837 21.8846 326.119 21.8034 326.288 21.6385C326.46 21.4736 326.546 21.1892 326.546 20.783C326.546 20.5297 326.464 20.3505 326.3 20.2477C326.135 20.1449 325.816 20.0446 325.344 19.949C325.15 19.9084 324.993 19.8725 324.869 19.8438C324.747 19.8176 324.592 19.7745 324.411 19.7148C324.23 19.6575 324.082 19.5953 323.965 19.5308C323.848 19.4663 323.724 19.3802 323.593 19.2727C323.464 19.1652 323.362 19.0505 323.285 18.9214C323.209 18.7948 323.147 18.6394 323.095 18.4578C323.045 18.2762 323.018 18.0755 323.018 17.8556C323.018 16.5222 323.824 15.8555 325.434 15.8555H327.02C327.204 15.8555 327.359 15.9176 327.483 16.0419C327.607 16.1661 327.666 16.3023 327.666 16.4529C327.666 16.6058 327.604 16.742 327.478 16.8663C327.349 16.9906 327.201 17.0527 327.03 17.0527H325.434C325.038 17.0527 324.747 17.1124 324.561 17.2319C324.375 17.3514 324.282 17.5593 324.282 17.8556C324.282 17.9871 324.301 18.097 324.34 18.1902C324.378 18.2834 324.423 18.3599 324.473 18.4172C324.526 18.4769 324.616 18.5271 324.747 18.5725C324.876 18.6156 324.995 18.6514 325.1 18.6753C325.208 18.6992 325.372 18.7326 325.599 18.7733C325.957 18.8354 326.259 18.9095 326.505 18.9955C326.751 19.0815 326.982 19.1962 327.194 19.3444C327.407 19.4926 327.564 19.6861 327.666 19.9227C327.771 20.1593 327.821 20.446 327.821 20.783C327.821 22.3076 327.03 23.0699 325.446 23.0699V23.0699ZM315.363 17.5043C315.532 18.5893 315.721 20.0518 317.211 19.992V22.4629C317.211 22.635 317.273 22.7784 317.395 22.8955C317.519 23.0126 317.669 23.0699 317.848 23.0699C318.034 23.0699 318.187 23.0126 318.311 22.8955C318.435 22.7784 318.497 22.635 318.497 22.4629V21.9802C318.456 21.4306 318.187 20.1736 317.75 19.7459C317.593 19.7052 317.455 19.6073 317.307 19.5427C317.178 19.4854 317.04 19.4448 316.918 19.3779V19.3755C316.808 19.354 316.715 19.3348 316.551 19.3611C316.493 19.3707 316.439 19.3922 316.381 19.4065C316.522 19.3038 316.594 19.2679 316.768 19.2894C316.236 18.9644 316.086 18.7135 315.828 18.1257C315.964 18.2858 316.09 18.4578 316.238 18.6084C316.372 18.7446 316.493 18.8521 316.605 18.9405C316.51 18.7565 316.51 18.6514 316.536 18.4315C316.548 18.5056 316.555 18.5797 316.574 18.6538C316.622 18.8426 316.677 18.9405 316.737 19.0409C316.911 19.1652 317.071 19.2512 317.237 19.342C317.118 19.1771 317.116 19.0983 317.144 18.9167C317.156 18.974 317.166 19.0314 317.183 19.0863C317.237 19.2488 317.299 19.3229 317.369 19.4137C317.488 19.4782 317.612 19.5475 317.75 19.6383C317.786 19.4782 317.776 19.2727 317.75 19.1198C317.71 18.8784 317.633 18.6275 317.481 18.4387C317.316 18.2308 317.125 18.1663 316.88 18.0659C316.396 17.87 316.081 18.0588 315.363 17.5043V17.5043ZM315.623 16.4648C315.647 16.6178 315.663 16.7755 315.697 16.9284C315.761 17.2319 316.062 17.5187 316.398 17.5043C316.474 17.502 316.563 17.4709 316.603 17.4064C316.648 17.3299 316.636 17.2271 316.622 17.1411C316.527 16.5748 316.026 16.5413 315.623 16.4648V16.4648Z" fill="#7E9626"/>
<path d="M335.095 21.4784C333.972 28.6403 332.732 38.2875 322.911 37.8813L320.283 37.4224C319.381 37.4774 318.726 37.9816 318.32 38.8347C317.71 40.1108 317.23 42.0513 317.993 43.3011L315.926 43.2843C316.763 40.4239 317.92 37.6686 319.358 36.261C320.39 35.991 321.304 35.3577 322.284 34.9276C323.13 34.5548 324.03 34.2848 324.838 33.8307L324.848 33.826C325.558 33.6874 326.178 33.5607 327.261 33.7351C327.643 33.7973 328 33.9287 328.372 34.0267C327.452 33.3504 326.984 33.1067 325.828 33.2524C329.336 31.1161 330.323 29.4504 332.033 25.5768C331.129 26.6378 330.302 27.7705 329.322 28.7622C328.439 29.656 327.645 30.3657 326.906 30.9536C327.535 29.7372 327.531 29.0442 327.361 27.5937C327.275 28.0835 327.228 28.5806 327.106 29.0633C326.794 30.3012 326.436 30.9464 326.035 31.6107C324.886 32.4352 323.836 33.0039 322.725 33.6013C323.519 32.5212 323.531 32.0002 323.347 30.8006C323.262 31.1758 323.212 31.5558 323.09 31.9238C322.737 32.9943 322.324 33.4842 321.859 34.0721C321.087 34.4951 320.266 34.9634 319.35 35.5633C319.11 34.4951 319.183 33.1401 319.35 32.1341C319.618 30.5473 320.116 28.896 321.122 27.6414C322.217 26.2793 323.467 25.842 325.086 25.1872C328.289 23.8896 330.366 25.1466 335.095 21.4784V21.4784ZM335.951 16.0778C335.315 17.1292 335.296 17.6311 335.086 18.6419C334.666 20.6492 332.682 22.5395 330.461 22.4439C329.961 22.4224 329.372 22.2145 329.109 21.7891C327.144 18.6013 334.275 16.8448 335.951 16.0778V16.0778Z" fill="#7E9626"/>
<path fill-rule="evenodd" clip-rule="evenodd" d="M323.86 59.5726C323.524 59.4626 323.242 59.3097 322.835 59.1998C321.792 58.9202 320.071 58.7601 319.932 58.0503C319.761 57.1638 320.7 56.8794 321.485 56.9129C322.785 56.9702 322.773 57.6895 322.952 58.122L323.829 58.1244C323.915 58.3706 323.87 59.2619 323.86 59.5726V59.5726ZM319.839 61.2669H318.227C318.289 63.9839 321.351 64.3113 323.09 63.7234C323.381 63.6231 323.61 63.4462 323.863 63.3578L323.865 63.7354L325.415 63.7497C325.441 63.2503 325.422 62.6911 325.42 62.2012C325.415 61.7759 325.723 61.4604 326.073 61.2286L327.473 63.7569L329.333 63.7497L327.228 60.1079L328.751 58.3873C328.961 58.177 329.112 58.0432 329.267 57.8018C328.778 57.8018 328.286 57.8066 327.8 57.8018C327.28 57.797 327.411 57.7325 326.865 58.3682C326.693 58.5689 325.658 59.8665 325.417 59.9908L325.42 55.7563C325.222 55.7061 324.06 55.7061 323.863 55.7563L323.86 56.3584C323.715 56.2748 323.605 56.1601 323.443 56.0502C322.351 55.3094 320.512 55.3715 319.453 55.9785C318.919 56.2844 318.442 56.8818 318.361 57.7445C318.036 61.2334 323.097 59.8091 323.195 61.4891C323.247 62.4091 322.217 62.6051 321.394 62.5644C320.505 62.5238 319.873 62.1582 319.839 61.2669V61.2669Z" fill="#656766"/>
<path d="M318.673 64.7675H319.205L319.751 65.9814L320.218 64.7675H320.712L319.918 66.5502C319.832 66.7461 319.744 66.8919 319.656 66.9923C319.565 67.095 319.451 67.1452 319.307 67.1452C319.169 67.1452 319.059 67.1356 318.981 67.1165V66.7653C319.048 66.7676 319.11 66.77 319.162 66.77C319.272 66.77 319.35 66.7509 319.398 66.7103C319.446 66.6697 319.491 66.5836 319.534 66.4498L318.673 64.7675V64.7675ZM320.893 65.4127H321.349V65.8189C321.349 65.9121 321.356 65.9814 321.373 66.0268C321.389 66.0722 321.425 66.1129 321.478 66.1439C321.533 66.1774 321.599 66.1941 321.683 66.1941C321.761 66.1941 321.85 66.175 321.95 66.1391V65.4127H322.398V67.1141H321.95V66.4355C321.776 66.4809 321.642 66.5048 321.549 66.5048C321.413 66.5048 321.289 66.4761 321.18 66.4163C321.07 66.3566 320.994 66.2801 320.953 66.1893C320.912 66.0961 320.893 65.9719 320.893 65.8189V65.4127V65.4127ZM323.178 65.9384L322.773 65.8643C322.818 65.6994 322.899 65.5752 323.011 65.4963C323.121 65.4175 323.288 65.3768 323.51 65.3768C323.71 65.3768 323.858 65.4007 323.956 65.4485C324.053 65.4963 324.123 65.5561 324.163 65.6278C324.204 65.7018 324.223 65.8357 324.223 66.0316L324.218 66.5573C324.218 66.7055 324.225 66.8154 324.239 66.8871C324.251 66.9588 324.28 67.0353 324.318 67.1141H323.872C323.863 67.0855 323.848 67.0425 323.829 66.9827C323.822 66.9564 323.817 66.9397 323.815 66.9325C323.739 67.0066 323.655 67.064 323.569 67.0998C323.481 67.138 323.388 67.1572 323.29 67.1572C323.116 67.1572 322.978 67.1094 322.878 67.0162C322.777 66.9206 322.727 66.8011 322.727 66.6553C322.727 66.5597 322.751 66.4737 322.797 66.3972C322.842 66.3232 322.906 66.2658 322.99 66.2252C323.071 66.1846 323.19 66.1511 323.345 66.12C323.555 66.0818 323.7 66.0436 323.781 66.0101V65.9647C323.781 65.8763 323.76 65.8141 323.717 65.7759C323.674 65.7401 323.593 65.7209 323.476 65.7209C323.395 65.7209 323.333 65.7377 323.288 65.7687C323.242 65.7998 323.207 65.8572 323.178 65.9384V65.9384ZM323.781 66.3016C323.724 66.3208 323.634 66.3447 323.507 66.3709C323.383 66.3972 323.302 66.4235 323.264 66.4498C323.207 66.4904 323.176 66.543 323.176 66.6075C323.176 66.6697 323.2 66.7246 323.247 66.77C323.293 66.8154 323.352 66.8393 323.426 66.8393C323.507 66.8393 323.584 66.813 323.657 66.7605C323.712 66.7198 323.748 66.6697 323.765 66.6099C323.777 66.5717 323.781 66.5 323.781 66.3925V66.3016V66.3016ZM326.145 65.9169L325.704 65.9958C325.689 65.9073 325.656 65.8428 325.601 65.7974C325.549 65.7544 325.482 65.7305 325.396 65.7305C325.284 65.7305 325.196 65.7687 325.129 65.8476C325.062 65.9241 325.029 66.0555 325.029 66.2371C325.029 66.4379 325.062 66.5812 325.131 66.6649C325.198 66.7485 325.289 66.7891 325.403 66.7891C325.487 66.7891 325.558 66.7652 325.611 66.7175C325.666 66.6673 325.704 66.5836 325.725 66.4665L326.169 66.5406C326.123 66.7437 326.035 66.8991 325.904 67.0018C325.775 67.107 325.601 67.1572 325.382 67.1572C325.134 67.1572 324.936 67.0783 324.79 66.923C324.642 66.7652 324.568 66.5478 324.568 66.2682C324.568 65.9862 324.642 65.7687 324.79 65.611C324.938 65.4557 325.138 65.3768 325.391 65.3768C325.596 65.3768 325.761 65.4222 325.883 65.5107C326.004 65.5991 326.092 65.7353 326.145 65.9169V65.9169ZM326.283 65.4127H327.819V65.7759H327.275V67.1141H326.827V65.7759H326.283V65.4127ZM328.069 65.4127H328.518V66.0364H329.166V65.4127H329.615V67.1141H329.166V66.3996H328.518V67.1141H328.069V65.4127ZM330.054 65.4127H330.485V66.4833L331.175 65.4127H331.618V67.1141H331.186V66.0292L330.485 67.1141H330.054V65.4127ZM332.059 65.4127H332.508V66.1081C332.582 66.0985 332.634 66.077 332.665 66.0388C332.696 66.0029 332.734 65.9217 332.777 65.795C332.834 65.6277 332.899 65.5202 332.966 65.4724C333.035 65.427 333.125 65.4031 333.235 65.4031C333.271 65.4031 333.328 65.4055 333.414 65.4103V65.709C333.297 65.709 333.221 65.7186 333.187 65.7425C333.154 65.764 333.118 65.8357 333.08 65.9504C333.028 66.1081 332.951 66.2037 332.853 66.2395C332.997 66.2801 333.116 66.4044 333.214 66.6123C333.218 66.6219 333.226 66.6338 333.23 66.6458L333.483 67.1141H332.999L332.775 66.6219C332.729 66.5215 332.691 66.457 332.656 66.4307C332.622 66.402 332.572 66.3877 332.508 66.3877V67.1141H332.059V65.4127V65.4127Z" fill="#656766"/>
</svg>
