<svg width="619" height="619" viewBox="0 0 619 619" fill="none" xmlns="http://www.w3.org/2000/svg">
<g filter="url(#filter0_d_268_6)">
<path d="M485.792 117.694L313.608 46.375L314.17 160.931C321.56 161.821 328.186 165.197 333.186 170.197C335.589 172.595 337.616 175.375 339.172 178.43L485.792 117.694ZM309.498 27L407.963 67.7856L506.429 108.571L547.214 207.037L588 305.498L547.214 403.963L506.429 502.429L407.963 543.214L309.498 584L211.037 543.214L112.571 502.429L71.7856 403.963L31 305.498L71.7856 207.037L112.571 108.571L211.037 67.7856L309.498 27ZM231.008 358.073C233.143 358.073 235.209 358.35 237.18 358.869L294.16 221.312C291.644 219.873 289.34 218.109 287.309 216.073C283.463 212.227 280.576 207.421 279.046 202.045L166.815 212.396C166.444 219.661 163.345 226.208 158.522 231.032C157.618 231.935 156.65 232.782 155.63 233.556L225.087 358.804C226.98 358.324 228.964 358.073 231.008 358.073ZM244.613 362.257C245.871 363.117 247.042 364.089 248.118 365.162C251.628 368.675 254.069 373.261 254.895 378.391L353.654 377.146C354.925 369.077 358.746 361.859 364.265 356.336C366.793 353.808 369.68 351.638 372.84 349.905L320.639 223.879C317.377 224.981 313.88 225.578 310.25 225.578C307.29 225.578 304.424 225.18 301.701 224.441L244.613 362.257ZM254.826 386.551C253.94 391.516 251.537 395.955 248.118 399.378C246.939 400.553 245.637 401.613 244.242 402.528L310.898 563.458L372.061 415.793C369.205 414.137 366.585 412.119 364.265 409.798C357.916 403.449 353.819 394.857 353.257 385.31L254.826 386.551ZM236.748 405.778C234.911 406.228 232.988 406.466 231.008 406.466C225.869 406.466 221.107 404.863 217.187 402.131L129.102 491.603L301.956 563.203L236.748 405.778ZM211.365 396.4C208.5 392.424 206.814 387.545 206.814 382.268C206.814 380.426 207.017 378.637 207.407 376.913L51.503 312.335L123.354 485.798L211.365 396.4ZM210.535 369.371C211.499 367.841 212.627 366.432 213.898 365.162C215.026 364.033 216.266 363.018 217.598 362.127L148.495 237.523C145.357 238.712 141.96 239.364 138.408 239.364C132.046 239.364 126.172 237.273 121.436 233.746L51.8272 303.631L210.535 369.371ZM487.711 194.581C489.893 195.506 491.859 196.841 493.506 198.492C496.812 201.799 498.861 206.367 498.861 211.411C498.861 214.989 497.833 218.326 496.052 221.148L563.391 288.751L498.654 132.467L487.711 194.581ZM490.265 226.909C487.46 228.663 484.145 229.679 480.592 229.679C478.834 229.679 477.131 229.433 475.523 228.966L408.616 349.616C411.987 351.392 415.055 353.666 417.726 356.336C419.978 358.592 421.949 361.129 423.578 363.895L567.381 304.331L490.265 226.909ZM468.383 225.003C468.141 224.783 467.903 224.558 467.674 224.329C464.904 221.563 463.024 217.911 462.479 213.84L341.268 202.658C339.695 207.789 336.886 212.379 333.186 216.073C331.608 217.656 329.867 219.069 327.991 220.301L380.381 346.776C383.748 345.791 387.309 345.264 390.996 345.264C394.444 345.264 397.781 345.726 400.958 346.59L468.383 225.003ZM463.227 205.71C464.131 202.957 465.669 200.493 467.674 198.492C470.773 195.393 474.979 193.401 479.65 193.163L491.829 124.035L341.929 186.123C342.426 188.383 342.69 190.73 342.69 193.137C342.69 193.626 342.677 194.11 342.66 194.59L463.227 205.71ZM277.814 193.963C277.81 193.686 277.806 193.41 277.806 193.137C277.806 190.929 278.026 188.777 278.445 186.693L127.266 124.074L137.556 182.484C137.837 182.475 138.122 182.471 138.408 182.471C146.261 182.471 153.374 185.656 158.522 190.804C162.169 194.452 164.831 199.084 166.072 204.266L277.814 193.963ZM281.068 178.944C282.654 175.686 284.772 172.73 287.309 170.197C292.236 165.266 298.745 161.916 306.01 160.97L305.448 46.3491L133.204 117.694L281.068 178.944ZM115.648 227.98C112.079 223.226 109.961 217.319 109.961 210.918C109.961 203.065 113.146 195.951 118.293 190.804C121.401 187.696 125.222 185.306 129.491 183.897L120.407 132.32L55.9589 287.904L115.648 227.98ZM426.941 371.338C428.146 375.032 428.799 378.974 428.799 383.067C428.799 392.281 425.501 400.726 420.021 407.287L495.672 485.733L567.103 313.282L426.941 371.338ZM414.139 412.957C407.747 417.919 399.713 420.871 390.996 420.871C386.998 420.871 383.147 420.248 379.529 419.099L320.42 561.803L489.958 491.581L414.139 412.957Z" fill="#010C43" fill-opacity="0.13"/>
</g>
<defs>
<filter id="filter0_d_268_6" x="0" y="0" width="619" height="619" filterUnits="userSpaceOnUse" color-interpolation-filters="sRGB">
<feFlood flood-opacity="0" result="BackgroundImageFix"/>
<feColorMatrix in="SourceAlpha" type="matrix" values="0 0 0 0 0 0 0 0 0 0 0 0 0 0 0 0 0 0 127 0" result="hardAlpha"/>
<feOffset dy="4"/>
<feGaussianBlur stdDeviation="15.5"/>
<feColorMatrix type="matrix" values="0 0 0 0 0.0705882 0 0 0 0 0.388235 0 0 0 0 1 0 0 0 0.2 0"/>
<feBlend mode="normal" in2="BackgroundImageFix" result="effect1_dropShadow_268_6"/>
<feBlend mode="normal" in="SourceGraphic" in2="effect1_dropShadow_268_6" result="shape"/>
</filter>
</defs>
</svg>
