<svg width="819" height="819" viewBox="0 0 819 819" fill="none" xmlns="http://www.w3.org/2000/svg">
<g filter="url(#filter0_df_268_10)">
<path d="M643.395 160.329L414.95 65.7058L415.696 217.693C425.501 218.874 434.291 223.352 440.926 229.987C444.114 233.169 446.803 236.856 448.867 240.91L643.395 160.329ZM409.497 40L540.136 94.1124L670.775 148.225L724.888 278.864L779 409.497L724.888 540.136L670.775 670.775L540.136 724.888L409.497 779L278.864 724.888L148.225 670.775L94.1124 540.136L40 409.497L94.1124 278.864L148.225 148.225L278.864 94.1124L409.497 40ZM305.361 479.252C308.194 479.252 310.934 479.619 313.549 480.307L389.147 297.804C385.81 295.894 382.753 293.554 380.059 290.853C374.955 285.75 371.125 279.374 369.095 272.241L220.193 285.974C219.7 295.613 215.589 304.3 209.189 310.699C207.991 311.897 206.706 313.022 205.353 314.048L297.505 480.221C300.016 479.585 302.649 479.252 305.361 479.252ZM323.412 484.803C325.08 485.943 326.634 487.233 328.062 488.656C332.718 493.318 335.957 499.402 337.053 506.208L468.082 504.557C469.767 493.851 474.837 484.275 482.159 476.947C485.513 473.592 489.344 470.714 493.536 468.415L424.279 301.21C419.951 302.671 415.312 303.463 410.495 303.463C406.567 303.463 402.765 302.935 399.153 301.955L323.412 484.803ZM336.961 517.034C335.786 523.622 332.597 529.511 328.062 534.053C326.497 535.612 324.77 537.017 322.918 538.232L411.355 751.746L492.503 555.831C488.713 553.634 485.238 550.956 482.159 547.877C473.736 539.454 468.3 528.055 467.555 515.388L336.961 517.034ZM312.976 542.544C310.539 543.14 307.987 543.456 305.361 543.456C298.543 543.456 292.224 541.329 287.023 537.705L170.157 656.412L399.491 751.408L312.976 542.544ZM279.299 530.102C275.498 524.826 273.262 518.353 273.262 511.351C273.262 508.908 273.531 506.535 274.048 504.247L67.2024 418.569L162.531 648.711L279.299 530.102ZM278.199 494.241C279.478 492.211 280.974 490.342 282.659 488.656C284.156 487.159 285.802 485.812 287.568 484.631L195.887 319.312C191.723 320.888 187.216 321.755 182.503 321.755C174.063 321.755 166.269 318.979 159.985 314.301L67.6325 407.02L278.199 494.241ZM645.941 262.339C648.836 263.566 651.445 265.337 653.63 267.527C658.017 271.914 660.735 277.975 660.735 284.667C660.735 289.414 659.37 293.841 657.008 297.586L746.35 387.278L660.46 179.928L645.941 262.339ZM649.33 305.229C645.609 307.557 641.21 308.904 636.497 308.904C634.164 308.904 631.904 308.578 629.771 307.958L541.002 468.031C545.474 470.387 549.546 473.404 553.089 476.947C556.077 479.94 558.691 483.306 560.853 486.976L751.643 407.949L649.33 305.229ZM620.298 302.701C619.977 302.408 619.662 302.11 619.358 301.806C615.683 298.136 613.188 293.291 612.465 287.889L451.648 273.055C449.561 279.862 445.834 285.951 440.926 290.853C438.832 292.953 436.522 294.828 434.033 296.462L503.542 464.263C508.009 462.955 512.733 462.256 517.624 462.256C522.2 462.256 526.627 462.87 530.841 464.016L620.298 302.701ZM613.458 277.103C614.656 273.45 616.698 270.182 619.358 267.527C623.469 263.416 629.049 260.773 635.247 260.457L651.406 168.741L452.526 251.117C453.185 254.115 453.535 257.229 453.535 260.423C453.535 261.071 453.517 261.713 453.495 262.35L613.458 277.103ZM367.461 261.518C367.455 261.151 367.45 260.784 367.45 260.423C367.45 257.493 367.741 254.637 368.298 251.873L167.721 168.793L181.373 246.288C181.746 246.277 182.124 246.271 182.503 246.271C192.922 246.271 202.36 250.497 209.189 257.327C214.028 262.166 217.561 268.313 219.207 275.188L367.461 261.518ZM371.778 241.592C373.883 237.269 376.692 233.347 380.059 229.987C386.595 223.444 395.231 219 404.87 217.744L404.125 65.6714L175.599 160.329L371.778 241.592ZM152.307 306.651C147.571 300.343 144.761 292.505 144.761 284.013C144.761 273.594 148.987 264.156 155.816 257.327C159.94 253.204 165.009 250.033 170.673 248.163L158.621 179.733L73.1142 386.154L152.307 306.651ZM565.315 496.85C566.914 501.752 567.78 506.982 567.78 512.412C567.78 524.637 563.405 535.841 556.134 544.546L656.503 648.624L751.275 419.824L565.315 496.85ZM548.33 552.069C539.85 558.652 529.19 562.568 517.624 562.568C512.321 562.568 507.212 561.742 502.412 560.217L423.988 749.55L648.923 656.383L548.33 552.069Z" fill="#010C43" fill-opacity="0.13"/>
</g>
<defs>
<filter id="filter0_df_268_10" x="0" y="0" width="819" height="819" filterUnits="userSpaceOnUse" color-interpolation-filters="sRGB">
<feFlood flood-opacity="0" result="BackgroundImageFix"/>
<feColorMatrix in="SourceAlpha" type="matrix" values="0 0 0 0 0 0 0 0 0 0 0 0 0 0 0 0 0 0 127 0" result="hardAlpha"/>
<feOffset dy="4"/>
<feGaussianBlur stdDeviation="2"/>
<feComposite in2="hardAlpha" operator="out"/>
<feColorMatrix type="matrix" values="0 0 0 0 0 0 0 0 0 0 0 0 0 0 0 0 0 0 0.25 0"/>
<feBlend mode="normal" in2="BackgroundImageFix" result="effect1_dropShadow_268_10"/>
<feBlend mode="normal" in="SourceGraphic" in2="effect1_dropShadow_268_10" result="shape"/>
<feGaussianBlur stdDeviation="20" result="effect2_foregroundBlur_268_10"/>
</filter>
</defs>
</svg>
