<?xml version="1.0" encoding="UTF-8"?>
<!DOCTYPE svg PUBLIC "-//W3C//DTD SVG 1.1//EN" "http://www.w3.org/Graphics/SVG/1.1/DTD/svg11.dtd">
<!-- Creator: CorelDRAW 2020 (64-Bit) -->
<svg xmlns="http://www.w3.org/2000/svg" xml:space="preserve" width="724px" height="421px" version="1.1" style="shape-rendering:geometricPrecision; text-rendering:geometricPrecision; image-rendering:optimizeQuality; fill-rule:evenodd; clip-rule:evenodd"
viewBox="0 0 21.12 12.27"
 xmlns:xlink="http://www.w3.org/1999/xlink"
 xmlns:xodm="http://www.corel.com/coreldraw/odm/2003">
 <defs>
  <style type="text/css">
   <![CDATA[
    .fil0 {fill:#C1D7ED;fill-rule:nonzero}
    .fil2 {fill:#025CB5;fill-rule:nonzero}
    .fil3 {fill:#025CB5;fill-rule:nonzero}
    .fil1 {fill:#0B2E75;fill-rule:nonzero}
   ]]>
  </style>
 </defs>
 <g id="Слой_x0020_1">
  <metadata id="CorelCorpID_0Corel-Layer"/>
  <g id="_2468078621456">
   <path class="fil0" d="M14.44 2l-3.79 -1.57 0.01 2.52c0.17,0.02 0.31,0.1 0.42,0.21 0.05,0.05 0.1,0.11 0.13,0.18l3.23 -1.34zm-3.88 -2l2.17 0.9 2.17 0.9 0.9 2.17 0.9 2.17 -0.9 2.17 -0.9 2.17 -2.17 0.9 -2.17 0.89 -2.17 -0.89 -2.17 -0.9 -0.9 -2.17 -0.9 -2.17 0.9 -2.17 0.9 -2.17 2.17 -0.9 2.17 -0.9zm-1.73 7.3c0.05,0 0.09,0 0.14,0.01l1.25 -3.03c-0.05,-0.03 -0.1,-0.07 -0.15,-0.11 -0.08,-0.09 -0.15,-0.19 -0.18,-0.31l-2.48 0.23c0,0.16 -0.07,0.3 -0.18,0.41 -0.02,0.02 -0.04,0.03 -0.06,0.05l1.53 2.76c0.04,-0.01 0.08,-0.01 0.13,-0.01zm0.3 0.09c0.03,0.02 0.05,0.04 0.08,0.06 0.07,0.08 0.13,0.18 0.15,0.29l2.17 -0.02c0.03,-0.18 0.11,-0.34 0.24,-0.46 0.05,-0.06 0.12,-0.11 0.19,-0.14l-1.16 -2.78c-0.07,0.02 -0.14,0.04 -0.22,0.04 -0.07,0 -0.13,-0.01 -0.19,-0.03l-1.26 3.04zm0.22 0.53c-0.02,0.11 -0.07,0.21 -0.14,0.29 -0.03,0.02 -0.06,0.05 -0.09,0.07l1.47 3.54 1.35 -3.25c-0.07,-0.04 -0.12,-0.08 -0.17,-0.13 -0.14,-0.14 -0.23,-0.33 -0.25,-0.54l-2.17 0.02zm-0.39 0.43c-0.04,0.01 -0.09,0.01 -0.13,0.01 -0.11,0 -0.22,-0.03 -0.31,-0.09l-1.94 1.97 3.81 1.58 -1.43 -3.47zm-0.56 -0.21c-0.07,-0.09 -0.1,-0.19 -0.1,-0.31 0,-0.04 0,-0.08 0.01,-0.12l-3.44 -1.42 1.59 3.82 1.94 -1.97zm-0.02 -0.6c0.02,-0.03 0.04,-0.06 0.07,-0.09 0.03,-0.02 0.05,-0.05 0.08,-0.06l-1.52 -2.75c-0.07,0.03 -0.14,0.04 -0.22,0.04 -0.14,0 -0.27,-0.05 -0.38,-0.12l-1.53 1.54 3.5 1.44zm6.11 -3.85c0.04,0.02 0.09,0.05 0.12,0.09 0.08,0.07 0.12,0.17 0.12,0.28 0,0.08 -0.02,0.16 -0.06,0.22l1.48 1.49 -1.42 -3.45 -0.24 1.37zm0.05 0.72c-0.06,0.03 -0.13,0.06 -0.21,0.06 -0.04,0 -0.08,-0.01 -0.11,-0.02l-1.48 2.66c0.08,0.04 0.15,0.09 0.2,0.15 0.05,0.05 0.1,0.1 0.13,0.16l3.17 -1.31 -1.7 -1.7zm-0.48 -0.05c0,0 -0.01,-0.01 -0.02,-0.01 -0.06,-0.06 -0.1,-0.14 -0.11,-0.23l-2.67 -0.25c-0.04,0.11 -0.1,0.22 -0.18,0.3 -0.03,0.03 -0.07,0.06 -0.11,0.09l1.15 2.79c0.08,-0.02 0.15,-0.04 0.24,-0.04 0.07,0 0.14,0.01 0.21,0.03l1.49 -2.68zm-0.11 -0.42c0.02,-0.06 0.05,-0.12 0.09,-0.16 0.07,-0.07 0.17,-0.11 0.27,-0.12l0.27 -1.52 -3.31 1.37c0.01,0.05 0.02,0.1 0.02,0.15 0,0.01 0,0.02 0,0.03l2.66 0.25zm-4.09 -0.26c0,-0.01 0,-0.01 0,-0.02 0,-0.05 0.01,-0.09 0.01,-0.14l-3.33 -1.38 0.23 1.29c0.01,0 0.01,0 0.02,0 0.17,0 0.33,0.07 0.44,0.18 0.08,0.08 0.14,0.18 0.17,0.3l2.46 -0.23zm0.07 -0.33c0.04,-0.07 0.08,-0.14 0.14,-0.19 0.11,-0.11 0.25,-0.19 0.41,-0.21l-0.01 -2.52 -3.8 1.57 3.26 1.35zm-3.64 1.08c-0.08,-0.11 -0.13,-0.24 -0.13,-0.38 0,-0.17 0.07,-0.33 0.19,-0.44 0.06,-0.07 0.15,-0.12 0.24,-0.15l-0.2 -1.14 -1.42 3.43 1.32 -1.32zm6.86 3.16c0.02,0.08 0.04,0.17 0.04,0.26 0,0.2 -0.07,0.39 -0.2,0.53l1.67 1.73 1.58 -3.8 -3.09 1.28zm-0.28 0.92c-0.15,0.1 -0.32,0.17 -0.51,0.17 -0.09,0 -0.18,-0.01 -0.26,-0.04l-1.3 3.15 3.74 -1.55 -1.67 -1.73z"/>
   <g>
    <path class="fil1" d="M0.09 4.39l0.38 0 0 -0.9 -0.38 0 0 0.9zm3.03 -0.52c0,0.08 -0.17,0.15 -0.38,0.15l-1.51 0 0 -0.38 1.51 0c0.21,0 0.38,0.07 0.38,0.16l0 0.07zm0.38 0.52l0 -0.01 -0.53 -0.22c0.32,-0.04 0.53,-0.16 0.53,-0.29l0 -0.07c0,-0.17 -0.36,-0.31 -0.76,-0.31l-1.89 0 0 0.9 0.38 0 0 -0.21 1.24 0 0.48 0.21 0.55 0z"/>
    <path class="fil2" d="M1.82 7.51l1.37 -1.97 0 2.37 0.45 0 0 -3.19 -0.45 0 -1.37 1.97 -1.36 -1.97 -0.46 0 0 3.19 0.46 0 0 -2.37 1.36 1.97zm4.55 -2.33c0.25,0 0.46,0.2 0.46,0.45l0 0.91 -2.28 0 0 -0.91c0,-0.25 0.21,-0.45 0.46,-0.45l1.36 0zm0.91 0.45c-0.01,-0.5 -0.42,-0.91 -0.91,-0.91l-1.36 0c-0.51,0 -0.91,0.43 -0.91,0.91l0 2.28 0.45 0 0 -0.91 2.28 0 0 0.91 0.45 0 0 -2.28zm3.6 1.37c0,-0.51 -0.43,-0.91 -0.91,-0.91l-1.37 0c-0.25,0 -0.45,-0.21 -0.45,-0.46 0,-0.25 0.2,-0.45 0.45,-0.45l1.37 0c0.25,0 0.45,0.2 0.45,0.45l0.46 0c-0.02,-0.5 -0.43,-0.91 -0.91,-0.91l-1.37 0c-0.51,0 -0.91,0.43 -0.91,0.91 0,0.52 0.42,0.91 0.91,0.91l1.37 0c0.25,0 0.45,0.21 0.45,0.46 0,0.25 -0.2,0.45 -0.45,0.45l-1.37 0c-0.25,0 -0.45,-0.2 -0.45,-0.45l-0.46 0c0.02,0.51 0.42,0.91 0.91,0.91l1.37 0c0.51,0 0.91,-0.43 0.91,-0.91zm3.27 -1.82l0 -0.46 -3.18 0 0 0.46 1.36 0 0 2.73 0.46 0 0 -2.73 1.36 0zm0.69 0l2.73 0 0 -0.46 -3.19 0 0 3.19 3.19 0 0 -0.46 -2.73 0 0 -0.91 2.27 0 0 -0.45 -2.27 0 0 -0.91zm5.82 0.91c0,0.25 -0.2,0.45 -0.45,0.45l-1.82 0 0 -1.36 1.82 0c0.25,0 0.45,0.2 0.45,0.45l0 0.46zm0.46 1.82l0 -0.32 -0.63 -0.64c0.37,-0.12 0.63,-0.47 0.63,-0.86l0 -0.46c0,-0.5 -0.43,-0.91 -0.91,-0.91l-2.28 0 0 3.19 0.46 0 0 -0.91 1.49 0 0.92 0.91 0.32 0z"/>
   </g>
   <polygon class="fil3" points="0.27,8.69 0.15,8.69 0.15,9.54 1,9.54 1,9.42 0.27,9.42 "/>
   <path id="1" class="fil3" d="M1.77 9.3c0,0.07 -0.06,0.12 -0.13,0.12l-0.37 0c-0.06,0 -0.12,-0.05 -0.12,-0.12l0 -0.37c0,-0.07 0.06,-0.12 0.12,-0.12l0.37 0c0.07,0 0.13,0.05 0.13,0.12l0 0.37zm0.12 -0.37c0,-0.13 -0.12,-0.24 -0.25,-0.24l-0.37 0c-0.13,0 -0.24,0.11 -0.24,0.24l0 0.37c0,0.13 0.11,0.24 0.24,0.24l0.37 0c0.14,0 0.25,-0.11 0.25,-0.24l0 -0.37z"/>
   <path id="2" class="fil3" d="M2.23 8.69c-0.14,0 -0.24,0.11 -0.24,0.24l0 0.37c0,0.14 0.11,0.24 0.24,0.24l0.37 0c0.14,0 0.24,-0.11 0.24,-0.24l-0.12 0c0,0.07 -0.05,0.12 -0.12,0.12l-0.37 0c-0.07,0 -0.12,-0.05 -0.12,-0.12l0 -0.37c0,-0.07 0.05,-0.12 0.12,-0.12l0.37 0c0.07,0 0.12,0.05 0.12,0.12l0.12 0c0,-0.14 -0.11,-0.24 -0.24,-0.24l-0.37 0z"/>
   <path id="3" class="fil3" d="M3.56 8.81c0.06,0 0.12,0.05 0.12,0.12l0 0.25 -0.61 0 0 -0.25c0,-0.07 0.05,-0.12 0.12,-0.12l0.37 0zm0.24 0.12c0,-0.14 -0.11,-0.24 -0.24,-0.24l-0.37 0c-0.14,0 -0.25,0.11 -0.25,0.24l0 0.61 0.13 0 0 -0.24 0.61 0 0 0.24 0.12 0 0 -0.61z"/>
   <polygon id="4" class="fil3" points="4.05,8.69 3.92,8.69 3.92,9.54 4.78,9.54 4.78,9.42 4.05,9.42 "/>
   <path id="5" class="fil3" d="M6.18 9.3c0,-0.14 -0.12,-0.25 -0.24,-0.25l-0.37 0c-0.07,0 -0.13,-0.05 -0.13,-0.12 0,-0.07 0.06,-0.12 0.13,-0.12l0.37 0c0.06,0 0.12,0.05 0.12,0.12l0.12 0c0,-0.14 -0.11,-0.24 -0.24,-0.24l-0.37 0c-0.14,0 -0.25,0.11 -0.25,0.24 0,0.14 0.12,0.25 0.25,0.25l0.37 0c0.06,0 0.12,0.05 0.12,0.12 0,0.07 -0.06,0.12 -0.12,0.12l-0.37 0c-0.07,0 -0.13,-0.05 -0.13,-0.12l-0.12 0c0.01,0.14 0.11,0.24 0.25,0.24l0.37 0c0.13,0 0.24,-0.11 0.24,-0.24z"/>
   <polygon id="6" class="fil3" points="7.09,8.87 7.09,8.69 6.97,8.69 6.97,8.82 6.66,9.16 6.35,8.82 6.35,8.69 6.23,8.69 6.23,8.87 6.6,9.27 6.6,9.54 6.72,9.54 6.72,9.27 "/>
   <path id="7" class="fil3" d="M8 9.3c0,-0.14 -0.12,-0.25 -0.25,-0.25l-0.37 0c-0.06,0 -0.12,-0.05 -0.12,-0.12 0,-0.07 0.06,-0.12 0.12,-0.12l0.37 0c0.07,0 0.12,0.05 0.12,0.12l0.13 0c-0.01,-0.14 -0.12,-0.24 -0.25,-0.24l-0.37 0c-0.13,0 -0.24,0.11 -0.24,0.24 0,0.14 0.11,0.25 0.24,0.25l0.37 0c0.07,0 0.12,0.05 0.12,0.12 0,0.07 -0.05,0.12 -0.12,0.12l-0.37 0c-0.06,0 -0.12,-0.05 -0.12,-0.12l-0.12 0c0,0.14 0.11,0.24 0.24,0.24l0.37 0c0.14,0 0.25,-0.11 0.25,-0.24z"/>
   <polygon id="8" class="fil3" points="8.88,8.81 8.88,8.69 8.02,8.69 8.02,8.81 8.39,8.81 8.39,9.54 8.51,9.54 8.51,8.81 "/>
   <polygon id="9" class="fil3" points="9.06,8.81 9.8,8.81 9.8,8.69 8.94,8.69 8.94,9.54 9.8,9.54 9.8,9.42 9.06,9.42 9.06,9.18 9.68,9.18 9.68,9.05 9.06,9.05 "/>
   <polygon id="10" class="fil3" points="10.39,9.44 10.76,8.9 10.76,9.54 10.88,9.54 10.88,8.69 10.76,8.69 10.39,9.22 10.02,8.69 9.9,8.69 9.9,9.54 10.02,9.54 10.02,8.9 "/>
  </g>
 </g>
</svg>
