<svg width="1385" height="823" viewBox="0 0 1385 823" fill="none" xmlns="http://www.w3.org/2000/svg">
<path d="M182.997 322C263.56 322 328.869 256.691 328.869 176.128C328.869 95.565 263.56 30.2559 182.997 30.2559C102.435 30.2559 37.1255 95.565 37.1255 176.128C37.1255 256.691 102.435 322 182.997 322Z" fill="white"/>
<path fill-rule="evenodd" clip-rule="evenodd" d="M82.5828 125.653L123.899 197.176L165.214 268.699H82.5828H0L41.3158 197.176L82.5828 125.653Z" fill="url(#paint0_linear_230_136)"/>
<path fill-rule="evenodd" clip-rule="evenodd" d="M187.723 83.5571L134.276 176.128L80.8286 268.699H187.723H294.618L241.171 176.128L187.723 83.5571Z" fill="url(#paint1_linear_230_136)"/>
<path fill-rule="evenodd" clip-rule="evenodd" d="M302.219 158.247L270.355 213.497L238.442 268.699H302.219H365.995L334.083 213.497L302.219 158.247Z" fill="url(#paint2_linear_230_136)"/>
<path fill-rule="evenodd" clip-rule="evenodd" d="M293.644 268.601L266.945 220.562L238.735 268.601H293.644Z" fill="url(#paint3_linear_230_136)"/>
<path d="M188.357 87.2114H185.921V0H189.283V87.2114H188.357Z" fill="#4D689F"/>
<path fill-rule="evenodd" clip-rule="evenodd" d="M188.891 42L187.998 0H255.15L241.148 21.3659L256.998 42H188.891Z" fill="#A00202"/>
<path d="M51.2459 483.427H45.9109V470.878H12.4354V483.427H7.08789V465.806H10.8199C14.2013 460.121 17.0942 453.183 19.4987 445.03C21.9032 436.877 23.2307 429.425 23.5063 422.675H45.1469V465.806H51.2459V483.427ZM39.5489 465.806V427.735H28.5783C28.1901 433.057 26.8626 439.444 24.5958 446.908C22.329 454.372 19.6866 460.672 16.6809 465.806H39.5489ZM86.2242 470.878H59.3737V422.675H86.2242V427.672H64.9717V443.189H84.9468V448.123H64.9717V465.882H86.2242V470.878ZM131.184 470.878H125.586V427.672H109.931L108.917 435.575C107.577 446.094 106.387 453.784 105.373 458.655C104.346 463.515 103.006 466.896 101.328 468.812C99.6619 470.728 97.4453 471.655 94.6776 471.617C93.0495 471.617 91.5842 471.342 90.2943 470.791V466.107C91.4715 466.671 92.7239 466.959 94.0138 466.959C95.1785 466.959 96.1929 466.47 97.0695 465.518C97.9337 464.554 98.6976 462.901 99.3739 460.547C100.05 458.18 100.889 453.696 101.916 447.084C102.931 440.484 104.045 432.343 105.285 422.675H131.184V470.878ZM174.753 470.878L168.754 455.55H149.43L143.494 470.878H137.821L156.882 422.475H161.603L180.551 470.878H174.753ZM167.014 450.49L161.39 435.55C160.677 433.671 159.925 431.342 159.161 428.599C158.673 430.703 157.984 433.02 157.07 435.55L151.409 450.49H167.014ZM197.283 470.878H191.685V427.672H176.431V422.675H212.524V427.672H197.283V470.878ZM253.05 456.827C253.05 461.298 251.56 464.754 248.592 467.197C245.611 469.651 241.366 470.878 235.843 470.878H219.8V422.675H225.398V443.264H234.991C240.865 443.264 245.336 444.416 248.417 446.733C251.497 449.062 253.05 452.419 253.05 456.827ZM225.398 466.007H235.254C243.257 466.007 247.252 462.951 247.252 456.814C247.252 453.859 246.225 451.68 244.171 450.277C242.105 448.887 238.824 448.186 234.303 448.186H225.398V466.007ZM329.544 456.827C329.544 461.624 328.116 465.155 325.274 467.434C322.431 469.726 318.135 470.878 312.387 470.878H298.285V422.675H326.701V427.672H303.883V443.264H311.372C315.618 443.264 319.062 443.752 321.729 444.729C324.384 445.706 326.351 447.159 327.628 449.062C328.905 450.966 329.544 453.571 329.544 456.827ZM303.883 466.007H311.773C315.943 466.007 318.987 465.305 320.89 463.878C322.781 462.45 323.746 460.096 323.746 456.814C323.746 453.709 322.781 451.492 320.84 450.164C318.912 448.85 315.53 448.186 310.721 448.186H303.883V466.007ZM342.681 471.542C340.252 471.542 338.098 471.217 336.257 470.553V465.068C338.298 466.007 340.377 466.483 342.493 466.483C344.898 466.483 346.839 465.932 348.304 464.817C349.77 463.715 351.222 461.636 352.675 458.58L333.915 422.675H340.114L354.341 450.077C354.892 451.166 355.33 452.206 355.631 453.245H355.894C356.52 451.392 356.946 450.227 357.184 449.739L369.018 422.675H374.942L359.55 457.165C357.71 461.273 356.044 464.266 354.566 466.132C353.076 467.998 351.41 469.376 349.557 470.24C347.703 471.104 345.399 471.542 342.681 471.542ZM412.137 436.714C412.137 441.586 410.471 445.343 407.152 447.96C403.821 450.59 399.062 451.905 392.863 451.905H387.19V470.878H381.579V422.675H394.078C406.113 422.675 412.137 427.359 412.137 436.714ZM387.19 447.109H392.224C397.184 447.109 400.791 446.307 403.007 444.704C405.224 443.101 406.338 440.534 406.338 436.99C406.338 433.809 405.286 431.442 403.208 429.876C401.116 428.311 397.86 427.534 393.439 427.534H387.19V447.109ZM449.081 470.878H422.218V422.675H449.081V427.672H427.829V443.189H447.791V448.123H427.829V465.882H449.081V470.878ZM496.37 470.878H490.76V448.186H465.374V470.878H459.764V422.675H465.374V443.189H490.76V422.675H496.37V470.878ZM509.645 422.675H514.867V449.476C514.867 454.422 514.73 458.893 514.417 462.901H514.68L541.693 422.675H547.829V470.878H542.557V444.329C542.557 439.92 542.745 435.274 543.108 430.427H542.82L515.757 470.878H509.645V422.675ZM587.88 470.878H561.029V422.675H587.88V427.672H566.627V443.189H586.602V448.123H566.627V465.882H587.88V470.878ZM642.407 426.996C638.625 426.996 634.968 427.822 631.412 429.501L629.032 424.754C632.814 422.926 637.298 421.999 642.482 421.999C647.254 421.999 651.362 422.963 654.793 424.904C658.237 426.833 660.842 429.588 662.633 433.17C664.411 436.764 665.3 440.985 665.3 445.831C665.3 454.097 663.296 460.459 659.301 464.892C655.294 469.325 649.533 471.542 642.019 471.542C637.035 471.542 632.827 470.916 629.395 469.651V464.742C631.224 465.205 633.077 465.619 634.968 465.994C636.859 466.357 638.888 466.545 641.067 466.545C647.028 466.545 651.512 464.967 654.555 461.799C657.573 458.605 659.189 454.034 659.364 448.061H635.657V443.064H659.301C658.813 438.017 657.085 434.084 654.104 431.241C651.136 428.411 647.229 426.996 642.407 426.996ZM693.641 421.999H699.302V427.935H701.618C705.376 427.935 708.632 428.687 711.387 430.177C714.142 431.68 716.259 433.784 717.724 436.514C719.177 439.231 719.903 442.337 719.903 445.831C719.903 449.488 719.101 452.719 717.461 455.575C715.82 458.418 713.578 460.559 710.723 461.987C707.88 463.414 704.524 464.116 700.654 464.116H699.302V471.542H693.641V464.116H692.151C688.281 464.116 684.925 463.402 682.094 461.949C679.264 460.496 677.047 458.342 675.432 455.487C673.829 452.632 673.04 449.438 673.04 445.894C673.04 442.425 673.779 439.319 675.256 436.601C676.734 433.884 678.863 431.755 681.631 430.24C684.411 428.699 687.68 427.935 691.437 427.935H693.641V421.999ZM699.302 459.394H700.128C704.549 459.394 707.98 458.192 710.435 455.788C712.89 453.383 714.117 450.039 714.117 445.744C714.117 441.686 712.977 438.505 710.711 436.201C708.456 433.896 705.275 432.732 701.218 432.732H699.302V459.394ZM693.641 432.732H691.762C687.755 432.732 684.612 433.896 682.307 436.226C680.015 438.555 678.863 441.736 678.863 445.744C678.863 450.077 680.09 453.433 682.52 455.825C684.962 458.205 688.406 459.394 692.852 459.394H693.641V432.732ZM747.492 421.999H753.165V427.935H755.47C759.227 427.935 762.495 428.687 765.251 430.177C768.006 431.68 770.122 433.784 771.587 436.514C773.04 439.231 773.767 442.337 773.767 445.831C773.767 449.488 772.953 452.719 771.312 455.575C769.684 458.418 767.43 460.559 764.587 461.987C761.732 463.414 758.388 464.116 754.518 464.116H753.165V471.542H747.492V464.116H746.014C742.145 464.116 738.788 463.402 735.958 461.949C733.115 460.496 730.899 458.342 729.296 455.487C727.693 452.632 726.891 449.438 726.891 445.894C726.891 442.425 727.642 439.319 729.108 436.601C730.598 433.884 732.727 431.755 735.495 430.24C738.275 428.699 741.531 427.935 745.288 427.935H747.492V421.999ZM753.165 459.394H753.992C758.413 459.394 761.844 458.192 764.286 455.788C766.741 453.383 767.968 450.039 767.968 445.744C767.968 441.686 766.841 438.505 764.574 436.201C762.308 433.896 759.139 432.732 755.081 432.732H753.165V459.394ZM747.492 432.732H745.614C741.606 432.732 738.475 433.896 736.171 436.226C733.867 438.555 732.727 441.736 732.727 445.744C732.727 450.077 733.954 453.433 736.384 455.825C738.826 458.205 742.257 459.394 746.703 459.394H747.492V432.732ZM810.736 470.878H783.886V422.675H810.736V427.672H789.484V443.189H809.459V448.123H789.484V465.882H810.736V470.878ZM856.109 470.878H849.321L827.029 446.445V470.878H821.419V422.675H827.029V446.019L848.758 422.675H855.182L833.855 446.069L856.109 470.878ZM877.562 470.878H871.951V427.672H856.698V422.675H892.803V427.672H877.562V470.878ZM900.142 422.675H905.364V449.476C905.364 454.422 905.226 458.893 904.901 462.901H905.176L932.189 422.675H938.326V470.878H933.041V444.329C933.041 439.92 933.229 435.274 933.605 430.427H933.317L906.253 470.878H900.142V422.675ZM951.513 422.675H965.126C971.526 422.675 976.16 423.627 979.002 425.543C981.858 427.459 983.286 430.477 983.286 434.61C983.286 437.466 982.509 439.833 980.906 441.686C979.303 443.54 976.986 444.742 973.93 445.305V445.631C981.257 446.871 984.914 450.716 984.914 457.153C984.914 461.461 983.448 464.83 980.543 467.247C977.637 469.664 973.555 470.878 968.332 470.878H951.513V422.675ZM957.124 443.327H966.341C970.311 443.327 973.154 442.713 974.882 441.461C976.635 440.221 977.5 438.129 977.5 435.186C977.5 432.481 976.523 430.528 974.594 429.338C972.666 428.136 969.585 427.534 965.364 427.534H957.124V443.327ZM957.124 448.061V466.082H967.18C971.063 466.082 973.993 465.33 975.959 463.815C977.925 462.325 978.915 459.958 978.915 456.752C978.915 453.771 977.9 451.567 975.897 450.164C973.88 448.749 970.825 448.061 966.717 448.061H957.124ZM1031.86 470.878H1026.25V448.186H1000.87V470.878H995.258V422.675H1000.87V443.189H1026.25V422.675H1031.86V470.878ZM1045.06 470.878V422.675H1050.67V443.264H1058.55C1064.29 443.264 1068.65 444.391 1071.66 446.633C1074.68 448.887 1076.17 452.281 1076.17 456.827C1076.17 461.361 1074.76 464.83 1071.91 467.247C1069.07 469.664 1064.91 470.878 1059.44 470.878H1045.06ZM1050.67 466.082H1058.81C1062.78 466.082 1065.72 465.305 1067.58 463.765C1069.45 462.212 1070.39 459.895 1070.39 456.814C1070.39 453.821 1069.4 451.63 1067.43 450.277C1065.46 448.937 1062.28 448.261 1057.89 448.261H1050.67V466.082ZM1089.4 470.878H1083.8V422.675H1089.4V470.878ZM1123.99 470.878L1107.62 428.136H1107.37C1107.67 431.529 1107.83 435.55 1107.83 440.208V470.878H1102.65V422.675H1111.09L1126.35 462.438H1126.62L1142.02 422.675H1150.39V470.878H1144.79V439.82C1144.79 436.251 1144.94 432.381 1145.24 428.211H1144.99L1128.5 470.878H1123.99ZM1168.5 463.039L1169 463.79C1168.42 466.007 1167.61 468.549 1166.52 471.455C1165.45 474.373 1164.33 477.065 1163.17 479.582H1159.05C1159.64 477.29 1160.29 474.473 1161.01 471.104C1161.72 467.76 1162.22 465.068 1162.51 463.039H1168.5ZM49.2171 583.941H43.6065V540.747H18.86V583.941H13.262V535.75H49.2171V583.941ZM93.0119 549.789C93.0119 554.661 91.3463 558.418 88.0275 561.035C84.6963 563.665 79.9373 564.98 73.7382 564.98H68.065V583.941H62.467V535.75H74.953C86.9881 535.75 93.0119 540.434 93.0119 549.789ZM68.065 560.184H73.112C78.0713 560.184 81.6781 559.382 83.8948 557.779C86.1114 556.176 87.2135 553.596 87.2135 550.065C87.2135 546.884 86.1741 544.517 84.0952 542.951C82.0037 541.386 78.7476 540.61 74.3268 540.61H68.065V560.184ZM144.947 559.796C144.947 567.51 142.993 573.571 139.099 577.992C135.191 582.413 129.769 584.617 122.818 584.617C115.717 584.617 110.244 582.451 106.387 578.105C102.53 573.759 100.601 567.648 100.601 559.733C100.601 551.881 102.53 545.807 106.4 541.486C110.269 537.166 115.767 534.999 122.881 534.999C129.819 534.999 135.216 537.203 139.111 541.599C143.006 545.995 144.947 552.056 144.947 559.796ZM106.537 559.783C106.537 566.308 107.915 571.255 110.695 574.636C113.488 578.005 117.533 579.695 122.818 579.695C128.166 579.695 132.198 578.017 134.928 574.649C137.646 571.292 139.011 566.333 139.011 559.783C139.011 553.296 137.658 548.387 134.941 545.03C132.223 541.674 128.203 539.996 122.881 539.996C117.546 539.996 113.488 541.687 110.695 545.068C107.915 548.437 106.537 553.346 106.537 559.783ZM191.647 578.881H197.32V596.502H192.011V583.941H155.68V535.75H161.29V578.881H186.049V535.75H191.647V578.881ZM232.274 583.941H205.423V535.75H232.274V540.747H211.021V556.264H230.996V561.198H211.021V578.944H232.274V583.941ZM263.595 540.071C258.31 540.071 254.127 541.837 251.059 545.356C247.991 548.888 246.463 553.722 246.463 559.846C246.463 566.158 247.941 571.029 250.896 574.461C253.839 577.905 258.06 579.62 263.545 579.62C266.901 579.62 270.733 579.019 275.042 577.817V582.726C271.698 583.991 267.578 584.617 262.681 584.617C255.58 584.617 250.095 582.476 246.25 578.168C242.393 573.86 240.452 567.735 240.452 559.808C240.452 554.824 241.391 550.478 243.244 546.734C245.098 543.002 247.778 540.121 251.284 538.105C254.791 536.089 258.924 535.074 263.67 535.074C268.73 535.074 273.138 536.001 276.92 537.829L274.541 542.638C270.896 540.923 267.252 540.071 263.595 540.071ZM304.835 540.071C299.55 540.071 295.355 541.837 292.287 545.356C289.231 548.888 287.703 553.722 287.703 559.846C287.703 566.158 289.168 571.029 292.136 574.461C295.079 577.905 299.3 579.62 304.772 579.62C308.129 579.62 311.961 579.019 316.269 577.817V582.726C312.938 583.991 308.818 584.617 303.908 584.617C296.808 584.617 291.335 582.476 287.477 578.168C283.62 573.86 281.692 567.735 281.692 559.808C281.692 554.824 282.618 550.478 284.484 546.734C286.338 543.002 289.018 540.121 292.524 538.105C296.019 536.089 300.151 535.074 304.898 535.074C309.957 535.074 314.378 536.001 318.16 537.829L315.781 542.638C312.136 540.923 308.492 540.071 304.835 540.071ZM326.789 583.941V535.75H332.387V556.339H340.264C346 556.339 350.371 557.466 353.376 559.708C356.395 561.962 357.897 565.356 357.897 569.902C357.897 574.436 356.47 577.905 353.627 580.322C350.784 582.739 346.626 583.941 341.153 583.941H326.789ZM332.387 579.157H340.527C344.497 579.157 347.428 578.381 349.294 576.84C351.16 575.287 352.099 572.97 352.099 569.89C352.099 566.884 351.11 564.705 349.143 563.352C347.177 562.012 343.996 561.336 339.6 561.336H332.387V579.157ZM371.11 583.941H365.512V535.75H371.11V583.941ZM455.406 583.941H449.795V540.747H425.049V583.941H419.451V535.75H455.406V583.941ZM499.201 549.789C499.201 554.661 497.535 558.418 494.216 561.035C490.885 563.665 486.126 564.98 479.927 564.98H474.254V583.941H468.656V535.75H481.142C493.177 535.75 499.201 540.434 499.201 549.789ZM474.254 560.184H479.301C484.26 560.184 487.867 559.382 490.083 557.779C492.288 556.176 493.402 553.596 493.402 550.065C493.402 546.884 492.363 544.517 490.284 542.951C488.192 541.386 484.936 540.61 480.515 540.61H474.254V560.184ZM551.136 559.796C551.136 567.51 549.182 573.571 545.287 577.992C541.38 582.413 535.957 584.617 529.007 584.617C521.906 584.617 516.433 582.451 512.576 578.105C508.718 573.759 506.79 567.648 506.79 559.733C506.79 551.881 508.718 545.807 512.588 541.486C516.458 537.166 521.956 534.999 529.069 534.999C536.007 534.999 541.405 537.203 545.3 541.599C549.194 545.995 551.136 552.056 551.136 559.796ZM512.726 559.783C512.726 566.308 514.104 571.255 516.884 574.636C519.677 578.005 523.722 579.695 529.007 579.695C534.354 579.695 538.387 578.017 541.117 574.649C543.834 571.292 545.199 566.333 545.199 559.783C545.199 553.296 543.847 548.387 541.117 545.03C538.412 541.674 534.392 539.996 529.069 539.996C523.734 539.996 519.677 541.687 516.884 545.068C514.104 548.437 512.726 553.346 512.726 559.783ZM589.157 547.034C589.157 550.19 588.155 552.757 586.139 554.736C584.123 556.702 581.355 557.967 577.811 558.493V558.756C581.843 559.307 584.887 560.572 586.953 562.551C589.044 564.529 590.071 567.109 590.071 570.303C590.071 574.811 588.393 578.318 585.037 580.835C581.668 583.365 576.922 584.617 570.798 584.617C565.187 584.617 560.603 583.753 557.022 582.012V576.803C559.126 577.817 561.405 578.593 563.86 579.144C566.302 579.695 568.669 579.958 570.923 579.958C575.281 579.958 578.562 579.144 580.791 577.491C583.033 575.851 584.148 573.471 584.148 570.365C584.148 567.422 582.908 565.193 580.428 563.678C577.961 562.15 574.279 561.399 569.37 561.399H562.194V556.677H569.082C573.578 556.677 577.072 555.863 579.539 554.26C582.019 552.632 583.259 550.378 583.259 547.472C583.259 545.118 582.369 543.239 580.579 541.837C578.8 540.434 576.408 539.733 573.403 539.733C570.985 539.733 568.794 539.996 566.84 540.547C564.887 541.098 562.62 542.187 560.052 543.816L557.272 540.058C559.501 538.418 561.994 537.178 564.749 536.339C567.504 535.487 570.359 535.074 573.34 535.074C578.274 535.074 582.144 536.151 584.949 538.318C587.742 540.484 589.157 543.39 589.157 547.034ZM630.973 549.789C630.973 554.661 629.308 558.418 625.989 561.035C622.658 563.665 617.899 564.98 611.699 564.98H606.026V583.941H600.428V535.75H612.914C624.949 535.75 630.973 540.434 630.973 549.789ZM606.026 560.184H611.073C616.033 560.184 619.627 559.382 621.844 557.779C624.06 556.176 625.175 553.596 625.175 550.065C625.175 546.884 624.135 544.517 622.056 542.951C619.953 541.386 616.709 540.61 612.288 540.61H606.026V560.184ZM668.005 583.941L662.006 568.625H642.67L636.747 583.941H631.073L650.134 535.55H654.843L673.804 583.941H668.005ZM660.253 563.565L654.643 548.625C653.929 546.734 653.165 544.417 652.401 541.674C651.925 543.778 651.236 546.095 650.322 548.625L644.649 563.565H660.253ZM710.748 583.941H705.15V564.029C701.881 565.206 699.139 566.007 696.972 566.433C694.806 566.859 692.539 567.072 690.21 567.072C685.663 567.072 682.169 566.02 679.715 563.941C677.26 561.849 676.033 558.831 676.033 554.911V535.75H681.631V554.26C681.631 556.915 682.332 558.894 683.722 560.159C685.125 561.436 687.392 562.075 690.535 562.075C692.677 562.075 694.706 561.912 696.659 561.586C698.6 561.273 701.443 560.509 705.15 559.307V535.75H710.748V583.941ZM760.554 583.941H754.956V561.261H729.558V583.941H723.96V535.75H729.558V556.264H754.956V535.75H760.554V583.941ZM773.767 583.941V535.75H779.365V556.339H787.242C792.99 556.339 797.348 557.466 800.367 559.708C803.385 561.962 804.875 565.356 804.875 569.902C804.875 574.436 803.46 577.905 800.617 580.322C797.762 582.739 793.616 583.941 788.131 583.941H773.767ZM779.365 579.157H787.517C791.487 579.157 794.418 578.381 796.284 576.84C798.15 575.287 799.077 572.97 799.077 569.89C799.077 566.884 798.087 564.705 796.134 563.352C794.167 562.012 790.986 561.336 786.578 561.336H779.365V579.157ZM818.1 583.941H812.489V535.75H818.1V583.941ZM852.677 583.941L836.322 541.211H836.059C836.372 544.605 836.522 548.625 836.522 553.283V583.941H831.35V535.75H839.791L855.057 575.513H855.32L870.711 535.75H879.09V583.941H873.479V552.895C873.479 549.326 873.642 545.456 873.942 541.286H873.692L857.198 583.941H852.677ZM892.365 535.75H897.599V562.551C897.599 567.498 897.449 571.968 897.136 575.963H897.399L924.412 535.75H930.549V583.941H925.276V557.404C925.276 552.995 925.464 548.349 925.84 543.502H925.539L898.489 583.941H892.365V535.75ZM948.645 576.114L949.146 576.865C948.57 579.069 947.756 581.624 946.667 584.53C945.602 587.448 944.475 590.14 943.323 592.657H939.203C939.791 590.366 940.442 587.548 941.156 584.179C941.87 580.835 942.371 578.143 942.659 576.114H948.645ZM791.4 689.189L791.901 689.94C791.325 692.144 790.498 694.699 789.421 697.605C788.344 700.523 787.229 703.215 786.065 705.732H781.944C782.533 703.441 783.184 700.623 783.911 697.254C784.612 693.898 785.125 691.218 785.401 689.189H791.4ZM13.262 761.901H26.8751C33.2621 761.901 37.8958 762.852 40.7387 764.768C43.594 766.672 45.0342 769.703 45.0342 773.835C45.0342 776.691 44.2452 779.058 42.6422 780.911C41.0392 782.765 38.7224 783.967 35.6666 784.518V784.844C42.9929 786.096 46.6498 789.941 46.6498 796.378C46.6498 800.686 45.1845 804.055 42.279 806.472C39.3736 808.889 35.2909 810.091 30.0686 810.091H13.262V761.901ZM18.86 782.552H28.0899C32.0473 782.552 34.8902 781.938 36.6184 780.686C38.3717 779.446 39.2358 777.355 39.2358 774.412C39.2358 771.706 38.2715 769.753 36.3304 768.551C34.4017 767.348 31.3209 766.76 27.1005 766.76H18.86V782.552ZM18.86 787.273V805.307H28.9164C32.7987 805.307 35.7292 804.543 37.6954 803.04C39.6616 801.538 40.651 799.183 40.651 795.977C40.651 792.996 39.6366 790.792 37.6328 789.377C35.629 787.975 32.5608 787.273 28.4531 787.273H18.86ZM78.3343 810.091L61.9661 767.361H61.7156C62.0162 770.755 62.179 774.775 62.179 779.433V810.091H56.9942V761.901H65.4351L80.7013 801.65H80.9643L96.3682 761.901H104.734V810.091H99.1359V779.045C99.1359 775.476 99.2862 771.606 99.5993 767.436H99.3363L82.8428 810.091H78.3343ZM144.797 810.091H117.946V761.901H144.797V766.885H123.544V782.414H143.519V787.348H123.544V805.094H144.797V810.091ZM176.118 766.221C170.833 766.221 166.65 767.987 163.582 771.506C160.514 775.038 158.986 779.859 158.986 785.996C158.986 792.308 160.464 797.179 163.419 800.611C166.362 804.055 170.583 805.77 176.068 805.77C179.424 805.77 183.257 805.169 187.565 803.967V808.876C184.221 810.141 180.101 810.767 175.204 810.767C168.103 810.767 162.618 808.626 158.773 804.318C154.916 799.997 152.975 793.886 152.975 785.946C152.975 780.974 153.914 776.628 155.767 772.884C157.621 769.152 160.301 766.271 163.82 764.255C167.314 762.239 171.447 761.224 176.193 761.224C181.253 761.224 185.661 762.138 189.443 763.979L187.064 768.788C183.419 767.073 179.775 766.221 176.118 766.221ZM212.9 810.091H207.302V766.885H192.048V761.901H228.141V766.885H212.9V810.091ZM262.268 810.091H235.417V761.901H262.268V766.885H241.015V782.414H260.99V787.348H241.015V805.094H262.268V810.091ZM311.836 810.091L295.467 767.361H295.217C295.518 770.755 295.668 774.775 295.668 779.433V810.091H290.496V761.901H298.937L314.203 801.65H314.466L329.87 761.901H338.235V810.091H332.637V779.045C332.637 775.476 332.788 771.606 333.088 767.436H332.838L316.344 810.091H311.836ZM351.448 810.091V761.901H357.046V782.489H364.923C370.659 782.489 375.03 783.604 378.048 785.858C381.053 788.112 382.556 791.506 382.556 796.052C382.556 800.586 381.129 804.055 378.286 806.472C375.443 808.889 371.285 810.091 365.812 810.091H351.448ZM357.046 805.307H365.186C369.169 805.307 372.087 804.531 373.953 802.978C375.819 801.425 376.758 799.108 376.758 796.04C376.758 793.034 375.768 790.855 373.815 789.502C371.836 788.15 368.655 787.486 364.259 787.486H357.046V805.307ZM395.769 810.091H390.171V761.901H395.769V810.091ZM447.203 766.221C441.918 766.221 437.722 767.987 434.654 771.506C431.598 775.038 430.071 779.859 430.071 785.996C430.071 792.308 431.536 797.179 434.504 800.611C437.447 804.055 441.667 805.77 447.14 805.77C450.496 805.77 454.329 805.169 458.637 803.967V808.876C455.305 810.141 451.185 810.767 446.276 810.767C439.175 810.767 433.702 808.626 429.858 804.318C425.988 799.997 424.059 793.886 424.059 785.946C424.059 780.974 424.986 776.628 426.852 772.884C428.706 769.152 431.386 766.271 434.892 764.255C438.386 762.239 442.519 761.224 447.265 761.224C452.325 761.224 456.746 762.138 460.515 763.979L458.148 768.788C454.504 767.073 450.86 766.221 447.203 766.221ZM509.645 785.933C509.645 793.66 507.679 799.722 503.797 804.142C499.889 808.563 494.467 810.767 487.516 810.767C480.415 810.767 474.93 808.601 471.085 804.255C467.228 799.909 465.287 793.785 465.287 785.883C465.287 778.031 467.228 771.957 471.098 767.636C474.967 763.316 480.453 761.149 487.579 761.149C494.504 761.149 499.914 763.353 503.797 767.749C507.691 772.145 509.645 778.206 509.645 785.933ZM471.235 785.933C471.235 792.458 472.613 797.405 475.393 800.774C478.186 804.155 482.219 805.846 487.516 805.846C492.851 805.846 496.896 804.167 499.614 800.799C502.344 797.442 503.696 792.471 503.696 785.933C503.696 779.446 502.356 774.524 499.626 771.18C496.921 767.824 492.901 766.146 487.579 766.146C482.231 766.146 478.186 767.837 475.393 771.206C472.613 774.587 471.235 779.496 471.235 785.933ZM547.654 773.184C547.654 776.34 546.652 778.907 544.648 780.886C542.632 782.852 539.864 784.117 536.32 784.643V784.906C540.34 785.457 543.396 786.71 545.462 788.688C547.541 790.68 548.581 793.259 548.581 796.453C548.581 800.961 546.903 804.468 543.546 806.985C540.178 809.515 535.431 810.767 529.295 810.767C523.697 810.767 519.1 809.903 515.531 808.163V802.953C517.635 803.967 519.914 804.744 522.369 805.295C524.811 805.846 527.166 806.109 529.432 806.109C533.791 806.109 537.072 805.295 539.301 803.641C541.543 801.988 542.657 799.621 542.657 796.516C542.657 793.573 541.417 791.343 538.938 789.815C536.458 788.3 532.789 787.549 527.879 787.549H520.703V782.827H527.591C532.087 782.827 535.569 782.013 538.049 780.398C540.528 778.782 541.768 776.515 541.768 773.623C541.768 771.268 540.879 769.39 539.088 767.987C537.31 766.572 534.918 765.883 531.912 765.883C529.482 765.883 527.303 766.146 525.35 766.697C523.396 767.248 521.129 768.338 518.549 769.966L515.782 766.209C517.998 764.568 520.503 763.328 523.258 762.477C526.013 761.637 528.869 761.224 531.837 761.224C536.784 761.224 540.653 762.301 543.446 764.455C546.251 766.634 547.654 769.54 547.654 773.184ZM596.922 822.652H591.599V810.091H558.111V822.652H552.764V805.032H556.496C559.877 799.333 562.77 792.408 565.175 784.255C567.579 776.09 568.907 768.651 569.182 761.901H590.823V805.032H596.922V822.652ZM585.225 805.032V766.96H574.254C573.866 772.283 572.538 778.67 570.272 786.134C568.005 793.585 565.362 799.884 562.357 805.032H585.225ZM635.344 810.091L629.358 794.775H610.021L604.098 810.091H598.425L617.485 761.688H622.194L641.155 810.091H635.344ZM627.604 789.703L621.994 774.775C621.267 772.884 620.516 770.567 619.752 767.824C619.276 769.928 618.587 772.245 617.673 774.775L612 789.703H627.604ZM674.63 810.091H647.767V761.901H674.63V766.885H653.378V782.414H673.34V787.348H653.378V805.094H674.63V810.091ZM652.601 753.034C652.601 751.894 652.902 751.068 653.478 750.567C654.054 750.053 654.755 749.815 655.582 749.815C656.409 749.815 657.135 750.053 657.736 750.567C658.337 751.068 658.638 751.894 658.638 753.034C658.638 754.136 658.337 754.95 657.736 755.488C657.135 756.027 656.409 756.29 655.582 756.29C654.755 756.29 654.054 756.027 653.478 755.488C652.902 754.95 652.601 754.136 652.601 753.034ZM665.162 753.034C665.162 751.894 665.451 751.068 666.039 750.567C666.615 750.053 667.316 749.815 668.131 749.815C668.945 749.815 669.646 750.053 670.247 750.567C670.861 751.068 671.161 751.894 671.161 753.034C671.161 754.136 670.861 754.95 670.247 755.488C669.646 756.027 668.945 756.29 668.131 756.29C667.316 756.29 666.615 756.027 666.039 755.488C665.451 754.95 665.162 754.136 665.162 753.034ZM706.64 810.091L690.285 767.361H690.022C690.335 770.755 690.485 774.775 690.485 779.433V810.091H685.313V761.901H693.754L709.02 801.65H709.283L724.674 761.901H733.053V810.091H727.442V779.045C727.442 775.476 727.605 771.606 727.905 767.436H727.655L711.161 810.091H706.64ZM795.057 796.052C795.057 800.849 793.641 804.38 790.786 806.66C787.943 808.951 783.648 810.091 777.912 810.091H763.798V761.901H792.214V766.885H769.396V782.489H776.885C781.13 782.489 784.574 782.965 787.242 783.942C789.897 784.931 791.876 786.372 793.141 788.275C794.418 790.191 795.057 792.796 795.057 796.052ZM769.396 805.232H777.286C781.456 805.232 784.499 804.531 786.403 803.09C788.306 801.663 789.258 799.321 789.258 796.04C789.258 792.921 788.294 790.705 786.353 789.39C784.424 788.075 781.043 787.411 776.234 787.411H769.396V805.232ZM808.194 810.767C805.764 810.767 803.61 810.442 801.769 809.778V804.293C803.823 805.232 805.889 805.708 808.006 805.708C810.41 805.708 812.352 805.157 813.817 804.042C815.282 802.94 816.735 800.861 818.188 797.806L799.427 761.901H805.627L819.866 789.302C820.417 790.379 820.843 791.431 821.143 792.47H821.419C822.032 790.617 822.458 789.452 822.696 788.964L834.531 761.901H840.467L825.076 796.39C823.222 800.498 821.556 803.491 820.079 805.357C818.588 807.223 816.923 808.601 815.069 809.465C813.216 810.329 810.911 810.767 808.194 810.767ZM881.732 822.652H876.397V810.091H842.909V822.652H837.574V805.032H841.294C844.687 799.333 847.568 792.408 849.985 784.255C852.389 776.09 853.717 768.651 853.98 761.901H875.633V805.032H881.732V822.652ZM870.035 805.032V766.96H859.064C858.664 772.283 857.336 778.67 855.082 786.134C852.803 793.585 850.173 799.884 847.155 805.032H870.035ZM892.878 810.767C890.448 810.767 888.307 810.442 886.453 809.778V804.293C888.507 805.232 890.574 805.708 892.69 805.708C895.095 805.708 897.048 805.157 898.501 804.042C899.966 802.94 901.419 800.861 902.872 797.806L884.112 761.901H890.311L904.55 789.302C905.101 790.379 905.527 791.431 905.827 792.47H906.103C906.717 790.617 907.142 789.452 907.38 788.964L919.215 761.901H925.151L909.76 796.39C907.906 800.498 906.241 803.491 904.763 805.357C903.273 807.223 901.607 808.601 899.753 809.465C897.9 810.329 895.608 810.767 892.878 810.767ZM931.789 810.091V761.901H937.387V805.032H956.598V761.901H962.258V805.032H981.52V761.901H987.118V805.032H992.791V822.652H987.443V810.091H931.789ZM1028.38 810.091H1001.53V761.901H1028.38V766.885H1007.13V782.414H1027.11V787.348H1007.13V805.094H1028.38V810.091ZM1065.93 810.091H1039.08V761.901H1065.93V766.885H1044.68V782.414H1064.65V787.348H1044.68V805.094H1065.93V810.091ZM1114.8 766.221C1109.5 766.221 1105.31 767.987 1102.25 771.506C1099.19 775.038 1097.65 779.859 1097.65 785.996C1097.65 792.308 1099.13 797.179 1102.08 800.611C1105.04 804.055 1109.26 805.77 1114.73 805.77C1118.09 805.77 1121.92 805.169 1126.23 803.967V808.876C1122.89 810.141 1118.78 810.767 1113.87 810.767C1106.77 810.767 1101.29 808.626 1097.44 804.318C1093.58 799.997 1091.65 793.886 1091.65 785.946C1091.65 780.974 1092.58 776.628 1094.44 772.884C1096.3 769.152 1098.97 766.271 1102.48 764.255C1105.98 762.239 1110.11 761.224 1114.86 761.224C1119.92 761.224 1124.34 762.138 1128.11 763.979L1125.74 768.788C1122.1 767.073 1118.45 766.221 1114.8 766.221ZM1163.6 810.091H1136.74V761.901H1163.6V766.885H1142.35V782.414H1162.31V787.348H1142.35V805.094H1163.6V810.091ZM1201.15 761.901V766.96H1179.89V810.091H1174.28V761.901H1201.15ZM1249.87 785.933C1249.87 793.66 1247.92 799.722 1244.03 804.142C1240.13 808.563 1234.71 810.767 1227.75 810.767C1220.64 810.767 1215.17 808.601 1211.33 804.255C1207.47 799.909 1205.53 793.785 1205.53 785.883C1205.53 778.031 1207.47 771.957 1211.34 767.636C1215.21 763.316 1220.69 761.149 1227.82 761.149C1234.75 761.149 1240.14 763.353 1244.04 767.749C1247.93 772.145 1249.87 778.206 1249.87 785.933ZM1211.46 785.933C1211.46 792.458 1212.85 797.405 1215.63 800.774C1218.43 804.155 1222.46 805.846 1227.75 805.846C1233.09 805.846 1237.13 804.167 1239.86 800.799C1242.57 797.442 1243.94 792.471 1243.94 785.933C1243.94 779.446 1242.59 774.524 1239.87 771.18C1237.15 767.824 1233.14 766.146 1227.82 766.146C1222.47 766.146 1218.43 767.837 1215.63 771.206C1212.85 774.587 1211.46 779.496 1211.46 785.933ZM1297.25 822.652H1291.93V810.091H1258.44V822.652H1253.09V805.032H1256.82C1260.21 799.333 1263.1 792.408 1265.5 784.255C1267.91 776.09 1269.24 768.651 1269.51 761.901H1291.16V805.032H1297.25V822.652ZM1285.55 805.032V766.96H1274.58C1274.19 772.283 1272.87 778.67 1270.6 786.134C1268.33 793.585 1265.69 799.884 1262.69 805.032H1285.55ZM1341.98 810.091H1336.37V787.411H1310.99V810.091H1305.38V761.901H1310.99V782.414H1336.37V761.901H1341.98V810.091ZM1369.49 789.978L1356.86 810.091H1350.24L1363.75 789.026C1360.22 787.899 1357.64 786.209 1356.04 783.929C1354.43 781.65 1353.63 778.782 1353.63 775.301C1353.63 771.005 1355.12 767.686 1358.1 765.37C1361.07 763.053 1365.58 761.901 1371.63 761.901H1384.87V810.091H1379.27V789.978H1369.49ZM1379.27 766.76H1371.79C1367.77 766.76 1364.72 767.448 1362.64 768.839C1360.54 770.216 1359.49 772.47 1359.49 775.589C1359.49 781.988 1363.66 785.182 1371.98 785.182H1379.27V766.76ZM49.2296 691.957H54.8903V709.577H49.5803V697.016H13.262V648.825H18.86V691.957H43.6191V648.825H49.2296V691.957ZM89.856 697.016H62.993V648.825H89.856V653.822H68.6035V669.339H88.5661V674.273H68.6035V692.019H89.856V697.016ZM134.815 697.016H129.205V653.822H113.563L112.536 661.725C111.196 672.245 110.006 679.934 108.992 684.806C107.965 689.665 106.625 693.046 104.947 694.962C103.281 696.878 101.065 697.805 98.2969 697.767C96.6688 697.767 95.2035 697.492 93.9136 696.941V692.245C95.0908 692.821 96.3432 693.109 97.6331 693.109C98.8103 693.109 99.8247 692.62 100.689 691.668C101.553 690.704 102.317 689.051 102.993 686.697C103.669 684.33 104.509 679.834 105.535 673.234C106.55 666.634 107.677 658.494 108.917 648.825H134.815V697.016ZM148.141 648.825H153.375V675.626C153.375 680.573 153.225 685.044 152.912 689.039H153.188L180.201 648.825H186.325V697.016H181.052V670.479C181.052 666.07 181.24 661.424 181.616 656.577H181.315L154.265 697.016H148.141V648.825Z" fill="#0B2E75"/>
<path d="M255.054 709.577H249.732V697.016H216.244V709.577H210.896V691.956H214.628C218.009 686.258 220.902 679.333 223.307 671.18C225.711 663.015 227.039 655.576 227.314 648.825H248.955V691.956H255.054V709.577ZM243.357 691.956V653.885H232.386C231.998 659.207 230.671 665.594 228.404 673.058C226.137 680.51 223.495 686.809 220.489 691.956H243.357ZM305.023 672.871C305.023 680.585 303.069 686.647 299.174 691.067C295.267 695.488 289.844 697.692 282.894 697.692C275.793 697.692 270.32 695.526 266.463 691.18C262.606 686.834 260.677 680.723 260.677 672.808C260.677 664.956 262.606 658.882 266.475 654.561C270.345 650.241 275.843 648.074 282.956 648.074C289.895 648.074 295.292 650.278 299.187 654.674C303.082 659.07 305.023 665.131 305.023 672.871ZM266.613 672.858C266.613 679.383 268.003 684.33 270.771 687.698C273.564 691.08 277.609 692.771 282.894 692.771C288.241 692.771 292.274 691.092 295.004 687.723C297.722 684.367 299.087 679.408 299.087 672.858C299.087 666.371 297.734 661.462 295.017 658.105C292.299 654.749 288.279 653.071 282.956 653.071C277.621 653.071 273.564 654.762 270.771 658.143C268.003 661.512 266.613 666.421 266.613 672.858ZM336.394 653.146C331.109 653.146 326.914 654.912 323.846 658.431C320.79 661.963 319.262 666.784 319.262 672.921C319.262 679.233 320.727 684.104 323.696 687.536C326.639 690.98 330.859 692.695 336.332 692.695C339.688 692.695 343.52 692.094 347.828 690.892V695.801C344.497 697.066 340.377 697.692 335.468 697.692C328.367 697.692 322.894 695.551 319.037 691.243C315.18 686.934 313.251 680.81 313.251 672.871C313.251 667.899 314.178 663.553 316.044 659.809C317.897 656.077 320.577 653.196 324.084 651.18C327.578 649.163 331.711 648.149 336.457 648.149C341.517 648.149 345.937 649.063 349.707 650.904L347.34 655.713C343.696 653.998 340.051 653.146 336.394 653.146ZM373.164 697.016H367.566V653.822H352.312V648.825H388.417V653.822H373.164V697.016ZM395.756 648.825H400.978V675.626C400.978 680.573 400.841 685.043 400.515 689.039H400.79L427.804 648.825H433.94V697.016H428.655V670.479C428.655 666.07 428.856 661.424 429.219 656.577H428.931L401.868 697.016H395.756V648.825ZM460.202 672.219L441.267 648.825H447.528L466.276 672.169V648.825H471.686V672.169L490.459 648.825H496.733L477.748 672.169L497.309 697.016H490.86L471.686 672.595V697.016H466.276V672.595L447.128 697.016H440.578L460.202 672.219ZM504.185 648.825H509.42V675.626C509.42 680.573 509.269 685.043 508.956 689.039H509.232L536.245 648.825H542.369V697.016H537.097V670.479C537.097 666.07 537.285 661.424 537.66 656.577H537.36L510.309 697.016H504.185V648.825ZM576.897 697.016L560.541 654.286H560.29C560.591 657.68 560.741 661.7 560.741 666.358V697.016H555.569V648.825H564.01L579.276 688.588H579.539L594.93 648.825H603.309V697.016H597.698V665.97C597.698 662.401 597.861 658.531 598.161 654.361H597.911L581.418 697.016H576.897ZM616.521 697.016V648.825H622.119V669.414H629.996C635.732 669.414 640.103 670.541 643.108 672.783C646.127 675.037 647.629 678.431 647.629 682.977C647.629 687.511 646.202 690.98 643.359 693.397C640.516 695.814 636.358 697.016 630.886 697.016H616.521ZM622.119 692.232H630.259C634.229 692.232 637.16 691.455 639.026 689.915C640.892 688.362 641.831 686.045 641.831 682.965C641.831 679.959 640.842 677.78 638.888 676.427C636.909 675.087 633.728 674.411 629.333 674.411H622.119V692.232ZM660.842 697.016H655.244V648.825H660.842V697.016ZM695.432 697.016L679.076 654.286H678.813C679.114 657.68 679.276 661.7 679.276 666.358V697.016H674.092V648.825H682.533L697.799 688.588H698.062L713.466 648.825H721.831V697.016H716.233V665.97C716.233 662.401 716.384 658.531 716.697 654.361H716.434L699.94 697.016H695.432ZM735.106 648.825H740.341V675.626C740.341 680.573 740.191 685.043 739.878 689.039H740.153L767.167 648.825H773.291V697.016H768.018V670.479C768.018 666.07 768.206 661.424 768.582 656.577H768.294L741.23 697.016H735.106V648.825Z" fill="#0B2E75"/>
<defs>
<linearGradient id="paint0_linear_230_136" x1="126.998" y1="126" x2="32.4976" y2="296.5" gradientUnits="userSpaceOnUse">
<stop stop-color="#0B2E75"/>
<stop offset="1" stop-color="#0B2E75" stop-opacity="0"/>
</linearGradient>
<linearGradient id="paint1_linear_230_136" x1="250.498" y1="33.4999" x2="178.998" y2="359.5" gradientUnits="userSpaceOnUse">
<stop stop-color="#0B2E75"/>
<stop offset="1" stop-color="#0B2E75" stop-opacity="0"/>
</linearGradient>
<linearGradient id="paint2_linear_230_136" x1="335.998" y1="158" x2="302.219" y2="268.699" gradientUnits="userSpaceOnUse">
<stop stop-color="#0B2E75"/>
<stop offset="1" stop-color="#0B2E75" stop-opacity="0"/>
</linearGradient>
<linearGradient id="paint3_linear_230_136" x1="277.498" y1="231" x2="257.998" y2="321" gradientUnits="userSpaceOnUse">
<stop stop-color="white"/>
<stop offset="1" stop-color="white" stop-opacity="0"/>
</linearGradient>
</defs>
</svg>
