<?xml version="1.0" encoding="UTF-8"?>
<!DOCTYPE svg PUBLIC "-//W3C//DTD SVG 1.1//EN" "http://www.w3.org/Graphics/SVG/1.1/DTD/svg11.dtd">
<!-- Creator: CorelDRAW 2020 (64-Bit) -->
<svg xmlns="http://www.w3.org/2000/svg" xml:space="preserve" width="780px" height="394px" version="1.1" style="shape-rendering:geometricPrecision; text-rendering:geometricPrecision; image-rendering:optimizeQuality; fill-rule:evenodd; clip-rule:evenodd"
viewBox="0 0 24.44 12.34"
 xmlns:xlink="http://www.w3.org/1999/xlink"
 xmlns:xodm="http://www.corel.com/coreldraw/odm/2003">
 <defs>
  <style type="text/css">
   <![CDATA[
    .fil0 {fill:#C1D7ED;fill-rule:nonzero}
    .fil2 {fill:#025CB5;fill-rule:nonzero}
    .fil3 {fill:#025CB5;fill-rule:nonzero}
    .fil1 {fill:#0B2E75;fill-rule:nonzero}
   ]]>
  </style>
 </defs>
 <g id="Слой_x0020_1">
  <metadata id="CorelCorpID_0Corel-Layer"/>
  <g id="_2468074873088">
   <path class="fil0" d="M16.13 2.01l-3.82 -1.58 0.01 2.54c0.17,0.02 0.31,0.09 0.43,0.2 0.05,0.06 0.09,0.12 0.13,0.19l3.25 -1.35zm-3.91 -2.01l2.18 0.9 2.18 0.91 0.91 2.18 0.9 2.18 -0.9 2.18 -0.91 2.19 -2.18 0.9 -2.18 0.9 -2.18 -0.9 -2.18 -0.9 -0.91 -2.19 -0.9 -2.18 0.9 -2.18 0.91 -2.18 2.18 -0.91 2.18 -0.9zm-1.74 7.34c0.05,0 0.09,0 0.14,0.01l1.26 -3.04c-0.06,-0.04 -0.11,-0.07 -0.15,-0.12 -0.09,-0.09 -0.15,-0.19 -0.18,-0.31l-2.49 0.23c-0.01,0.16 -0.08,0.3 -0.19,0.41 -0.02,0.02 -0.04,0.04 -0.06,0.06l1.54 2.77c0.04,-0.01 0.09,-0.01 0.13,-0.01zm0.3 0.09c0.03,0.02 0.06,0.04 0.08,0.06 0.08,0.08 0.13,0.18 0.15,0.3l2.19 -0.03c0.03,-0.18 0.11,-0.34 0.23,-0.46 0.06,-0.06 0.12,-0.11 0.19,-0.14l-1.15 -2.8c-0.08,0.03 -0.15,0.04 -0.23,0.04 -0.07,0 -0.13,-0.01 -0.19,-0.02l-1.27 3.05zm0.23 0.54c-0.02,0.11 -0.07,0.21 -0.15,0.28 -0.03,0.03 -0.05,0.05 -0.09,0.07l1.48 3.57 1.36 -3.27c-0.07,-0.04 -0.12,-0.09 -0.18,-0.14 -0.14,-0.14 -0.23,-0.33 -0.24,-0.54l-2.18 0.03zm-0.4 0.42c-0.04,0.01 -0.09,0.02 -0.13,0.02 -0.11,0 -0.22,-0.04 -0.31,-0.1l-1.95 1.99 3.83 1.58 -1.44 -3.49zm-0.56 -0.2c-0.07,-0.09 -0.11,-0.2 -0.11,-0.32 0,-0.04 0.01,-0.08 0.02,-0.12l-3.46 -1.43 1.6 3.85 1.95 -1.98zm-0.02 -0.6c0.02,-0.04 0.04,-0.07 0.07,-0.1 0.03,-0.02 0.05,-0.04 0.08,-0.06l-1.53 -2.76c-0.07,0.02 -0.14,0.04 -0.22,0.04 -0.14,0 -0.27,-0.05 -0.38,-0.13l-1.54 1.55 3.52 1.46zm6.14 -3.88c0.05,0.02 0.09,0.05 0.13,0.09 0.07,0.07 0.12,0.17 0.12,0.29 0,0.08 -0.03,0.15 -0.07,0.21l1.5 1.5 -1.44 -3.46 -0.24 1.37zm0.06 0.72c-0.07,0.04 -0.14,0.06 -0.22,0.06 -0.04,0 -0.07,0 -0.11,-0.01l-1.48 2.67c0.07,0.04 0.14,0.09 0.2,0.15 0.05,0.05 0.09,0.1 0.13,0.17l3.19 -1.32 -1.71 -1.72zm-0.49 -0.04c0,-0.01 -0.01,-0.01 -0.01,-0.02 -0.07,-0.06 -0.11,-0.14 -0.12,-0.23l-2.69 -0.25c-0.03,0.12 -0.09,0.22 -0.17,0.3 -0.04,0.04 -0.08,0.07 -0.12,0.09l1.16 2.81c0.08,-0.03 0.15,-0.04 0.24,-0.04 0.07,0 0.15,0.01 0.22,0.03l1.49 -2.69zm-0.11 -0.43c0.02,-0.06 0.05,-0.12 0.1,-0.16 0.06,-0.07 0.16,-0.11 0.26,-0.12l0.27 -1.53 -3.32 1.38c0.01,0.05 0.02,0.1 0.02,0.15 0,0.01 0,0.02 0,0.03l2.67 0.25zm-4.11 -0.26c0,-0.01 0,-0.01 0,-0.02 0,-0.05 0,-0.09 0.01,-0.14l-3.35 -1.39 0.23 1.3c0.01,0 0.01,0 0.02,0 0.17,0 0.33,0.07 0.44,0.18 0.09,0.08 0.14,0.18 0.17,0.3l2.48 -0.23zm0.07 -0.33c0.04,-0.07 0.08,-0.14 0.14,-0.2 0.11,-0.11 0.25,-0.18 0.41,-0.2l-0.01 -2.54 -3.82 1.58 3.28 1.36zm-3.67 1.08c-0.07,-0.1 -0.12,-0.23 -0.12,-0.37 0,-0.18 0.07,-0.34 0.18,-0.45 0.07,-0.07 0.16,-0.12 0.25,-0.15l-0.2 -1.15 -1.43 3.45 1.32 -1.33zm6.9 3.18c0.03,0.08 0.04,0.17 0.04,0.26 0,0.21 -0.07,0.39 -0.19,0.54l1.68 1.74 1.58 -3.83 -3.11 1.29zm-0.28 0.92c-0.14,0.11 -0.32,0.18 -0.51,0.18 -0.09,0 -0.18,-0.02 -0.26,-0.04l-1.31 3.16 3.76 -1.55 -1.68 -1.75z"/>
   <g>
    <path class="fil1" d="M0.26 4.42l0.32 0 0 -0.91 -0.32 0 0 0.91zm2.57 -0.53c0,0.08 -0.15,0.15 -0.32,0.15l-1.29 0 0 -0.38 1.29 0c0.17,0 0.32,0.07 0.32,0.16l0 0.07zm0.32 0.53l0 -0.02 -0.45 -0.22c0.27,-0.04 0.45,-0.16 0.45,-0.29l0 -0.07c0,-0.17 -0.31,-0.31 -0.64,-0.31l-1.61 0 0 0.91 0.32 0 0 -0.22 1.06 0 0.41 0.22 0.46 0z"/>
   </g>
   <path class="fil2" d="M2.75 7.04c0,0.25 -0.21,0.46 -0.46,0.46l-1.37 0c-0.26,0 -0.46,-0.21 -0.46,-0.46l0 -1.38c0,-0.25 0.2,-0.45 0.46,-0.45l1.37 0c0.25,0 0.46,0.2 0.46,0.45l0 1.38zm0.45 -1.38c0,-0.49 -0.43,-0.91 -0.91,-0.91l-1.37 0c-0.51,0 -0.92,0.41 -0.92,0.91l0 1.38c0,0.51 0.41,0.91 0.92,0.91l1.37 0c0.5,0 0.91,-0.41 0.91,-0.91l0 -1.38zm3.16 0.46c0,0.25 -0.2,0.46 -0.46,0.46l-1.83 0 0 -1.37 1.83 0c0.26,0 0.46,0.2 0.46,0.45l0 0.46zm0.46 -0.46c-0.01,-0.5 -0.43,-0.91 -0.92,-0.91l-2.28 0 0 3.2 0.45 0 0 -0.91 1.83 0c0.52,0 0.92,-0.43 0.92,-0.92l0 -0.46zm0.82 -0.45l2.75 0 0 -0.46 -3.2 0 0 3.2 3.2 0 0 -0.45 -2.75 0 0 -0.92 2.29 0 0 -0.46 -2.29 0 0 -0.91zm5.86 0.91c0,0.25 -0.2,0.46 -0.46,0.46l-1.83 0 0 -1.37 1.83 0c0.26,0 0.46,0.2 0.46,0.45l0 0.46zm0.46 1.83l0 -0.32 -0.64 -0.64c0.38,-0.13 0.64,-0.48 0.64,-0.87l0 -0.46c0,-0.5 -0.44,-0.91 -0.92,-0.91l-2.28 0 0 3.2 0.45 0 0 -0.91 1.51 0 0.91 0.91 0.33 0zm2.7 0c0.51,-0.01 0.92,-0.42 0.92,-0.91 0,-0.28 -0.11,-0.51 -0.32,-0.69 0.21,-0.18 0.32,-0.41 0.32,-0.69 0,-0.5 -0.44,-0.91 -0.92,-0.91l-2.29 0 0 3.2 2.29 0zm0 -1.37c0.25,0 0.46,0.21 0.46,0.46 0,0.25 -0.21,0.46 -0.46,0.46l-1.83 0 0 -0.92 1.83 0zm-1.83 -1.37l1.83 0c0.25,0 0.46,0.2 0.46,0.45 0,0.26 -0.21,0.46 -0.46,0.46l-1.83 0 0 -0.91zm5.86 1.83c0,0.25 -0.21,0.46 -0.46,0.46l-1.37 0c-0.26,0 -0.46,-0.21 -0.46,-0.46l0 -1.38c0,-0.25 0.2,-0.45 0.46,-0.45l1.37 0c0.25,0 0.46,0.2 0.46,0.45l0 1.38zm0.46 -1.38c0,-0.49 -0.44,-0.91 -0.92,-0.91l-1.37 0c-0.51,0 -0.92,0.41 -0.92,0.91l0 1.38c0,0.51 0.41,0.91 0.92,0.91l1.37 0c0.5,0 0.92,-0.41 0.92,-0.91l0 -1.38zm3.29 -0.45l0 -0.46 -3.2 0 0 0.46 1.37 0 0 2.74 0.46 0 0 -2.74 1.37 0z"/>
   <path class="fil3" d="M1.17 8.88c0.07,0 0.13,0.06 0.13,0.12l0 0.25 -0.62 0 0 -0.25c0,-0.06 0.06,-0.12 0.12,-0.12l0.37 0zm0.25 0.12c0,-0.13 -0.11,-0.24 -0.25,-0.24l-0.37 0c-0.13,0 -0.24,0.11 -0.24,0.24l0 0.62 0.12 0 0 -0.25 0.62 0 0 0.25 0.12 0 0 -0.62z"/>
   <path id="1" class="fil3" d="M2.28 9.37c0,0.07 -0.05,0.13 -0.12,0.13l-0.37 0c-0.07,0 -0.12,-0.06 -0.12,-0.13l0 -0.61 -0.13 0 0 0.61c0,0.14 0.12,0.25 0.25,0.25l0.37 0c0.14,0 0.25,-0.11 0.25,-0.25l0 -0.61 -0.13 0 0 0.61z"/>
   <polygon id="2" class="fil3" points="3.33,8.88 3.33,8.76 2.47,8.76 2.47,8.88 2.84,8.88 2.84,9.62 2.96,9.62 2.96,8.88 "/>
   <path id="3" class="fil3" d="M4.1 9.37c0,0.07 -0.06,0.13 -0.13,0.13l-0.37 0c-0.06,0 -0.12,-0.06 -0.12,-0.13l0 -0.37c0,-0.06 0.06,-0.12 0.12,-0.12l0.37 0c0.07,0 0.13,0.06 0.13,0.12l0 0.37zm0.12 -0.37c0,-0.13 -0.12,-0.24 -0.25,-0.24l-0.37 0c-0.13,0 -0.24,0.11 -0.24,0.24l0 0.37c0,0.14 0.11,0.25 0.24,0.25l0.37 0c0.14,0 0.25,-0.11 0.25,-0.25l0 -0.37z"/>
   <polygon id="4" class="fil3" points="4.82,9.51 5.19,8.98 5.19,9.62 5.32,9.62 5.32,8.76 5.19,8.76 4.82,9.29 4.45,8.76 4.33,8.76 4.33,9.62 4.45,9.62 4.45,8.98 "/>
   <path id="5" class="fil3" d="M6.06 8.88c0.06,0 0.12,0.06 0.12,0.12l0 0.25 -0.62 0 0 -0.25c0,-0.06 0.06,-0.12 0.13,-0.12l0.37 0zm0.24 0.12c0,-0.13 -0.11,-0.24 -0.24,-0.24l-0.37 0c-0.14,0 -0.25,0.11 -0.25,0.24l0 0.62 0.12 0 0 -0.25 0.62 0 0 0.25 0.12 0 0 -0.62z"/>
   <polygon id="6" class="fil3" points="7.19,8.88 7.19,8.76 6.33,8.76 6.33,8.88 6.7,8.88 6.7,9.62 6.82,9.62 6.82,8.88 "/>
   <polygon id="7" class="fil3" points="7.25,9.62 7.38,9.62 7.38,8.76 7.25,8.76 "/>
   <path id="8" class="fil3" d="M8.23 9.37c0,0.07 -0.06,0.13 -0.13,0.13l-0.37 0c-0.06,0 -0.12,-0.06 -0.12,-0.13l0 -0.37c0,-0.06 0.06,-0.12 0.12,-0.12l0.37 0c0.07,0 0.13,0.06 0.13,0.12l0 0.37zm0.12 -0.37c0,-0.13 -0.12,-0.24 -0.25,-0.24l-0.37 0c-0.13,0 -0.24,0.11 -0.24,0.24l0 0.37c0,0.14 0.11,0.25 0.24,0.25l0.37 0c0.14,0 0.25,-0.11 0.25,-0.25l0 -0.37z"/>
   <polygon id="9" class="fil3" points="9.32,8.76 9.2,8.76 9.2,9.41 8.58,8.76 8.46,8.76 8.46,9.62 8.58,9.62 8.58,8.96 9.2,9.62 9.32,9.62 "/>
   <path id="10" class="fil3" d="M10.79 9.37c0,-0.13 -0.12,-0.24 -0.24,-0.24l-0.37 0c-0.07,0 -0.13,-0.06 -0.13,-0.13 0,-0.06 0.06,-0.12 0.13,-0.12l0.37 0c0.06,0 0.12,0.06 0.12,0.12l0.12 0c0,-0.13 -0.11,-0.24 -0.24,-0.24l-0.37 0c-0.14,0 -0.25,0.11 -0.25,0.24 0,0.14 0.11,0.25 0.25,0.25l0.37 0c0.06,0 0.12,0.06 0.12,0.12 0,0.07 -0.06,0.13 -0.12,0.13l-0.37 0c-0.07,0 -0.13,-0.06 -0.13,-0.13l-0.12 0c0,0.14 0.11,0.25 0.25,0.25l0.37 0c0.13,0 0.24,-0.11 0.24,-0.25z"/>
   <polygon id="11" class="fil3" points="11.7,8.94 11.7,8.76 11.58,8.76 11.58,8.89 11.27,9.23 10.96,8.89 10.96,8.76 10.84,8.76 10.84,8.94 11.21,9.35 11.21,9.62 11.33,9.62 11.33,9.35 "/>
   <path id="12" class="fil3" d="M12.62 9.37c0,-0.13 -0.12,-0.24 -0.25,-0.24l-0.37 0c-0.07,0 -0.12,-0.06 -0.12,-0.13 0,-0.06 0.05,-0.12 0.12,-0.12l0.37 0c0.07,0 0.12,0.06 0.12,0.12l0.13 0c-0.01,-0.13 -0.12,-0.24 -0.25,-0.24l-0.37 0c-0.14,0 -0.25,0.11 -0.25,0.24 0,0.14 0.12,0.25 0.25,0.25l0.37 0c0.07,0 0.12,0.06 0.12,0.12 0,0.07 -0.05,0.13 -0.12,0.13l-0.37 0c-0.07,0 -0.12,-0.06 -0.12,-0.13l-0.13 0c0.01,0.14 0.12,0.25 0.25,0.25l0.37 0c0.14,0 0.25,-0.11 0.25,-0.25z"/>
   <polygon id="13" class="fil3" points="13.5,8.88 13.5,8.76 12.64,8.76 12.64,8.88 13.01,8.88 13.01,9.62 13.13,9.62 13.13,8.88 "/>
   <polygon id="14" class="fil3" points="13.69,8.88 14.43,8.88 14.43,8.76 13.57,8.76 13.57,9.62 14.43,9.62 14.43,9.5 13.69,9.5 13.69,9.25 14.31,9.25 14.31,9.13 13.69,9.13 "/>
   <polygon id="15" class="fil3" points="15.02,9.51 15.39,8.98 15.39,9.62 15.51,9.62 15.51,8.76 15.39,8.76 15.02,9.29 14.65,8.76 14.53,8.76 14.53,9.62 14.65,9.62 14.65,8.98 "/>
  </g>
 </g>
</svg>
