<svg width="472" height="402" viewBox="0 0 472 402" fill="none" xmlns="http://www.w3.org/2000/svg">
<g clip-path="url(#clip0_127_266)">
<path fill-rule="evenodd" clip-rule="evenodd" d="M36.5433 359.504C34.8108 359.504 33.6424 357.936 32.4337 356.689L27.1959 351.5C26.5916 350.856 25.9872 350.373 25.7455 349.408C25.1814 347.477 26.7125 345.466 28.4449 345.466C29.9357 345.466 30.2983 345.667 31.2652 346.633C32.3934 347.759 34.6093 349.931 35.5763 350.977C35.6166 351.017 35.6569 351.057 35.6972 351.057C35.8986 351.299 36.3418 351.62 36.4224 351.902C36.7447 351.781 39.565 348.845 39.8471 348.523L48.3886 340.036C48.5498 339.875 48.6303 339.754 48.8318 339.634C49.7585 338.909 49.9599 338.829 51.2089 338.829C52.2565 338.829 53.304 339.634 53.7472 340.518C54.2307 341.524 54.1098 342.811 53.5055 343.736C53.0623 344.38 41.0558 356.246 39.3636 357.936C39.001 358.298 38.6786 358.66 38.2355 358.941C37.8326 359.183 37.1476 359.504 36.5433 359.504V359.504ZM30.258 322.538C29.5731 322.538 28.8478 322.417 28.3241 322.176C27.76 321.895 26.4304 321.13 25.8664 320.809C23.6907 319.481 20.7092 321.251 20.7092 323.906C20.7092 324.509 20.6689 326.681 20.548 327.164C20.1049 328.894 18.9364 330.1 17.1637 330.543C16.7608 330.664 14.5045 330.704 13.9002 330.704C12.4497 330.663 11.3619 331.428 10.7172 332.634C9.26679 335.611 12.5706 337.301 12.5706 339.835C12.5706 341.001 12.2886 342.087 11.6439 342.892C10.959 343.736 10.5561 343.817 9.66969 344.42C9.02505 344.822 8.13866 345.225 7.61489 345.788C6.28531 347.115 6.24502 349.328 7.61489 350.695C8.66243 351.781 10.5964 352.224 11.6842 353.632C12.208 354.315 12.5706 355.402 12.5706 356.488C12.5706 357.775 11.9662 358.499 11.523 359.344L10.8381 360.59C9.54882 363.004 11.1201 365.538 13.7793 365.82C15.3506 365.981 16.9219 365.538 18.2918 366.383C18.6544 366.584 19.017 366.825 19.2991 367.107C19.8631 367.67 20.3466 368.354 20.548 369.279C20.6689 369.802 20.6286 370.204 20.6286 370.848L20.7092 372.497C20.7092 373.502 20.9912 374.307 21.5956 374.991C22.7237 376.198 24.4965 376.399 25.9066 375.675C26.1484 375.554 26.3096 375.433 26.5513 375.313C27.6794 374.709 28.5255 373.905 30.1371 373.905C31.5876 373.905 32.8769 374.548 33.6827 375.554C34.6899 376.841 35.1331 378.732 36.7044 379.496C38.0743 380.18 39.7262 379.858 40.7737 378.812C41.3781 378.209 41.7407 377.404 42.1839 376.72C42.4256 376.358 42.5868 375.996 42.8285 375.634C43.5538 374.629 44.9639 373.905 46.3338 373.905C48.7915 373.905 50.2822 376.077 52.055 376.077C53.304 376.077 54.1098 375.876 54.9156 374.991C56.8898 372.859 54.9962 369.882 56.8093 367.63C56.8898 367.509 56.9301 367.469 57.0107 367.388C59.3878 364.452 62.6916 367.067 65.0687 364.854C66.2372 363.808 66.5192 361.918 65.7134 360.51L64.3435 358.056C63.4974 356.327 64.2227 353.953 65.6328 352.827C65.9954 352.586 66.3983 352.385 66.7609 352.143C67.1638 351.942 67.4459 351.701 67.8085 351.5C68.5337 351.057 69.2186 350.615 69.5813 349.77C70.2259 348.362 70.0244 346.874 68.8963 345.748C67.8488 344.702 65.794 344.179 64.827 342.771C63.8197 341.283 63.6989 339.392 64.6658 337.823C65.2299 336.898 66.1566 335.49 66.1566 334.404C66.1566 333.278 65.8745 332.272 65.0687 331.589C63.6183 330.422 62.6916 330.824 60.9591 330.623C59.6699 330.503 58.7029 330.824 57.1719 329.296C56.9301 329.055 56.6481 328.693 56.4466 328.33C55.6408 327.003 56.0437 325.314 55.9229 323.785C55.8423 323.061 55.6408 322.498 55.2782 321.935C54.3113 320.446 52.2162 319.964 50.6851 320.809C49.275 321.613 47.9454 322.538 46.3338 322.538C45.3265 322.538 44.3596 322.136 43.7552 321.693C41.6601 320.286 41.6601 316.585 38.2757 316.585C36.6641 316.585 35.7778 317.47 35.0928 318.596C34.4079 319.722 33.9244 320.849 32.8769 321.653C32.3531 322.096 31.225 322.538 30.258 322.538V322.538Z" fill="white"/>
<path fill-rule="evenodd" clip-rule="evenodd" d="M20.5882 392.408C20.7091 392.408 22.5624 394.661 22.8848 395.063L27.7599 400.775C27.9613 401.016 28.6463 401.901 28.8477 401.941L35.133 386.817C35.2942 386.535 35.5359 386.012 35.5762 385.771C35.2136 385.57 34.3675 385.369 33.6825 384.966C32.635 384.363 32.5947 384.363 31.668 383.559C31.5069 383.438 31.4666 383.398 31.3054 383.237C31.1443 383.076 31.1443 383.036 30.9831 382.875C30.4996 382.352 29.8953 381.427 29.5327 380.823L28.4851 381.387C28.1225 381.588 27.7196 381.708 27.3167 381.869C25.3022 382.593 22.9251 382.513 20.9508 381.789C20.5076 381.628 20.1047 381.467 19.7018 381.266C19.0975 380.944 18.614 380.622 18.1305 380.22C16.0757 378.531 15.5519 376.922 15.3102 376.72L14.6253 378.37C13.6986 380.421 12.8122 382.794 11.9258 384.846L10.556 388.104C10.3948 388.386 10.3545 388.627 10.2336 388.949L9.18609 391.362C8.09825 393.896 7.8968 393.534 9.87102 393.333C10.5962 393.253 11.3215 393.213 11.9661 393.132L16.1966 392.73C16.9621 392.69 17.647 392.69 18.3723 392.609C19.0169 392.488 19.863 392.408 20.5882 392.408V392.408Z" fill="white"/>
<path fill-rule="evenodd" clip-rule="evenodd" d="M52.7804 382.352C50.7659 382.352 49.8392 382.191 48.0664 381.387C47.7441 381.266 47.2606 380.904 46.9786 380.823C46.2936 382.111 46.1325 382.191 45.3267 383.156C44.9238 383.639 43.5539 384.645 42.9898 384.886C42.5467 385.127 41.5797 385.65 41.0156 385.691C41.0559 386.012 41.2574 386.455 41.3782 386.736C41.5394 387.098 41.6603 387.42 41.8214 387.742L43.0704 390.759C43.1913 391.161 43.3525 391.443 43.5136 391.805L44.9641 395.344C45.0446 395.546 45.1252 395.666 45.2058 395.867L47.5426 401.418C47.6232 401.619 47.6635 401.78 47.7844 401.941C47.9858 401.821 48.0664 401.66 48.2276 401.459C48.3887 401.257 48.5096 401.137 48.6708 400.936C48.7916 400.815 48.7916 400.815 48.8722 400.694L53.9891 394.661C54.3114 394.299 54.5934 393.977 54.9157 393.615C55.0769 393.414 55.1978 393.293 55.3589 393.092L55.8021 392.569C56.0439 392.287 56.7691 392.488 57.454 392.529L65.4718 393.253C65.7941 393.253 66.1164 393.293 66.3582 393.293C67.0028 393.333 67.5266 393.454 68.2115 393.454L63.0141 380.944C62.8529 380.582 61.3219 376.962 61.2816 376.72C61.0399 376.881 60.4758 378.169 59.8714 378.812L58.5419 380.14C58.3807 380.26 58.2195 380.381 58.0584 380.542C56.6885 381.547 54.4726 382.352 52.7804 382.352V382.352Z" fill="white"/>
<path d="M126.229 355.321V341.323H128.083V347.075H135.335V341.323H137.188V355.321H135.335V348.724H128.083V355.321H126.229Z" fill="white"/>
<path d="M138.72 355.321L144.119 341.323H146.173L151.854 355.321H149.759L148.148 351.057H142.225L140.694 355.321H138.72V355.321ZM142.789 349.569H147.543L146.093 345.667C145.65 344.501 145.327 343.535 145.086 342.771C144.884 343.656 144.642 344.581 144.32 345.466L142.789 349.569Z" fill="white"/>
<path d="M155.238 341.323H163.78V353.672H165.029V358.579H163.417V355.321H154.11V358.579H152.458V353.672H153.546C154.674 351.982 155.238 348.523 155.238 343.374V341.323V341.323ZM161.926 342.972H157.051V343.656C157.051 344.863 156.93 346.512 156.729 348.563C156.487 350.615 156.084 352.344 155.439 353.672H161.926V342.972Z" fill="white"/>
<path d="M167.285 355.321V341.323H177.398V342.972H169.139V347.236H176.874V348.885H169.139V353.672H177.761V355.321H167.285Z" fill="white"/>
<path d="M188.8 341.323V347.437C189.687 347.437 190.331 347.276 190.654 346.954C191.016 346.592 191.419 345.828 191.943 344.581C192.346 343.656 192.668 343.012 192.91 342.65C193.152 342.248 193.514 341.926 193.998 341.685C194.441 341.403 194.965 341.283 195.529 341.283C196.133 341.283 196.496 341.283 196.657 341.323V342.932C196.617 342.932 196.496 342.892 196.294 342.892C196.093 342.892 195.972 342.892 195.932 342.892C195.327 342.892 194.884 343.053 194.602 343.334C194.32 343.616 193.957 344.219 193.595 345.144C193.192 346.19 192.829 346.874 192.547 347.236C192.225 347.598 191.822 347.92 191.258 348.161C192.144 348.402 193.031 349.247 193.917 350.655L196.778 355.321H194.522L192.144 351.5C191.54 350.494 191.016 349.81 190.573 349.368C190.17 348.966 189.566 348.765 188.8 348.765V355.321H186.907V348.765C186.262 348.765 185.738 348.925 185.255 349.247C184.812 349.569 184.248 350.253 183.643 351.339L183.522 351.5L181.145 355.321H178.849L181.75 350.655C182.636 349.247 183.522 348.402 184.449 348.161C183.925 347.96 183.522 347.678 183.2 347.316C182.878 346.995 182.515 346.271 182.072 345.185C181.669 344.179 181.306 343.535 181.024 343.294C180.742 343.012 180.299 342.892 179.735 342.892L179.01 342.932V341.323C179.05 341.283 179.413 341.283 180.057 341.283C180.702 341.283 181.226 341.403 181.669 341.685C182.112 341.926 182.475 342.248 182.716 342.61C182.999 343.012 183.321 343.656 183.724 344.581C184.248 345.828 184.691 346.633 185.013 346.954C185.335 347.276 185.98 347.437 186.907 347.437V341.323H188.8V341.323Z" fill="white"/>
<path d="M198.47 355.321V341.323H200.323V347.075H207.575V341.323H209.429V355.321H207.575V348.724H200.323V355.321H198.47Z" fill="white"/>
<path d="M211.967 348.483C211.967 346.19 212.571 344.34 213.82 343.053C215.109 341.725 216.721 341.082 218.695 341.082C219.985 341.082 221.153 341.403 222.201 342.007C223.208 342.61 224.014 343.495 224.578 344.581C225.101 345.667 225.383 346.954 225.383 348.322C225.383 349.77 225.101 351.017 224.497 352.143C223.933 353.27 223.127 354.114 222.08 354.677C221.032 355.241 219.904 355.562 218.655 355.562C217.366 355.562 216.157 355.241 215.109 354.597C214.102 353.953 213.296 353.068 212.773 351.982C212.249 350.896 211.967 349.73 211.967 348.483V348.483ZM213.901 348.523C213.901 350.213 214.344 351.54 215.23 352.505C216.157 353.471 217.285 353.953 218.655 353.953C220.065 353.953 221.193 353.471 222.12 352.505C223.006 351.5 223.449 350.132 223.449 348.322C223.449 347.196 223.248 346.19 222.885 345.345C222.483 344.501 221.918 343.857 221.193 343.374C220.428 342.932 219.622 342.691 218.695 342.691C217.366 342.691 216.238 343.133 215.311 344.018C214.344 344.943 213.901 346.431 213.901 348.523V348.523Z" fill="white"/>
<path d="M237.753 350.414L239.606 350.856C239.204 352.385 238.519 353.551 237.511 354.356C236.504 355.16 235.255 355.562 233.805 355.562C232.314 355.562 231.065 355.241 230.138 354.637C229.171 353.994 228.486 353.109 227.963 351.942C227.479 350.776 227.237 349.529 227.237 348.201C227.237 346.753 227.519 345.466 228.083 344.38C228.647 343.294 229.413 342.489 230.461 341.926C231.468 341.363 232.596 341.082 233.845 341.082C235.255 341.082 236.423 341.444 237.39 342.127C238.317 342.851 239.002 343.857 239.365 345.144L237.552 345.587C237.229 344.581 236.746 343.817 236.141 343.374C235.537 342.892 234.731 342.65 233.805 342.65C232.757 342.65 231.83 342.932 231.105 343.415C230.38 343.938 229.896 344.662 229.614 345.506C229.292 346.391 229.171 347.276 229.171 348.201C229.171 349.368 229.332 350.414 229.655 351.299C230.017 352.184 230.541 352.867 231.307 353.31C232.032 353.752 232.797 353.953 233.643 353.953C234.691 353.953 235.577 353.672 236.303 353.068C237.028 352.465 237.511 351.58 237.753 350.414V350.414Z" fill="white"/>
<path d="M244.803 355.321V342.972H240.21V341.323H251.29V342.972H246.697V355.321H244.803Z" fill="white"/>
<path d="M253.305 341.323H255.158V347.276H258.502C260.073 347.276 261.202 347.437 261.886 347.799C262.571 348.201 263.095 348.684 263.377 349.287C263.7 349.931 263.861 350.575 263.861 351.218C263.861 352.304 263.498 353.27 262.733 354.074C262.007 354.919 260.637 355.321 258.623 355.321H253.305V341.323V341.323ZM255.158 353.712H258.542C259.912 353.712 260.799 353.471 261.242 352.988C261.645 352.505 261.846 351.902 261.846 351.218C261.846 350.695 261.685 350.213 261.403 349.81C261.081 349.408 260.678 349.167 260.194 349.046C259.671 348.925 258.824 348.885 257.656 348.885H255.158V353.712V353.712Z" fill="white"/>
<path d="M271.556 341.323H273.248V352.385L280.701 341.323H282.555V355.321H280.863V344.259L273.409 355.321H271.556V341.323Z" fill="white"/>
<path d="M291.057 341.323H292.91V347.437C293.756 347.437 294.36 347.276 294.723 346.954C295.045 346.633 295.489 345.828 296.012 344.581C296.415 343.656 296.738 343.012 296.979 342.65C297.261 342.248 297.624 341.926 298.067 341.685C298.551 341.403 299.034 341.283 299.598 341.283C300.323 341.283 300.686 341.283 300.726 341.323V342.932C300.686 342.932 300.565 342.892 300.364 342.892C300.162 342.892 300.041 342.892 300.001 342.892C299.397 342.892 298.954 343.053 298.672 343.334C298.389 343.616 298.067 344.219 297.664 345.144C297.181 346.351 296.818 347.115 296.496 347.397C296.133 347.719 295.771 347.96 295.327 348.161C296.214 348.402 297.1 349.247 297.987 350.655L300.887 355.321H298.591L296.214 351.5C295.569 350.454 295.045 349.73 294.602 349.368C294.159 348.966 293.635 348.765 292.91 348.765V355.321H291.057V341.323V341.323Z" fill="white"/>
<path d="M300.888 355.321L306.287 341.323H308.301L314.022 355.321H311.927L310.275 351.057H304.393L302.862 355.321H300.888V355.321ZM304.917 349.569H309.711L308.261 345.667C307.818 344.501 307.495 343.535 307.254 342.771C307.052 343.656 306.81 344.581 306.488 345.466L304.917 349.569Z" fill="white"/>
<path d="M323.974 355.321H322.12V349.69C320.469 350.293 318.978 350.615 317.729 350.615C316.762 350.615 315.916 350.374 315.15 349.931C314.425 349.448 313.901 348.885 313.659 348.161C313.418 347.477 313.297 346.552 313.297 345.426V341.323H315.15V345.265C315.15 346.794 315.432 347.799 315.996 348.282C316.52 348.765 317.205 349.006 318.011 349.006C319.3 349.006 320.67 348.724 322.12 348.121V341.323H323.974V355.321V355.321Z" fill="white"/>
<path d="M327.076 355.321V341.323H337.189V342.972H328.93V347.236H336.665V348.885H328.93V353.672H337.511V355.321H327.076Z" fill="white"/>
<path d="M350.082 350.414L351.935 350.856C351.533 352.385 350.848 353.551 349.84 354.356C348.833 355.16 347.584 355.562 346.134 355.562C344.643 355.562 343.394 355.241 342.467 354.637C341.5 353.994 340.775 353.109 340.292 351.942C339.808 350.776 339.566 349.529 339.566 348.201C339.566 346.753 339.848 345.466 340.372 344.38C340.936 343.294 341.742 342.489 342.749 341.926C343.797 341.363 344.925 341.082 346.174 341.082C347.584 341.082 348.753 341.444 349.679 342.127C350.646 342.851 351.331 343.857 351.694 345.144L349.881 345.587C349.558 344.581 349.075 343.817 348.471 343.374C347.826 342.892 347.06 342.65 346.134 342.65C345.046 342.65 344.159 342.932 343.434 343.415C342.709 343.938 342.185 344.662 341.903 345.506C341.621 346.391 341.46 347.276 341.46 348.201C341.46 349.368 341.661 350.414 341.984 351.299C342.346 352.184 342.87 352.867 343.595 353.31C344.321 353.752 345.126 353.953 345.973 353.953C347.02 353.953 347.906 353.672 348.591 353.068C349.317 352.465 349.8 351.58 350.082 350.414V350.414Z" fill="white"/>
<path d="M357.132 355.321V342.972H352.499V341.323H363.619V342.972H358.986V355.321H357.132Z" fill="white"/>
<path d="M365.473 355.321V341.323H370.71C371.798 341.323 372.644 341.444 373.289 341.725C373.934 342.007 374.457 342.449 374.82 343.053C375.183 343.616 375.384 344.259 375.384 344.903C375.384 345.506 375.223 346.069 374.86 346.592C374.538 347.115 374.054 347.518 373.41 347.88C374.256 348.121 374.901 348.523 375.384 349.127C375.827 349.73 376.069 350.454 376.069 351.258C376.069 351.902 375.908 352.505 375.626 353.069C375.344 353.632 375.021 354.074 374.618 354.396C374.216 354.678 373.692 354.919 373.087 355.08C372.443 355.241 371.718 355.321 370.791 355.321H365.473V355.321ZM367.326 347.196H370.348C371.154 347.196 371.758 347.156 372.121 347.035C372.604 346.874 372.967 346.673 373.168 346.351C373.41 345.989 373.531 345.587 373.531 345.104C373.531 344.662 373.45 344.219 373.208 343.897C372.967 343.535 372.685 343.294 372.241 343.133C371.838 343.012 371.113 342.972 370.106 342.972H367.326V347.196V347.196ZM367.326 353.672H370.791C371.395 353.672 371.838 353.632 372.08 353.591C372.483 353.511 372.846 353.39 373.128 353.229C373.45 353.028 373.652 352.787 373.853 352.425C374.054 352.103 374.135 351.701 374.135 351.258C374.135 350.736 374.014 350.293 373.732 349.891C373.45 349.489 373.087 349.247 372.604 349.086C372.121 348.925 371.436 348.845 370.549 348.845H367.326V353.672V353.672Z" fill="white"/>
<path d="M377.398 348.483C377.398 346.19 378.003 344.34 379.252 343.053C380.501 341.725 382.112 341.082 384.087 341.082C385.376 341.082 386.544 341.403 387.592 342.007C388.639 342.61 389.445 343.495 389.969 344.581C390.533 345.667 390.775 346.954 390.775 348.322C390.775 349.77 390.493 351.017 389.929 352.143C389.365 353.27 388.559 354.114 387.511 354.677C386.423 355.241 385.295 355.562 384.087 355.562C382.757 355.562 381.589 355.241 380.541 354.597C379.494 353.953 378.728 353.068 378.164 351.982C377.64 350.896 377.398 349.73 377.398 348.483V348.483ZM379.292 348.523C379.292 350.213 379.735 351.54 380.662 352.505C381.548 353.471 382.717 353.953 384.087 353.953C385.457 353.953 386.625 353.471 387.511 352.505C388.438 351.5 388.881 350.132 388.881 348.322C388.881 347.196 388.68 346.19 388.317 345.345C387.914 344.501 387.35 343.857 386.625 343.374C385.859 342.932 385.013 342.691 384.087 342.691C382.797 342.691 381.669 343.133 380.702 344.018C379.776 344.943 379.292 346.431 379.292 348.523Z" fill="white"/>
<path fill-rule="evenodd" clip-rule="evenodd" d="M19.9035 98.5684L19.6214 98.7293C19.5812 98.7293 19.42 98.8098 19.3797 98.8098C19.138 98.8902 19.0574 98.9304 18.8156 99.0109C18.6948 99.1718 18.4127 99.2522 18.2516 99.3327C18.0501 99.4936 17.889 99.6143 17.7278 99.7349C17.4861 99.9763 17.4861 99.9361 17.2846 100.218C17.1637 100.379 17.0026 100.58 16.8817 100.66C16.8011 100.942 16.7608 100.942 16.5997 101.223C16.5997 101.263 16.5594 101.424 16.5191 101.465C16.3982 101.666 16.4788 101.545 16.3579 101.666L16.2371 102.269L16.1162 103.074L16.0759 105.286V105.447V106.211L16.0356 108.061C15.9953 109.268 15.9147 116.991 16.0759 117.997C16.1565 118.761 16.3579 119.244 16.7608 119.807L17.0832 120.37L17.4055 120.652C17.5264 120.692 17.9293 121.014 18.0904 121.134C18.3724 121.295 18.6142 121.456 18.9365 121.537C19.5812 121.778 20.3467 121.899 21.0719 121.899H21.2733C21.9986 121.979 21.8374 121.738 21.8374 123.226V137.385C21.8777 139.798 23.5296 141.448 25.947 141.407C27.1557 141.407 31.8697 141.528 32.8366 141.247C33.159 141.166 33.3604 141.005 33.6424 141.005C33.9245 140.643 34.1259 140.683 34.5288 140.16C34.8109 139.798 35.0123 139.557 35.1735 139.074C35.939 137.506 34.5288 137.305 34.3677 136.661C33.9648 136.379 32.7158 134.77 32.5143 134.288C32.1517 134.247 32.4337 134.328 32.3934 134.127L31.5876 132.88C31.3862 132.799 30.3789 130.547 30.3789 130.346L30.1372 129.863C30.0163 129.581 30.0163 129.541 29.976 129.26C29.694 128.978 29.3717 127.168 29.2508 126.645L29.0896 125.639C28.8076 123.347 28.9285 120.732 28.8882 118.359C28.8882 116.951 28.6465 112.084 29.4523 111.36C29.5328 111.159 29.4926 111.239 29.5731 111.078C29.6537 110.998 29.6537 110.998 29.7343 110.958C29.8552 110.515 30.5401 110.073 30.8624 109.871C31.225 109.67 31.9905 109.308 32.4337 109.308L34.8109 108.504C35.1735 108.263 35.2943 108.343 35.4958 107.9L35.5361 106.613L35.5764 104.361H49.5168C50.4032 104.361 51.209 104.28 51.8939 103.798C52.458 103.395 52.4983 102.993 52.74 102.993C53.5055 101.062 53.022 99.4936 51.4507 98.8098C50.3226 98.2868 47.18 98.488 45.7698 98.488C43.7553 98.488 41.7811 98.488 39.7666 98.488C38.7593 98.488 37.752 98.488 36.7851 98.488C35.8181 98.488 34.6094 98.4075 33.6827 98.5282C33.6424 98.6086 33.7633 98.4477 33.6424 98.6086C33.1993 99.0511 32.9172 99.9361 32.5546 100.58C32.4337 100.821 32.3129 100.982 32.192 101.223L31.9503 101.746C31.91 101.867 31.91 101.827 31.8294 101.907C31.7891 102.309 30.6207 104.441 30.4595 104.642L30.2178 104.361C30.1372 104.28 30.0969 104.2 30.0163 104.079C28.4047 101.907 28.7673 102.47 29.2508 101.666C29.3717 101.465 29.4523 101.183 29.5328 100.982C29.7343 99.212 29.9357 98.7293 28.1227 98.5684C27.0348 98.4477 25.8664 98.5282 25.7859 99.6545C25.7053 100.982 26.1082 101.545 26.6319 102.309C26.5111 102.671 25.7053 103.677 25.4232 104.119L25.1009 104.522C25.0203 104.642 25.0606 104.602 24.98 104.642C24.7786 104.401 24.416 103.757 24.416 103.476C24.2951 103.395 24.3354 103.436 24.2548 103.315C24.2548 103.315 24.2548 103.275 24.2548 103.234C24.2145 103.194 24.2145 103.194 24.2145 103.154C24.0131 102.953 23.6908 102.189 23.5296 101.907C23.3281 101.465 22.9655 101.022 22.9252 100.539C22.6029 100.338 22.3612 99.6947 22.2 99.3327C21.918 98.7293 21.918 98.5684 21.1928 98.488L19.9035 98.5684V98.5684Z" fill="white"/>
<path fill-rule="evenodd" clip-rule="evenodd" d="M58.4209 126.726C58.3403 127.168 57.6554 128.656 57.333 129.059L57.2525 129.179C57.0107 130.024 54.9156 132.357 54.0695 133.121L53.1429 134.006C52.6594 134.449 50.4837 136.098 49.9599 136.098C49.7182 136.339 49.1138 136.54 48.7915 136.661C48.4692 136.822 47.7037 137.023 47.3008 136.983C47.1799 136.138 47.2202 124.151 47.3411 123.91C47.7843 123.789 49.5167 123.829 50.0808 123.829C51.0478 123.789 52.055 123.789 52.9817 123.749C54.9559 123.749 56.8898 123.709 58.8238 123.709C58.9044 124.875 58.8238 125.68 58.4209 126.726V126.726ZM37.752 114.779C37.7923 114.739 37.7923 114.739 37.9131 114.658L38.034 114.618C38.2758 114.538 38.1146 114.578 38.3563 114.538C38.4772 114.417 41.2169 113.411 41.499 113.411C41.6199 113.291 41.499 113.371 41.7004 113.21C41.781 113.21 41.8213 113.17 41.9019 113.17C42.063 113.089 42.2242 113.049 42.3854 113.009C42.6674 112.848 44.561 112.124 44.8431 112.164C44.9639 112.044 44.7625 112.124 45.0445 112.003C45.0848 111.963 45.2057 111.923 45.246 111.923C45.4071 111.842 45.5683 111.802 45.7697 111.762C45.8906 111.641 47.0187 111.239 47.2202 111.279L47.2605 112.969V114.176V115.422V116.669V117.916V119.163V120.41V121.657V122.904V123.829H46.1726C45.0848 123.91 36.1404 123.95 35.7375 123.789C35.4152 123.588 35.536 118.922 35.536 118.278C35.536 117.635 35.3749 115.905 35.7375 115.543C35.9389 115.342 37.4297 114.779 37.752 114.779V114.779ZM43.3926 107.699L42.8286 107.981C42.5062 108.182 39.2024 109.509 38.8801 109.509L37.5505 110.073C37.3088 110.274 35.1734 111.118 34.8914 111.078C34.6093 111.32 34.287 111.4 33.9244 111.521C33.5215 111.762 33.0783 111.883 32.6351 112.044C31.9905 112.325 31.8696 112.768 31.7487 112.848C31.4667 114.055 31.6279 117.715 31.6279 119.163C31.6682 120.209 31.6279 121.295 31.6279 122.341C31.6279 122.904 31.8293 124.915 31.7487 125.197L31.9502 126.042C32.0308 126.364 32.0711 126.605 32.1114 126.886C32.1919 127.208 32.3934 127.651 32.3531 127.932C32.5143 128.174 32.9172 129.421 32.9575 129.622C32.9977 129.702 33.6424 131.03 33.7633 131.231C34.0453 131.713 34.5288 132.317 34.6899 132.759L35.6972 134.046C35.8583 134.207 35.8583 134.288 36.0195 134.449C36.3821 134.811 37.2685 135.736 37.4297 136.017C37.6714 136.098 39.6456 137.707 39.7262 137.868L39.8471 137.948C40.25 138.109 40.7335 138.471 41.1364 138.753C41.4184 138.914 42.3451 139.356 42.4659 139.477C42.8286 139.597 43.4732 139.839 43.7149 140.161C44.0373 140.161 45.9309 140.965 46.4144 141.126C47.0187 141.367 47.2202 141.407 47.8648 141.206C48.3483 141.086 48.9124 140.804 49.3153 140.804C49.3959 140.724 49.275 140.764 49.5167 140.643C49.7585 140.523 49.6376 140.563 49.8793 140.523C50.242 140.321 50.8463 140.08 51.2492 139.879C51.773 139.597 52.1759 139.396 52.6997 139.155L54.835 137.747H54.9559C55.0768 137.546 55.2379 137.466 55.3991 137.345C55.4394 137.305 55.6006 137.224 55.6409 137.184C55.8423 137.023 55.6409 137.144 55.8826 137.023C55.9632 136.862 56.084 136.782 56.2452 136.621C56.3661 136.54 56.4064 136.5 56.4869 136.46C56.7287 136.259 56.5675 136.379 56.7287 136.339C56.8496 136.138 56.7287 136.259 56.8898 136.098C57.0107 136.017 57.051 136.017 57.1719 135.937C57.1719 135.736 57.1719 135.816 57.333 135.655C57.4539 135.535 57.4942 135.494 57.6151 135.374C57.7762 135.213 57.9374 135.012 58.1791 134.931C58.3 134.69 58.3403 134.569 58.582 134.449C58.6626 134.167 58.7029 134.248 58.8641 134.046C59.0252 133.805 58.9447 133.966 59.1058 133.765C59.1864 133.644 59.2267 133.604 59.3476 133.483C59.4281 133.322 59.4281 133.282 59.549 133.161C59.5893 133.121 59.6296 133.081 59.6699 133.041C59.6699 133.041 59.7102 133.041 59.7102 133.001C59.7102 132.96 59.7505 132.96 59.7907 132.96V132.88C59.9519 132.558 60.0325 132.478 60.1936 132.236L60.5563 131.673C60.5965 131.311 61.1203 130.627 61.2815 130.185C61.5232 129.662 61.7247 129.179 61.9261 128.576C62.2484 127.61 62.6514 126.042 62.7319 124.996C62.7722 124.755 62.7722 124.634 62.7722 124.393L62.9334 123.789C62.7722 123.427 62.8931 119.244 62.8931 118.439C62.8931 117.554 62.8931 116.669 62.8931 115.784C62.9334 115.101 62.7722 113.693 62.9334 113.13L62.4902 112.365C62.4096 112.365 61.6038 111.923 61.3218 111.842C60.9189 111.682 60.516 111.521 60.0728 111.36C59.4684 111.078 58.2194 110.676 57.7359 110.354C57.4942 110.314 57.6554 110.354 57.4942 110.314C57.333 110.233 57.4136 110.233 57.333 110.193C56.9704 110.153 55.2782 109.429 54.8753 109.228C54.5933 109.147 54.4724 109.107 54.2307 108.987C54.1098 108.946 53.989 108.906 53.9084 108.866L53.7069 108.745C53.6666 108.705 53.6666 108.705 53.6263 108.705C53.3846 108.705 51.4104 107.9 51.0881 107.74C50.9672 107.699 50.0002 107.337 49.9599 107.217C49.9599 107.217 49.9196 107.217 49.9196 107.176C49.557 107.176 48.1066 106.573 47.744 106.372L46.7367 106.412L43.3926 107.699V107.699Z" fill="white"/>
<path fill-rule="evenodd" clip-rule="evenodd" d="M74.2549 116.066C74.2146 116.187 74.2146 116.388 74.2146 116.509C74.2146 116.549 74.1743 116.669 74.1743 116.669C74.134 116.951 74.1743 116.79 74.0937 116.871C74.2952 117.595 73.4894 121.778 73.2073 122.422C73.2073 122.623 73.2073 122.623 73.167 122.784C73.0865 123.025 73.0865 122.904 73.0059 122.985C73.0462 123.387 72.5224 125.157 72.3209 125.438L71.9986 126.364C71.918 126.524 71.9583 126.444 71.8777 126.524C71.8375 126.967 70.9511 129.018 70.7093 129.219L69.7021 131.271C69.6215 131.392 69.6215 131.351 69.5409 131.432C69.4603 131.955 67.3652 134.931 66.8012 135.615C66.5997 135.897 65.9954 136.701 65.7536 136.822C65.6328 137.144 65.6731 136.983 65.4313 137.224L65.0284 137.626L64.6658 138.109C64.5449 138.27 64.3838 138.511 64.142 138.511C63.9809 138.833 63.9406 138.873 63.6988 138.994C63.6183 139.115 63.7391 138.994 63.578 139.195C63.3765 139.356 63.4974 139.235 63.3765 139.316C63.2153 139.557 63.1348 139.557 62.9736 139.758C62.7319 140.04 62.7722 140.08 62.4498 140.201C62.4095 140.241 62.329 140.362 62.2484 140.442C62.1678 140.563 62.2081 140.523 62.1275 140.563C61.8455 140.724 62.0872 140.603 61.9261 140.643C61.8052 140.804 61.9261 140.643 61.7649 140.804L61.644 140.925C61.4426 141.126 61.5635 141.086 61.2814 141.206C61.08 141.528 59.9518 142.333 59.5087 142.614C59.1058 142.936 57.9776 143.821 57.5344 143.861C57.2121 144.304 55.6005 145.108 55.0364 145.349C54.7947 145.591 51.6923 147.039 51.2089 147.039C51.0074 147.28 50.4031 147.441 50.0807 147.481C49.7987 147.682 47.6633 148.326 47.3007 148.286C47.2201 148.366 47.2604 148.366 47.0993 148.407C47.059 148.447 46.8575 148.487 46.8172 148.487C46.6158 148.527 46.4546 148.567 46.2532 148.608C45.8503 148.728 45.3265 148.889 44.9639 148.809C44.8833 148.849 45.0042 148.849 44.6819 148.929C44.5207 148.97 44.4804 148.97 44.2789 148.97C42.7076 149.412 39.847 149.493 38.1145 149.533C35.9389 149.573 33.9244 149.332 31.8696 149.01C31.7487 148.97 31.6681 148.97 31.5875 148.97C31.4264 148.929 31.6681 149.01 31.4667 148.889C31.2652 148.849 31.3458 148.849 31.2652 148.809C30.9026 148.889 29.573 148.608 29.291 148.407C29.1298 148.407 29.0492 148.407 28.9284 148.366C28.6866 148.286 28.8075 148.286 28.6866 148.205C28.2837 148.246 26.0678 147.522 25.8663 147.32C25.4634 147.28 23.9324 146.757 23.6101 146.395C23.2072 146.355 21.4747 145.47 21.1524 145.189C20.83 145.108 20.1451 144.666 19.8228 144.505L18.6141 143.66L18.2515 143.499C18.0903 143.378 18.05 143.338 17.9291 143.218C16.1161 141.93 13.4972 139.879 12.1274 138.23L10.9992 136.943C10.5963 136.5 10.274 136.098 9.91139 135.615C9.66965 135.334 8.98472 134.489 8.94443 134.167C8.58182 133.966 8.05804 132.96 7.77601 132.518C7.57456 132.196 7.4134 131.955 7.25224 131.633C7.05079 131.311 6.84934 131.03 6.72847 130.627C6.52702 130.547 5.47947 128.335 5.39889 127.932C5.39889 127.892 5.39889 127.852 5.3586 127.852L5.27802 127.691C5.23773 127.651 5.19744 127.53 5.15715 127.49C5.07657 127.248 5.03628 127.168 4.9557 126.927C4.83483 126.766 4.83483 126.726 4.87512 126.484C4.75425 126.404 4.83483 126.524 4.67367 126.283C4.67367 126.283 4.59308 126.042 4.59308 125.961C4.5125 125.76 4.47221 125.639 4.39163 125.398C4.23047 124.996 3.94844 124.473 4.02902 124.031L3.82757 123.709C3.78728 123.588 3.78728 123.467 3.74699 123.347C3.26351 122.422 2.86061 119.204 2.65915 117.957L2.57857 117.152C2.21596 114.336 2.33683 110.716 2.82032 107.981L2.94119 107.096C2.98148 106.975 2.9009 107.176 2.98148 106.935C3.10235 106.734 3.02177 106.855 3.10235 106.774C3.02177 106.372 3.54554 104.119 3.74699 103.798L3.98873 102.953L4.02902 102.913L4.1096 102.792C4.06931 102.43 4.75425 100.62 4.9557 100.218C5.07657 99.9361 5.15715 99.6143 5.3586 99.4534C5.3586 99.0109 6.04353 97.8444 6.28527 97.3617C6.32556 97.241 6.52702 96.7986 6.64789 96.7583C6.84934 96.1147 7.4134 95.3505 7.73572 94.7471C7.97746 94.3851 8.6624 93.1784 9.02501 92.9772C9.0653 92.6152 9.62936 92.0119 9.8711 91.7303C10.1934 91.2878 10.4755 90.966 10.7978 90.5638L11.7647 89.4777C12.1274 89.1559 12.4497 88.7135 12.772 88.3514L16.1161 85.415C16.5593 85.0932 16.9219 84.7715 17.3651 84.5301L17.5665 84.3692C17.6471 84.2888 17.7277 84.2485 17.8083 84.1681C18.4932 83.6854 20.5883 82.358 21.2329 82.1166C21.3941 81.9155 23.3683 80.9099 23.7309 80.8697C23.7712 80.8697 23.8115 80.8295 23.8115 80.8295L25.9872 79.9445C26.7124 79.6227 30.54 78.416 31.2652 78.4964L32.5142 78.2149C33.7632 77.8529 36.8253 77.7724 38.2757 77.7322C39.9679 77.7322 42.3853 77.8529 43.9969 78.2149C44.1178 78.2149 44.3192 78.2149 44.4804 78.2551C44.561 78.2953 44.6013 78.2953 44.6819 78.3355C44.8833 78.3758 44.7624 78.3355 44.8833 78.416C45.2862 78.3355 45.8503 78.4964 46.2129 78.6171L46.6158 78.6976C47.3007 78.9791 48.2677 79.0998 49.0332 79.3814C49.839 79.6629 50.5642 79.8641 51.2894 80.1859C52.0952 80.5077 55.1976 81.7546 55.4796 82.1569C55.9228 82.3178 57.2121 82.9211 57.4539 83.3636C57.7762 83.3636 58.0582 83.6452 58.3402 83.8463C60.5965 85.3346 60.7979 85.6966 62.5304 87.1447C62.8125 87.3458 63.9809 88.3514 63.9809 88.5928C64.2226 88.7134 64.142 88.633 64.2629 88.8743C64.4241 88.8743 64.6658 89.1961 64.827 89.357C64.827 89.3973 64.8673 89.4375 64.8673 89.4375C64.9881 89.5984 64.9075 89.4375 64.9478 89.5984L65.0687 89.6788C65.391 90.0409 65.5522 90.1213 65.6328 90.4029C65.9551 90.5235 66.4789 91.2878 66.7206 91.6096C67.0832 92.0923 67.3652 92.4945 67.7279 93.0175C68.0502 93.4599 69.5006 95.4712 69.5409 95.9136C69.6215 95.9941 69.5812 95.9539 69.6618 96.0745C69.7424 96.1952 69.7424 96.1952 69.7827 96.3159C69.9438 96.4365 70.669 97.8846 70.8302 98.2466C70.9914 98.6489 71.7166 100.017 71.7166 100.379C71.918 100.62 72.1598 101.384 72.2404 101.666C72.4418 101.988 72.9656 103.717 72.9253 104.039L73.167 104.602C73.2476 104.843 73.2879 105.004 73.3282 105.246C73.5296 106.211 74.3354 109.711 74.0937 110.515L74.2549 111.239C74.2549 112.888 74.2952 114.377 74.2549 116.066V116.066ZM36.3418 75.5601H40.2096C40.4917 75.6405 42.2644 75.721 42.7882 75.8014C44.6013 76.0427 45.8906 76.2439 47.7036 76.6863C48.308 76.8472 49.5167 77.2897 49.9599 77.2897C50.0002 77.2897 50.0405 77.2897 50.0405 77.3299L51.1686 77.7724L53.7069 78.7378C53.7874 78.778 53.6666 78.6976 53.868 78.8182C53.9486 78.8585 53.9889 78.8987 54.0292 78.9389C54.1903 78.9791 54.2709 79.0194 54.3918 79.0998C55.1976 79.4618 55.802 79.7434 56.5675 80.1456C57.2524 80.5077 57.897 80.9904 58.5417 81.3122C58.9446 81.5937 59.3475 81.8753 59.7907 82.1569C60.1936 82.3982 60.6771 82.8407 61.0397 82.9614C61.1203 83.1625 61.0397 83.082 61.2411 83.082C61.3217 83.2027 61.2411 83.082 61.362 83.2429L61.4426 83.3234L62.1678 83.8061C62.1678 83.967 62.2081 83.9267 62.4095 84.0876C62.4095 84.1279 62.5707 84.2485 62.611 84.2485C62.7319 84.329 62.6916 84.329 62.8124 84.329C62.9736 84.6106 63.3362 84.9324 63.6183 85.0128C63.7391 85.3748 64.3435 85.6966 64.7061 86.1391C65.8745 87.3458 66.4789 87.8687 67.6473 89.2766C67.8487 89.5179 67.6876 89.4375 67.889 89.4375L68.3725 90.0811C68.3725 90.0409 68.4128 90.0811 68.4128 90.1213C68.4531 90.3626 68.3322 90.1213 68.574 90.4431C68.6948 90.5638 68.6948 90.5638 68.7754 90.604L70.1856 92.5348C70.2258 92.6554 70.1453 92.5348 70.2259 92.6957L72.0389 95.7527C72.1598 95.9136 72.4418 96.6779 72.6433 96.7583C72.6836 97.0801 72.7641 97.1606 72.9253 97.4824C72.9656 97.5628 73.0059 97.6835 73.0462 97.764C73.1267 97.9248 73.1267 97.8846 73.2476 98.0053C73.2476 98.3271 74.2549 100.58 74.416 101.183C74.8189 102.309 75.1413 103.355 75.4636 104.602C75.7456 105.769 75.9471 107.056 76.1485 108.263C76.2694 108.946 76.4305 111.923 76.5514 112.164V115.302C76.4708 115.543 76.3903 117.192 76.35 117.675C76.2694 118.399 76.1888 119.123 76.0679 119.847L75.2218 123.95C75.1815 124.031 75.2218 123.99 75.1413 124.151L74.8592 125.117L73.8923 127.932L73.3282 129.179C73.1267 129.622 72.9253 129.863 72.8044 130.386C72.603 130.547 72.2806 131.351 72.1195 131.633C71.9986 131.874 71.918 132.035 71.7569 132.277C71.5554 132.639 71.5151 132.558 71.5151 132.88C71.2331 133.081 71.2734 133.161 71.0719 133.483L69.9841 135.293C69.7021 135.374 69.9035 135.253 69.8632 135.494C69.6618 135.615 69.1783 136.339 69.0171 136.54C68.7351 136.822 68.4531 137.345 68.1308 137.667L66.2371 139.839C65.4313 140.804 64.0614 142.051 63.1348 142.815L61.4829 144.183C61.2814 144.304 61.0397 144.424 60.9994 144.585C60.6771 144.746 60.1936 145.028 60.0324 145.309C59.7907 145.349 59.9116 145.189 59.831 145.43L57.6553 146.717C57.5344 146.798 57.5747 146.757 57.4941 146.838L57.4136 146.958C57.0912 146.958 56.4063 147.401 56.084 147.602C55.7617 147.763 55.0767 148.044 54.8753 148.246C54.2306 148.487 53.3845 148.849 52.7399 149.131C52.2161 149.332 51.6118 149.573 51.1283 149.774C50.7657 149.895 49.7584 150.176 49.557 150.297C48.8317 150.458 47.9454 150.78 47.1396 150.941C45.6488 151.303 43.6746 151.624 42.1436 151.785C41.7004 151.826 39.6456 151.906 39.4441 151.986H37.0267C36.785 151.906 34.9316 151.826 34.4481 151.785C33.6423 151.705 32.8365 151.624 32.0307 151.504L27.5182 150.538C27.2362 150.257 25.8663 149.935 25.4231 149.814C24.9799 149.613 24.0936 149.211 23.6906 149.211C23.4892 148.97 21.8776 148.286 21.4344 148.125C21.1524 147.884 19.6616 147.2 19.1781 146.918C18.8155 146.677 18.4126 146.476 18.05 146.234C17.7277 146.033 17.3248 145.752 17.0025 145.591C16.6801 145.349 16.3981 145.148 16.0758 144.907C15.7132 144.666 15.4312 144.424 15.0685 144.263C15.0283 144.102 14.988 144.143 14.8268 143.982C14.7462 143.942 14.7462 143.901 14.6253 143.861C14.4642 143.781 14.6656 143.821 14.4642 143.781C14.4642 143.781 14.4642 143.74 14.4239 143.74C14.4239 143.74 14.4239 143.7 14.3836 143.7L14.2224 143.499C14.021 143.338 14.2224 143.459 13.9404 143.378C13.8195 143.097 13.6584 143.057 13.4569 142.896C13.2152 142.695 13.0943 142.614 12.8929 142.413C12.5303 142.091 12.2885 141.729 11.8856 141.568C11.7245 141.287 11.805 141.448 11.6036 141.247C11.3618 141.005 11.5633 141.126 11.241 140.925C11.2007 140.764 10.7575 140.321 10.556 140.241C10.4755 140.08 10.4755 140.08 10.3546 139.919C10.1531 139.678 10.3143 139.798 10.0726 139.678L8.74298 138.109C8.54153 137.868 8.50124 137.707 8.34007 137.707C8.17891 137.264 7.73572 136.862 7.61485 136.782C7.57456 136.621 7.69543 136.661 7.49398 136.621C7.33282 136.219 6.92992 135.816 6.68818 135.414C6.52702 135.132 6.1644 134.529 5.92266 134.288L3.86786 130.587C3.06206 128.978 2.73973 127.812 2.17567 126.605L2.09509 126.323C1.61161 124.634 1.08784 123.105 0.725224 121.295C0.523773 120.37 0.402902 119.445 0.282032 118.48C0.201451 117.916 0.120871 115.905 0 115.624V111.762C0.0805804 111.48 0.201451 109.469 0.282032 108.906C0.564063 106.694 0.765514 105.889 1.28929 103.757C1.49074 102.913 1.81306 102.148 2.01451 101.344L2.25625 100.62C2.41741 100.258 3.34409 98.0053 3.34409 97.8042C3.62612 97.603 3.78728 97.1204 3.90815 96.8388C4.1096 96.4768 4.27076 96.155 4.43192 95.7527C4.63338 95.6723 4.87512 95.0689 4.99599 94.7873L6.84934 91.851C7.17166 91.4487 7.4134 91.0465 7.8163 90.5638C8.05804 90.242 8.58182 89.6386 8.74298 89.3168C8.90414 89.2364 8.90414 89.2766 8.90414 89.1157C9.30704 88.8743 9.14588 88.8743 9.38762 88.5928C9.58907 88.3514 9.66965 88.3916 9.83081 88.1101C9.95168 87.9492 9.91139 88.0699 10.0323 87.909C10.1531 87.7481 10.1128 87.8687 10.1531 87.7078C10.4352 87.5872 10.556 87.386 10.7172 87.1849C11.1201 86.7424 12.0468 85.9782 12.2482 85.6162C12.4094 85.5759 12.2482 85.6564 12.4497 85.4955C12.5303 85.415 12.5303 85.415 12.5303 85.3748C12.8526 85.2541 12.6511 85.3748 12.8929 85.0932C13.0137 84.9726 12.9734 85.0128 13.1346 84.8921C13.3361 84.7715 13.3361 84.7715 13.4569 84.6106L13.6987 84.3692C13.6987 84.3692 13.739 84.3692 13.739 84.329H13.8195C13.9404 84.2083 13.9404 84.2083 14.1016 84.0876L15.9952 82.5993C16.1564 82.5591 16.0355 82.6396 16.3175 82.4384C17.2845 81.8351 18.2112 81.111 19.3393 80.5077C19.6213 80.387 20.3063 80.0652 20.3868 79.9043C20.5883 79.8238 20.7495 79.7434 20.9106 79.663C21.1121 79.5825 21.1524 79.5825 21.2732 79.4216C21.7164 79.4216 22.7237 78.8182 23.2475 78.5769C23.5295 78.4562 24.9799 77.9735 25.1411 77.8126C25.3828 77.7724 25.544 77.7322 25.7857 77.6517L26.3095 77.3702C26.7527 77.4104 28.042 76.9277 28.6061 76.7668C30.4594 76.2841 31.7487 76.083 33.6423 75.8416C34.2064 75.721 35.9792 75.6807 36.3418 75.5601V75.5601Z" fill="white"/>
<path fill-rule="evenodd" clip-rule="evenodd" d="M26.39 84.9324C26.3497 84.9324 26.3497 84.9726 26.3094 84.9726C26.1885 85.0531 25.9065 85.214 25.3827 85.2542C25.3424 85.3346 24.3351 85.8978 24.1337 86.0587C23.7711 86.3402 23.4488 86.8229 23.1264 86.9838C23.0459 87.185 22.9653 87.3056 22.8444 87.4665C22.5221 87.9894 22.8847 87.547 22.5221 87.8688L22.4415 88.0297C22.4012 88.271 22.0789 89.1962 21.9983 89.3973L21.8774 90.2018L21.9177 91.4085C21.958 92.0119 22.3206 92.7762 22.3609 93.1784L22.6832 93.5404C23.7711 95.3505 24.0934 94.9885 24.6172 95.7125C24.8992 95.7528 24.5769 95.6723 24.8186 95.7528C25.3424 95.9941 25.6244 96.1952 26.3497 96.3561C26.672 96.4366 27.0749 96.517 27.4375 96.517C27.8404 96.5572 28.3239 96.4366 28.6865 96.517L29.8146 96.155C30.6204 95.6723 30.983 95.5919 31.668 94.9483C32.8767 93.822 33.5616 92.4544 33.5616 90.6845C33.5616 89.3571 33.2796 89.1962 32.9976 88.1503C32.8364 87.8286 32.6349 87.5068 32.3932 87.185C31.5471 86.0185 30.7413 85.7771 30.0564 85.3346C29.8549 85.214 29.9758 85.2944 29.8549 85.1737C29.5326 85.1737 28.7268 84.8922 28.203 84.8519C27.5987 84.7715 26.8734 84.9726 26.39 84.9324V84.9324Z" fill="white"/>
<path d="M126.229 100.017C126.229 97.7237 126.834 95.8734 128.083 94.5862C129.332 93.2588 130.943 92.6152 132.918 92.6152C134.207 92.6152 135.375 92.937 136.423 93.5404C137.47 94.1438 138.276 95.0287 138.8 96.1148C139.364 97.2008 139.606 98.488 139.606 99.8556C139.606 101.304 139.324 102.551 138.76 103.677C138.196 104.803 137.39 105.648 136.342 106.211C135.254 106.774 134.126 107.096 132.918 107.096C131.588 107.096 130.42 106.774 129.372 106.131C128.325 105.487 127.559 104.642 126.995 103.516C126.471 102.43 126.229 101.263 126.229 100.017ZM128.123 100.057C128.123 101.746 128.566 103.074 129.493 104.039C130.379 105.004 131.548 105.487 132.918 105.487C134.288 105.487 135.456 105.004 136.342 104.039C137.269 103.033 137.712 101.666 137.712 99.8556C137.712 98.7294 137.511 97.7237 137.108 96.879C136.745 96.0343 136.181 95.3907 135.456 94.908C134.69 94.4656 133.844 94.2242 132.918 94.2242C131.628 94.2242 130.5 94.6667 129.533 95.5516C128.607 96.4768 128.123 97.9651 128.123 100.057V100.057Z" fill="white"/>
<path d="M145.569 106.855V94.5058H140.936V92.8566H152.056V94.5058H147.422V106.855H145.569Z" fill="white"/>
<path d="M153.908 106.855V92.8566H159.146C160.234 92.8566 161.08 92.9772 161.725 93.2588C162.369 93.5404 162.893 93.9829 163.256 94.5862C163.618 95.1494 163.82 95.7929 163.82 96.4365C163.82 97.0399 163.658 97.603 163.296 98.126C162.974 98.6489 162.49 99.0511 161.845 99.4132C162.691 99.6545 163.336 100.057 163.82 100.66C164.263 101.263 164.505 101.988 164.505 102.792C164.505 103.436 164.343 104.039 164.061 104.602C163.779 105.165 163.457 105.608 163.054 105.93C162.651 106.211 162.127 106.452 161.523 106.613C160.878 106.774 160.153 106.855 159.227 106.855H153.908ZM155.762 98.7293H158.783C159.589 98.7293 160.193 98.6891 160.556 98.5684C161.04 98.4478 161.402 98.2064 161.604 97.8846C161.845 97.5226 161.966 97.1204 161.966 96.6377C161.966 96.1952 161.886 95.7527 161.644 95.4309C161.402 95.0689 161.12 94.8276 160.677 94.6667C160.274 94.546 159.549 94.5058 158.542 94.5058H155.762V98.7293ZM155.762 105.205H159.227C159.831 105.205 160.274 105.165 160.516 105.125C160.919 105.045 161.281 104.924 161.563 104.763C161.886 104.562 162.087 104.321 162.289 103.959C162.49 103.637 162.571 103.234 162.571 102.792C162.571 102.269 162.45 101.827 162.168 101.424C161.886 101.022 161.523 100.781 161.04 100.62C160.556 100.459 159.871 100.379 158.985 100.379H155.762V105.205V105.205Z" fill="white"/>
<path d="M167.084 106.855V92.8566H177.197V94.5058H168.937V98.8098H176.673V100.419H168.937V105.205H177.519V106.855H167.084Z" fill="white"/>
<path d="M183.643 106.855V94.5058H179.05V92.8566H190.13V94.5058H185.537V106.855H183.643Z" fill="white"/>
<path d="M202.056 101.947L203.909 102.39C203.506 103.918 202.821 105.085 201.814 105.889C200.807 106.694 199.558 107.096 198.107 107.096C196.617 107.096 195.368 106.774 194.441 106.171C193.474 105.527 192.749 104.642 192.265 103.476C191.782 102.309 191.54 101.062 191.54 99.735C191.54 98.2869 191.822 96.9997 192.346 95.9136C192.91 94.8276 193.716 94.0231 194.763 93.4599C195.771 92.8968 196.899 92.6152 198.148 92.6152C199.558 92.6152 200.726 92.9773 201.653 93.6611C202.62 94.3851 203.305 95.3907 203.667 96.6779L201.854 97.1204C201.532 96.1148 201.049 95.3505 200.444 94.908C199.8 94.4253 199.034 94.184 198.107 94.184C197.019 94.184 196.133 94.4656 195.408 94.9483C194.683 95.4712 194.159 96.1952 193.877 97.0399C193.595 97.9249 193.434 98.8098 193.434 99.735C193.434 100.901 193.635 101.947 193.957 102.832C194.32 103.717 194.844 104.401 195.569 104.843C196.294 105.286 197.1 105.487 197.946 105.487C198.994 105.487 199.88 105.205 200.605 104.602C201.29 103.999 201.774 103.114 202.056 101.947V101.947Z" fill="white"/>
<path d="M209.106 106.855V94.5058H204.473V92.8566H215.593V94.5058H210.959V106.855H209.106Z" fill="white"/>
<path d="M217.446 106.855V92.8566H222.684C223.772 92.8566 224.618 92.9772 225.263 93.2588C225.907 93.5404 226.431 93.9829 226.794 94.5862C227.156 95.1494 227.358 95.7929 227.358 96.4365C227.358 97.0399 227.196 97.603 226.874 98.126C226.552 98.6489 226.028 99.0511 225.383 99.4132C226.23 99.6545 226.874 100.057 227.358 100.66C227.801 101.263 228.043 101.988 228.043 102.792C228.043 103.436 227.881 104.039 227.599 104.602C227.317 105.165 226.995 105.608 226.592 105.93C226.189 106.211 225.665 106.452 225.061 106.613C224.416 106.774 223.691 106.855 222.765 106.855H217.446V106.855ZM219.3 98.7293H222.321C223.167 98.7293 223.732 98.6891 224.094 98.5684C224.578 98.4478 224.94 98.2064 225.182 97.8846C225.383 97.5226 225.504 97.1204 225.504 96.6377C225.504 96.1952 225.424 95.7527 225.182 95.4309C224.981 95.0689 224.658 94.8276 224.215 94.6667C223.812 94.546 223.087 94.5058 222.08 94.5058H219.3V98.7293ZM219.3 105.205H222.805C223.369 105.205 223.812 105.165 224.054 105.125C224.457 105.045 224.819 104.924 225.142 104.763C225.424 104.562 225.625 104.321 225.827 103.959C226.028 103.637 226.109 103.234 226.109 102.792C226.109 102.269 225.988 101.827 225.706 101.424C225.424 101.022 225.061 100.781 224.578 100.62C224.094 100.459 223.409 100.379 222.523 100.379H219.3V105.205V105.205Z" fill="white"/>
<path d="M230.621 106.855V92.8566H240.734V94.5058H232.474V98.8098H240.21V100.419H232.474V105.205H241.056V106.855H230.621Z" fill="white"/>
<path d="M243.716 106.855V92.8566H245.569V98.6087H252.821V92.8566H254.675V106.855H252.821V100.258H245.569V106.855H243.716Z" fill="white"/>
<path d="M257.857 106.855V92.8566H259.711V98.6087H266.963V92.8566H268.816V106.855H266.963V100.258H259.711V106.855H257.857Z" fill="white"/>
<path d="M271.354 100.017C271.354 97.7237 271.959 95.8734 273.208 94.5862C274.497 93.2588 276.109 92.6152 278.083 92.6152C279.372 92.6152 280.541 92.937 281.588 93.5404C282.595 94.1438 283.401 95.0287 283.965 96.1148C284.489 97.2008 284.771 98.488 284.771 99.8556C284.771 101.304 284.489 102.551 283.885 103.677C283.321 104.803 282.515 105.648 281.467 106.211C280.42 106.774 279.292 107.096 278.043 107.096C276.753 107.096 275.545 106.774 274.497 106.131C273.49 105.487 272.684 104.642 272.16 103.516C271.637 102.43 271.354 101.263 271.354 100.017V100.017ZM273.288 100.057C273.288 101.746 273.732 103.074 274.618 104.039C275.545 105.004 276.673 105.487 278.043 105.487C279.453 105.487 280.581 105.004 281.508 104.039C282.394 103.033 282.837 101.666 282.837 99.8556C282.837 98.7294 282.636 97.7237 282.273 96.879C281.87 96.0343 281.306 95.3907 280.581 94.908C279.815 94.4656 279.01 94.2242 278.083 94.2242C276.753 94.2242 275.625 94.6667 274.699 95.5516C273.732 96.4768 273.288 97.9651 273.288 100.057V100.057Z" fill="white"/>
<path d="M297.141 101.947L298.994 102.39C298.591 103.918 297.906 105.085 296.899 105.889C295.892 106.694 294.643 107.096 293.192 107.096C291.702 107.096 290.453 106.774 289.526 106.171C288.559 105.527 287.874 104.642 287.35 103.476C286.867 102.309 286.625 101.062 286.625 99.735C286.625 98.2869 286.907 96.9997 287.471 95.9136C288.035 94.8276 288.801 94.0231 289.848 93.4599C290.855 92.8968 291.984 92.6152 293.233 92.6152C294.643 92.6152 295.811 92.9773 296.778 93.6611C297.705 94.3851 298.39 95.3907 298.752 96.6779L296.939 97.1204C296.617 96.1148 296.133 95.3505 295.529 94.908C294.925 94.4253 294.119 94.184 293.192 94.184C292.145 94.184 291.218 94.4656 290.493 94.9483C289.768 95.4712 289.284 96.1952 289.002 97.0399C288.68 97.9249 288.559 98.8098 288.559 99.735C288.559 100.901 288.72 101.947 289.042 102.832C289.405 103.717 289.929 104.401 290.694 104.843C291.42 105.286 292.185 105.487 293.031 105.487C294.079 105.487 294.965 105.205 295.69 104.602C296.415 103.999 296.899 103.114 297.141 101.947V101.947Z" fill="white"/>
<path d="M304.191 106.855V94.5058H299.598V92.8566H310.677V94.5058H306.084V106.855H304.191Z" fill="white"/>
<path d="M312.692 92.8566H314.546V98.8098H317.89C319.461 98.8098 320.589 99.0109 321.274 99.3729C321.959 99.7349 322.483 100.218 322.765 100.821C323.087 101.465 323.248 102.108 323.248 102.752C323.248 103.838 322.886 104.803 322.12 105.608C321.395 106.452 320.025 106.855 318.011 106.855H312.692V92.8566V92.8566ZM314.546 105.246H317.93C319.3 105.246 320.186 105.004 320.629 104.522C321.032 104.039 321.234 103.476 321.234 102.752C321.234 102.229 321.073 101.746 320.791 101.344C320.468 100.942 320.065 100.7 319.582 100.58C319.058 100.459 318.212 100.419 317.044 100.419H314.546V105.246V105.246Z" fill="white"/>
<path d="M126.793 120.37H137.792V134.368H135.939V122.019H128.646V134.368H126.793V120.37Z" fill="white"/>
<path d="M140.895 134.368V120.37H151.007V122.019H142.748V126.323H150.484V127.972H142.748V132.719H151.37V134.368H140.895Z" fill="white"/>
<path d="M153.908 134.368V120.37H159.227C160.153 120.37 160.838 120.41 161.362 120.491C162.047 120.611 162.611 120.853 163.094 121.134C163.538 121.456 163.9 121.939 164.223 122.502C164.505 123.065 164.625 123.709 164.625 124.392C164.625 125.599 164.263 126.605 163.497 127.409C162.732 128.254 161.362 128.656 159.388 128.656H155.762V134.368H153.908ZM155.762 127.007H159.388C160.596 127.007 161.443 126.806 161.966 126.363C162.45 125.881 162.692 125.277 162.692 124.473C162.692 123.87 162.571 123.387 162.248 122.944C161.966 122.542 161.563 122.261 161.08 122.14C160.798 122.059 160.194 122.019 159.347 122.019H155.762V127.007Z" fill="white"/>
<path d="M167.003 134.368V120.37H177.156V122.019H168.897V126.323H176.632V127.972H168.897V132.719H177.478V134.368H167.003Z" fill="white"/>
<path d="M181.306 120.37H189.848V132.719H191.097V137.626H189.445V134.368H180.178V137.626H178.526V132.719H179.614C180.742 131.029 181.306 127.57 181.306 122.421V120.37V120.37ZM187.995 122.019H183.079V122.743C183.079 123.91 182.999 125.559 182.757 127.61C182.555 129.702 182.152 131.391 181.508 132.719H187.995V122.019V122.019Z" fill="white"/>
<path d="M197.986 130.426L199.759 129.984C199.88 130.627 200.243 131.311 200.807 131.995C201.411 132.679 202.176 133 203.143 133C204.11 133 204.876 132.759 205.44 132.276C206.004 131.754 206.286 131.15 206.286 130.426C206.286 129.662 206.004 129.058 205.4 128.616C204.795 128.133 203.99 127.932 202.982 127.932H202.096V126.283C202.942 126.283 203.587 126.243 204.03 126.162C204.473 126.042 204.876 125.8 205.239 125.398C205.561 124.996 205.762 124.513 205.762 124.03C205.762 123.427 205.521 122.864 205.037 122.421C204.594 121.979 203.949 121.738 203.143 121.738C202.418 121.738 201.814 121.939 201.33 122.301C200.847 122.623 200.484 123.105 200.283 123.709C200.122 124.272 200.001 124.714 200.001 124.996L198.228 124.594C198.671 121.617 200.323 120.129 203.143 120.129C204.513 120.129 205.601 120.531 206.407 121.255C207.172 122.019 207.575 122.904 207.575 123.95C207.575 125.237 206.971 126.243 205.762 126.967C206.447 127.168 207.052 127.57 207.535 128.174C208.019 128.777 208.26 129.501 208.26 130.346C208.26 131.552 207.777 132.558 206.85 133.363C205.923 134.207 204.674 134.609 203.143 134.609C200.484 134.609 198.792 133.202 197.986 130.426V130.426Z" fill="white"/>
<path d="M209.025 134.368L214.424 120.37H216.439L222.16 134.368H220.065L218.413 130.104H212.531L211 134.368H209.025ZM213.054 128.616H217.849L216.398 124.754C215.955 123.548 215.593 122.582 215.391 121.818C215.19 122.743 214.908 123.628 214.585 124.513L213.054 128.616V128.616Z" fill="white"/>
<path d="M223.651 120.37H225.545V126.524C226.391 126.524 226.955 126.323 227.318 126.001C227.68 125.68 228.083 124.875 228.647 123.628C229.01 122.703 229.332 122.059 229.614 121.697C229.856 121.295 230.219 120.973 230.662 120.732C231.145 120.491 231.669 120.33 232.233 120.33C232.918 120.33 233.321 120.37 233.361 120.37V121.979C233.281 121.979 233.16 121.979 232.958 121.979C232.757 121.939 232.636 121.939 232.596 121.939C231.991 121.939 231.548 122.1 231.266 122.381C230.984 122.663 230.662 123.266 230.259 124.232C229.816 125.398 229.413 126.162 229.091 126.444C228.768 126.766 228.365 127.007 227.922 127.208C228.809 127.45 229.695 128.294 230.581 129.702L233.482 134.368H231.186L228.809 130.587C228.164 129.501 227.64 128.777 227.197 128.415C226.794 128.013 226.23 127.812 225.545 127.812V134.368H223.651V120.37V120.37Z" fill="white"/>
<path d="M233.481 134.368L238.88 120.37H240.935L246.616 134.368H244.521L242.909 130.104H236.987L235.456 134.368H233.481V134.368ZM237.551 128.616H242.305L240.855 124.754C240.411 123.548 240.089 122.582 239.847 121.818C239.646 122.743 239.404 123.628 239.082 124.513L237.551 128.616Z" fill="white"/>
<path d="M247.1 130.426L248.872 129.984C249.034 130.627 249.356 131.311 249.96 131.995C250.524 132.679 251.29 133 252.257 133C253.264 133 254.03 132.759 254.594 132.276C255.158 131.754 255.44 131.15 255.44 130.426C255.44 129.662 255.158 129.058 254.553 128.616C253.949 128.133 253.143 127.932 252.096 127.932H251.25V126.283C252.096 126.283 252.74 126.243 253.183 126.162C253.627 126.042 254.03 125.8 254.392 125.398C254.714 124.996 254.876 124.513 254.876 124.03C254.876 123.427 254.674 122.864 254.191 122.421C253.707 121.979 253.063 121.738 252.257 121.738C251.572 121.738 250.967 121.939 250.484 122.301C249.96 122.623 249.638 123.105 249.436 123.709C249.235 124.272 249.154 124.714 249.154 124.996L247.382 124.594C247.825 121.617 249.436 120.129 252.297 120.129C253.667 120.129 254.714 120.531 255.52 121.255C256.326 122.019 256.729 122.904 256.729 123.95C256.729 125.237 256.125 126.243 254.876 126.967C255.601 127.168 256.205 127.57 256.689 128.174C257.172 128.777 257.414 129.501 257.414 130.346C257.414 131.552 256.93 132.558 256.004 133.363C255.077 134.207 253.828 134.609 252.297 134.609C249.638 134.609 247.905 133.202 247.1 130.426V130.426Z" fill="white"/>
<path d="M269.3 134.368H267.407V128.737C265.755 129.34 264.304 129.662 263.055 129.662C262.088 129.662 261.202 129.421 260.477 128.978C259.711 128.536 259.228 127.932 258.986 127.248C258.704 126.524 258.583 125.639 258.583 124.473V120.37H260.436V124.312C260.436 125.841 260.718 126.846 261.282 127.329C261.846 127.812 262.531 128.053 263.297 128.053C264.627 128.053 265.996 127.771 267.407 127.168V120.37H269.3V134.368V134.368Z" fill="white"/>
<path d="M272.362 120.37H274.054V131.472L281.508 120.37H283.362V134.368H281.669V123.306L274.216 134.368H272.362V120.37Z" fill="white"/>
<path d="M286.464 120.37H288.317V126.524C289.163 126.524 289.768 126.323 290.09 126.001C290.453 125.68 290.896 124.875 291.42 123.628C291.782 122.703 292.105 122.059 292.387 121.697C292.628 121.295 292.991 120.973 293.434 120.732C293.918 120.491 294.441 120.33 295.005 120.33C295.69 120.33 296.093 120.37 296.134 120.37V121.979C296.053 121.979 295.932 121.979 295.731 121.979C295.529 121.939 295.408 121.939 295.368 121.939C294.764 121.939 294.361 122.1 294.038 122.381C293.756 122.663 293.434 123.266 293.031 124.232C292.588 125.398 292.185 126.162 291.863 126.444C291.54 126.766 291.138 127.007 290.694 127.208C291.581 127.45 292.507 128.294 293.353 129.702L296.254 134.368H293.958L291.581 130.587C290.976 129.501 290.412 128.777 289.969 128.415C289.566 128.013 289.002 127.812 288.317 127.812V134.368H286.464V120.37V120.37Z" fill="white"/>
<path d="M297.02 127.57C297.02 125.237 297.664 123.427 298.913 122.1C300.162 120.772 301.774 120.129 303.748 120.129C305.037 120.129 306.206 120.45 307.253 121.054C308.301 121.657 309.066 122.542 309.63 123.628C310.154 124.754 310.436 126.001 310.436 127.369C310.436 128.817 310.154 130.064 309.59 131.19C309.026 132.317 308.18 133.161 307.132 133.725C306.085 134.328 304.957 134.609 303.748 134.609C302.418 134.609 301.25 134.288 300.202 133.644C299.155 133 298.349 132.156 297.825 131.029C297.302 129.943 297.02 128.777 297.02 127.57V127.57ZM298.953 127.57C298.953 129.26 299.397 130.587 300.323 131.552C301.21 132.518 302.338 133 303.708 133C305.118 133 306.286 132.518 307.173 131.552C308.059 130.587 308.543 129.179 308.543 127.369C308.543 126.243 308.341 125.237 307.938 124.392C307.576 123.548 307.011 122.904 306.246 122.421C305.521 121.979 304.675 121.738 303.748 121.738C302.459 121.738 301.331 122.18 300.364 123.065C299.437 123.99 298.953 125.479 298.953 127.57Z" fill="white"/>
<path d="M312.773 134.368V120.37H315.553L318.898 130.265C319.18 131.19 319.421 131.874 319.542 132.357C319.703 131.834 319.985 131.11 320.308 130.104L323.692 120.37H326.15V134.368H324.377V122.663L320.308 134.368H318.616L314.587 122.421V134.368H312.773V134.368Z" fill="white"/>
<path d="M126.834 214.898H128.486V225.959L135.98 214.898H137.793V228.896H136.101V217.834L128.687 228.896H126.834V214.898Z" fill="white"/>
<path d="M150.847 223.988L152.7 224.431C152.297 225.959 151.612 227.126 150.605 227.93C149.598 228.735 148.349 229.137 146.898 229.137C145.408 229.137 144.159 228.815 143.232 228.212C142.265 227.568 141.54 226.683 141.056 225.517C140.573 224.35 140.331 223.103 140.331 221.776C140.331 220.328 140.613 219.041 141.177 217.955C141.701 216.868 142.507 216.064 143.554 215.501C144.562 214.938 145.69 214.656 146.939 214.656C148.349 214.656 149.517 215.018 150.484 215.702C151.411 216.426 152.096 217.432 152.458 218.719L150.645 219.161C150.323 218.156 149.84 217.391 149.235 216.949C148.631 216.466 147.825 216.225 146.898 216.225C145.811 216.225 144.924 216.506 144.199 216.989C143.474 217.512 142.99 218.236 142.668 219.081C142.386 219.966 142.225 220.851 142.225 221.776C142.225 222.942 142.426 223.988 142.748 224.873C143.111 225.758 143.635 226.442 144.36 226.884C145.126 227.327 145.891 227.528 146.737 227.528C147.785 227.528 148.671 227.246 149.396 226.643C150.081 226.04 150.605 225.155 150.847 223.988V223.988Z" fill="white"/>
<path d="M154.996 214.898H166.036V228.896H164.142V216.547H156.89V228.896H154.996V214.898Z" fill="white"/>
<path d="M168.494 222.057C168.494 219.765 169.139 217.914 170.388 216.627C171.637 215.3 173.248 214.656 175.223 214.656C176.512 214.656 177.68 214.978 178.728 215.581C179.775 216.185 180.541 217.07 181.105 218.156C181.629 219.242 181.911 220.529 181.911 221.897C181.911 223.345 181.629 224.592 181.065 225.718C180.501 226.844 179.655 227.689 178.607 228.252C177.559 228.815 176.431 229.137 175.223 229.137C173.893 229.137 172.725 228.815 171.677 228.172C170.63 227.528 169.824 226.683 169.3 225.557C168.776 224.471 168.494 223.304 168.494 222.057V222.057ZM170.428 222.098C170.428 223.787 170.871 225.115 171.798 226.08C172.684 227.045 173.812 227.528 175.223 227.528C176.593 227.528 177.761 227.045 178.647 226.08C179.534 225.074 180.017 223.707 180.017 221.897C180.017 220.77 179.816 219.765 179.413 218.92C179.05 218.075 178.486 217.432 177.721 216.949C176.995 216.506 176.149 216.265 175.223 216.265C173.933 216.265 172.805 216.708 171.838 217.593C170.912 218.518 170.428 220.006 170.428 222.098V222.098Z" fill="white"/>
<path d="M185.134 214.898H193.877V228.896H192.024V216.547H186.987V223.747C186.987 225.195 186.907 226.281 186.786 226.965C186.625 227.649 186.343 228.172 185.899 228.534C185.456 228.936 184.892 229.137 184.248 229.137C183.804 229.137 183.321 229.016 182.757 228.855L183.079 227.206C183.401 227.367 183.643 227.448 183.885 227.448C184.288 227.448 184.61 227.287 184.812 227.005C185.013 226.683 185.134 225.919 185.134 224.753V214.898V214.898Z" fill="white"/>
<path d="M197.02 214.898H198.873V220.851H202.217C203.788 220.851 204.916 221.052 205.601 221.414C206.327 221.776 206.81 222.259 207.132 222.862C207.414 223.506 207.576 224.149 207.576 224.793C207.576 225.879 207.213 226.844 206.447 227.649C205.722 228.493 204.352 228.896 202.338 228.896H197.02V214.898ZM198.873 227.287H202.257C203.627 227.287 204.554 227.045 204.957 226.563C205.36 226.08 205.561 225.517 205.561 224.793C205.561 224.27 205.44 223.787 205.118 223.385C204.836 222.983 204.433 222.741 203.909 222.621C203.426 222.5 202.58 222.46 201.371 222.46H198.873V227.287V227.287Z" fill="white"/>
<path d="M208.824 224.954L210.557 224.471C210.718 225.155 211.08 225.839 211.645 226.522C212.249 227.206 213.014 227.528 213.981 227.528C214.948 227.528 215.714 227.287 216.278 226.764C216.842 226.281 217.124 225.678 217.124 224.954C217.124 224.189 216.842 223.586 216.238 223.103C215.633 222.661 214.827 222.419 213.82 222.419H212.934V220.81C213.78 220.81 214.425 220.77 214.868 220.65C215.311 220.569 215.714 220.328 216.076 219.926C216.399 219.523 216.6 219.041 216.6 218.518C216.6 217.914 216.358 217.391 215.875 216.949C215.392 216.506 214.747 216.265 213.981 216.265C213.256 216.265 212.652 216.466 212.168 216.788C211.685 217.15 211.322 217.633 211.121 218.196C210.96 218.799 210.839 219.242 210.839 219.523L209.066 219.121C209.509 216.144 211.121 214.656 213.981 214.656C215.351 214.656 216.439 215.018 217.205 215.782C218.01 216.547 218.413 217.432 218.413 218.437C218.413 219.765 217.809 220.77 216.56 221.494C217.285 221.695 217.89 222.098 218.373 222.701C218.856 223.304 219.098 224.028 219.098 224.873C219.098 226.08 218.615 227.086 217.688 227.89C216.761 228.695 215.512 229.137 213.981 229.137C211.322 229.137 209.59 227.729 208.824 224.954V224.954Z" fill="white"/>
<path d="M220.629 222.057C220.629 219.765 221.233 217.914 222.482 216.627C223.731 215.3 225.343 214.656 227.317 214.656C228.647 214.656 229.775 214.978 230.822 215.581C231.87 216.185 232.676 217.07 233.199 218.156C233.764 219.242 234.046 220.529 234.046 221.897C234.046 223.345 233.723 224.592 233.159 225.718C232.595 226.844 231.789 227.689 230.742 228.252C229.694 228.815 228.526 229.137 227.317 229.137C225.988 229.137 224.819 228.815 223.772 228.172C222.724 227.528 221.958 226.683 221.435 225.557C220.871 224.471 220.629 223.304 220.629 222.057ZM222.523 222.098C222.523 223.787 223.006 225.115 223.892 226.08C224.819 227.045 225.947 227.528 227.317 227.528C228.727 227.528 229.855 227.045 230.742 226.08C231.668 225.074 232.112 223.707 232.112 221.897C232.112 220.77 231.91 219.765 231.548 218.92C231.145 218.075 230.581 217.432 229.855 216.949C229.09 216.506 228.284 216.265 227.357 216.265C226.028 216.265 224.9 216.708 223.973 217.593C223.006 218.518 222.523 220.006 222.523 222.098V222.098Z" fill="white"/>
<path d="M236.343 228.896V214.898H241.58C242.668 214.898 243.514 215.018 244.159 215.3C244.804 215.581 245.327 216.024 245.69 216.627C246.053 217.19 246.254 217.834 246.254 218.478C246.254 219.081 246.093 219.644 245.771 220.167C245.448 220.69 244.965 221.092 244.28 221.454C245.126 221.695 245.811 222.098 246.254 222.701C246.697 223.304 246.939 224.028 246.939 224.833C246.939 225.477 246.778 226.08 246.496 226.643C246.254 227.206 245.892 227.649 245.489 227.97C245.086 228.252 244.562 228.493 243.958 228.654C243.353 228.815 242.588 228.896 241.701 228.896H236.343V228.896ZM238.196 220.77H241.218C242.064 220.77 242.628 220.73 242.991 220.609C243.474 220.489 243.837 220.247 244.078 219.926C244.32 219.564 244.441 219.161 244.441 218.679C244.441 218.236 244.32 217.794 244.078 217.472C243.877 217.11 243.555 216.869 243.152 216.708C242.709 216.587 242.024 216.547 241.016 216.547H238.196V220.77ZM238.196 227.246H241.701C242.306 227.246 242.709 227.206 242.95 227.166C243.394 227.086 243.756 226.965 244.038 226.804C244.32 226.603 244.562 226.361 244.723 225.999C244.925 225.678 245.005 225.275 245.005 224.833C245.005 224.31 244.884 223.868 244.602 223.465C244.32 223.063 243.958 222.822 243.474 222.661C243.031 222.5 242.346 222.42 241.46 222.42H238.196V227.246V227.246Z" fill="white"/>
<path d="M247.302 228.896L252.66 214.898H254.715L260.436 228.896H258.301L256.689 224.632H250.767L249.276 228.896H247.302ZM251.331 223.144H256.085L254.635 219.242C254.191 218.075 253.869 217.11 253.627 216.346C253.426 217.231 253.184 218.156 252.862 219.041L251.331 223.144V223.144Z" fill="white"/>
<path d="M261.967 228.896V214.898H263.82V220.65H271.072V214.898H272.926V228.896H271.072V222.299H263.82V228.896H261.967Z" fill="white"/>
<path d="M276.068 214.898H277.761V225.959L285.214 214.898H287.068V228.896H285.375V217.834L277.922 228.896H276.068V214.898Z" fill="white"/>
<path d="M290.13 228.896V214.898H300.283V216.547H292.024V220.851H299.759V222.46H292.024V227.246H300.605V228.896H290.13Z" fill="white"/>
<path d="M318.615 223.988L320.469 224.431C320.066 225.959 319.381 227.126 318.374 227.93C317.366 228.735 316.117 229.137 314.667 229.137C313.136 229.137 311.927 228.815 311 228.212C310.034 227.568 309.308 226.683 308.825 225.517C308.341 224.35 308.1 223.103 308.1 221.776C308.1 220.328 308.341 219.041 308.905 217.955C309.469 216.868 310.275 216.064 311.283 215.501C312.33 214.938 313.458 214.656 314.707 214.656C316.077 214.656 317.286 215.018 318.212 215.702C319.179 216.426 319.864 217.432 320.227 218.719L318.414 219.161C318.092 218.156 317.608 217.391 317.004 216.949C316.359 216.466 315.594 216.225 314.667 216.225C313.579 216.225 312.693 216.506 311.967 216.989C311.242 217.512 310.718 218.236 310.436 219.081C310.154 219.966 309.993 220.851 309.993 221.776C309.993 222.942 310.195 223.988 310.517 224.873C310.88 225.758 311.403 226.442 312.129 226.884C312.854 227.327 313.66 227.528 314.506 227.528C315.553 227.528 316.44 227.246 317.125 226.643C317.85 226.04 318.333 225.155 318.615 223.988V223.988Z" fill="white"/>
<path d="M321.758 222.057C321.758 219.765 322.362 217.914 323.611 216.627C324.9 215.3 326.512 214.656 328.486 214.656C329.776 214.656 330.944 214.978 331.992 215.581C332.999 216.185 333.805 217.07 334.369 218.156C334.893 219.242 335.175 220.529 335.175 221.897C335.175 223.345 334.893 224.592 334.288 225.718C333.724 226.844 332.918 227.689 331.871 228.252C330.823 228.815 329.695 229.137 328.446 229.137C327.157 229.137 325.948 228.815 324.9 228.172C323.893 227.528 323.087 226.683 322.564 225.557C322.04 224.471 321.758 223.304 321.758 222.057V222.057ZM323.692 222.098C323.692 223.787 324.135 225.115 325.021 226.08C325.948 227.045 327.076 227.528 328.446 227.528C329.856 227.528 330.984 227.045 331.911 226.08C332.797 225.074 333.241 223.707 333.241 221.897C333.241 220.77 333.039 219.765 332.677 218.92C332.274 218.075 331.71 217.432 330.984 216.949C330.219 216.506 329.413 216.265 328.486 216.265C327.157 216.265 326.029 216.708 325.102 217.593C324.135 218.518 323.692 220.006 323.692 222.098V222.098Z" fill="white"/>
<path d="M337.471 228.896V214.898H342.749C343.796 214.898 344.683 215.018 345.327 215.3C345.972 215.581 346.455 216.024 346.818 216.627C347.221 217.19 347.382 217.834 347.382 218.478C347.382 219.081 347.221 219.644 346.899 220.167C346.576 220.69 346.093 221.092 345.448 221.454C346.294 221.695 346.939 222.098 347.382 222.701C347.825 223.304 348.067 224.028 348.067 224.833C348.067 225.477 347.946 226.08 347.664 226.643C347.382 227.206 347.019 227.649 346.617 227.97C346.214 228.252 345.69 228.493 345.086 228.654C344.481 228.815 343.716 228.896 342.829 228.896H337.471V228.896ZM339.324 220.77H342.386C343.192 220.77 343.796 220.73 344.119 220.609C344.602 220.489 344.965 220.247 345.206 219.926C345.448 219.564 345.569 219.161 345.569 218.679C345.569 218.236 345.448 217.794 345.247 217.472C345.005 217.11 344.683 216.869 344.28 216.708C343.837 216.587 343.152 216.547 342.144 216.547H339.324V220.77V220.77ZM339.324 227.246H342.829C343.434 227.246 343.837 227.206 344.078 227.166C344.522 227.086 344.884 226.965 345.166 226.804C345.448 226.603 345.69 226.361 345.891 225.999C346.053 225.678 346.133 225.275 346.133 224.833C346.133 224.31 346.012 223.868 345.73 223.465C345.488 223.063 345.126 222.822 344.642 222.661C344.159 222.5 343.474 222.42 342.588 222.42H339.324V227.246V227.246Z" fill="white"/>
<path d="M350.605 228.896V214.898H355.924C356.85 214.898 357.535 214.938 358.059 215.018C358.744 215.139 359.308 215.34 359.792 215.662C360.235 215.984 360.638 216.426 360.92 217.029C361.202 217.593 361.323 218.236 361.323 218.92C361.323 220.127 360.96 221.132 360.195 221.937C359.429 222.782 358.059 223.184 356.085 223.184H352.459V228.896H350.605V228.896ZM352.459 221.535H356.085C357.294 221.535 358.14 221.293 358.664 220.851C359.147 220.408 359.389 219.805 359.389 219C359.389 218.397 359.268 217.914 358.946 217.472C358.664 217.07 358.261 216.788 357.777 216.667C357.495 216.587 356.891 216.547 356.045 216.547H352.459V221.535V221.535Z" fill="white"/>
<path d="M363.7 228.896V214.898H373.853V216.547H365.594V220.851H373.33V222.46H365.594V227.246H374.176V228.896H363.7Z" fill="white"/>
<path d="M376.714 228.896V214.898H379.494L382.798 224.793C383.12 225.718 383.321 226.402 383.483 226.884C383.644 226.361 383.885 225.597 384.208 224.632L387.592 214.898H390.09V228.896H388.277V217.19L384.208 228.896H382.516L378.487 216.949V228.896H376.714Z" fill="white"/>
<path d="M393.071 228.896V214.898H403.224V216.547H394.965V220.851H402.701V222.46H394.965V227.246H403.547V228.896H393.071Z" fill="white"/>
<path d="M406.206 228.896V214.898H408.059V220.65H415.312V214.898H417.165V228.896H415.312V222.299H408.059V228.896H406.206Z" fill="white"/>
<path d="M420.348 228.896V214.898H422.201V220.65H429.453V214.898H431.307V228.896H429.453V222.299H422.201V228.896H420.348Z" fill="white"/>
<path d="M433.845 222.057C433.845 219.765 434.449 217.914 435.698 216.627C436.947 215.3 438.559 214.656 440.533 214.656C441.863 214.656 442.991 214.978 444.038 215.581C445.086 216.185 445.892 217.07 446.415 218.156C446.979 219.242 447.261 220.529 447.261 221.897C447.261 223.345 446.939 224.592 446.375 225.718C445.811 226.844 445.005 227.689 443.958 228.252C442.91 228.815 441.742 229.137 440.533 229.137C439.203 229.137 438.035 228.815 436.987 228.172C435.94 227.528 435.174 226.683 434.651 225.557C434.086 224.471 433.845 223.304 433.845 222.057V222.057ZM435.738 222.098C435.738 223.787 436.222 225.115 437.108 226.08C438.035 227.045 439.163 227.528 440.533 227.528C441.943 227.528 443.071 227.045 443.958 226.08C444.884 225.074 445.327 223.707 445.327 221.897C445.327 220.77 445.126 219.765 444.763 218.92C444.361 218.075 443.796 217.432 443.071 216.949C442.306 216.506 441.5 216.265 440.573 216.265C439.244 216.265 438.116 216.708 437.189 217.593C436.222 218.518 435.738 220.006 435.738 222.098V222.098Z" fill="white"/>
<path d="M449.68 214.898H458.745V216.547H451.533V228.896H449.68V214.898Z" fill="white"/>
<path d="M458.583 222.057C458.583 219.765 459.187 217.914 460.436 216.627C461.685 215.3 463.297 214.656 465.271 214.656C466.56 214.656 467.729 214.978 468.776 215.581C469.824 216.185 470.63 217.07 471.154 218.156C471.718 219.242 472 220.529 472 221.897C472 223.345 471.677 224.592 471.113 225.718C470.549 226.844 469.743 227.689 468.696 228.252C467.608 228.815 466.48 229.137 465.271 229.137C463.942 229.137 462.773 228.815 461.726 228.172C460.678 227.528 459.913 226.683 459.389 225.557C458.825 224.471 458.583 223.304 458.583 222.057V222.057ZM460.477 222.098C460.477 223.787 460.92 225.115 461.847 226.08C462.773 227.045 463.901 227.528 465.271 227.528C466.641 227.528 467.809 227.045 468.696 226.08C469.623 225.074 470.066 223.707 470.066 221.897C470.066 220.77 469.864 219.765 469.502 218.92C469.099 218.075 468.535 217.432 467.809 216.949C467.044 216.506 466.198 216.265 465.311 216.265C463.982 216.265 462.854 216.708 461.887 217.593C460.96 218.518 460.477 220.006 460.477 222.098V222.098Z" fill="white"/>
<path d="M126.229 251.341C126.229 249.008 126.834 247.198 128.083 245.87C129.332 244.583 130.943 243.94 132.918 243.94C134.207 243.94 135.375 244.221 136.423 244.865C137.47 245.468 138.276 246.313 138.8 247.439C139.364 248.525 139.606 249.772 139.606 251.18C139.606 252.588 139.324 253.875 138.76 255.001C138.196 256.087 137.39 256.932 136.342 257.535C135.254 258.099 134.126 258.38 132.918 258.38C131.588 258.38 130.42 258.058 129.372 257.415C128.325 256.811 127.559 255.926 126.995 254.84C126.471 253.714 126.229 252.588 126.229 251.341ZM128.123 251.381C128.123 253.071 128.566 254.398 129.493 255.363C130.379 256.329 131.548 256.811 132.918 256.811C134.288 256.811 135.456 256.329 136.342 255.323C137.269 254.358 137.712 252.99 137.712 251.18C137.712 250.054 137.511 249.048 137.108 248.203C136.745 247.359 136.181 246.675 135.456 246.232C134.69 245.75 133.844 245.508 132.918 245.508C131.628 245.508 130.5 245.991 129.533 246.876C128.607 247.761 128.123 249.289 128.123 251.381V251.381Z" fill="white"/>
<path d="M142.104 244.141H151.209V245.79H143.957V250.134H147.301C148.55 250.134 149.517 250.255 150.242 250.456C150.967 250.697 151.572 251.14 152.015 251.824C152.458 252.467 152.66 253.231 152.66 254.076C152.66 254.8 152.498 255.444 152.176 256.047C151.854 256.691 151.411 257.173 150.766 257.576C150.162 257.978 149.074 258.139 147.583 258.139H142.104V244.141V244.141ZM143.957 256.57H147.664C148.671 256.57 149.396 256.369 149.92 255.967C150.403 255.564 150.685 254.961 150.685 254.116C150.685 253.553 150.524 253.071 150.242 252.668C149.96 252.306 149.557 252.025 149.033 251.904C148.51 251.783 147.664 251.703 146.415 251.703H143.957V256.57V256.57Z" fill="white"/>
<path d="M154.07 251.341C154.07 249.008 154.715 247.198 155.964 245.87C157.213 244.583 158.825 243.94 160.799 243.94C162.088 243.94 163.256 244.221 164.304 244.865C165.352 245.468 166.117 246.313 166.681 247.439C167.205 248.525 167.487 249.772 167.487 251.18C167.487 252.588 167.205 253.875 166.641 255.001C166.036 256.087 165.231 256.932 164.183 257.535C163.136 258.099 162.007 258.38 160.799 258.38C159.469 258.38 158.301 258.058 157.253 257.415C156.206 256.811 155.4 255.926 154.876 254.84C154.352 253.714 154.07 252.588 154.07 251.341V251.341ZM156.004 251.381C156.004 253.071 156.447 254.398 157.374 255.363C158.26 256.329 159.389 256.811 160.758 256.811C162.169 256.811 163.297 256.329 164.223 255.323C165.11 254.358 165.553 252.99 165.553 251.18C165.553 250.054 165.392 249.048 164.989 248.203C164.626 247.359 164.062 246.675 163.297 246.232C162.572 245.75 161.725 245.508 160.799 245.508C159.509 245.508 158.381 245.991 157.414 246.876C156.488 247.761 156.004 249.289 156.004 251.381Z" fill="white"/>
<path d="M169.863 258.139V244.141H175.182C176.108 244.141 176.793 244.181 177.317 244.302C178.002 244.422 178.566 244.623 179.049 244.945C179.493 245.267 179.896 245.709 180.178 246.273C180.46 246.876 180.581 247.52 180.581 248.203C180.581 249.37 180.218 250.375 179.452 251.22C178.687 252.025 177.317 252.427 175.343 252.427H171.717V258.139H169.863V258.139ZM171.717 250.818H175.343C176.551 250.818 177.398 250.577 177.921 250.134C178.405 249.692 178.687 249.048 178.687 248.244C178.687 247.68 178.526 247.158 178.244 246.755C177.921 246.313 177.518 246.071 177.035 245.911C176.753 245.83 176.149 245.79 175.343 245.79H171.717V250.818Z" fill="white"/>
<path d="M181.104 244.141H182.958L187.551 252.749L191.54 244.141H193.353L188.115 255.042C187.47 256.409 186.906 257.294 186.503 257.737C186.06 258.139 185.496 258.34 184.69 258.34C184.207 258.34 183.643 258.219 182.958 258.018V256.449C183.441 256.731 183.965 256.852 184.529 256.852C184.972 256.852 185.335 256.731 185.698 256.409C186.02 256.128 186.382 255.484 186.785 254.438L181.104 244.141V244.141Z" fill="white"/>
<path d="M195.327 244.141H203.868V256.53H205.117V261.437H203.506V258.139H194.199V261.437H192.547V256.53H193.635C194.763 254.8 195.327 251.381 195.327 246.192V244.141V244.141ZM202.015 245.79H197.14V246.514C197.14 247.721 197.019 249.33 196.818 251.421C196.576 253.473 196.173 255.162 195.528 256.53H202.015V245.79Z" fill="white"/>
<path d="M206.77 251.341C206.77 249.008 207.374 247.198 208.623 245.87C209.872 244.583 211.483 243.94 213.458 243.94C214.787 243.94 215.956 244.221 216.963 244.865C218.01 245.468 218.816 246.313 219.34 247.439C219.904 248.525 220.186 249.772 220.186 251.18C220.186 252.588 219.904 253.875 219.3 255.001C218.736 256.087 217.93 256.932 216.882 257.535C215.835 258.099 214.666 258.38 213.458 258.38C212.128 258.38 210.96 258.058 209.912 257.415C208.905 256.811 208.099 255.926 207.575 254.84C207.011 253.714 206.77 252.588 206.77 251.341ZM208.663 251.381C208.663 253.071 209.147 254.398 210.033 255.363C210.96 256.329 212.088 256.811 213.458 256.811C214.868 256.811 215.996 256.329 216.923 255.323C217.809 254.358 218.252 252.99 218.252 251.18C218.252 250.054 218.051 249.048 217.688 248.203C217.285 247.359 216.721 246.675 215.996 246.232C215.23 245.75 214.425 245.508 213.498 245.508C212.168 245.508 211.04 245.991 210.114 246.876C209.147 247.761 208.663 249.289 208.663 251.381Z" fill="white"/>
<path d="M222.482 258.139V244.141H227.76C228.808 244.141 229.654 244.302 230.339 244.583C230.984 244.865 231.467 245.307 231.83 245.87C232.192 246.474 232.394 247.077 232.394 247.721C232.394 248.324 232.233 248.887 231.91 249.41C231.588 249.933 231.105 250.375 230.42 250.697C231.266 250.939 231.951 251.381 232.394 251.984C232.837 252.588 233.079 253.272 233.079 254.076C233.079 254.76 232.918 255.363 232.676 255.926C232.394 256.49 232.031 256.932 231.628 257.214C231.225 257.535 230.702 257.777 230.097 257.938C229.493 258.058 228.727 258.139 227.841 258.139H222.482V258.139ZM224.336 250.054H227.358C228.204 250.054 228.808 249.973 229.13 249.893C229.614 249.732 229.976 249.491 230.218 249.169C230.46 248.847 230.581 248.445 230.581 247.962C230.581 247.479 230.46 247.077 230.218 246.715C230.017 246.353 229.694 246.112 229.291 245.991C228.848 245.87 228.163 245.79 227.156 245.79H224.336V250.054V250.054ZM224.336 256.53H227.841C228.445 256.53 228.848 256.49 229.09 256.449C229.533 256.369 229.896 256.248 230.178 256.047C230.46 255.886 230.702 255.605 230.863 255.283C231.064 254.921 231.145 254.559 231.145 254.116C231.145 253.553 231.024 253.111 230.742 252.749C230.5 252.346 230.097 252.065 229.654 251.904C229.171 251.743 228.486 251.663 227.599 251.663H224.336V256.53V256.53Z" fill="white"/>
<path d="M233.441 258.139L238.8 244.141H240.855L246.576 258.139H244.441L242.829 253.915H236.906L235.416 258.139H233.441ZM237.47 252.387H242.265L240.774 248.525C240.331 247.359 240.009 246.353 239.767 245.589C239.606 246.514 239.324 247.399 239.001 248.284L237.47 252.387V252.387Z" fill="white"/>
<path d="M248.107 258.139V244.141H249.961V249.933H257.213V244.141H259.066V258.139H257.213V251.582H249.961V258.139H248.107Z" fill="white"/>
<path d="M262.209 244.141H263.901V255.243L271.355 244.141H273.208V258.139H271.516V247.117L264.062 258.139H262.209V244.141Z" fill="white"/>
<path d="M287.35 258.139V244.141H281.105C279.856 244.141 278.93 244.302 278.285 244.543C277.64 244.784 277.117 245.227 276.714 245.87C276.351 246.514 276.15 247.198 276.15 247.962C276.15 248.968 276.472 249.812 277.117 250.496C277.761 251.18 278.728 251.582 280.098 251.783C279.574 252.025 279.212 252.266 278.97 252.467C278.406 252.99 277.922 253.593 277.439 254.358L275.021 258.139H277.318L279.171 255.243C279.695 254.398 280.179 253.754 280.501 253.312C280.864 252.869 281.186 252.548 281.468 252.387C281.71 252.186 281.992 252.065 282.314 251.984C282.515 251.944 282.838 251.944 283.321 251.944H285.497V258.139H287.35V258.139ZM285.497 250.335H281.508C280.662 250.335 279.977 250.255 279.494 250.054C279.051 249.893 278.688 249.611 278.446 249.209C278.164 248.847 278.043 248.445 278.043 247.962C278.043 247.318 278.285 246.755 278.768 246.353C279.252 245.911 280.017 245.709 281.065 245.709H285.497V250.335Z" fill="white"/>
<path d="M295.892 244.141H297.543V255.243L305.037 244.141H306.851V258.139H305.158V247.117L297.745 258.139H295.892V244.141Z" fill="white"/>
<path d="M318.937 258.139V245.79H314.304V244.141H325.383V245.79H320.79V258.139H318.937Z" fill="white"/>
<path d="M327.358 258.139V244.141H337.471V245.79H329.212V250.094H336.948V251.743H329.212V256.53H337.794V258.139H327.358Z" fill="white"/>
<path d="M338.962 258.139L344.361 250.898L339.607 244.141H341.823L344.361 247.721C344.885 248.485 345.247 249.048 345.489 249.45C345.811 248.968 346.174 248.445 346.577 247.882L349.397 244.141H351.412L346.577 250.818L351.815 258.139H349.518L345.972 253.151C345.771 252.869 345.61 252.588 345.408 252.306C345.086 252.789 344.885 253.111 344.723 253.312L341.178 258.139H338.962Z" fill="white"/>
<path d="M353.507 258.139V244.141H355.36V249.933H362.612V244.141H364.466V258.139H362.612V251.582H355.36V258.139H353.507Z" fill="white"/>
<path d="M367.004 251.341C367.004 249.008 367.649 247.198 368.898 245.87C370.147 244.583 371.758 243.94 373.732 243.94C375.022 243.94 376.19 244.221 377.238 244.865C378.285 245.468 379.051 246.313 379.615 247.439C380.138 248.525 380.42 249.772 380.42 251.18C380.42 252.588 380.138 253.875 379.574 255.001C379.01 256.087 378.164 256.932 377.117 257.535C376.069 258.099 374.941 258.38 373.732 258.38C372.403 258.38 371.234 258.058 370.187 257.415C369.139 256.811 368.333 255.926 367.81 254.84C367.286 253.714 367.004 252.588 367.004 251.341V251.341ZM368.938 251.381C368.938 253.071 369.381 254.398 370.308 255.363C371.194 256.329 372.322 256.811 373.692 256.811C375.102 256.811 376.271 256.329 377.157 255.323C378.043 254.358 378.527 252.99 378.527 251.18C378.527 250.054 378.325 249.048 377.922 248.203C377.56 247.359 376.996 246.675 376.23 246.232C375.505 245.75 374.659 245.508 373.732 245.508C372.443 245.508 371.315 245.991 370.348 246.876C369.421 247.761 368.938 249.289 368.938 251.381Z" fill="white"/>
<path d="M383.644 244.141H392.387V258.139H390.533V245.79H385.497V252.99C385.497 254.478 385.416 255.564 385.296 256.208C385.134 256.932 384.852 257.455 384.409 257.817C383.966 258.219 383.402 258.38 382.757 258.38C382.314 258.38 381.831 258.3 381.267 258.139L381.589 256.49C381.911 256.65 382.153 256.731 382.395 256.731C382.798 256.731 383.12 256.57 383.321 256.248C383.523 255.926 383.644 255.202 383.644 254.036V244.141V244.141Z" fill="white"/>
<path d="M394.885 251.341C394.885 249.008 395.489 247.198 396.738 245.87C397.987 244.583 399.639 243.94 401.613 243.94C402.902 243.94 404.071 244.221 405.118 244.865C406.126 245.468 406.931 246.313 407.496 247.439C408.019 248.525 408.301 249.772 408.301 251.18C408.301 252.588 408.019 253.875 407.415 255.001C406.851 256.087 406.045 256.932 404.998 257.535C403.95 258.099 402.822 258.38 401.573 258.38C400.284 258.38 399.075 258.058 398.027 257.415C397.02 256.811 396.214 255.926 395.691 254.84C395.167 253.714 394.885 252.588 394.885 251.341V251.341ZM396.819 251.381C396.819 253.071 397.262 254.398 398.148 255.363C399.075 256.329 400.203 256.811 401.573 256.811C402.983 256.811 404.111 256.329 405.038 255.323C405.924 254.358 406.367 252.99 406.367 251.18C406.367 250.054 406.166 249.048 405.803 248.203C405.4 247.359 404.836 246.675 404.111 246.232C403.346 245.75 402.54 245.508 401.613 245.508C400.284 245.508 399.155 245.991 398.229 246.876C397.262 247.761 396.819 249.289 396.819 251.381V251.381Z" fill="white"/>
<path d="M410.719 244.141H419.784V245.79H412.572V258.139H410.719V244.141Z" fill="white"/>
<path d="M421.315 244.141H423.008V255.243L430.461 244.141H432.315V258.139H430.622V247.117L423.169 258.139H421.315V244.141Z" fill="white"/>
<path d="M435.416 244.141H437.068V255.243L444.562 244.141H446.375V258.139H444.683V247.117L437.269 258.139H435.416V244.141ZM442.386 240.802H443.555C443.474 241.607 443.192 242.21 442.668 242.652C442.185 243.095 441.54 243.296 440.734 243.296C439.929 243.296 439.284 243.095 438.8 242.652C438.277 242.21 437.995 241.607 437.914 240.802H439.082C439.163 241.245 439.364 241.566 439.606 241.767C439.888 242.009 440.251 242.089 440.694 242.089C441.218 242.089 441.58 242.009 441.862 241.767C442.104 241.566 442.306 241.245 442.386 240.802Z" fill="white"/>
<path fill-rule="evenodd" clip-rule="evenodd" d="M31.5473 207.295C27.4377 208.26 26.0275 209.749 24.1742 210.191C22.1597 208.824 20.5078 205.364 17.7277 205.364C15.9952 205.364 9.70997 211.599 9.70997 213.369C9.70997 216.144 13.1749 217.794 14.5448 219.765C14.1016 221.615 12.6109 223.023 11.6439 227.126C3.10237 227.126 2.65918 226.281 2.65918 233.883H20.3063C20.3063 228.614 21.9179 224.712 25.5037 221.132C36.4627 210.231 56.2452 217.15 56.2452 233.883H73.8923C73.8923 226.08 73.2477 227.126 64.9076 227.126C64.6256 225.999 64.0615 224.31 63.6183 223.304C63.0945 222.098 62.329 221.173 62.0067 219.765C63.3363 217.794 66.8012 216.144 66.8012 213.369C66.8012 211.599 60.5563 205.364 58.7835 205.364C55.7617 205.364 55.0365 208.381 52.3773 210.191C50.524 209.749 49.1138 208.26 45.0042 207.295C45.0042 205.606 45.2057 202.468 44.9639 200.94C44.3999 197.48 39.8471 198.325 35.3749 198.325C30.3386 198.325 31.5473 202.388 31.5473 207.295V207.295Z" fill="white"/>
<path fill-rule="evenodd" clip-rule="evenodd" d="M27.0352 233.24C27.0352 240.36 31.7491 245.066 38.9208 245.066C44.4405 245.066 49.5171 240.199 49.5171 233.24C49.5171 227.649 44.642 222.661 37.6315 222.661C32.2326 222.661 27.0352 227.85 27.0352 233.24Z" fill="white"/>
<path fill-rule="evenodd" clip-rule="evenodd" d="M9.38774 239.636V255.645C2.37724 255.645 3.62624 254.559 3.62624 263.649H6.20482V258.219C8.94455 258.219 9.34745 258.42 11.644 257.897V240.923H20.3064C21.0316 240.923 21.0316 240.641 21.5957 240.279C21.3539 237.423 17.4861 238.348 11.9663 238.348C10.8382 238.348 9.38774 238.509 9.38774 239.636V239.636Z" fill="white"/>
<path fill-rule="evenodd" clip-rule="evenodd" d="M54.9561 240.279C55.5201 240.641 55.5201 240.923 56.2453 240.923H64.9077V257.897C67.2043 258.42 67.5669 258.219 70.3469 258.219V263.65H72.9255C72.9255 254.559 74.1745 255.645 67.1237 255.645V239.635C67.1237 237.624 60.1535 238.348 57.2123 238.348C55.7619 238.348 55.0769 238.911 54.9561 240.279V240.279Z" fill="white"/>
<path fill-rule="evenodd" clip-rule="evenodd" d="M53.9893 270.367C53.9893 272.74 56.0441 274.711 58.3003 274.953C64.5856 275.677 65.1496 265.58 58.7838 265.58C56.2455 265.58 53.9893 267.833 53.9893 270.367Z" fill="white"/>
<path fill-rule="evenodd" clip-rule="evenodd" d="M44.3599 274.872C52.2567 274.872 50.484 265.58 45.0045 265.58C38.9207 265.58 39.0013 274.872 44.3599 274.872Z" fill="white"/>
<path fill-rule="evenodd" clip-rule="evenodd" d="M30.9029 274.872C34.247 274.872 36.4629 273.102 36.2615 270.126C35.8586 264.414 27.5185 263.931 26.9141 269.884C26.6724 272.177 28.4452 274.872 30.9029 274.872V274.872Z" fill="white"/>
<path fill-rule="evenodd" clip-rule="evenodd" d="M67.1235 269.723C67.1235 277.366 76.4306 275.797 76.4306 270.367C76.4306 264.092 67.1235 264.333 67.1235 269.723Z" fill="white"/>
<path fill-rule="evenodd" clip-rule="evenodd" d="M13.2559 269.723C13.2559 277.487 22.5629 275.556 22.5629 270.367C22.5629 264.092 13.2559 264.333 13.2559 269.723V269.723Z" fill="white"/>
<path fill-rule="evenodd" clip-rule="evenodd" d="M0.121094 270.367C0.121094 275.717 9.38784 277.326 9.38784 269.723C9.38784 264.333 0.121094 264.092 0.121094 270.367V270.367Z" fill="white"/>
<path fill-rule="evenodd" clip-rule="evenodd" d="M52.0552 246.353C52.0552 248.123 52.5387 247.64 57.5346 247.64V263.65H60.0729V247.318C60.0729 244.664 58.421 245.388 53.0221 245.388C52.2969 245.388 52.0552 245.629 52.0552 246.353V246.353Z" fill="white"/>
<path fill-rule="evenodd" clip-rule="evenodd" d="M16.479 247.962V262.684C16.479 263.891 17.2042 263.65 19.0173 263.65V247.64C24.0133 247.64 24.4968 248.123 24.4968 246.353C24.4968 244.784 21.9585 245.388 17.728 245.388C16.5999 245.388 16.479 246.836 16.479 247.962V247.962Z" fill="white"/>
<path fill-rule="evenodd" clip-rule="evenodd" d="M30.2583 249.249V263.65H32.8369V248.606C32.8369 247.841 32.2728 247.318 31.5476 247.318C30.5403 247.318 30.2583 248.244 30.2583 249.249V249.249Z" fill="white"/>
<path fill-rule="evenodd" clip-rule="evenodd" d="M43.7153 248.606V263.65H46.2939V249.249C46.2939 248.244 46.0119 247.318 45.0046 247.318C44.2391 247.318 43.7153 247.841 43.7153 248.606V248.606Z" fill="white"/>
<path d="M124.336 18.2402V0.0587158H128.043V7.21867H135.214V0.0587158H138.921V18.2402H135.214V10.316H128.043V18.2402H124.336Z" fill="white"/>
<path d="M159.146 18.2402H155.158L153.586 14.0971H146.294L144.763 18.2402H140.854L147.946 0.0587158H151.854L159.146 18.2402V18.2402ZM152.418 11.04L149.88 4.32251L147.422 11.04H152.418Z" fill="white"/>
<path d="M161.161 0.0587158H164.868V15.1831H170.106V0.0587158H173.772V15.1831H179.211V0.0587158H182.878L182.918 18.2804L161.161 18.2402V0.0587158Z" fill="white"/>
<path d="M186.745 0.0587158H190.17V12.1663L197.543 0.0587158H201.209V18.2402H197.785V6.33373L190.412 18.2402H186.745V0.0587158Z" fill="white"/>
<path d="M212.128 0.0587158H226.592V18.2402H222.926V3.11577H215.794V18.2402H212.128V0.0587158Z" fill="white"/>
<path d="M230.38 18.2402V0.0587158H236.262C238.518 0.0587158 239.969 0.139165 240.654 0.340287C241.661 0.621858 242.547 1.185 243.273 2.11016C243.958 3.03533 244.32 4.20183 244.32 5.64992C244.32 6.7762 244.119 7.70136 243.716 8.46563C243.313 9.22989 242.789 9.83326 242.145 10.2757C241.54 10.7182 240.896 10.9998 240.251 11.1204C239.365 11.3216 238.116 11.402 236.464 11.402H234.046V18.2402H230.38V18.2402ZM234.046 3.11577V8.30473H236.061C237.511 8.30473 238.478 8.22428 238.962 8.02316C239.445 7.82204 239.848 7.54046 240.09 7.13822C240.372 6.73598 240.533 6.25328 240.533 5.73036C240.533 5.04655 240.332 4.48341 239.929 4.08116C239.566 3.63869 239.042 3.35712 238.478 3.27667C238.035 3.19622 237.149 3.11577 235.819 3.11577H234.046V3.11577Z" fill="white"/>
<path d="M247.382 0.0587158H250.847V12.1663L258.22 0.0587158H261.886V18.2402H258.462V6.33373L251.048 18.2402H247.382V0.0587158Z" fill="white"/>
<path d="M265.634 18.2402V0.0587158H269.34V7.21867H276.512V0.0587158H280.219V18.2402H276.512V10.316H269.34V18.2402H265.634Z" fill="white"/>
<path d="M284.086 0.0587158H287.752V15.1831H294.884V0.0587158H298.55V15.1831H300.081V22.2224H297.019V18.2402H284.086V0.0587158Z" fill="white"/>
<path d="M302.66 0.0587158H306.125V12.1663L313.498 0.0587158H317.165V18.2402H313.74V6.33373L306.327 18.2402H302.66V0.0587158Z" fill="white"/>
<path d="M320.992 0.0587158H335.456V18.2402H331.75V3.11577H324.659V18.2402H320.992V0.0587158Z" fill="white"/>
<path d="M339.324 0.0587158H343.031V7.33934H347.946C349.236 7.33934 350.323 7.50024 351.25 7.86226C352.177 8.22428 352.983 8.82765 353.587 9.75281C354.232 10.6377 354.514 11.6836 354.514 12.8501C354.514 14.0971 354.191 15.1429 353.547 16.068C352.902 16.953 352.177 17.5161 351.411 17.8379C350.605 18.1195 349.437 18.2402 347.906 18.2402H339.324V0.0587158V0.0587158ZM343.031 15.1831H346.617C347.745 15.1831 348.551 15.1429 348.994 15.0222C349.437 14.9015 349.84 14.6602 350.202 14.2579C350.565 13.8557 350.726 13.373 350.726 12.8099C350.726 12.0054 350.444 11.402 349.88 10.9998C349.276 10.5975 348.269 10.3964 346.738 10.3964H343.031V15.1831ZM356.649 0.0587158H360.315V18.2402H356.649V0.0587158Z" fill="white"/>
</g>
<defs>
<clipPath id="clip0_127_266">
<rect width="472" height="402" fill="white"/>
</clipPath>
</defs>
</svg>
