<svg width="1440" height="1885" viewBox="0 0 1440 1885" fill="none" xmlns="http://www.w3.org/2000/svg">
<g filter="url(#filter0_d_187_776)">
<path d="M1071.82 216.639C1096.57 216.639 1116.64 196.573 1116.64 171.819C1116.64 147.066 1096.57 127 1071.82 127C1047.07 127 1027 147.066 1027 171.819C1027 196.573 1047.07 216.639 1071.82 216.639Z" fill="white"/>
</g>
<g filter="url(#filter1_d_187_776)">
<path d="M1176.18 182.633H1171.86V165.763H1164.32V182.633H1159.98V162.15H1176.18V182.633Z" fill="white"/>
<path d="M1185.7 171.788H1187.13C1188.47 171.788 1189.47 171.526 1190.13 170.994C1190.79 170.468 1191.12 169.699 1191.12 168.692C1191.12 167.672 1190.84 166.922 1190.29 166.434C1189.73 165.95 1188.86 165.706 1187.67 165.706H1185.7V171.788V171.788ZM1195.5 168.537C1195.5 170.74 1194.82 172.428 1193.44 173.596C1192.06 174.762 1190.1 175.344 1187.56 175.344H1185.7V182.633H1181.36V162.15H1187.9C1190.38 162.15 1192.27 162.685 1193.57 163.752C1194.86 164.822 1195.5 166.418 1195.5 168.537V168.537Z" fill="white"/>
<path d="M1217.96 172.368C1217.96 175.762 1217.12 178.368 1215.44 180.189C1213.76 182.009 1211.35 182.918 1208.21 182.918C1205.08 182.918 1202.67 182.009 1200.98 180.189C1199.3 178.368 1198.46 175.753 1198.46 172.342C1198.46 168.935 1199.31 166.33 1200.99 164.531C1202.68 162.733 1205.09 161.833 1208.24 161.833C1211.39 161.833 1213.8 162.739 1215.46 164.55C1217.13 166.361 1217.96 168.967 1217.96 172.368V172.368ZM1203.01 172.368C1203.01 174.657 1203.45 176.38 1204.32 177.542C1205.19 178.697 1206.49 179.277 1208.21 179.277C1211.68 179.277 1213.41 176.972 1213.41 172.368C1213.41 167.754 1211.69 165.449 1208.24 165.449C1206.51 165.449 1205.21 166.032 1204.33 167.194C1203.45 168.356 1203.01 170.082 1203.01 172.368V172.368Z" fill="white"/>
<path d="M1219.19 179.017H1220.77C1222.13 176.307 1223.2 173.599 1223.98 170.899C1224.76 168.195 1225.35 165.275 1225.73 162.15H1237.66V179.017H1240.39V188.598H1236.21V182.633H1223.38V188.598H1219.19V179.017V179.017ZM1229.18 165.763C1228.88 167.9 1228.38 170.167 1227.69 172.558C1226.99 174.948 1226.21 177.105 1225.34 179.017H1233.34V165.763H1229.18Z" fill="white"/>
<path d="M1259.7 162.15L1253.37 176.642C1252.58 178.463 1251.84 179.767 1251.14 180.565C1250.44 181.36 1249.62 181.949 1248.67 182.335C1247.71 182.722 1246.55 182.918 1245.19 182.918C1244.02 182.918 1242.93 182.779 1241.92 182.497V178.773C1242.74 179.109 1243.77 179.277 1244.99 179.277C1245.77 179.277 1246.39 179.093 1246.87 178.735C1247.35 178.377 1247.75 177.751 1248.06 176.861L1240.97 162.15H1245.57L1250.61 173.571H1250.75L1251 172.868L1255.24 162.15H1259.7V162.15Z" fill="white"/>
<path d="M1278.98 182.633H1274.05L1266.62 172.251V182.633H1262.28V162.15H1266.62V172.07L1273.96 162.15H1278.59L1271.12 171.985L1278.98 182.633Z" fill="white"/>
<path d="M1289.45 182.633H1285.11V165.763H1279.54V162.15H1295.01V165.763H1289.45V182.633Z" fill="white"/>
<path d="M1312.18 176.231C1312.18 178.358 1311.47 179.961 1310.06 181.031C1308.64 182.098 1306.54 182.633 1303.77 182.633H1298.16V162.15H1302.5V170.009H1303.91C1306.53 170.009 1308.57 170.553 1310.01 171.64C1311.46 172.732 1312.18 174.261 1312.18 176.231V176.231ZM1302.5 179.074H1303.64C1305.07 179.074 1306.12 178.84 1306.79 178.368C1307.44 177.893 1307.78 177.181 1307.78 176.231C1307.78 175.278 1307.46 174.594 1306.82 174.185C1306.18 173.774 1305.05 173.568 1303.45 173.568H1302.5V179.074ZM1319 182.633H1314.67V162.15H1319V182.633Z" fill="white"/>
</g>
<path fill-rule="evenodd" clip-rule="evenodd" d="M1046.89 157.629L1071.69 168.898V204.164L1046.89 192.898V157.629Z" fill="url(#paint0_linear_187_776)"/>
<path fill-rule="evenodd" clip-rule="evenodd" d="M1096.46 157.563L1071.99 168.697V203.543L1096.46 192.411V157.563Z" fill="url(#paint1_linear_187_776)"/>
<path d="M1046.99 157.404L1071.94 168.736V204.551C1063.5 200.719 1055.07 196.885 1046.64 193.06C1046.66 181.123 1046.65 169.183 1046.64 157.246L1046.99 157.404V157.404ZM1071.44 169.056L1047.14 158.015V192.74L1071.44 203.781V169.056Z" fill="#B3B3B3"/>
<path d="M1096.24 158.015L1071.94 169.056V203.781L1096.24 192.74V158.015V158.015ZM1071.59 168.67L1096.74 157.246V193.06L1071.44 204.551V168.736L1071.59 168.67V168.67Z" fill="#B3B3B3"/>
<path fill-rule="evenodd" clip-rule="evenodd" d="M1046.89 157.353L1071.44 168.894L1063.15 174.99L1038.61 163.448L1046.89 157.353Z" fill="url(#paint2_linear_187_776)"/>
<path fill-rule="evenodd" clip-rule="evenodd" d="M1079.64 139.846L1104.19 151.387L1095.91 157.483L1071.36 145.941L1079.64 139.846Z" fill="url(#paint3_linear_187_776)"/>
<path d="M1046.99 157.131L1071.92 168.847L1063.18 175.275C1054.83 171.336 1046.48 167.416 1038.12 163.496L1046.86 157.068L1046.99 157.131ZM1070.95 168.942L1046.92 157.641L1039.09 163.401L1063.12 174.701L1070.95 168.942Z" fill="#B3B3B3"/>
<path fill-rule="evenodd" clip-rule="evenodd" d="M1095.98 157.353L1071.44 168.894L1079.72 174.99L1104.27 163.448L1095.98 157.353Z" fill="#F1F6FC"/>
<path d="M1095.96 157.641L1071.92 168.942L1079.75 174.701L1103.78 163.401L1095.96 157.641ZM1071.33 168.67L1096.01 157.068C1098.93 159.205 1101.84 161.352 1104.75 163.496C1096.4 167.419 1088.04 171.342 1079.69 175.275C1076.78 173.131 1073.87 170.99 1070.96 168.847L1071.33 168.67V168.67Z" fill="#B3B3B3"/>
<path d="M1046.92 157.068L1070.95 145.767L1063.12 140.008L1039.09 151.309L1046.92 157.068ZM1071.54 146.037L1046.86 157.641C1043.95 155.494 1041.04 153.354 1038.12 151.214L1063.18 139.432C1066.1 141.569 1069.01 143.716 1071.92 145.859L1071.54 146.037V146.037Z" fill="#B3B3B3"/>
<path d="M1095.88 157.578L1070.96 145.859L1079.69 139.432C1088.05 143.355 1096.4 147.284 1104.75 151.214C1101.84 153.357 1098.92 155.498 1096.01 157.641L1095.88 157.578V157.578ZM1071.92 145.767L1095.96 157.068L1103.78 151.309L1079.75 140.008L1071.92 145.767Z" fill="#B3B3B3"/>
<path fill-rule="evenodd" clip-rule="evenodd" d="M1071.31 168.796L1047.1 157.217L1071.31 145.85V168.796Z" fill="url(#paint4_linear_187_776)"/>
<path fill-rule="evenodd" clip-rule="evenodd" d="M1071.31 168.796L1095.52 157.217L1071.31 145.85V168.796Z" fill="url(#paint5_linear_187_776)"/>
<path fill-rule="evenodd" clip-rule="evenodd" d="M1063.01 139.635L1038.88 151.091L1047.02 157.141L1071.15 145.685L1063.01 139.635Z" fill="url(#paint6_linear_187_776)"/>
<mask id="mask0_187_776" style="mask-type:alpha" maskUnits="userSpaceOnUse" x="0" y="0" width="1440" height="1885">
<rect width="1440" height="1885" fill="#C4C4C4"/>
</mask>
<g mask="url(#mask0_187_776)">
<g filter="url(#filter2_d_187_776)">
<path d="M1401.7 1630V1625.73H1409.17V1630H1414.78V1627.25H1418.84V1630H1426.48V1627.25H1430.54V1630H1440V403.128C733.136 417.403 903.167 186 0 186V1630H15.2962V1625.73H22.7691V1630H26.8559V1625.73H34.3288V1630H39.5832V1626.93H44.6625V1630H49.9461V1625.73H57.419V1630H61.4766V1625.73H68.9495V1630H96.0973V1625.73H103.57V1630H107.657V1625.73H115.13V1630H119.188V1625.73H126.66V1630H130.747V1625.73H138.191V1630H165.368V1625.73H172.841V1630H176.898V1625.73H184.371V1630H211.519V1625.73H218.992V1630H223.079V1625.73H230.552V1630H234.609V1625.73H242.082V1630H246.169V1625.73H253.613V1630H259.072V1627.08H263.801V1630H271.449V1627.92H274.514V1630H282.133V1627.08H286.891V1630H292.32V1625.73H299.793V1630H303.88V1625.73H311.324V1630H317.775V1628.1H320.49V1630H326.941V1625.73H334.414V1630H340.019V1627.25H344.105V1630H351.724V1627.25H355.811V1630H373.793V1625.73H381.266V1630H385.323V1625.73H392.796V1630H398.08V1626.93H403.159V1630H408.414V1625.73H415.886V1630H419.973V1625.73H427.446V1630H454.594V1625.73H462.067V1630H466.124V1625.73H473.597V1630H477.684V1625.73H485.157V1630H489.215V1625.73H496.688V1630H523.835V1625.73H531.308V1630H535.395V1625.73H542.868V1630H570.016V1625.73H577.489V1630H581.546V1625.73H589.019V1630H593.106V1625.73H600.579V1630H604.637V1625.73H612.109V1630H617.539V1627.08H622.297V1630H629.945V1627.92H632.981V1630H640.629V1627.08H645.387V1630H650.817V1625.73H658.29V1630H662.347V1625.73H669.82V1630H676.272V1628.1H678.986V1630H685.438V1625.73H692.911V1630H698.515V1627.25H702.573V1630H710.221V1627.25H714.279V1630H731.589V1625.73H739.033V1630H743.119V1625.73H750.592V1630H755.847V1626.93H760.926V1630H766.21V1625.73H773.683V1630H777.74V1625.73H785.213V1630H812.361V1625.73H819.834V1630H823.921V1625.73H831.394V1630H835.451V1625.73H842.924V1630H847.011V1625.73H854.455V1630H881.631V1625.73H889.104V1630H893.162V1625.73H900.635V1630H927.783V1625.73H935.256V1630H939.342V1625.73H946.815V1630H950.873V1625.73H958.346V1630H962.433V1625.73H969.876V1630H975.335V1627.08H980.064V1630H987.712V1627.92H990.777V1630H998.396V1627.08H1003.15V1630H1008.58V1625.73H1016.06V1630H1020.14V1625.73H1027.59V1630H1034.04V1628.1H1036.75V1630H1043.2V1625.73H1050.68V1630H1056.28V1627.25H1060.37V1630H1067.99V1627.25H1072.07V1630H1090.06V1625.73H1097.53V1630H1101.62V1625.73H1109.06V1630H1114.34V1626.93H1119.42V1630H1124.68V1625.73H1132.15V1630H1136.24V1625.73H1143.71V1630H1170.86V1625.73H1178.33V1630H1182.39V1625.73H1189.86V1630H1193.95V1625.73H1201.42V1630H1205.48V1625.73H1212.95V1630H1240.1V1625.73H1247.57V1630H1251.66V1625.73H1259.13V1630H1286.28V1625.73H1293.75V1630H1297.81V1625.73H1305.28V1630H1309.37V1625.73H1316.84V1630H1320.9V1625.73H1328.37V1630H1333.8V1627.08H1338.56V1630H1346.21V1627.92H1349.24V1630H1356.89V1627.08H1361.65V1630H1367.08V1625.73H1374.55V1630H1378.61V1625.73H1386.08V1630H1392.54V1628.1H1395.25V1630H1401.7ZM1430.05 1619.1H1426.98V1616.03H1430.05V1619.1ZM1420.7 1621.32H1413.23V1613.83H1420.7V1621.32ZM1374.55 1621.32H1367.08V1613.83H1374.55V1621.32ZM1362.99 1621.32H1355.52V1613.83H1362.99V1621.32ZM1351.46 1621.32H1343.99V1613.83H1351.46V1621.32ZM1305.28 1621.32H1297.81V1613.83H1305.28V1621.32ZM1282.19 1621.32H1274.75V1613.83H1282.19V1621.32ZM1259.13 1621.32H1251.66V1613.83H1259.13V1621.32ZM1247.57 1621.32H1240.1V1613.83H1247.57V1621.32ZM1224.48 1621.32H1217.04V1613.83H1224.48V1621.32ZM1212.95 1621.32H1205.48V1613.83H1212.95V1621.32ZM1201.42 1621.32H1193.95V1613.83H1201.42V1621.32ZM1178.33 1621.32H1170.86V1613.83H1178.33V1621.32ZM1166.77 1621.32H1159.33V1613.83H1166.77V1621.32ZM1143.71 1621.32H1136.24V1613.83H1143.71V1621.32ZM1132.15 1621.32H1124.68V1613.83H1132.15V1621.32ZM1120.62 1621.32H1113.15V1613.83H1120.62V1621.32ZM1097.53 1621.32H1090.06V1613.83H1097.53V1621.32ZM1086 1621.32H1078.53V1613.83H1086V1621.32ZM1432.26 1609.42H1424.79V1601.93H1432.26V1609.42ZM1420.7 1609.42H1413.23V1601.93H1420.7V1609.42ZM1409.17 1609.42H1401.7V1601.93H1409.17V1609.42ZM1397.61 1609.42H1390.17V1601.93H1397.61V1609.42ZM1386.08 1609.42H1378.61V1601.93H1386.08V1609.42ZM1374.55 1609.42H1367.08V1601.93H1374.55V1609.42ZM1351.46 1609.42H1343.99V1601.93H1351.46V1609.42ZM1339.9 1609.42H1332.46V1601.93H1339.9V1609.42ZM1305.28 1609.42H1297.81V1601.93H1305.28V1609.42ZM1293.75 1609.42H1286.28V1601.93H1293.75V1609.42ZM1282.19 1609.42H1274.75V1601.93H1282.19V1609.42ZM1270.66 1609.42H1263.19V1601.93H1270.66V1609.42ZM1259.13 1609.42H1251.66V1601.93H1259.13V1609.42ZM1247.57 1609.42H1240.1V1601.93H1247.57V1609.42ZM1236.04 1609.42H1228.57V1601.93H1236.04V1609.42ZM1224.48 1609.42H1217.04V1601.93H1224.48V1609.42ZM1212.95 1609.42H1205.48V1601.93H1212.95V1609.42ZM1178.33 1609.42H1170.86V1601.93H1178.33V1609.42ZM1166.77 1609.42H1159.33V1601.93H1166.77V1609.42ZM1155.24 1609.42H1147.77V1601.93H1155.24V1609.42ZM1132.15 1609.42H1124.68V1601.93H1132.15V1609.42ZM1120.62 1609.42H1113.15V1601.93H1120.62V1609.42ZM1109.06 1609.42H1101.62V1601.93H1109.06V1609.42ZM1432.26 1597.52H1424.79V1590.04H1432.26V1597.52ZM1409.17 1597.52H1401.7V1590.04H1409.17V1597.52ZM1397.61 1597.52H1390.17V1590.04H1397.61V1597.52ZM1374.55 1597.52H1367.08V1590.04H1374.55V1597.52ZM1362.99 1597.52H1355.52V1590.04H1362.99V1597.52ZM1315.65 1596.32H1310.57V1591.21H1315.65V1596.32ZM1305.28 1597.52H1297.81V1590.04H1305.28V1597.52ZM1259.13 1597.52H1251.66V1590.04H1259.13V1597.52ZM1236.04 1597.52H1228.57V1590.04H1236.04V1597.52ZM1212.95 1597.52H1205.48V1590.04H1212.95V1597.52ZM1166.77 1597.52H1159.33V1590.04H1166.77V1597.52ZM1143.71 1597.52H1136.24V1590.04H1143.71V1597.52ZM1120.62 1597.52H1113.15V1590.04H1120.62V1597.52ZM1097.53 1597.52H1090.06V1590.04H1097.53V1597.52ZM1086 1597.52H1078.53V1590.04H1086V1597.52ZM1281.2 1596.32H1276.09V1591.21H1281.2V1596.32ZM1338.74 1596.32H1333.63V1591.21H1338.74V1596.32ZM1384.39 1595.8H1380.3V1591.73H1384.39V1595.8ZM1396.1 1619.45H1392.04V1615.35H1396.1V1619.45ZM1246.05 1596.32H1241.97V1592.23H1246.05V1596.32ZM1201.92 1596.32H1197.86V1592.23H1201.92V1596.32ZM1176.81 1596.32H1172.73V1592.23H1176.81V1596.32ZM1107.89 1620.12H1103.81V1616.03H1107.89V1620.12ZM1395.25 1568.61H1392.54V1571.33H1395.25V1568.61ZM1396.1 1580.01H1392.04V1584.07H1396.1V1580.01ZM1360.63 1581.03H1357.91V1583.75H1360.63V1581.03ZM1372.51 1580.01H1368.42V1584.07H1372.51V1580.01ZM1337.19 1581.03H1334.47V1583.75H1337.19V1581.03ZM1419.19 1580.01H1415.1V1584.07H1419.19V1580.01ZM1303.41 1580.01H1299.36V1584.07H1303.41V1580.01ZM1257.58 1580.01H1253.53V1584.07H1257.58V1580.01ZM1220.77 1568.61H1218.06V1571.33H1220.77V1568.61ZM1221.62 1580.01H1217.53V1584.07H1221.62V1580.01ZM1174.94 1580.15H1172.23V1582.9H1174.94V1580.15ZM1165.6 1580.01H1161.52V1584.07H1165.6V1580.01ZM1119.1 1580.01H1115.01V1584.07H1119.1V1580.01ZM1084.8 1580.01H1080.72V1584.07H1084.8V1580.01ZM1188.52 1580.15H1185.8V1582.9H1188.52V1580.15ZM1071.55 1619.1H1068.51V1616.03H1071.55V1619.1ZM1062.24 1621.32H1054.76V1613.83H1062.24V1621.32ZM1016.06 1621.32H1008.58V1613.83H1016.06V1621.32ZM1004.53 1621.32H997.053V1613.83H1004.53V1621.32ZM992.967 1621.32H985.494V1613.83H992.967V1621.32ZM946.815 1621.32H939.342V1613.83H946.815V1621.32ZM923.725 1621.32H916.252V1613.83H923.725V1621.32ZM900.635 1621.32H893.162V1613.83H900.635V1621.32ZM889.104 1621.32H881.631V1613.83H889.104V1621.32ZM866.014 1621.32H858.541V1613.83H866.014V1621.32ZM854.455 1621.32H847.011V1613.83H854.455V1621.32ZM842.924 1621.32H835.451V1613.83H842.924V1621.32ZM819.834 1621.32H812.361V1613.83H819.834V1621.32ZM808.303 1621.32H800.83V1613.83H808.303V1621.32ZM785.213 1621.32H777.74V1613.83H785.213V1621.32ZM773.683 1621.32H766.21V1613.83H773.683V1621.32ZM762.123 1621.32H754.65V1613.83H762.123V1621.32ZM739.033 1621.32H731.589V1613.83H739.033V1621.32ZM727.502 1621.32H720.029V1613.83H727.502V1621.32ZM1073.77 1609.42H1066.29V1601.93H1073.77V1609.42ZM1062.24 1609.42H1054.76V1601.93H1062.24V1609.42ZM1050.68 1609.42H1043.2V1601.93H1050.68V1609.42ZM1039.15 1609.42H1031.67V1601.93H1039.15V1609.42ZM1027.59 1609.42H1020.14V1601.93H1027.59V1609.42ZM1016.06 1609.42H1008.58V1601.93H1016.06V1609.42ZM992.967 1609.42H985.494V1601.93H992.967V1609.42ZM981.436 1609.42H973.963V1601.93H981.436V1609.42ZM946.815 1609.42H939.342V1601.93H946.815V1609.42ZM935.256 1609.42H927.783V1601.93H935.256V1609.42ZM923.725 1609.42H916.252V1601.93H923.725V1609.42ZM912.166 1609.42H904.722V1601.93H912.166V1609.42ZM900.635 1609.42H893.162V1601.93H900.635V1609.42ZM889.104 1609.42H881.631V1601.93H889.104V1609.42ZM877.545 1609.42H870.072V1601.93H877.545V1609.42ZM866.014 1609.42H858.541V1601.93H866.014V1609.42ZM854.455 1609.42H847.011V1601.93H854.455V1609.42ZM819.834 1609.42H812.361V1601.93H819.834V1609.42ZM808.303 1609.42H800.83V1601.93H808.303V1609.42ZM796.744 1609.42H789.3V1601.93H796.744V1609.42ZM773.683 1609.42H766.21V1601.93H773.683V1609.42ZM762.123 1609.42H754.65V1601.93H762.123V1609.42ZM750.592 1609.42H743.119V1601.93H750.592V1609.42ZM1073.77 1597.52H1066.29V1590.04H1073.77V1597.52ZM1050.68 1597.52H1043.2V1590.04H1050.68V1597.52ZM1039.15 1597.52H1031.67V1590.04H1039.15V1597.52ZM1016.06 1597.52H1008.58V1590.04H1016.06V1597.52ZM1004.53 1597.52H997.053V1590.04H1004.53V1597.52ZM957.149 1596.32H952.07V1591.21H957.149V1596.32ZM946.815 1597.52H939.342V1590.04H946.815V1597.52ZM900.635 1597.52H893.162V1590.04H900.635V1597.52ZM877.545 1597.52H870.072V1590.04H877.545V1597.52ZM854.455 1597.52H847.011V1590.04H854.455V1597.52ZM808.303 1597.52H800.83V1590.04H808.303V1597.52ZM785.213 1597.52H777.74V1590.04H785.213V1597.52ZM762.123 1597.52H754.65V1590.04H762.123V1597.52ZM739.033 1597.52H731.589V1590.04H739.033V1597.52ZM727.502 1597.52H720.029V1590.04H727.502V1597.52ZM922.703 1596.32H917.624V1591.21H922.703V1596.32ZM980.239 1596.32H975.16V1591.21H980.239V1596.32ZM1025.89 1595.8H1021.84V1591.73H1025.89V1595.8ZM1037.63 1619.45H1033.54V1615.35H1037.63V1619.45ZM887.557 1596.32H883.5V1592.23H887.557V1596.32ZM843.449 1596.32H839.363V1592.23H843.449V1596.32ZM818.316 1596.32H814.229V1592.23H818.316V1596.32ZM749.396 1620.12H745.338V1616.03H749.396V1620.12ZM1036.75 1568.61H1034.04V1571.33H1036.75V1568.61ZM1037.63 1580.01H1033.54V1584.07H1037.63V1580.01ZM1002.13 1581.03H999.418V1583.75H1002.13V1581.03ZM1014.01 1580.01H1009.96V1584.07H1014.01V1580.01ZM978.721 1581.03H976.007V1583.75H978.721V1581.03ZM1060.69 1580.01H1056.63V1584.07H1060.69V1580.01ZM944.947 1580.01H940.86V1584.07H944.947V1580.01ZM899.117 1580.01H895.03V1584.07H899.117V1580.01ZM862.278 1568.61H859.563V1571.33H862.278V1568.61ZM863.124 1580.01H859.067V1584.07H863.124V1580.01ZM816.448 1580.15H813.733V1582.9H816.448V1580.15ZM807.106 1580.01H803.049V1584.07H807.106V1580.01ZM760.605 1580.01H756.518V1584.07H760.605V1580.01ZM726.305 1580.01H722.248V1584.07H726.305V1580.01ZM830.022 1580.15H827.307V1582.9H830.022V1580.15ZM713.782 1619.1H710.717V1616.03H713.782V1619.1ZM704.441 1621.32H696.968V1613.83H704.441V1621.32ZM658.29 1621.32H650.817V1613.83H658.29V1621.32ZM646.73 1621.32H639.257V1613.83H646.73V1621.32ZM635.2 1621.32H627.727V1613.83H635.2V1621.32ZM589.019 1621.32H581.546V1613.83H589.019V1621.32ZM565.929 1621.32H558.485V1613.83H565.929V1621.32ZM542.868 1621.32H535.395V1613.83H542.868V1621.32ZM531.308 1621.32H523.835V1613.83H531.308V1621.32ZM508.218 1621.32H500.774V1613.83H508.218V1621.32ZM496.688 1621.32H489.215V1613.83H496.688V1621.32ZM485.157 1621.32H477.684V1613.83H485.157V1621.32ZM462.067 1621.32H454.594V1613.83H462.067V1621.32ZM450.507 1621.32H443.063V1613.83H450.507V1621.32ZM427.446 1621.32H419.973V1613.83H427.446V1621.32ZM415.886 1621.32H408.414V1613.83H415.886V1621.32ZM404.356 1621.32H396.883V1613.83H404.356V1621.32ZM381.266 1621.32H373.793V1613.83H381.266V1621.32ZM369.735 1621.32H362.262V1613.83H369.735V1621.32ZM716.001 1609.42H708.528V1601.93H716.001V1609.42ZM704.441 1609.42H696.968V1601.93H704.441V1609.42ZM692.911 1609.42H685.438V1601.93H692.911V1609.42ZM681.351 1609.42H673.907V1601.93H681.351V1609.42ZM669.82 1609.42H662.347V1601.93H669.82V1609.42ZM658.29 1609.42H650.817V1601.93H658.29V1609.42ZM635.2 1609.42H627.727V1601.93H635.2V1609.42ZM623.64 1609.42H616.196V1601.93H623.64V1609.42ZM589.019 1609.42H581.546V1601.93H589.019V1609.42ZM577.489 1609.42H570.016V1601.93H577.489V1609.42ZM565.929 1609.42H558.485V1601.93H565.929V1609.42ZM554.399 1609.42H546.926V1601.93H554.399V1609.42ZM542.868 1609.42H535.395V1601.93H542.868V1609.42ZM531.308 1609.42H523.835V1601.93H531.308V1609.42ZM519.778 1609.42H512.305V1601.93H519.778V1609.42ZM508.218 1609.42H500.774V1601.93H508.218V1609.42ZM496.688 1609.42H489.215V1601.93H496.688V1609.42ZM462.067 1609.42H454.594V1601.93H462.067V1609.42ZM450.507 1609.42H443.063V1601.93H450.507V1609.42ZM438.977 1609.42H431.504V1601.93H438.977V1609.42ZM415.886 1609.42H408.414V1601.93H415.886V1609.42ZM404.356 1609.42H396.883V1601.93H404.356V1609.42ZM392.796 1609.42H385.323V1601.93H392.796V1609.42ZM716.001 1597.52H708.528V1590.04H716.001V1597.52ZM692.911 1597.52H685.438V1590.04H692.911V1597.52ZM681.351 1597.52H673.907V1590.04H681.351V1597.52ZM658.29 1597.52H650.817V1590.04H658.29V1597.52ZM646.73 1597.52H639.257V1590.04H646.73V1597.52ZM599.382 1596.32H594.274V1591.21H599.382V1596.32ZM589.019 1597.52H581.546V1590.04H589.019V1597.52ZM542.868 1597.52H535.395V1590.04H542.868V1597.52ZM519.778 1597.52H512.305V1590.04H519.778V1597.52ZM496.688 1597.52H489.215V1590.04H496.688V1597.52ZM450.507 1597.52H443.063V1590.04H450.507V1597.52ZM427.446 1597.52H419.973V1590.04H427.446V1597.52ZM404.356 1597.52H396.883V1590.04H404.356V1597.52ZM381.266 1597.52H373.793V1590.04H381.266V1597.52ZM369.735 1597.52H362.262V1590.04H369.735V1597.52ZM564.937 1596.32H559.828V1591.21H564.937V1596.32ZM622.472 1596.32H617.364V1591.21H622.472V1596.32ZM668.127 1595.8H664.041V1591.73H668.127V1595.8ZM679.833 1619.45H675.775V1615.35H679.833V1619.45ZM529.79 1596.32H525.704V1592.23H529.79V1596.32ZM485.653 1596.32H481.596V1592.23H485.653V1596.32ZM460.549 1596.32H456.462V1592.23H460.549V1596.32ZM391.629 1620.12H387.542V1616.03H391.629V1620.12ZM678.986 1568.61H676.272V1571.33H678.986V1568.61ZM679.833 1580.01H675.775V1584.07H679.833V1580.01ZM644.366 1581.03H641.651V1583.75H644.366V1581.03ZM656.247 1580.01H652.16V1584.07H656.247V1580.01ZM620.925 1581.03H618.21V1583.75H620.925V1581.03ZM702.923 1580.01H698.836V1584.07H702.923V1580.01ZM587.151 1580.01H583.093V1584.07H587.151V1580.01ZM541.321 1580.01H537.263V1584.07H541.321V1580.01ZM504.511 1568.61H501.796V1571.33H504.511V1568.61ZM505.357 1580.01H501.271V1584.07H505.357V1580.01ZM458.681 1580.15H455.966V1582.9H458.681V1580.15ZM449.34 1580.01H445.253V1584.07H449.34V1580.01ZM402.838 1580.01H398.751V1584.07H402.838V1580.01ZM368.538 1580.01H364.452V1584.07H368.538V1580.01ZM472.255 1580.15H469.54V1582.9H472.255V1580.15ZM355.286 1619.1H352.25V1616.03H355.286V1619.1ZM345.974 1621.32H338.501V1613.83H345.974V1621.32ZM299.793 1621.32H292.32V1613.83H299.793V1621.32ZM288.263 1621.32H280.79V1613.83H288.263V1621.32ZM276.703 1621.32H269.23V1613.83H276.703V1621.32ZM230.552 1621.32H223.079V1613.83H230.552V1621.32ZM207.462 1621.32H199.989V1613.83H207.462V1621.32ZM184.371 1621.32H176.898V1613.83H184.371V1621.32ZM172.841 1621.32H165.368V1613.83H172.841V1621.32ZM149.751 1621.32H142.278V1613.83H149.751V1621.32ZM138.191 1621.32H130.747V1613.83H138.191V1621.32ZM126.66 1621.32H119.188V1613.83H126.66V1621.32ZM103.57 1621.32H96.0973V1613.83H103.57V1621.32ZM92.0397 1621.32H84.5668V1613.83H92.0397V1621.32ZM68.9495 1621.32H61.4766V1613.83H68.9495V1621.32ZM57.419 1621.32H49.9461V1613.83H57.419V1621.32ZM45.8593 1621.32H38.3864V1613.83H45.8593V1621.32ZM22.7691 1621.32H15.2962V1613.83H22.7691V1621.32ZM11.2386 1621.32H3.76566V1613.83H11.2386V1621.32ZM357.504 1609.42H350.031V1601.93H357.504V1609.42ZM345.974 1609.42H338.501V1601.93H345.974V1609.42ZM334.414 1609.42H326.941V1601.93H334.414V1609.42ZM322.883 1609.42H315.411V1601.93H322.883V1609.42ZM311.324 1609.42H303.88V1601.93H311.324V1609.42ZM299.793 1609.42H292.32V1601.93H299.793V1609.42ZM276.703 1609.42H269.23V1601.93H276.703V1609.42ZM265.173 1609.42H257.7V1601.93H265.173V1609.42ZM230.552 1609.42H223.079V1601.93H230.552V1609.42ZM218.992 1609.42H211.519V1601.93H218.992V1609.42ZM207.462 1609.42H199.989V1601.93H207.462V1609.42ZM195.902 1609.42H188.458V1601.93H195.902V1609.42ZM184.371 1609.42H176.898V1601.93H184.371V1609.42ZM172.841 1609.42H165.368V1601.93H172.841V1609.42ZM161.281 1609.42H153.808V1601.93H161.281V1609.42ZM149.751 1609.42H142.278V1601.93H149.751V1609.42ZM138.191 1609.42H130.747V1601.93H138.191V1609.42ZM103.57 1609.42H96.0973V1601.93H103.57V1609.42ZM92.0397 1609.42H84.5668V1601.93H92.0397V1609.42ZM80.48 1609.42H73.0071V1601.93H80.48V1609.42ZM57.419 1609.42H49.9461V1601.93H57.419V1609.42ZM45.8593 1609.42H38.3864V1601.93H45.8593V1609.42ZM34.3288 1609.42H26.8559V1601.93H34.3288V1609.42ZM357.504 1597.52H350.031V1590.04H357.504V1597.52ZM334.414 1597.52H326.941V1590.04H334.414V1597.52ZM322.883 1597.52H315.411V1590.04H322.883V1597.52ZM299.793 1597.52H292.32V1590.04H299.793V1597.52ZM288.263 1597.52H280.79V1590.04H288.263V1597.52ZM240.885 1596.32H235.806V1591.21H240.885V1596.32ZM230.552 1597.52H223.079V1590.04H230.552V1597.52ZM184.371 1597.52H176.898V1590.04H184.371V1597.52ZM161.281 1597.52H153.808V1590.04H161.281V1597.52ZM138.191 1597.52H130.747V1590.04H138.191V1597.52ZM92.0397 1597.52H84.5668V1590.04H92.0397V1597.52ZM68.9495 1597.52H61.4766V1590.04H68.9495V1597.52ZM45.8593 1597.52H38.3864V1590.04H45.8593V1597.52ZM22.7691 1597.52H15.2962V1590.04H22.7691V1597.52ZM11.2386 1597.52H3.76566V1590.04H11.2386V1597.52ZM206.44 1596.32H201.361V1591.21H206.44V1596.32ZM263.976 1596.32H258.896V1591.21H263.976V1596.32ZM309.631 1595.8H305.573V1591.73H309.631V1595.8ZM321.336 1619.45H317.279V1615.35H321.336V1619.45ZM171.294 1596.32H167.236V1592.23H171.294V1596.32ZM127.157 1596.32H123.099V1592.23H127.157V1596.32ZM102.052 1596.32H97.9655V1592.23H102.052V1596.32ZM33.132 1620.12H29.0744V1616.03H33.132V1620.12ZM320.49 1568.61H317.775V1571.33H320.49V1568.61ZM321.336 1580.01H317.279V1584.07H321.336V1580.01ZM285.869 1581.03H283.154V1583.75H285.869V1581.03ZM297.75 1580.01H293.692V1584.07H297.75V1580.01ZM262.458 1581.03H259.743V1583.75H262.458V1581.03ZM344.427 1580.01H340.369V1584.07H344.427V1580.01ZM228.684 1580.01H224.597V1584.07H228.684V1580.01ZM182.853 1580.01H178.767V1584.07H182.853V1580.01ZM146.014 1568.61H143.299V1571.33H146.014V1568.61ZM146.861 1580.01H142.803V1584.07H146.861V1580.01ZM100.184 1580.15H97.4693V1582.9H100.184V1580.15ZM90.8429 1580.01H86.7853V1584.07H90.8429V1580.01ZM44.3414 1580.01H40.2546V1584.07H44.3414V1580.01ZM10.0418 1580.01H5.98419V1584.07H10.0418V1580.01ZM113.758 1580.15H111.043V1582.9H113.758V1580.15Z" fill="#F1F6FC"/>
<path fill-rule="evenodd" clip-rule="evenodd" d="M5.63281 1628.59H9.36859V1632.33H5.63281V1628.59Z" fill="#F1F6FC"/>
<path fill-rule="evenodd" clip-rule="evenodd" d="M38.3789 1626.73H45.8505V1634.2H38.3789V1626.73Z" fill="#F1F6FC"/>
<path fill-rule="evenodd" clip-rule="evenodd" d="M49.9365 1626.73H57.4081V1634.2H49.9365V1626.73Z" fill="#F1F6FC"/>
<path fill-rule="evenodd" clip-rule="evenodd" d="M72.9932 1626.73H80.4647V1634.2H72.9932V1626.73Z" fill="#F1F6FC"/>
<path fill-rule="evenodd" clip-rule="evenodd" d="M84.5508 1626.73H92.0224V1634.2H84.5508V1626.73Z" fill="#F1F6FC"/>
<path fill-rule="evenodd" clip-rule="evenodd" d="M97.626 1628.27H102.033V1632.68H97.626V1628.27Z" fill="#F1F6FC"/>
<path fill-rule="evenodd" clip-rule="evenodd" d="M107.637 1626.73H115.108V1634.2H107.637V1626.73Z" fill="#F1F6FC"/>
<path fill-rule="evenodd" clip-rule="evenodd" d="M153.779 1626.73H161.251V1634.2H153.779V1626.73Z" fill="#F1F6FC"/>
<path fill-rule="evenodd" clip-rule="evenodd" d="M165.337 1626.73H172.808V1634.2H165.337V1626.73Z" fill="#F1F6FC"/>
<path fill-rule="evenodd" clip-rule="evenodd" d="M176.865 1626.73H184.337V1634.2H176.865V1626.73Z" fill="#F1F6FC"/>
<path fill-rule="evenodd" clip-rule="evenodd" d="M199.951 1626.73H207.423V1634.2H199.951V1626.73Z" fill="#F1F6FC"/>
<path fill-rule="evenodd" clip-rule="evenodd" d="M223.037 1626.73H230.509V1634.2H223.037V1626.73Z" fill="#F1F6FC"/>
<path fill-rule="evenodd" clip-rule="evenodd" d="M234.565 1626.73H242.037V1634.2H234.565V1626.73Z" fill="#F1F6FC"/>
<path fill-rule="evenodd" clip-rule="evenodd" d="M246.123 1626.73H253.565V1634.2H246.123V1626.73Z" fill="#F1F6FC"/>
<path fill-rule="evenodd" clip-rule="evenodd" d="M257.651 1626.73H265.123V1634.2H257.651V1626.73Z" fill="#F1F6FC"/>
<path fill-rule="evenodd" clip-rule="evenodd" d="M270.902 1628.45H274.959V1632.51H270.902V1628.45Z" fill="#F1F6FC"/>
<path fill-rule="evenodd" clip-rule="evenodd" d="M292.266 1626.73H299.737V1634.2H292.266V1626.73Z" fill="#F1F6FC"/>
<path fill-rule="evenodd" clip-rule="evenodd" d="M326.88 1626.73H334.351V1634.2H326.88V1626.73Z" fill="#F1F6FC"/>
<path fill-rule="evenodd" clip-rule="evenodd" d="M338.438 1626.73H345.909V1634.2H338.438V1626.73Z" fill="#F1F6FC"/>
<path fill-rule="evenodd" clip-rule="evenodd" d="M349.966 1626.73H357.437V1634.2H349.966V1626.73Z" fill="#F1F6FC"/>
<path fill-rule="evenodd" clip-rule="evenodd" d="M3.76465 1638.61H11.2362V1646.08H3.76465V1638.61Z" fill="#F1F6FC"/>
<path fill-rule="evenodd" clip-rule="evenodd" d="M15.293 1638.61H22.7645V1646.08H15.293V1638.61Z" fill="#F1F6FC"/>
<path fill-rule="evenodd" clip-rule="evenodd" d="M26.8506 1638.61H34.3221V1646.08H26.8506V1638.61Z" fill="#F1F6FC"/>
<path fill-rule="evenodd" clip-rule="evenodd" d="M38.9043 1639.13H45.3543V1645.58H38.9043V1639.13Z" fill="#F1F6FC"/>
<path fill-rule="evenodd" clip-rule="evenodd" d="M51.8047 1640.47H55.5405V1644.21H51.8047V1640.47Z" fill="#F1F6FC"/>
<path fill-rule="evenodd" clip-rule="evenodd" d="M61.4648 1638.61H68.9364V1646.08H61.4648V1638.61Z" fill="#F1F6FC"/>
<path fill-rule="evenodd" clip-rule="evenodd" d="M72.9932 1638.61H80.4647V1646.08H72.9932V1638.61Z" fill="#F1F6FC"/>
<path fill-rule="evenodd" clip-rule="evenodd" d="M96.0791 1638.61H103.551V1646.08H96.0791V1638.61Z" fill="#F1F6FC"/>
<path fill-rule="evenodd" clip-rule="evenodd" d="M107.637 1638.61H115.108V1646.08H107.637V1638.61Z" fill="#F1F6FC"/>
<path fill-rule="evenodd" clip-rule="evenodd" d="M119.165 1638.61H126.637V1646.08H119.165V1638.61Z" fill="#F1F6FC"/>
<path fill-rule="evenodd" clip-rule="evenodd" d="M132.065 1639.98H136.823V1644.74H132.065V1639.98Z" fill="#F1F6FC"/>
<path fill-rule="evenodd" clip-rule="evenodd" d="M142.251 1638.61H149.722V1646.08H142.251V1638.61Z" fill="#F1F6FC"/>
<path fill-rule="evenodd" clip-rule="evenodd" d="M155.473 1640.33H159.559V1644.39H155.473V1640.33Z" fill="#F1F6FC"/>
<path fill-rule="evenodd" clip-rule="evenodd" d="M165.337 1638.61H172.808V1646.08H165.337V1638.61Z" fill="#F1F6FC"/>
<path fill-rule="evenodd" clip-rule="evenodd" d="M176.865 1638.61H184.337V1646.08H176.865V1638.61Z" fill="#F1F6FC"/>
<path fill-rule="evenodd" clip-rule="evenodd" d="M188.423 1638.61H195.865V1646.08H188.423V1638.61Z" fill="#F1F6FC"/>
<path fill-rule="evenodd" clip-rule="evenodd" d="M199.951 1638.61H207.423V1646.08H199.951V1638.61Z" fill="#F1F6FC"/>
<path fill-rule="evenodd" clip-rule="evenodd" d="M211.479 1638.61H218.951V1646.08H211.479V1638.61Z" fill="#F1F6FC"/>
<path fill-rule="evenodd" clip-rule="evenodd" d="M223.037 1638.61H230.509V1646.08H223.037V1638.61Z" fill="#F1F6FC"/>
<path fill-rule="evenodd" clip-rule="evenodd" d="M257.651 1638.61H265.123V1646.08H257.651V1638.61Z" fill="#F1F6FC"/>
<path fill-rule="evenodd" clip-rule="evenodd" d="M269.18 1638.61H276.651V1646.08H269.18V1638.61Z" fill="#F1F6FC"/>
<path fill-rule="evenodd" clip-rule="evenodd" d="M280.737 1638.61H288.209V1646.08H280.737V1638.61Z" fill="#F1F6FC"/>
<path fill-rule="evenodd" clip-rule="evenodd" d="M292.266 1638.61H299.737V1646.08H292.266V1638.61Z" fill="#F1F6FC"/>
<path fill-rule="evenodd" clip-rule="evenodd" d="M305.837 1640.65H309.252V1644.06H305.837V1640.65Z" fill="#F1F6FC"/>
<path fill-rule="evenodd" clip-rule="evenodd" d="M315.352 1638.61H322.823V1646.08H315.352V1638.61Z" fill="#F1F6FC"/>
<path fill-rule="evenodd" clip-rule="evenodd" d="M326.88 1638.61H334.351V1646.08H326.88V1638.61Z" fill="#F1F6FC"/>
<path fill-rule="evenodd" clip-rule="evenodd" d="M349.966 1638.61H357.437V1646.08H349.966V1638.61Z" fill="#F1F6FC"/>
<path fill-rule="evenodd" clip-rule="evenodd" d="M26.8506 1650.52H34.3221V1657.96H26.8506V1650.52Z" fill="#F1F6FC"/>
<path fill-rule="evenodd" clip-rule="evenodd" d="M40.7725 1652.88H43.4867V1655.6H40.7725V1652.88Z" fill="#F1F6FC"/>
<path fill-rule="evenodd" clip-rule="evenodd" d="M49.9365 1650.52H57.4081V1657.96H49.9365V1650.52Z" fill="#F1F6FC"/>
<path fill-rule="evenodd" clip-rule="evenodd" d="M61.4648 1650.52H68.9364V1657.96H61.4648V1650.52Z" fill="#F1F6FC"/>
<path fill-rule="evenodd" clip-rule="evenodd" d="M74.3652 1651.86H79.1225V1656.62H74.3652V1651.86Z" fill="#F1F6FC"/>
<path fill-rule="evenodd" clip-rule="evenodd" d="M86.7686 1652.71H89.8039V1655.77H86.7686V1652.71Z" fill="#F1F6FC"/>
<path fill-rule="evenodd" clip-rule="evenodd" d="M97.4512 1651.86H102.209V1656.62H97.4512V1651.86Z" fill="#F1F6FC"/>
<path fill-rule="evenodd" clip-rule="evenodd" d="M107.637 1650.52H115.108V1657.96H107.637V1650.52Z" fill="#F1F6FC"/>
<path fill-rule="evenodd" clip-rule="evenodd" d="M119.165 1650.52H126.637V1657.96H119.165V1650.52Z" fill="#F1F6FC"/>
<path fill-rule="evenodd" clip-rule="evenodd" d="M130.723 1650.52H138.165V1657.96H130.723V1650.52Z" fill="#F1F6FC"/>
<path fill-rule="evenodd" clip-rule="evenodd" d="M142.251 1650.52H149.722V1657.96H142.251V1650.52Z" fill="#F1F6FC"/>
<path fill-rule="evenodd" clip-rule="evenodd" d="M176.865 1650.52H184.337V1657.96H176.865V1650.52Z" fill="#F1F6FC"/>
<path fill-rule="evenodd" clip-rule="evenodd" d="M188.423 1650.52H195.865V1657.96H188.423V1650.52Z" fill="#F1F6FC"/>
<path fill-rule="evenodd" clip-rule="evenodd" d="M223.037 1650.52H230.509V1657.96H223.037V1650.52Z" fill="#F1F6FC"/>
<path fill-rule="evenodd" clip-rule="evenodd" d="M234.565 1650.52H242.037V1657.96H234.565V1650.52Z" fill="#F1F6FC"/>
<path fill-rule="evenodd" clip-rule="evenodd" d="M246.123 1650.52H253.565V1657.96H246.123V1650.52Z" fill="#F1F6FC"/>
<path fill-rule="evenodd" clip-rule="evenodd" d="M257.651 1650.52H265.123V1657.96H257.651V1650.52Z" fill="#F1F6FC"/>
<path fill-rule="evenodd" clip-rule="evenodd" d="M292.266 1650.52H299.737V1657.96H292.266V1650.52Z" fill="#F1F6FC"/>
<path fill-rule="evenodd" clip-rule="evenodd" d="M303.823 1650.52H311.266V1657.96H303.823V1650.52Z" fill="#F1F6FC"/>
<path fill-rule="evenodd" clip-rule="evenodd" d="M316.549 1651.68H321.627V1656.79H316.549V1651.68Z" fill="#F1F6FC"/>
<path fill-rule="evenodd" clip-rule="evenodd" d="M326.88 1650.52H334.351V1657.96H326.88V1650.52Z" fill="#F1F6FC"/>
<path fill-rule="evenodd" clip-rule="evenodd" d="M338.438 1650.52H345.909V1657.96H338.438V1650.52Z" fill="#F1F6FC"/>
<path fill-rule="evenodd" clip-rule="evenodd" d="M5.98242 1664.59H9.01774V1667.65H5.98242V1664.59Z" fill="#F1F6FC"/>
<path fill-rule="evenodd" clip-rule="evenodd" d="M15.293 1662.4H22.7645V1669.84H15.293V1662.4Z" fill="#F1F6FC"/>
<path fill-rule="evenodd" clip-rule="evenodd" d="M61.4648 1662.4H68.9364V1669.84H61.4648V1662.4Z" fill="#F1F6FC"/>
<path fill-rule="evenodd" clip-rule="evenodd" d="M72.9932 1662.4H80.4647V1669.84H72.9932V1662.4Z" fill="#F1F6FC"/>
<path fill-rule="evenodd" clip-rule="evenodd" d="M84.5508 1662.4H92.0224V1669.84H84.5508V1662.4Z" fill="#F1F6FC"/>
<path fill-rule="evenodd" clip-rule="evenodd" d="M130.723 1662.4H138.165V1669.84H130.723V1662.4Z" fill="#F1F6FC"/>
<path fill-rule="evenodd" clip-rule="evenodd" d="M153.779 1662.4H161.251V1669.84H153.779V1662.4Z" fill="#F1F6FC"/>
<path fill-rule="evenodd" clip-rule="evenodd" d="M176.865 1662.4H184.337V1669.84H176.865V1662.4Z" fill="#F1F6FC"/>
<path fill-rule="evenodd" clip-rule="evenodd" d="M188.423 1662.4H195.865V1669.84H188.423V1662.4Z" fill="#F1F6FC"/>
<path fill-rule="evenodd" clip-rule="evenodd" d="M211.479 1662.4H218.951V1669.84H211.479V1662.4Z" fill="#F1F6FC"/>
<path fill-rule="evenodd" clip-rule="evenodd" d="M223.037 1662.4H230.509V1669.84H223.037V1662.4Z" fill="#F1F6FC"/>
<path fill-rule="evenodd" clip-rule="evenodd" d="M234.565 1662.4H242.037V1669.84H234.565V1662.4Z" fill="#F1F6FC"/>
<path fill-rule="evenodd" clip-rule="evenodd" d="M257.651 1662.4H265.123V1669.84H257.651V1662.4Z" fill="#F1F6FC"/>
<path fill-rule="evenodd" clip-rule="evenodd" d="M269.18 1662.4H276.651V1669.84H269.18V1662.4Z" fill="#F1F6FC"/>
<path fill-rule="evenodd" clip-rule="evenodd" d="M292.266 1662.4H299.737V1669.84H292.266V1662.4Z" fill="#F1F6FC"/>
<path fill-rule="evenodd" clip-rule="evenodd" d="M303.823 1662.4H311.266V1669.84H303.823V1662.4Z" fill="#F1F6FC"/>
<path fill-rule="evenodd" clip-rule="evenodd" d="M315.352 1662.4H322.823V1669.84H315.352V1662.4Z" fill="#F1F6FC"/>
<path fill-rule="evenodd" clip-rule="evenodd" d="M338.438 1662.4H345.909V1669.84H338.438V1662.4Z" fill="#F1F6FC"/>
<path fill-rule="evenodd" clip-rule="evenodd" d="M349.966 1662.4H357.437V1669.84H349.966V1662.4Z" fill="#F1F6FC"/>
<path fill-rule="evenodd" clip-rule="evenodd" d="M3.76465 1674.28H11.2362V1681.72H3.76465V1674.28Z" fill="#F1F6FC"/>
<path fill-rule="evenodd" clip-rule="evenodd" d="M15.293 1674.28H22.7645V1681.72H15.293V1674.28Z" fill="#F1F6FC"/>
<path fill-rule="evenodd" clip-rule="evenodd" d="M26.8506 1674.28H34.3221V1681.72H26.8506V1674.28Z" fill="#F1F6FC"/>
<path fill-rule="evenodd" clip-rule="evenodd" d="M38.3789 1674.28H45.8505V1681.72H38.3789V1674.28Z" fill="#F1F6FC"/>
<path fill-rule="evenodd" clip-rule="evenodd" d="M49.9365 1674.28H57.4081V1681.72H49.9365V1674.28Z" fill="#F1F6FC"/>
<path fill-rule="evenodd" clip-rule="evenodd" d="M61.4648 1674.28H68.9364V1681.72H61.4648V1674.28Z" fill="#F1F6FC"/>
<path fill-rule="evenodd" clip-rule="evenodd" d="M84.5508 1674.28H92.0224V1681.72H84.5508V1674.28Z" fill="#F1F6FC"/>
<path fill-rule="evenodd" clip-rule="evenodd" d="M96.0791 1674.28H103.551V1681.72H96.0791V1674.28Z" fill="#F1F6FC"/>
<path fill-rule="evenodd" clip-rule="evenodd" d="M130.723 1674.28H138.165V1681.72H130.723V1674.28Z" fill="#F1F6FC"/>
<path fill-rule="evenodd" clip-rule="evenodd" d="M142.251 1674.28H149.722V1681.72H142.251V1674.28Z" fill="#F1F6FC"/>
<path fill-rule="evenodd" clip-rule="evenodd" d="M153.779 1674.28H161.251V1681.72H153.779V1674.28Z" fill="#F1F6FC"/>
<path fill-rule="evenodd" clip-rule="evenodd" d="M165.337 1674.28H172.808V1681.72H165.337V1674.28Z" fill="#F1F6FC"/>
<path fill-rule="evenodd" clip-rule="evenodd" d="M176.865 1674.28H184.337V1681.72H176.865V1674.28Z" fill="#F1F6FC"/>
<path fill-rule="evenodd" clip-rule="evenodd" d="M188.423 1674.28H195.865V1681.72H188.423V1674.28Z" fill="#F1F6FC"/>
<path fill-rule="evenodd" clip-rule="evenodd" d="M199.951 1674.28H207.423V1681.72H199.951V1674.28Z" fill="#F1F6FC"/>
<path fill-rule="evenodd" clip-rule="evenodd" d="M211.479 1674.28H218.951V1681.72H211.479V1674.28Z" fill="#F1F6FC"/>
<path fill-rule="evenodd" clip-rule="evenodd" d="M223.037 1674.28H230.509V1681.72H223.037V1674.28Z" fill="#F1F6FC"/>
<path fill-rule="evenodd" clip-rule="evenodd" d="M257.651 1674.28H265.123V1681.72H257.651V1674.28Z" fill="#F1F6FC"/>
<path fill-rule="evenodd" clip-rule="evenodd" d="M269.18 1674.28H276.651V1681.72H269.18V1674.28Z" fill="#F1F6FC"/>
<path fill-rule="evenodd" clip-rule="evenodd" d="M280.737 1674.28H288.209V1681.72H280.737V1674.28Z" fill="#F1F6FC"/>
<path fill-rule="evenodd" clip-rule="evenodd" d="M303.823 1674.28H311.266V1681.72H303.823V1674.28Z" fill="#F1F6FC"/>
<path fill-rule="evenodd" clip-rule="evenodd" d="M315.352 1674.28H322.823V1681.72H315.352V1674.28Z" fill="#F1F6FC"/>
<path fill-rule="evenodd" clip-rule="evenodd" d="M326.88 1674.28H334.351V1681.72H326.88V1674.28Z" fill="#F1F6FC"/>
<path fill-rule="evenodd" clip-rule="evenodd" d="M3.76465 1686.16H11.2362V1693.6H3.76465V1686.16Z" fill="#F1F6FC"/>
<path fill-rule="evenodd" clip-rule="evenodd" d="M26.8506 1686.16H34.3221V1693.6H26.8506V1686.16Z" fill="#F1F6FC"/>
<path fill-rule="evenodd" clip-rule="evenodd" d="M38.3789 1686.16H45.8505V1693.6H38.3789V1686.16Z" fill="#F1F6FC"/>
<path fill-rule="evenodd" clip-rule="evenodd" d="M61.4648 1686.16H68.9364V1693.6H61.4648V1686.16Z" fill="#F1F6FC"/>
<path fill-rule="evenodd" clip-rule="evenodd" d="M72.9932 1686.16H80.4647V1693.6H72.9932V1686.16Z" fill="#F1F6FC"/>
<path fill-rule="evenodd" clip-rule="evenodd" d="M120.361 1687.32H125.44V1692.43H120.361V1687.32Z" fill="#F1F6FC"/>
<path fill-rule="evenodd" clip-rule="evenodd" d="M130.723 1686.16H138.165V1693.6H130.723V1686.16Z" fill="#F1F6FC"/>
<path fill-rule="evenodd" clip-rule="evenodd" d="M176.865 1686.16H184.337V1693.6H176.865V1686.16Z" fill="#F1F6FC"/>
<path fill-rule="evenodd" clip-rule="evenodd" d="M199.951 1686.16H207.423V1693.6H199.951V1686.16Z" fill="#F1F6FC"/>
<path fill-rule="evenodd" clip-rule="evenodd" d="M223.037 1686.16H230.509V1693.6H223.037V1686.16Z" fill="#F1F6FC"/>
<path fill-rule="evenodd" clip-rule="evenodd" d="M269.18 1686.16H276.651V1693.6H269.18V1686.16Z" fill="#F1F6FC"/>
<path fill-rule="evenodd" clip-rule="evenodd" d="M292.266 1686.16H299.737V1693.6H292.266V1686.16Z" fill="#F1F6FC"/>
<path fill-rule="evenodd" clip-rule="evenodd" d="M315.352 1686.16H322.823V1693.6H315.352V1686.16Z" fill="#F1F6FC"/>
<path fill-rule="evenodd" clip-rule="evenodd" d="M338.438 1686.16H345.909V1693.6H338.438V1686.16Z" fill="#F1F6FC"/>
<path fill-rule="evenodd" clip-rule="evenodd" d="M349.966 1686.16H357.437V1693.6H349.966V1686.16Z" fill="#F1F6FC"/>
<path fill-rule="evenodd" clip-rule="evenodd" d="M154.801 1687.32H159.908V1692.43H154.801V1687.32Z" fill="#F1F6FC"/>
<path fill-rule="evenodd" clip-rule="evenodd" d="M97.2754 1687.32H102.354V1692.43H97.2754V1687.32Z" fill="#F1F6FC"/>
<path fill-rule="evenodd" clip-rule="evenodd" d="M51.6289 1687.85H55.6857V1691.91H51.6289V1687.85Z" fill="#F1F6FC"/>
<path fill-rule="evenodd" clip-rule="evenodd" d="M39.9258 1664.26H43.9826V1668.32H39.9258V1664.26Z" fill="#F1F6FC"/>
<path fill-rule="evenodd" clip-rule="evenodd" d="M17.1611 1652.38H21.2471V1656.44H17.1611V1652.38Z" fill="#F1F6FC"/>
<path fill-rule="evenodd" clip-rule="evenodd" d="M5.45703 1652.38H9.54304V1656.44H5.45703V1652.38Z" fill="#F1F6FC"/>
<path fill-rule="evenodd" clip-rule="evenodd" d="M189.94 1687.32H193.997V1691.41H189.94V1687.32Z" fill="#F1F6FC"/>
<path fill-rule="evenodd" clip-rule="evenodd" d="M234.069 1687.32H238.126V1691.41H234.069V1687.32Z" fill="#F1F6FC"/>
<path fill-rule="evenodd" clip-rule="evenodd" d="M259.169 1687.32H263.255V1691.41H259.169V1687.32Z" fill="#F1F6FC"/>
<path fill-rule="evenodd" clip-rule="evenodd" d="M328.077 1663.56H332.134V1667.65H328.077V1663.56Z" fill="#F1F6FC"/>
<path fill-rule="evenodd" clip-rule="evenodd" d="M339.605 1640.15H343.691V1644.21H339.605V1640.15Z" fill="#F1F6FC"/>
<path fill-rule="evenodd" clip-rule="evenodd" d="M40.7725 1715H43.4867V1712.28H40.7725V1715Z" fill="#F1F6FC"/>
<path fill-rule="evenodd" clip-rule="evenodd" d="M39.9258 1703.61H43.9826V1699.56H39.9258V1703.61Z" fill="#F1F6FC"/>
<path fill-rule="evenodd" clip-rule="evenodd" d="M75.3867 1702.62H78.101V1699.91H75.3867V1702.62Z" fill="#F1F6FC"/>
<path fill-rule="evenodd" clip-rule="evenodd" d="M63.5078 1703.61H67.5646V1699.56H63.5078V1703.61Z" fill="#F1F6FC"/>
<path fill-rule="evenodd" clip-rule="evenodd" d="M98.7939 1702.62H101.508V1699.91H98.7939V1702.62Z" fill="#F1F6FC"/>
<path fill-rule="evenodd" clip-rule="evenodd" d="M16.8398 1703.61H20.8967V1699.56H16.8398V1703.61Z" fill="#F1F6FC"/>
<path fill-rule="evenodd" clip-rule="evenodd" d="M132.562 1703.61H136.648V1699.56H132.562V1703.61Z" fill="#F1F6FC"/>
<path fill-rule="evenodd" clip-rule="evenodd" d="M178.383 1703.61H182.469V1699.56H178.383V1703.61Z" fill="#F1F6FC"/>
<path fill-rule="evenodd" clip-rule="evenodd" d="M215.216 1715H217.93V1712.28H215.216V1715Z" fill="#F1F6FC"/>
<path fill-rule="evenodd" clip-rule="evenodd" d="M214.369 1703.61H218.455V1699.56H214.369V1703.61Z" fill="#F1F6FC"/>
<path fill-rule="evenodd" clip-rule="evenodd" d="M261.037 1703.47H263.751V1700.75H261.037V1703.47Z" fill="#F1F6FC"/>
<path fill-rule="evenodd" clip-rule="evenodd" d="M270.377 1703.61H274.434V1699.56H270.377V1703.61Z" fill="#F1F6FC"/>
<path fill-rule="evenodd" clip-rule="evenodd" d="M316.869 1703.61H320.955V1699.56H316.869V1703.61Z" fill="#F1F6FC"/>
<path fill-rule="evenodd" clip-rule="evenodd" d="M351.163 1703.61H355.22V1699.56H351.163V1703.61Z" fill="#F1F6FC"/>
<path fill-rule="evenodd" clip-rule="evenodd" d="M247.466 1703.47H250.18V1700.75H247.466V1703.47Z" fill="#F1F6FC"/>
<path fill-rule="evenodd" clip-rule="evenodd" d="M364.062 1628.59H367.798V1632.33H364.062V1628.59Z" fill="#F1F6FC"/>
<path fill-rule="evenodd" clip-rule="evenodd" d="M396.81 1626.73H404.281V1634.2H396.81V1626.73Z" fill="#F1F6FC"/>
<path fill-rule="evenodd" clip-rule="evenodd" d="M408.338 1626.73H415.81V1634.2H408.338V1626.73Z" fill="#F1F6FC"/>
<path fill-rule="evenodd" clip-rule="evenodd" d="M431.424 1626.73H438.895V1634.2H431.424V1626.73Z" fill="#F1F6FC"/>
<path fill-rule="evenodd" clip-rule="evenodd" d="M442.952 1626.73H450.424V1634.2H442.952V1626.73Z" fill="#F1F6FC"/>
<path fill-rule="evenodd" clip-rule="evenodd" d="M456.027 1628.27H460.434V1632.68H456.027V1628.27Z" fill="#F1F6FC"/>
<path fill-rule="evenodd" clip-rule="evenodd" d="M466.038 1626.73H473.51V1634.2H466.038V1626.73Z" fill="#F1F6FC"/>
<path fill-rule="evenodd" clip-rule="evenodd" d="M512.21 1626.73H519.682V1634.2H512.21V1626.73Z" fill="#F1F6FC"/>
<path fill-rule="evenodd" clip-rule="evenodd" d="M523.738 1626.73H531.21V1634.2H523.738V1626.73Z" fill="#F1F6FC"/>
<path fill-rule="evenodd" clip-rule="evenodd" d="M535.296 1626.73H542.768V1634.2H535.296V1626.73Z" fill="#F1F6FC"/>
<path fill-rule="evenodd" clip-rule="evenodd" d="M558.382 1626.73H565.824V1634.2H558.382V1626.73Z" fill="#F1F6FC"/>
<path fill-rule="evenodd" clip-rule="evenodd" d="M581.438 1626.73H588.91V1634.2H581.438V1626.73Z" fill="#F1F6FC"/>
<path fill-rule="evenodd" clip-rule="evenodd" d="M592.996 1626.73H600.468V1634.2H592.996V1626.73Z" fill="#F1F6FC"/>
<path fill-rule="evenodd" clip-rule="evenodd" d="M604.524 1626.73H611.996V1634.2H604.524V1626.73Z" fill="#F1F6FC"/>
<path fill-rule="evenodd" clip-rule="evenodd" d="M616.082 1626.73H623.525V1634.2H616.082V1626.73Z" fill="#F1F6FC"/>
<path fill-rule="evenodd" clip-rule="evenodd" d="M629.303 1628.45H633.389V1632.51H629.303V1628.45Z" fill="#F1F6FC"/>
<path fill-rule="evenodd" clip-rule="evenodd" d="M650.696 1626.73H658.168V1634.2H650.696V1626.73Z" fill="#F1F6FC"/>
<path fill-rule="evenodd" clip-rule="evenodd" d="M685.311 1626.73H692.782V1634.2H685.311V1626.73Z" fill="#F1F6FC"/>
<path fill-rule="evenodd" clip-rule="evenodd" d="M696.839 1626.73H704.31V1634.2H696.839V1626.73Z" fill="#F1F6FC"/>
<path fill-rule="evenodd" clip-rule="evenodd" d="M708.396 1626.73H715.868V1634.2H708.396V1626.73Z" fill="#F1F6FC"/>
<path fill-rule="evenodd" clip-rule="evenodd" d="M362.195 1638.61H369.667V1646.08H362.195V1638.61Z" fill="#F1F6FC"/>
<path fill-rule="evenodd" clip-rule="evenodd" d="M373.724 1638.61H381.195V1646.08H373.724V1638.61Z" fill="#F1F6FC"/>
<path fill-rule="evenodd" clip-rule="evenodd" d="M385.252 1638.61H392.724V1646.08H385.252V1638.61Z" fill="#F1F6FC"/>
<path fill-rule="evenodd" clip-rule="evenodd" d="M397.306 1639.13H403.756V1645.58H397.306V1639.13Z" fill="#F1F6FC"/>
<path fill-rule="evenodd" clip-rule="evenodd" d="M410.206 1640.47H413.942V1644.21H410.206V1640.47Z" fill="#F1F6FC"/>
<path fill-rule="evenodd" clip-rule="evenodd" d="M419.896 1638.61H427.367V1646.08H419.896V1638.61Z" fill="#F1F6FC"/>
<path fill-rule="evenodd" clip-rule="evenodd" d="M431.424 1638.61H438.895V1646.08H431.424V1638.61Z" fill="#F1F6FC"/>
<path fill-rule="evenodd" clip-rule="evenodd" d="M454.51 1638.61H461.981V1646.08H454.51V1638.61Z" fill="#F1F6FC"/>
<path fill-rule="evenodd" clip-rule="evenodd" d="M466.038 1638.61H473.51V1646.08H466.038V1638.61Z" fill="#F1F6FC"/>
<path fill-rule="evenodd" clip-rule="evenodd" d="M477.596 1638.61H485.067V1646.08H477.596V1638.61Z" fill="#F1F6FC"/>
<path fill-rule="evenodd" clip-rule="evenodd" d="M490.495 1639.98H495.223V1644.74H490.495V1639.98Z" fill="#F1F6FC"/>
<path fill-rule="evenodd" clip-rule="evenodd" d="M500.682 1638.61H508.124V1646.08H500.682V1638.61Z" fill="#F1F6FC"/>
<path fill-rule="evenodd" clip-rule="evenodd" d="M513.902 1640.33H517.988V1644.39H513.902V1640.33Z" fill="#F1F6FC"/>
<path fill-rule="evenodd" clip-rule="evenodd" d="M523.738 1638.61H531.21V1646.08H523.738V1638.61Z" fill="#F1F6FC"/>
<path fill-rule="evenodd" clip-rule="evenodd" d="M535.296 1638.61H542.768V1646.08H535.296V1638.61Z" fill="#F1F6FC"/>
<path fill-rule="evenodd" clip-rule="evenodd" d="M546.824 1638.61H554.296V1646.08H546.824V1638.61Z" fill="#F1F6FC"/>
<path fill-rule="evenodd" clip-rule="evenodd" d="M558.382 1638.61H565.824V1646.08H558.382V1638.61Z" fill="#F1F6FC"/>
<path fill-rule="evenodd" clip-rule="evenodd" d="M569.91 1638.61H577.382V1646.08H569.91V1638.61Z" fill="#F1F6FC"/>
<path fill-rule="evenodd" clip-rule="evenodd" d="M581.438 1638.61H588.91V1646.08H581.438V1638.61Z" fill="#F1F6FC"/>
<path fill-rule="evenodd" clip-rule="evenodd" d="M616.082 1638.61H623.525V1646.08H616.082V1638.61Z" fill="#F1F6FC"/>
<path fill-rule="evenodd" clip-rule="evenodd" d="M627.61 1638.61H635.082V1646.08H627.61V1638.61Z" fill="#F1F6FC"/>
<path fill-rule="evenodd" clip-rule="evenodd" d="M639.139 1638.61H646.61V1646.08H639.139V1638.61Z" fill="#F1F6FC"/>
<path fill-rule="evenodd" clip-rule="evenodd" d="M650.696 1638.61H658.168V1646.08H650.696V1638.61Z" fill="#F1F6FC"/>
<path fill-rule="evenodd" clip-rule="evenodd" d="M664.268 1640.65H667.653V1644.06H664.268V1640.65Z" fill="#F1F6FC"/>
<path fill-rule="evenodd" clip-rule="evenodd" d="M673.782 1638.61H681.225V1646.08H673.782V1638.61Z" fill="#F1F6FC"/>
<path fill-rule="evenodd" clip-rule="evenodd" d="M685.311 1638.61H692.782V1646.08H685.311V1638.61Z" fill="#F1F6FC"/>
<path fill-rule="evenodd" clip-rule="evenodd" d="M708.396 1638.61H715.868V1646.08H708.396V1638.61Z" fill="#F1F6FC"/>
<path fill-rule="evenodd" clip-rule="evenodd" d="M385.252 1650.52H392.724V1657.96H385.252V1650.52Z" fill="#F1F6FC"/>
<path fill-rule="evenodd" clip-rule="evenodd" d="M399.173 1652.88H401.887V1655.6H399.173V1652.88Z" fill="#F1F6FC"/>
<path fill-rule="evenodd" clip-rule="evenodd" d="M408.338 1650.52H415.81V1657.96H408.338V1650.52Z" fill="#F1F6FC"/>
<path fill-rule="evenodd" clip-rule="evenodd" d="M419.896 1650.52H427.367V1657.96H419.896V1650.52Z" fill="#F1F6FC"/>
<path fill-rule="evenodd" clip-rule="evenodd" d="M432.795 1651.86H437.523V1656.62H432.795V1651.86Z" fill="#F1F6FC"/>
<path fill-rule="evenodd" clip-rule="evenodd" d="M445.17 1652.71H448.235V1655.77H445.17V1652.71Z" fill="#F1F6FC"/>
<path fill-rule="evenodd" clip-rule="evenodd" d="M455.852 1651.86H460.609V1656.62H455.852V1651.86Z" fill="#F1F6FC"/>
<path fill-rule="evenodd" clip-rule="evenodd" d="M466.038 1650.52H473.51V1657.96H466.038V1650.52Z" fill="#F1F6FC"/>
<path fill-rule="evenodd" clip-rule="evenodd" d="M477.596 1650.52H485.067V1657.96H477.596V1650.52Z" fill="#F1F6FC"/>
<path fill-rule="evenodd" clip-rule="evenodd" d="M489.124 1650.52H496.596V1657.96H489.124V1650.52Z" fill="#F1F6FC"/>
<path fill-rule="evenodd" clip-rule="evenodd" d="M500.682 1650.52H508.124V1657.96H500.682V1650.52Z" fill="#F1F6FC"/>
<path fill-rule="evenodd" clip-rule="evenodd" d="M535.296 1650.52H542.768V1657.96H535.296V1650.52Z" fill="#F1F6FC"/>
<path fill-rule="evenodd" clip-rule="evenodd" d="M546.824 1650.52H554.296V1657.96H546.824V1650.52Z" fill="#F1F6FC"/>
<path fill-rule="evenodd" clip-rule="evenodd" d="M581.438 1650.52H588.91V1657.96H581.438V1650.52Z" fill="#F1F6FC"/>
<path fill-rule="evenodd" clip-rule="evenodd" d="M592.996 1650.52H600.468V1657.96H592.996V1650.52Z" fill="#F1F6FC"/>
<path fill-rule="evenodd" clip-rule="evenodd" d="M604.524 1650.52H611.996V1657.96H604.524V1650.52Z" fill="#F1F6FC"/>
<path fill-rule="evenodd" clip-rule="evenodd" d="M616.082 1650.52H623.525V1657.96H616.082V1650.52Z" fill="#F1F6FC"/>
<path fill-rule="evenodd" clip-rule="evenodd" d="M650.696 1650.52H658.168V1657.96H650.696V1650.52Z" fill="#F1F6FC"/>
<path fill-rule="evenodd" clip-rule="evenodd" d="M662.225 1650.52H669.696V1657.96H662.225V1650.52Z" fill="#F1F6FC"/>
<path fill-rule="evenodd" clip-rule="evenodd" d="M674.949 1651.68H680.057V1656.79H674.949V1651.68Z" fill="#F1F6FC"/>
<path fill-rule="evenodd" clip-rule="evenodd" d="M685.311 1650.52H692.782V1657.96H685.311V1650.52Z" fill="#F1F6FC"/>
<path fill-rule="evenodd" clip-rule="evenodd" d="M696.839 1650.52H704.31V1657.96H696.839V1650.52Z" fill="#F1F6FC"/>
<path fill-rule="evenodd" clip-rule="evenodd" d="M364.384 1664.59H367.448V1667.65H364.384V1664.59Z" fill="#F1F6FC"/>
<path fill-rule="evenodd" clip-rule="evenodd" d="M373.724 1662.4H381.195V1669.84H373.724V1662.4Z" fill="#F1F6FC"/>
<path fill-rule="evenodd" clip-rule="evenodd" d="M419.896 1662.4H427.367V1669.84H419.896V1662.4Z" fill="#F1F6FC"/>
<path fill-rule="evenodd" clip-rule="evenodd" d="M431.424 1662.4H438.895V1669.84H431.424V1662.4Z" fill="#F1F6FC"/>
<path fill-rule="evenodd" clip-rule="evenodd" d="M442.952 1662.4H450.424V1669.84H442.952V1662.4Z" fill="#F1F6FC"/>
<path fill-rule="evenodd" clip-rule="evenodd" d="M489.124 1662.4H496.596V1669.84H489.124V1662.4Z" fill="#F1F6FC"/>
<path fill-rule="evenodd" clip-rule="evenodd" d="M512.21 1662.4H519.682V1669.84H512.21V1662.4Z" fill="#F1F6FC"/>
<path fill-rule="evenodd" clip-rule="evenodd" d="M535.296 1662.4H542.768V1669.84H535.296V1662.4Z" fill="#F1F6FC"/>
<path fill-rule="evenodd" clip-rule="evenodd" d="M546.824 1662.4H554.296V1669.84H546.824V1662.4Z" fill="#F1F6FC"/>
<path fill-rule="evenodd" clip-rule="evenodd" d="M569.91 1662.4H577.382V1669.84H569.91V1662.4Z" fill="#F1F6FC"/>
<path fill-rule="evenodd" clip-rule="evenodd" d="M581.438 1662.4H588.91V1669.84H581.438V1662.4Z" fill="#F1F6FC"/>
<path fill-rule="evenodd" clip-rule="evenodd" d="M592.996 1662.4H600.468V1669.84H592.996V1662.4Z" fill="#F1F6FC"/>
<path fill-rule="evenodd" clip-rule="evenodd" d="M616.082 1662.4H623.525V1669.84H616.082V1662.4Z" fill="#F1F6FC"/>
<path fill-rule="evenodd" clip-rule="evenodd" d="M627.61 1662.4H635.082V1669.84H627.61V1662.4Z" fill="#F1F6FC"/>
<path fill-rule="evenodd" clip-rule="evenodd" d="M650.696 1662.4H658.168V1669.84H650.696V1662.4Z" fill="#F1F6FC"/>
<path fill-rule="evenodd" clip-rule="evenodd" d="M662.225 1662.4H669.696V1669.84H662.225V1662.4Z" fill="#F1F6FC"/>
<path fill-rule="evenodd" clip-rule="evenodd" d="M673.782 1662.4H681.225V1669.84H673.782V1662.4Z" fill="#F1F6FC"/>
<path fill-rule="evenodd" clip-rule="evenodd" d="M696.839 1662.4H704.31V1669.84H696.839V1662.4Z" fill="#F1F6FC"/>
<path fill-rule="evenodd" clip-rule="evenodd" d="M708.396 1662.4H715.868V1669.84H708.396V1662.4Z" fill="#F1F6FC"/>
<path fill-rule="evenodd" clip-rule="evenodd" d="M362.195 1674.28H369.667V1681.72H362.195V1674.28Z" fill="#F1F6FC"/>
<path fill-rule="evenodd" clip-rule="evenodd" d="M373.724 1674.28H381.195V1681.72H373.724V1674.28Z" fill="#F1F6FC"/>
<path fill-rule="evenodd" clip-rule="evenodd" d="M385.252 1674.28H392.724V1681.72H385.252V1674.28Z" fill="#F1F6FC"/>
<path fill-rule="evenodd" clip-rule="evenodd" d="M396.81 1674.28H404.281V1681.72H396.81V1674.28Z" fill="#F1F6FC"/>
<path fill-rule="evenodd" clip-rule="evenodd" d="M408.338 1674.28H415.81V1681.72H408.338V1674.28Z" fill="#F1F6FC"/>
<path fill-rule="evenodd" clip-rule="evenodd" d="M419.896 1674.28H427.367V1681.72H419.896V1674.28Z" fill="#F1F6FC"/>
<path fill-rule="evenodd" clip-rule="evenodd" d="M442.952 1674.28H450.424V1681.72H442.952V1674.28Z" fill="#F1F6FC"/>
<path fill-rule="evenodd" clip-rule="evenodd" d="M454.51 1674.28H461.981V1681.72H454.51V1674.28Z" fill="#F1F6FC"/>
<path fill-rule="evenodd" clip-rule="evenodd" d="M489.124 1674.28H496.596V1681.72H489.124V1674.28Z" fill="#F1F6FC"/>
<path fill-rule="evenodd" clip-rule="evenodd" d="M500.682 1674.28H508.124V1681.72H500.682V1674.28Z" fill="#F1F6FC"/>
<path fill-rule="evenodd" clip-rule="evenodd" d="M512.21 1674.28H519.682V1681.72H512.21V1674.28Z" fill="#F1F6FC"/>
<path fill-rule="evenodd" clip-rule="evenodd" d="M523.738 1674.28H531.21V1681.72H523.738V1674.28Z" fill="#F1F6FC"/>
<path fill-rule="evenodd" clip-rule="evenodd" d="M535.296 1674.28H542.768V1681.72H535.296V1674.28Z" fill="#F1F6FC"/>
<path fill-rule="evenodd" clip-rule="evenodd" d="M546.824 1674.28H554.296V1681.72H546.824V1674.28Z" fill="#F1F6FC"/>
<path fill-rule="evenodd" clip-rule="evenodd" d="M558.382 1674.28H565.824V1681.72H558.382V1674.28Z" fill="#F1F6FC"/>
<path fill-rule="evenodd" clip-rule="evenodd" d="M569.91 1674.28H577.382V1681.72H569.91V1674.28Z" fill="#F1F6FC"/>
<path fill-rule="evenodd" clip-rule="evenodd" d="M581.438 1674.28H588.91V1681.72H581.438V1674.28Z" fill="#F1F6FC"/>
<path fill-rule="evenodd" clip-rule="evenodd" d="M616.082 1674.28H623.525V1681.72H616.082V1674.28Z" fill="#F1F6FC"/>
<path fill-rule="evenodd" clip-rule="evenodd" d="M627.61 1674.28H635.082V1681.72H627.61V1674.28Z" fill="#F1F6FC"/>
<path fill-rule="evenodd" clip-rule="evenodd" d="M639.139 1674.28H646.61V1681.72H639.139V1674.28Z" fill="#F1F6FC"/>
<path fill-rule="evenodd" clip-rule="evenodd" d="M662.225 1674.28H669.696V1681.72H662.225V1674.28Z" fill="#F1F6FC"/>
<path fill-rule="evenodd" clip-rule="evenodd" d="M673.782 1674.28H681.225V1681.72H673.782V1674.28Z" fill="#F1F6FC"/>
<path fill-rule="evenodd" clip-rule="evenodd" d="M685.311 1674.28H692.782V1681.72H685.311V1674.28Z" fill="#F1F6FC"/>
<path fill-rule="evenodd" clip-rule="evenodd" d="M362.195 1686.16H369.667V1693.6H362.195V1686.16Z" fill="#F1F6FC"/>
<path fill-rule="evenodd" clip-rule="evenodd" d="M385.252 1686.16H392.724V1693.6H385.252V1686.16Z" fill="#F1F6FC"/>
<path fill-rule="evenodd" clip-rule="evenodd" d="M396.81 1686.16H404.281V1693.6H396.81V1686.16Z" fill="#F1F6FC"/>
<path fill-rule="evenodd" clip-rule="evenodd" d="M419.896 1686.16H427.367V1693.6H419.896V1686.16Z" fill="#F1F6FC"/>
<path fill-rule="evenodd" clip-rule="evenodd" d="M431.424 1686.16H438.895V1693.6H431.424V1686.16Z" fill="#F1F6FC"/>
<path fill-rule="evenodd" clip-rule="evenodd" d="M478.763 1687.32H483.87V1692.43H478.763V1687.32Z" fill="#F1F6FC"/>
<path fill-rule="evenodd" clip-rule="evenodd" d="M489.124 1686.16H496.596V1693.6H489.124V1686.16Z" fill="#F1F6FC"/>
<path fill-rule="evenodd" clip-rule="evenodd" d="M535.296 1686.16H542.768V1693.6H535.296V1686.16Z" fill="#F1F6FC"/>
<path fill-rule="evenodd" clip-rule="evenodd" d="M558.382 1686.16H565.824V1693.6H558.382V1686.16Z" fill="#F1F6FC"/>
<path fill-rule="evenodd" clip-rule="evenodd" d="M581.438 1686.16H588.91V1693.6H581.438V1686.16Z" fill="#F1F6FC"/>
<path fill-rule="evenodd" clip-rule="evenodd" d="M627.61 1686.16H635.082V1693.6H627.61V1686.16Z" fill="#F1F6FC"/>
<path fill-rule="evenodd" clip-rule="evenodd" d="M650.696 1686.16H658.168V1693.6H650.696V1686.16Z" fill="#F1F6FC"/>
<path fill-rule="evenodd" clip-rule="evenodd" d="M673.782 1686.16H681.225V1693.6H673.782V1686.16Z" fill="#F1F6FC"/>
<path fill-rule="evenodd" clip-rule="evenodd" d="M696.839 1686.16H704.31V1693.6H696.839V1686.16Z" fill="#F1F6FC"/>
<path fill-rule="evenodd" clip-rule="evenodd" d="M708.396 1686.16H715.868V1693.6H708.396V1686.16Z" fill="#F1F6FC"/>
<path fill-rule="evenodd" clip-rule="evenodd" d="M513.231 1687.32H518.31V1692.43H513.231V1687.32Z" fill="#F1F6FC"/>
<path fill-rule="evenodd" clip-rule="evenodd" d="M455.706 1687.32H460.784V1692.43H455.706V1687.32Z" fill="#F1F6FC"/>
<path fill-rule="evenodd" clip-rule="evenodd" d="M410.03 1687.85H414.116V1691.91H410.03V1687.85Z" fill="#F1F6FC"/>
<path fill-rule="evenodd" clip-rule="evenodd" d="M398.327 1664.26H402.413V1668.32H398.327V1664.26Z" fill="#F1F6FC"/>
<path fill-rule="evenodd" clip-rule="evenodd" d="M375.592 1652.38H379.678V1656.44H375.592V1652.38Z" fill="#F1F6FC"/>
<path fill-rule="evenodd" clip-rule="evenodd" d="M363.888 1652.38H367.945V1656.44H363.888V1652.38Z" fill="#F1F6FC"/>
<path fill-rule="evenodd" clip-rule="evenodd" d="M548.342 1687.32H552.428V1691.41H548.342V1687.32Z" fill="#F1F6FC"/>
<path fill-rule="evenodd" clip-rule="evenodd" d="M592.471 1687.32H596.557V1691.41H592.471V1687.32Z" fill="#F1F6FC"/>
<path fill-rule="evenodd" clip-rule="evenodd" d="M617.6 1687.32H621.656V1691.41H617.6V1687.32Z" fill="#F1F6FC"/>
<path fill-rule="evenodd" clip-rule="evenodd" d="M686.507 1663.56H690.564V1667.65H686.507V1663.56Z" fill="#F1F6FC"/>
<path fill-rule="evenodd" clip-rule="evenodd" d="M698.035 1640.15H702.092V1644.21H698.035V1640.15Z" fill="#F1F6FC"/>
<path fill-rule="evenodd" clip-rule="evenodd" d="M399.173 1715H401.887V1712.28H399.173V1715Z" fill="#F1F6FC"/>
<path fill-rule="evenodd" clip-rule="evenodd" d="M398.327 1703.61H402.413V1699.56H398.327V1703.61Z" fill="#F1F6FC"/>
<path fill-rule="evenodd" clip-rule="evenodd" d="M433.788 1702.62H436.502V1699.91H433.788V1702.62Z" fill="#F1F6FC"/>
<path fill-rule="evenodd" clip-rule="evenodd" d="M421.909 1703.61H425.995V1699.56H421.909V1703.61Z" fill="#F1F6FC"/>
<path fill-rule="evenodd" clip-rule="evenodd" d="M457.224 1702.62H459.938V1699.91H457.224V1702.62Z" fill="#F1F6FC"/>
<path fill-rule="evenodd" clip-rule="evenodd" d="M375.241 1703.61H379.327V1699.56H375.241V1703.61Z" fill="#F1F6FC"/>
<path fill-rule="evenodd" clip-rule="evenodd" d="M490.992 1703.61H495.078V1699.56H490.992V1703.61Z" fill="#F1F6FC"/>
<path fill-rule="evenodd" clip-rule="evenodd" d="M536.813 1703.61H540.87V1699.56H536.813V1703.61Z" fill="#F1F6FC"/>
<path fill-rule="evenodd" clip-rule="evenodd" d="M573.646 1715H576.36V1712.28H573.646V1715Z" fill="#F1F6FC"/>
<path fill-rule="evenodd" clip-rule="evenodd" d="M572.8 1703.61H576.857V1699.56H572.8V1703.61Z" fill="#F1F6FC"/>
<path fill-rule="evenodd" clip-rule="evenodd" d="M619.468 1703.47H622.182V1700.75H619.468V1703.47Z" fill="#F1F6FC"/>
<path fill-rule="evenodd" clip-rule="evenodd" d="M628.807 1703.61H632.863V1699.56H628.807V1703.61Z" fill="#F1F6FC"/>
<path fill-rule="evenodd" clip-rule="evenodd" d="M675.3 1703.61H679.357V1699.56H675.3V1703.61Z" fill="#F1F6FC"/>
<path fill-rule="evenodd" clip-rule="evenodd" d="M709.563 1703.61H713.649V1699.56H709.563V1703.61Z" fill="#F1F6FC"/>
<path fill-rule="evenodd" clip-rule="evenodd" d="M605.896 1703.47H608.611V1700.75H605.896V1703.47Z" fill="#F1F6FC"/>
<path fill-rule="evenodd" clip-rule="evenodd" d="M721.764 1628.59H725.5V1632.33H721.764V1628.59Z" fill="#F1F6FC"/>
<path fill-rule="evenodd" clip-rule="evenodd" d="M754.51 1626.73H761.981V1634.2H754.51V1626.73Z" fill="#F1F6FC"/>
<path fill-rule="evenodd" clip-rule="evenodd" d="M766.067 1626.73H773.539V1634.2H766.067V1626.73Z" fill="#F1F6FC"/>
<path fill-rule="evenodd" clip-rule="evenodd" d="M789.153 1626.73H796.596V1634.2H789.153V1626.73Z" fill="#F1F6FC"/>
<path fill-rule="evenodd" clip-rule="evenodd" d="M800.682 1626.73H808.153V1634.2H800.682V1626.73Z" fill="#F1F6FC"/>
<path fill-rule="evenodd" clip-rule="evenodd" d="M813.757 1628.27H818.164V1632.68H813.757V1628.27Z" fill="#F1F6FC"/>
<path fill-rule="evenodd" clip-rule="evenodd" d="M823.768 1626.73H831.239V1634.2H823.768V1626.73Z" fill="#F1F6FC"/>
<path fill-rule="evenodd" clip-rule="evenodd" d="M869.911 1626.73H877.382V1634.2H869.911V1626.73Z" fill="#F1F6FC"/>
<path fill-rule="evenodd" clip-rule="evenodd" d="M881.468 1626.73H888.939V1634.2H881.468V1626.73Z" fill="#F1F6FC"/>
<path fill-rule="evenodd" clip-rule="evenodd" d="M892.996 1626.73H900.467V1634.2H892.996V1626.73Z" fill="#F1F6FC"/>
<path fill-rule="evenodd" clip-rule="evenodd" d="M916.082 1626.73H923.554V1634.2H916.082V1626.73Z" fill="#F1F6FC"/>
<path fill-rule="evenodd" clip-rule="evenodd" d="M939.168 1626.73H946.64V1634.2H939.168V1626.73Z" fill="#F1F6FC"/>
<path fill-rule="evenodd" clip-rule="evenodd" d="M950.696 1626.73H958.168V1634.2H950.696V1626.73Z" fill="#F1F6FC"/>
<path fill-rule="evenodd" clip-rule="evenodd" d="M962.254 1626.73H969.696V1634.2H962.254V1626.73Z" fill="#F1F6FC"/>
<path fill-rule="evenodd" clip-rule="evenodd" d="M973.782 1626.73H981.254V1634.2H973.782V1626.73Z" fill="#F1F6FC"/>
<path fill-rule="evenodd" clip-rule="evenodd" d="M987.033 1628.45H991.09V1632.51H987.033V1628.45Z" fill="#F1F6FC"/>
<path fill-rule="evenodd" clip-rule="evenodd" d="M1008.4 1626.73H1015.87V1634.2H1008.4V1626.73Z" fill="#F1F6FC"/>
<path fill-rule="evenodd" clip-rule="evenodd" d="M1043.01 1626.73H1050.48V1634.2H1043.01V1626.73Z" fill="#F1F6FC"/>
<path fill-rule="evenodd" clip-rule="evenodd" d="M1054.57 1626.73H1062.04V1634.2H1054.57V1626.73Z" fill="#F1F6FC"/>
<path fill-rule="evenodd" clip-rule="evenodd" d="M1066.1 1626.73H1073.57V1634.2H1066.1V1626.73Z" fill="#F1F6FC"/>
<path fill-rule="evenodd" clip-rule="evenodd" d="M719.896 1638.61H727.367V1646.08H719.896V1638.61Z" fill="#F1F6FC"/>
<path fill-rule="evenodd" clip-rule="evenodd" d="M731.453 1638.61H738.895V1646.08H731.453V1638.61Z" fill="#F1F6FC"/>
<path fill-rule="evenodd" clip-rule="evenodd" d="M742.981 1638.61H750.453V1646.08H742.981V1638.61Z" fill="#F1F6FC"/>
<path fill-rule="evenodd" clip-rule="evenodd" d="M755.035 1639.13H761.485V1645.58H755.035V1639.13Z" fill="#F1F6FC"/>
<path fill-rule="evenodd" clip-rule="evenodd" d="M767.936 1640.47H771.672V1644.21H767.936V1640.47Z" fill="#F1F6FC"/>
<path fill-rule="evenodd" clip-rule="evenodd" d="M777.596 1638.61H785.067V1646.08H777.596V1638.61Z" fill="#F1F6FC"/>
<path fill-rule="evenodd" clip-rule="evenodd" d="M789.153 1638.61H796.596V1646.08H789.153V1638.61Z" fill="#F1F6FC"/>
<path fill-rule="evenodd" clip-rule="evenodd" d="M812.21 1638.61H819.682V1646.08H812.21V1638.61Z" fill="#F1F6FC"/>
<path fill-rule="evenodd" clip-rule="evenodd" d="M823.768 1638.61H831.239V1646.08H823.768V1638.61Z" fill="#F1F6FC"/>
<path fill-rule="evenodd" clip-rule="evenodd" d="M835.296 1638.61H842.767V1646.08H835.296V1638.61Z" fill="#F1F6FC"/>
<path fill-rule="evenodd" clip-rule="evenodd" d="M848.196 1639.98H852.954V1644.74H848.196V1639.98Z" fill="#F1F6FC"/>
<path fill-rule="evenodd" clip-rule="evenodd" d="M858.382 1638.61H865.853V1646.08H858.382V1638.61Z" fill="#F1F6FC"/>
<path fill-rule="evenodd" clip-rule="evenodd" d="M871.633 1640.33H875.689V1644.39H871.633V1640.33Z" fill="#F1F6FC"/>
<path fill-rule="evenodd" clip-rule="evenodd" d="M881.468 1638.61H888.939V1646.08H881.468V1638.61Z" fill="#F1F6FC"/>
<path fill-rule="evenodd" clip-rule="evenodd" d="M892.996 1638.61H900.467V1646.08H892.996V1638.61Z" fill="#F1F6FC"/>
<path fill-rule="evenodd" clip-rule="evenodd" d="M904.554 1638.61H911.996V1646.08H904.554V1638.61Z" fill="#F1F6FC"/>
<path fill-rule="evenodd" clip-rule="evenodd" d="M916.082 1638.61H923.554V1646.08H916.082V1638.61Z" fill="#F1F6FC"/>
<path fill-rule="evenodd" clip-rule="evenodd" d="M927.61 1638.61H935.082V1646.08H927.61V1638.61Z" fill="#F1F6FC"/>
<path fill-rule="evenodd" clip-rule="evenodd" d="M939.168 1638.61H946.64V1646.08H939.168V1638.61Z" fill="#F1F6FC"/>
<path fill-rule="evenodd" clip-rule="evenodd" d="M973.782 1638.61H981.254V1646.08H973.782V1638.61Z" fill="#F1F6FC"/>
<path fill-rule="evenodd" clip-rule="evenodd" d="M985.311 1638.61H992.782V1646.08H985.311V1638.61Z" fill="#F1F6FC"/>
<path fill-rule="evenodd" clip-rule="evenodd" d="M996.868 1638.61H1004.34V1646.08H996.868V1638.61Z" fill="#F1F6FC"/>
<path fill-rule="evenodd" clip-rule="evenodd" d="M1008.4 1638.61H1015.87V1646.08H1008.4V1638.61Z" fill="#F1F6FC"/>
<path fill-rule="evenodd" clip-rule="evenodd" d="M1021.97 1640.65H1025.38V1644.06H1021.97V1640.65Z" fill="#F1F6FC"/>
<path fill-rule="evenodd" clip-rule="evenodd" d="M1031.48 1638.61H1038.95V1646.08H1031.48V1638.61Z" fill="#F1F6FC"/>
<path fill-rule="evenodd" clip-rule="evenodd" d="M1043.01 1638.61H1050.48V1646.08H1043.01V1638.61Z" fill="#F1F6FC"/>
<path fill-rule="evenodd" clip-rule="evenodd" d="M1066.1 1638.61H1073.57V1646.08H1066.1V1638.61Z" fill="#F1F6FC"/>
<path fill-rule="evenodd" clip-rule="evenodd" d="M742.981 1650.52H750.453V1657.96H742.981V1650.52Z" fill="#F1F6FC"/>
<path fill-rule="evenodd" clip-rule="evenodd" d="M756.903 1652.88H759.618V1655.6H756.903V1652.88Z" fill="#F1F6FC"/>
<path fill-rule="evenodd" clip-rule="evenodd" d="M766.067 1650.52H773.539V1657.96H766.067V1650.52Z" fill="#F1F6FC"/>
<path fill-rule="evenodd" clip-rule="evenodd" d="M777.596 1650.52H785.067V1657.96H777.596V1650.52Z" fill="#F1F6FC"/>
<path fill-rule="evenodd" clip-rule="evenodd" d="M790.496 1651.86H795.253V1656.62H790.496V1651.86Z" fill="#F1F6FC"/>
<path fill-rule="evenodd" clip-rule="evenodd" d="M802.9 1652.71H805.936V1655.77H802.9V1652.71Z" fill="#F1F6FC"/>
<path fill-rule="evenodd" clip-rule="evenodd" d="M813.582 1651.86H818.339V1656.62H813.582V1651.86Z" fill="#F1F6FC"/>
<path fill-rule="evenodd" clip-rule="evenodd" d="M823.768 1650.52H831.239V1657.96H823.768V1650.52Z" fill="#F1F6FC"/>
<path fill-rule="evenodd" clip-rule="evenodd" d="M835.296 1650.52H842.767V1657.96H835.296V1650.52Z" fill="#F1F6FC"/>
<path fill-rule="evenodd" clip-rule="evenodd" d="M846.854 1650.52H854.296V1657.96H846.854V1650.52Z" fill="#F1F6FC"/>
<path fill-rule="evenodd" clip-rule="evenodd" d="M858.382 1650.52H865.853V1657.96H858.382V1650.52Z" fill="#F1F6FC"/>
<path fill-rule="evenodd" clip-rule="evenodd" d="M892.996 1650.52H900.467V1657.96H892.996V1650.52Z" fill="#F1F6FC"/>
<path fill-rule="evenodd" clip-rule="evenodd" d="M904.554 1650.52H911.996V1657.96H904.554V1650.52Z" fill="#F1F6FC"/>
<path fill-rule="evenodd" clip-rule="evenodd" d="M939.168 1650.52H946.64V1657.96H939.168V1650.52Z" fill="#F1F6FC"/>
<path fill-rule="evenodd" clip-rule="evenodd" d="M950.696 1650.52H958.168V1657.96H950.696V1650.52Z" fill="#F1F6FC"/>
<path fill-rule="evenodd" clip-rule="evenodd" d="M962.254 1650.52H969.696V1657.96H962.254V1650.52Z" fill="#F1F6FC"/>
<path fill-rule="evenodd" clip-rule="evenodd" d="M973.782 1650.52H981.254V1657.96H973.782V1650.52Z" fill="#F1F6FC"/>
<path fill-rule="evenodd" clip-rule="evenodd" d="M1008.4 1650.52H1015.87V1657.96H1008.4V1650.52Z" fill="#F1F6FC"/>
<path fill-rule="evenodd" clip-rule="evenodd" d="M1019.95 1650.52H1027.4V1657.96H1019.95V1650.52Z" fill="#F1F6FC"/>
<path fill-rule="evenodd" clip-rule="evenodd" d="M1032.68 1651.68H1037.76V1656.79H1032.68V1651.68Z" fill="#F1F6FC"/>
<path fill-rule="evenodd" clip-rule="evenodd" d="M1043.01 1650.52H1050.48V1657.96H1043.01V1650.52Z" fill="#F1F6FC"/>
<path fill-rule="evenodd" clip-rule="evenodd" d="M1054.57 1650.52H1062.04V1657.96H1054.57V1650.52Z" fill="#F1F6FC"/>
<path fill-rule="evenodd" clip-rule="evenodd" d="M722.113 1664.59H725.148V1667.65H722.113V1664.59Z" fill="#F1F6FC"/>
<path fill-rule="evenodd" clip-rule="evenodd" d="M731.453 1662.4H738.895V1669.84H731.453V1662.4Z" fill="#F1F6FC"/>
<path fill-rule="evenodd" clip-rule="evenodd" d="M777.596 1662.4H785.067V1669.84H777.596V1662.4Z" fill="#F1F6FC"/>
<path fill-rule="evenodd" clip-rule="evenodd" d="M789.153 1662.4H796.596V1669.84H789.153V1662.4Z" fill="#F1F6FC"/>
<path fill-rule="evenodd" clip-rule="evenodd" d="M800.682 1662.4H808.153V1669.84H800.682V1662.4Z" fill="#F1F6FC"/>
<path fill-rule="evenodd" clip-rule="evenodd" d="M846.854 1662.4H854.296V1669.84H846.854V1662.4Z" fill="#F1F6FC"/>
<path fill-rule="evenodd" clip-rule="evenodd" d="M869.911 1662.4H877.382V1669.84H869.911V1662.4Z" fill="#F1F6FC"/>
<path fill-rule="evenodd" clip-rule="evenodd" d="M892.996 1662.4H900.467V1669.84H892.996V1662.4Z" fill="#F1F6FC"/>
<path fill-rule="evenodd" clip-rule="evenodd" d="M904.554 1662.4H911.996V1669.84H904.554V1662.4Z" fill="#F1F6FC"/>
<path fill-rule="evenodd" clip-rule="evenodd" d="M927.61 1662.4H935.082V1669.84H927.61V1662.4Z" fill="#F1F6FC"/>
<path fill-rule="evenodd" clip-rule="evenodd" d="M939.168 1662.4H946.64V1669.84H939.168V1662.4Z" fill="#F1F6FC"/>
<path fill-rule="evenodd" clip-rule="evenodd" d="M950.696 1662.4H958.168V1669.84H950.696V1662.4Z" fill="#F1F6FC"/>
<path fill-rule="evenodd" clip-rule="evenodd" d="M973.782 1662.4H981.254V1669.84H973.782V1662.4Z" fill="#F1F6FC"/>
<path fill-rule="evenodd" clip-rule="evenodd" d="M985.311 1662.4H992.782V1669.84H985.311V1662.4Z" fill="#F1F6FC"/>
<path fill-rule="evenodd" clip-rule="evenodd" d="M1008.4 1662.4H1015.87V1669.84H1008.4V1662.4Z" fill="#F1F6FC"/>
<path fill-rule="evenodd" clip-rule="evenodd" d="M1019.95 1662.4H1027.4V1669.84H1019.95V1662.4Z" fill="#F1F6FC"/>
<path fill-rule="evenodd" clip-rule="evenodd" d="M1031.48 1662.4H1038.95V1669.84H1031.48V1662.4Z" fill="#F1F6FC"/>
<path fill-rule="evenodd" clip-rule="evenodd" d="M1054.57 1662.4H1062.04V1669.84H1054.57V1662.4Z" fill="#F1F6FC"/>
<path fill-rule="evenodd" clip-rule="evenodd" d="M1066.1 1662.4H1073.57V1669.84H1066.1V1662.4Z" fill="#F1F6FC"/>
<path fill-rule="evenodd" clip-rule="evenodd" d="M719.896 1674.28H727.367V1681.72H719.896V1674.28Z" fill="#F1F6FC"/>
<path fill-rule="evenodd" clip-rule="evenodd" d="M731.453 1674.28H738.895V1681.72H731.453V1674.28Z" fill="#F1F6FC"/>
<path fill-rule="evenodd" clip-rule="evenodd" d="M742.981 1674.28H750.453V1681.72H742.981V1674.28Z" fill="#F1F6FC"/>
<path fill-rule="evenodd" clip-rule="evenodd" d="M754.51 1674.28H761.981V1681.72H754.51V1674.28Z" fill="#F1F6FC"/>
<path fill-rule="evenodd" clip-rule="evenodd" d="M766.067 1674.28H773.539V1681.72H766.067V1674.28Z" fill="#F1F6FC"/>
<path fill-rule="evenodd" clip-rule="evenodd" d="M777.596 1674.28H785.067V1681.72H777.596V1674.28Z" fill="#F1F6FC"/>
<path fill-rule="evenodd" clip-rule="evenodd" d="M800.682 1674.28H808.153V1681.72H800.682V1674.28Z" fill="#F1F6FC"/>
<path fill-rule="evenodd" clip-rule="evenodd" d="M812.21 1674.28H819.682V1681.72H812.21V1674.28Z" fill="#F1F6FC"/>
<path fill-rule="evenodd" clip-rule="evenodd" d="M846.854 1674.28H854.296V1681.72H846.854V1674.28Z" fill="#F1F6FC"/>
<path fill-rule="evenodd" clip-rule="evenodd" d="M858.382 1674.28H865.853V1681.72H858.382V1674.28Z" fill="#F1F6FC"/>
<path fill-rule="evenodd" clip-rule="evenodd" d="M869.911 1674.28H877.382V1681.72H869.911V1674.28Z" fill="#F1F6FC"/>
<path fill-rule="evenodd" clip-rule="evenodd" d="M881.468 1674.28H888.939V1681.72H881.468V1674.28Z" fill="#F1F6FC"/>
<path fill-rule="evenodd" clip-rule="evenodd" d="M892.996 1674.28H900.467V1681.72H892.996V1674.28Z" fill="#F1F6FC"/>
<path fill-rule="evenodd" clip-rule="evenodd" d="M904.554 1674.28H911.996V1681.72H904.554V1674.28Z" fill="#F1F6FC"/>
<path fill-rule="evenodd" clip-rule="evenodd" d="M916.082 1674.28H923.554V1681.72H916.082V1674.28Z" fill="#F1F6FC"/>
<path fill-rule="evenodd" clip-rule="evenodd" d="M927.61 1674.28H935.082V1681.72H927.61V1674.28Z" fill="#F1F6FC"/>
<path fill-rule="evenodd" clip-rule="evenodd" d="M939.168 1674.28H946.64V1681.72H939.168V1674.28Z" fill="#F1F6FC"/>
<path fill-rule="evenodd" clip-rule="evenodd" d="M973.782 1674.28H981.254V1681.72H973.782V1674.28Z" fill="#F1F6FC"/>
<path fill-rule="evenodd" clip-rule="evenodd" d="M985.311 1674.28H992.782V1681.72H985.311V1674.28Z" fill="#F1F6FC"/>
<path fill-rule="evenodd" clip-rule="evenodd" d="M996.868 1674.28H1004.34V1681.72H996.868V1674.28Z" fill="#F1F6FC"/>
<path fill-rule="evenodd" clip-rule="evenodd" d="M1019.95 1674.28H1027.4V1681.72H1019.95V1674.28Z" fill="#F1F6FC"/>
<path fill-rule="evenodd" clip-rule="evenodd" d="M1031.48 1674.28H1038.95V1681.72H1031.48V1674.28Z" fill="#F1F6FC"/>
<path fill-rule="evenodd" clip-rule="evenodd" d="M1043.01 1674.28H1050.48V1681.72H1043.01V1674.28Z" fill="#F1F6FC"/>
<path fill-rule="evenodd" clip-rule="evenodd" d="M719.896 1686.16H727.367V1693.6H719.896V1686.16Z" fill="#F1F6FC"/>
<path fill-rule="evenodd" clip-rule="evenodd" d="M742.981 1686.16H750.453V1693.6H742.981V1686.16Z" fill="#F1F6FC"/>
<path fill-rule="evenodd" clip-rule="evenodd" d="M754.51 1686.16H761.981V1693.6H754.51V1686.16Z" fill="#F1F6FC"/>
<path fill-rule="evenodd" clip-rule="evenodd" d="M777.596 1686.16H785.067V1693.6H777.596V1686.16Z" fill="#F1F6FC"/>
<path fill-rule="evenodd" clip-rule="evenodd" d="M789.153 1686.16H796.596V1693.6H789.153V1686.16Z" fill="#F1F6FC"/>
<path fill-rule="evenodd" clip-rule="evenodd" d="M836.492 1687.32H841.57V1692.43H836.492V1687.32Z" fill="#F1F6FC"/>
<path fill-rule="evenodd" clip-rule="evenodd" d="M846.854 1686.16H854.296V1693.6H846.854V1686.16Z" fill="#F1F6FC"/>
<path fill-rule="evenodd" clip-rule="evenodd" d="M892.996 1686.16H900.467V1693.6H892.996V1686.16Z" fill="#F1F6FC"/>
<path fill-rule="evenodd" clip-rule="evenodd" d="M916.082 1686.16H923.554V1693.6H916.082V1686.16Z" fill="#F1F6FC"/>
<path fill-rule="evenodd" clip-rule="evenodd" d="M939.168 1686.16H946.64V1693.6H939.168V1686.16Z" fill="#F1F6FC"/>
<path fill-rule="evenodd" clip-rule="evenodd" d="M985.311 1686.16H992.782V1693.6H985.311V1686.16Z" fill="#F1F6FC"/>
<path fill-rule="evenodd" clip-rule="evenodd" d="M1008.4 1686.16H1015.87V1693.6H1008.4V1686.16Z" fill="#F1F6FC"/>
<path fill-rule="evenodd" clip-rule="evenodd" d="M1031.48 1686.16H1038.95V1693.6H1031.48V1686.16Z" fill="#F1F6FC"/>
<path fill-rule="evenodd" clip-rule="evenodd" d="M1054.57 1686.16H1062.04V1693.6H1054.57V1686.16Z" fill="#F1F6FC"/>
<path fill-rule="evenodd" clip-rule="evenodd" d="M1066.1 1686.16H1073.57V1693.6H1066.1V1686.16Z" fill="#F1F6FC"/>
<path fill-rule="evenodd" clip-rule="evenodd" d="M870.932 1687.32H876.039V1692.43H870.932V1687.32Z" fill="#F1F6FC"/>
<path fill-rule="evenodd" clip-rule="evenodd" d="M813.407 1687.32H818.485V1692.43H813.407V1687.32Z" fill="#F1F6FC"/>
<path fill-rule="evenodd" clip-rule="evenodd" d="M767.76 1687.85H771.817V1691.91H767.76V1687.85Z" fill="#F1F6FC"/>
<path fill-rule="evenodd" clip-rule="evenodd" d="M756.057 1664.26H760.114V1668.32H756.057V1664.26Z" fill="#F1F6FC"/>
<path fill-rule="evenodd" clip-rule="evenodd" d="M733.292 1652.38H737.378V1656.44H733.292V1652.38Z" fill="#F1F6FC"/>
<path fill-rule="evenodd" clip-rule="evenodd" d="M721.588 1652.38H725.674V1656.44H721.588V1652.38Z" fill="#F1F6FC"/>
<path fill-rule="evenodd" clip-rule="evenodd" d="M906.071 1687.32H910.128V1691.41H906.071V1687.32Z" fill="#F1F6FC"/>
<path fill-rule="evenodd" clip-rule="evenodd" d="M950.2 1687.32H954.257V1691.41H950.2V1687.32Z" fill="#F1F6FC"/>
<path fill-rule="evenodd" clip-rule="evenodd" d="M975.301 1687.32H979.387V1691.41H975.301V1687.32Z" fill="#F1F6FC"/>
<path fill-rule="evenodd" clip-rule="evenodd" d="M1044.21 1663.56H1048.26V1667.65H1044.21V1663.56Z" fill="#F1F6FC"/>
<path fill-rule="evenodd" clip-rule="evenodd" d="M1055.74 1640.15H1059.82V1644.21H1055.74V1640.15Z" fill="#F1F6FC"/>
<path fill-rule="evenodd" clip-rule="evenodd" d="M756.903 1715H759.618V1712.28H756.903V1715Z" fill="#F1F6FC"/>
<path fill-rule="evenodd" clip-rule="evenodd" d="M756.057 1703.61H760.114V1699.56H756.057V1703.61Z" fill="#F1F6FC"/>
<path fill-rule="evenodd" clip-rule="evenodd" d="M791.518 1702.62H794.232V1699.91H791.518V1702.62Z" fill="#F1F6FC"/>
<path fill-rule="evenodd" clip-rule="evenodd" d="M779.639 1703.61H783.695V1699.56H779.639V1703.61Z" fill="#F1F6FC"/>
<path fill-rule="evenodd" clip-rule="evenodd" d="M814.925 1702.62H817.639V1699.91H814.925V1702.62Z" fill="#F1F6FC"/>
<path fill-rule="evenodd" clip-rule="evenodd" d="M732.971 1703.61H737.027V1699.56H732.971V1703.61Z" fill="#F1F6FC"/>
<path fill-rule="evenodd" clip-rule="evenodd" d="M848.692 1703.61H852.778V1699.56H848.692V1703.61Z" fill="#F1F6FC"/>
<path fill-rule="evenodd" clip-rule="evenodd" d="M894.514 1703.61H898.6V1699.56H894.514V1703.61Z" fill="#F1F6FC"/>
<path fill-rule="evenodd" clip-rule="evenodd" d="M931.347 1715H934.061V1712.28H931.347V1715Z" fill="#F1F6FC"/>
<path fill-rule="evenodd" clip-rule="evenodd" d="M930.5 1703.61H934.586V1699.56H930.5V1703.61Z" fill="#F1F6FC"/>
<path fill-rule="evenodd" clip-rule="evenodd" d="M977.168 1703.47H979.882V1700.75H977.168V1703.47Z" fill="#F1F6FC"/>
<path fill-rule="evenodd" clip-rule="evenodd" d="M986.508 1703.61H990.565V1699.56H986.508V1703.61Z" fill="#F1F6FC"/>
<path fill-rule="evenodd" clip-rule="evenodd" d="M1033 1703.61H1037.09V1699.56H1033V1703.61Z" fill="#F1F6FC"/>
<path fill-rule="evenodd" clip-rule="evenodd" d="M1067.29 1703.61H1071.35V1699.56H1067.29V1703.61Z" fill="#F1F6FC"/>
<path fill-rule="evenodd" clip-rule="evenodd" d="M963.597 1703.47H966.311V1700.75H963.597V1703.47Z" fill="#F1F6FC"/>
<path fill-rule="evenodd" clip-rule="evenodd" d="M1080.19 1628.59H1083.93V1632.33H1080.19V1628.59Z" fill="#F1F6FC"/>
<path fill-rule="evenodd" clip-rule="evenodd" d="M1112.94 1626.73H1120.41V1634.2H1112.94V1626.73Z" fill="#F1F6FC"/>
<path fill-rule="evenodd" clip-rule="evenodd" d="M1124.47 1626.73H1131.94V1634.2H1124.47V1626.73Z" fill="#F1F6FC"/>
<path fill-rule="evenodd" clip-rule="evenodd" d="M1147.55 1626.73H1155.03V1634.2H1147.55V1626.73Z" fill="#F1F6FC"/>
<path fill-rule="evenodd" clip-rule="evenodd" d="M1159.11 1626.73H1166.55V1634.2H1159.11V1626.73Z" fill="#F1F6FC"/>
<path fill-rule="evenodd" clip-rule="evenodd" d="M1172.16 1628.27H1176.57V1632.68H1172.16V1628.27Z" fill="#F1F6FC"/>
<path fill-rule="evenodd" clip-rule="evenodd" d="M1182.17 1626.73H1189.64V1634.2H1182.17V1626.73Z" fill="#F1F6FC"/>
<path fill-rule="evenodd" clip-rule="evenodd" d="M1228.34 1626.73H1235.81V1634.2H1228.34V1626.73Z" fill="#F1F6FC"/>
<path fill-rule="evenodd" clip-rule="evenodd" d="M1239.87 1626.73H1247.34V1634.2H1239.87V1626.73Z" fill="#F1F6FC"/>
<path fill-rule="evenodd" clip-rule="evenodd" d="M1251.43 1626.73H1258.9V1634.2H1251.43V1626.73Z" fill="#F1F6FC"/>
<path fill-rule="evenodd" clip-rule="evenodd" d="M1274.51 1626.73H1281.95V1634.2H1274.51V1626.73Z" fill="#F1F6FC"/>
<path fill-rule="evenodd" clip-rule="evenodd" d="M1297.57 1626.73H1305.04V1634.2H1297.57V1626.73Z" fill="#F1F6FC"/>
<path fill-rule="evenodd" clip-rule="evenodd" d="M1309.13 1626.73H1316.6V1634.2H1309.13V1626.73Z" fill="#F1F6FC"/>
<path fill-rule="evenodd" clip-rule="evenodd" d="M1320.66 1626.73H1328.13V1634.2H1320.66V1626.73Z" fill="#F1F6FC"/>
<path fill-rule="evenodd" clip-rule="evenodd" d="M1332.21 1626.73H1339.66V1634.2H1332.21V1626.73Z" fill="#F1F6FC"/>
<path fill-rule="evenodd" clip-rule="evenodd" d="M1345.43 1628.45H1349.52V1632.51H1345.43V1628.45Z" fill="#F1F6FC"/>
<path fill-rule="evenodd" clip-rule="evenodd" d="M1366.83 1626.73H1374.3V1634.2H1366.83V1626.73Z" fill="#F1F6FC"/>
<path fill-rule="evenodd" clip-rule="evenodd" d="M1401.44 1626.73H1408.91V1634.2H1401.44V1626.73Z" fill="#F1F6FC"/>
<path fill-rule="evenodd" clip-rule="evenodd" d="M1412.97 1626.73H1420.44V1634.2H1412.97V1626.73Z" fill="#F1F6FC"/>
<path fill-rule="evenodd" clip-rule="evenodd" d="M1424.53 1626.73H1432V1634.2H1424.53V1626.73Z" fill="#F1F6FC"/>
<path fill-rule="evenodd" clip-rule="evenodd" d="M1078.33 1638.61H1085.8V1646.08H1078.33V1638.61Z" fill="#F1F6FC"/>
<path fill-rule="evenodd" clip-rule="evenodd" d="M1089.85 1638.61H1097.33V1646.08H1089.85V1638.61Z" fill="#F1F6FC"/>
<path fill-rule="evenodd" clip-rule="evenodd" d="M1101.41 1638.61H1108.85V1646.08H1101.41V1638.61Z" fill="#F1F6FC"/>
<path fill-rule="evenodd" clip-rule="evenodd" d="M1113.44 1639.13H1119.89V1645.58H1113.44V1639.13Z" fill="#F1F6FC"/>
<path fill-rule="evenodd" clip-rule="evenodd" d="M1126.34 1640.47H1130.07V1644.21H1126.34V1640.47Z" fill="#F1F6FC"/>
<path fill-rule="evenodd" clip-rule="evenodd" d="M1136.03 1638.61H1143.5V1646.08H1136.03V1638.61Z" fill="#F1F6FC"/>
<path fill-rule="evenodd" clip-rule="evenodd" d="M1147.55 1638.61H1155.03V1646.08H1147.55V1638.61Z" fill="#F1F6FC"/>
<path fill-rule="evenodd" clip-rule="evenodd" d="M1170.64 1638.61H1178.11V1646.08H1170.64V1638.61Z" fill="#F1F6FC"/>
<path fill-rule="evenodd" clip-rule="evenodd" d="M1182.17 1638.61H1189.64V1646.08H1182.17V1638.61Z" fill="#F1F6FC"/>
<path fill-rule="evenodd" clip-rule="evenodd" d="M1193.73 1638.61H1201.2V1646.08H1193.73V1638.61Z" fill="#F1F6FC"/>
<path fill-rule="evenodd" clip-rule="evenodd" d="M1206.63 1639.98H1211.35V1644.74H1206.63V1639.98Z" fill="#F1F6FC"/>
<path fill-rule="evenodd" clip-rule="evenodd" d="M1216.81 1638.61H1224.25V1646.08H1216.81V1638.61Z" fill="#F1F6FC"/>
<path fill-rule="evenodd" clip-rule="evenodd" d="M1230.03 1640.33H1234.12V1644.39H1230.03V1640.33Z" fill="#F1F6FC"/>
<path fill-rule="evenodd" clip-rule="evenodd" d="M1239.87 1638.61H1247.34V1646.08H1239.87V1638.61Z" fill="#F1F6FC"/>
<path fill-rule="evenodd" clip-rule="evenodd" d="M1251.43 1638.61H1258.9V1646.08H1251.43V1638.61Z" fill="#F1F6FC"/>
<path fill-rule="evenodd" clip-rule="evenodd" d="M1262.96 1638.61H1270.43V1646.08H1262.96V1638.61Z" fill="#F1F6FC"/>
<path fill-rule="evenodd" clip-rule="evenodd" d="M1274.51 1638.61H1281.95V1646.08H1274.51V1638.61Z" fill="#F1F6FC"/>
<path fill-rule="evenodd" clip-rule="evenodd" d="M1286.04 1638.61H1293.51V1646.08H1286.04V1638.61Z" fill="#F1F6FC"/>
<path fill-rule="evenodd" clip-rule="evenodd" d="M1297.57 1638.61H1305.04V1646.08H1297.57V1638.61Z" fill="#F1F6FC"/>
<path fill-rule="evenodd" clip-rule="evenodd" d="M1332.21 1638.61H1339.66V1646.08H1332.21V1638.61Z" fill="#F1F6FC"/>
<path fill-rule="evenodd" clip-rule="evenodd" d="M1343.74 1638.61H1351.21V1646.08H1343.74V1638.61Z" fill="#F1F6FC"/>
<path fill-rule="evenodd" clip-rule="evenodd" d="M1355.27 1638.61H1362.74V1646.08H1355.27V1638.61Z" fill="#F1F6FC"/>
<path fill-rule="evenodd" clip-rule="evenodd" d="M1366.83 1638.61H1374.3V1646.08H1366.83V1638.61Z" fill="#F1F6FC"/>
<path fill-rule="evenodd" clip-rule="evenodd" d="M1380.4 1640.65H1383.78V1644.06H1380.4V1640.65Z" fill="#F1F6FC"/>
<path fill-rule="evenodd" clip-rule="evenodd" d="M1389.91 1638.61H1397.36V1646.08H1389.91V1638.61Z" fill="#F1F6FC"/>
<path fill-rule="evenodd" clip-rule="evenodd" d="M1401.44 1638.61H1408.91V1646.08H1401.44V1638.61Z" fill="#F1F6FC"/>
<path fill-rule="evenodd" clip-rule="evenodd" d="M1424.53 1638.61H1432V1646.08H1424.53V1638.61Z" fill="#F1F6FC"/>
<path fill-rule="evenodd" clip-rule="evenodd" d="M1101.41 1650.52H1108.85V1657.96H1101.41V1650.52Z" fill="#F1F6FC"/>
<path fill-rule="evenodd" clip-rule="evenodd" d="M1115.3 1652.88H1118.02V1655.6H1115.3V1652.88Z" fill="#F1F6FC"/>
<path fill-rule="evenodd" clip-rule="evenodd" d="M1124.47 1650.52H1131.94V1657.96H1124.47V1650.52Z" fill="#F1F6FC"/>
<path fill-rule="evenodd" clip-rule="evenodd" d="M1136.03 1650.52H1143.5V1657.96H1136.03V1650.52Z" fill="#F1F6FC"/>
<path fill-rule="evenodd" clip-rule="evenodd" d="M1148.93 1651.86H1153.65V1656.62H1148.93V1651.86Z" fill="#F1F6FC"/>
<path fill-rule="evenodd" clip-rule="evenodd" d="M1161.3 1652.71H1164.37V1655.77H1161.3V1652.71Z" fill="#F1F6FC"/>
<path fill-rule="evenodd" clip-rule="evenodd" d="M1172.01 1651.86H1176.74V1656.62H1172.01V1651.86Z" fill="#F1F6FC"/>
<path fill-rule="evenodd" clip-rule="evenodd" d="M1182.17 1650.52H1189.64V1657.96H1182.17V1650.52Z" fill="#F1F6FC"/>
<path fill-rule="evenodd" clip-rule="evenodd" d="M1193.73 1650.52H1201.2V1657.96H1193.73V1650.52Z" fill="#F1F6FC"/>
<path fill-rule="evenodd" clip-rule="evenodd" d="M1205.25 1650.52H1212.73V1657.96H1205.25V1650.52Z" fill="#F1F6FC"/>
<path fill-rule="evenodd" clip-rule="evenodd" d="M1216.81 1650.52H1224.25V1657.96H1216.81V1650.52Z" fill="#F1F6FC"/>
<path fill-rule="evenodd" clip-rule="evenodd" d="M1251.43 1650.52H1258.9V1657.96H1251.43V1650.52Z" fill="#F1F6FC"/>
<path fill-rule="evenodd" clip-rule="evenodd" d="M1262.96 1650.52H1270.43V1657.96H1262.96V1650.52Z" fill="#F1F6FC"/>
<path fill-rule="evenodd" clip-rule="evenodd" d="M1297.57 1650.52H1305.04V1657.96H1297.57V1650.52Z" fill="#F1F6FC"/>
<path fill-rule="evenodd" clip-rule="evenodd" d="M1309.13 1650.52H1316.6V1657.96H1309.13V1650.52Z" fill="#F1F6FC"/>
<path fill-rule="evenodd" clip-rule="evenodd" d="M1320.66 1650.52H1328.13V1657.96H1320.66V1650.52Z" fill="#F1F6FC"/>
<path fill-rule="evenodd" clip-rule="evenodd" d="M1332.21 1650.52H1339.66V1657.96H1332.21V1650.52Z" fill="#F1F6FC"/>
<path fill-rule="evenodd" clip-rule="evenodd" d="M1366.83 1650.52H1374.3V1657.96H1366.83V1650.52Z" fill="#F1F6FC"/>
<path fill-rule="evenodd" clip-rule="evenodd" d="M1378.36 1650.52H1385.83V1657.96H1378.36V1650.52Z" fill="#F1F6FC"/>
<path fill-rule="evenodd" clip-rule="evenodd" d="M1391.08 1651.68H1396.19V1656.79H1391.08V1651.68Z" fill="#F1F6FC"/>
<path fill-rule="evenodd" clip-rule="evenodd" d="M1401.44 1650.52H1408.91V1657.96H1401.44V1650.52Z" fill="#F1F6FC"/>
<path fill-rule="evenodd" clip-rule="evenodd" d="M1412.97 1650.52H1420.44V1657.96H1412.97V1650.52Z" fill="#F1F6FC"/>
<path fill-rule="evenodd" clip-rule="evenodd" d="M1080.51 1664.59H1083.58V1667.65H1080.51V1664.59Z" fill="#F1F6FC"/>
<path fill-rule="evenodd" clip-rule="evenodd" d="M1089.85 1662.4H1097.33V1669.84H1089.85V1662.4Z" fill="#F1F6FC"/>
<path fill-rule="evenodd" clip-rule="evenodd" d="M1136.03 1662.4H1143.5V1669.84H1136.03V1662.4Z" fill="#F1F6FC"/>
<path fill-rule="evenodd" clip-rule="evenodd" d="M1147.55 1662.4H1155.03V1669.84H1147.55V1662.4Z" fill="#F1F6FC"/>
<path fill-rule="evenodd" clip-rule="evenodd" d="M1159.11 1662.4H1166.55V1669.84H1159.11V1662.4Z" fill="#F1F6FC"/>
<path fill-rule="evenodd" clip-rule="evenodd" d="M1205.25 1662.4H1212.73V1669.84H1205.25V1662.4Z" fill="#F1F6FC"/>
<path fill-rule="evenodd" clip-rule="evenodd" d="M1228.34 1662.4H1235.81V1669.84H1228.34V1662.4Z" fill="#F1F6FC"/>
<path fill-rule="evenodd" clip-rule="evenodd" d="M1251.43 1662.4H1258.9V1669.84H1251.43V1662.4Z" fill="#F1F6FC"/>
<path fill-rule="evenodd" clip-rule="evenodd" d="M1262.96 1662.4H1270.43V1669.84H1262.96V1662.4Z" fill="#F1F6FC"/>
<path fill-rule="evenodd" clip-rule="evenodd" d="M1286.04 1662.4H1293.51V1669.84H1286.04V1662.4Z" fill="#F1F6FC"/>
<path fill-rule="evenodd" clip-rule="evenodd" d="M1297.57 1662.4H1305.04V1669.84H1297.57V1662.4Z" fill="#F1F6FC"/>
<path fill-rule="evenodd" clip-rule="evenodd" d="M1309.13 1662.4H1316.6V1669.84H1309.13V1662.4Z" fill="#F1F6FC"/>
<path fill-rule="evenodd" clip-rule="evenodd" d="M1332.21 1662.4H1339.66V1669.84H1332.21V1662.4Z" fill="#F1F6FC"/>
<path fill-rule="evenodd" clip-rule="evenodd" d="M1343.74 1662.4H1351.21V1669.84H1343.74V1662.4Z" fill="#F1F6FC"/>
<path fill-rule="evenodd" clip-rule="evenodd" d="M1366.83 1662.4H1374.3V1669.84H1366.83V1662.4Z" fill="#F1F6FC"/>
<path fill-rule="evenodd" clip-rule="evenodd" d="M1378.36 1662.4H1385.83V1669.84H1378.36V1662.4Z" fill="#F1F6FC"/>
<path fill-rule="evenodd" clip-rule="evenodd" d="M1389.91 1662.4H1397.36V1669.84H1389.91V1662.4Z" fill="#F1F6FC"/>
<path fill-rule="evenodd" clip-rule="evenodd" d="M1412.97 1662.4H1420.44V1669.84H1412.97V1662.4Z" fill="#F1F6FC"/>
<path fill-rule="evenodd" clip-rule="evenodd" d="M1424.53 1662.4H1432V1669.84H1424.53V1662.4Z" fill="#F1F6FC"/>
<path fill-rule="evenodd" clip-rule="evenodd" d="M1078.33 1674.28H1085.8V1681.72H1078.33V1674.28Z" fill="#F1F6FC"/>
<path fill-rule="evenodd" clip-rule="evenodd" d="M1089.85 1674.28H1097.33V1681.72H1089.85V1674.28Z" fill="#F1F6FC"/>
<path fill-rule="evenodd" clip-rule="evenodd" d="M1101.41 1674.28H1108.85V1681.72H1101.41V1674.28Z" fill="#F1F6FC"/>
<path fill-rule="evenodd" clip-rule="evenodd" d="M1112.94 1674.28H1120.41V1681.72H1112.94V1674.28Z" fill="#F1F6FC"/>
<path fill-rule="evenodd" clip-rule="evenodd" d="M1124.47 1674.28H1131.94V1681.72H1124.47V1674.28Z" fill="#F1F6FC"/>
<path fill-rule="evenodd" clip-rule="evenodd" d="M1136.03 1674.28H1143.5V1681.72H1136.03V1674.28Z" fill="#F1F6FC"/>
<path fill-rule="evenodd" clip-rule="evenodd" d="M1159.11 1674.28H1166.55V1681.72H1159.11V1674.28Z" fill="#F1F6FC"/>
<path fill-rule="evenodd" clip-rule="evenodd" d="M1170.64 1674.28H1178.11V1681.72H1170.64V1674.28Z" fill="#F1F6FC"/>
<path fill-rule="evenodd" clip-rule="evenodd" d="M1205.25 1674.28H1212.73V1681.72H1205.25V1674.28Z" fill="#F1F6FC"/>
<path fill-rule="evenodd" clip-rule="evenodd" d="M1216.81 1674.28H1224.25V1681.72H1216.81V1674.28Z" fill="#F1F6FC"/>
<path fill-rule="evenodd" clip-rule="evenodd" d="M1228.34 1674.28H1235.81V1681.72H1228.34V1674.28Z" fill="#F1F6FC"/>
<path fill-rule="evenodd" clip-rule="evenodd" d="M1239.87 1674.28H1247.34V1681.72H1239.87V1674.28Z" fill="#F1F6FC"/>
<path fill-rule="evenodd" clip-rule="evenodd" d="M1251.43 1674.28H1258.9V1681.72H1251.43V1674.28Z" fill="#F1F6FC"/>
<path fill-rule="evenodd" clip-rule="evenodd" d="M1262.96 1674.28H1270.43V1681.72H1262.96V1674.28Z" fill="#F1F6FC"/>
<path fill-rule="evenodd" clip-rule="evenodd" d="M1274.51 1674.28H1281.95V1681.72H1274.51V1674.28Z" fill="#F1F6FC"/>
<path fill-rule="evenodd" clip-rule="evenodd" d="M1286.04 1674.28H1293.51V1681.72H1286.04V1674.28Z" fill="#F1F6FC"/>
<path fill-rule="evenodd" clip-rule="evenodd" d="M1297.57 1674.28H1305.04V1681.72H1297.57V1674.28Z" fill="#F1F6FC"/>
<path fill-rule="evenodd" clip-rule="evenodd" d="M1332.21 1674.28H1339.66V1681.72H1332.21V1674.28Z" fill="#F1F6FC"/>
<path fill-rule="evenodd" clip-rule="evenodd" d="M1343.74 1674.28H1351.21V1681.72H1343.74V1674.28Z" fill="#F1F6FC"/>
<path fill-rule="evenodd" clip-rule="evenodd" d="M1355.27 1674.28H1362.74V1681.72H1355.27V1674.28Z" fill="#F1F6FC"/>
<path fill-rule="evenodd" clip-rule="evenodd" d="M1378.36 1674.28H1385.83V1681.72H1378.36V1674.28Z" fill="#F1F6FC"/>
<path fill-rule="evenodd" clip-rule="evenodd" d="M1389.91 1674.28H1397.36V1681.72H1389.91V1674.28Z" fill="#F1F6FC"/>
<path fill-rule="evenodd" clip-rule="evenodd" d="M1401.44 1674.28H1408.91V1681.72H1401.44V1674.28Z" fill="#F1F6FC"/>
<path fill-rule="evenodd" clip-rule="evenodd" d="M1078.33 1686.16H1085.8V1693.6H1078.33V1686.16Z" fill="#F1F6FC"/>
<path fill-rule="evenodd" clip-rule="evenodd" d="M1101.41 1686.16H1108.85V1693.6H1101.41V1686.16Z" fill="#F1F6FC"/>
<path fill-rule="evenodd" clip-rule="evenodd" d="M1112.94 1686.16H1120.41V1693.6H1112.94V1686.16Z" fill="#F1F6FC"/>
<path fill-rule="evenodd" clip-rule="evenodd" d="M1136.03 1686.16H1143.5V1693.6H1136.03V1686.16Z" fill="#F1F6FC"/>
<path fill-rule="evenodd" clip-rule="evenodd" d="M1147.55 1686.16H1155.03V1693.6H1147.55V1686.16Z" fill="#F1F6FC"/>
<path fill-rule="evenodd" clip-rule="evenodd" d="M1194.89 1687.32H1200V1692.43H1194.89V1687.32Z" fill="#F1F6FC"/>
<path fill-rule="evenodd" clip-rule="evenodd" d="M1205.25 1686.16H1212.73V1693.6H1205.25V1686.16Z" fill="#F1F6FC"/>
<path fill-rule="evenodd" clip-rule="evenodd" d="M1251.43 1686.16H1258.9V1693.6H1251.43V1686.16Z" fill="#F1F6FC"/>
<path fill-rule="evenodd" clip-rule="evenodd" d="M1274.51 1686.16H1281.95V1693.6H1274.51V1686.16Z" fill="#F1F6FC"/>
<path fill-rule="evenodd" clip-rule="evenodd" d="M1297.57 1686.16H1305.04V1693.6H1297.57V1686.16Z" fill="#F1F6FC"/>
<path fill-rule="evenodd" clip-rule="evenodd" d="M1343.74 1686.16H1351.21V1693.6H1343.74V1686.16Z" fill="#F1F6FC"/>
<path fill-rule="evenodd" clip-rule="evenodd" d="M1366.83 1686.16H1374.3V1693.6H1366.83V1686.16Z" fill="#F1F6FC"/>
<path fill-rule="evenodd" clip-rule="evenodd" d="M1389.91 1686.16H1397.36V1693.6H1389.91V1686.16Z" fill="#F1F6FC"/>
<path fill-rule="evenodd" clip-rule="evenodd" d="M1412.97 1686.16H1420.44V1693.6H1412.97V1686.16Z" fill="#F1F6FC"/>
<path fill-rule="evenodd" clip-rule="evenodd" d="M1424.53 1686.16H1432V1693.6H1424.53V1686.16Z" fill="#F1F6FC"/>
<path fill-rule="evenodd" clip-rule="evenodd" d="M1229.36 1687.32H1234.44V1692.43H1229.36V1687.32Z" fill="#F1F6FC"/>
<path fill-rule="evenodd" clip-rule="evenodd" d="M1171.84 1687.32H1176.92V1692.43H1171.84V1687.32Z" fill="#F1F6FC"/>
<path fill-rule="evenodd" clip-rule="evenodd" d="M1126.16 1687.85H1130.25V1691.91H1126.16V1687.85Z" fill="#F1F6FC"/>
<path fill-rule="evenodd" clip-rule="evenodd" d="M1114.46 1664.26H1118.54V1668.32H1114.46V1664.26Z" fill="#F1F6FC"/>
<path fill-rule="evenodd" clip-rule="evenodd" d="M1091.72 1652.38H1095.81V1656.44H1091.72V1652.38Z" fill="#F1F6FC"/>
<path fill-rule="evenodd" clip-rule="evenodd" d="M1080.02 1652.38H1084.08V1656.44H1080.02V1652.38Z" fill="#F1F6FC"/>
<path fill-rule="evenodd" clip-rule="evenodd" d="M1264.47 1687.32H1268.56V1691.41H1264.47V1687.32Z" fill="#F1F6FC"/>
<path fill-rule="evenodd" clip-rule="evenodd" d="M1308.6 1687.32H1312.69V1691.41H1308.6V1687.32Z" fill="#F1F6FC"/>
<path fill-rule="evenodd" clip-rule="evenodd" d="M1333.73 1687.32H1337.79V1691.41H1333.73V1687.32Z" fill="#F1F6FC"/>
<path fill-rule="evenodd" clip-rule="evenodd" d="M1402.64 1663.56H1406.7V1667.65H1402.64V1663.56Z" fill="#F1F6FC"/>
<path fill-rule="evenodd" clip-rule="evenodd" d="M1414.17 1640.15H1418.22V1644.21H1414.17V1640.15Z" fill="#F1F6FC"/>
<path fill-rule="evenodd" clip-rule="evenodd" d="M1115.3 1715H1118.02V1712.28H1115.3V1715Z" fill="#F1F6FC"/>
<path fill-rule="evenodd" clip-rule="evenodd" d="M1114.46 1703.61H1118.54V1699.56H1114.46V1703.61Z" fill="#F1F6FC"/>
<path fill-rule="evenodd" clip-rule="evenodd" d="M1149.95 1702.62H1152.66V1699.91H1149.95V1702.62Z" fill="#F1F6FC"/>
<path fill-rule="evenodd" clip-rule="evenodd" d="M1138.04 1703.61H1142.13V1699.56H1138.04V1703.61Z" fill="#F1F6FC"/>
<path fill-rule="evenodd" clip-rule="evenodd" d="M1173.35 1702.62H1176.07V1699.91H1173.35V1702.62Z" fill="#F1F6FC"/>
<path fill-rule="evenodd" clip-rule="evenodd" d="M1091.37 1703.61H1095.46V1699.56H1091.37V1703.61Z" fill="#F1F6FC"/>
<path fill-rule="evenodd" clip-rule="evenodd" d="M1207.12 1703.61H1211.21V1699.56H1207.12V1703.61Z" fill="#F1F6FC"/>
<path fill-rule="evenodd" clip-rule="evenodd" d="M1252.94 1703.61H1257.03V1699.56H1252.94V1703.61Z" fill="#F1F6FC"/>
<path fill-rule="evenodd" clip-rule="evenodd" d="M1289.78 1715H1292.49V1712.28H1289.78V1715Z" fill="#F1F6FC"/>
<path fill-rule="evenodd" clip-rule="evenodd" d="M1288.93 1703.61H1292.99V1699.56H1288.93V1703.61Z" fill="#F1F6FC"/>
<path fill-rule="evenodd" clip-rule="evenodd" d="M1335.6 1703.47H1338.31V1700.75H1335.6V1703.47Z" fill="#F1F6FC"/>
<path fill-rule="evenodd" clip-rule="evenodd" d="M1344.94 1703.61H1348.99V1699.56H1344.94V1703.61Z" fill="#F1F6FC"/>
<path fill-rule="evenodd" clip-rule="evenodd" d="M1391.43 1703.61H1395.49V1699.56H1391.43V1703.61Z" fill="#F1F6FC"/>
<path fill-rule="evenodd" clip-rule="evenodd" d="M1425.7 1703.61H1429.78V1699.56H1425.7V1703.61Z" fill="#F1F6FC"/>
<path fill-rule="evenodd" clip-rule="evenodd" d="M1322.03 1703.47H1324.74V1700.75H1322.03V1703.47Z" fill="#F1F6FC"/>
</g>
</g>
<defs>
<filter id="filter0_d_187_776" x="1005" y="123" width="139.639" height="139.639" filterUnits="userSpaceOnUse" color-interpolation-filters="sRGB">
<feFlood flood-opacity="0" result="BackgroundImageFix"/>
<feColorMatrix in="SourceAlpha" type="matrix" values="0 0 0 0 0 0 0 0 0 0 0 0 0 0 0 0 0 0 127 0" result="hardAlpha"/>
<feOffset dx="3" dy="21"/>
<feGaussianBlur stdDeviation="12.5"/>
<feComposite in2="hardAlpha" operator="out"/>
<feColorMatrix type="matrix" values="0 0 0 0 0 0 0 0 0 0 0 0 0 0 0 0 0 0 0.12 0"/>
<feBlend mode="normal" in2="BackgroundImageFix" result="effect1_dropShadow_187_776"/>
<feBlend mode="normal" in="SourceGraphic" in2="effect1_dropShadow_187_776" result="shape"/>
</filter>
<filter id="filter1_d_187_776" x="1149.98" y="155.833" width="179.021" height="46.765" filterUnits="userSpaceOnUse" color-interpolation-filters="sRGB">
<feFlood flood-opacity="0" result="BackgroundImageFix"/>
<feColorMatrix in="SourceAlpha" type="matrix" values="0 0 0 0 0 0 0 0 0 0 0 0 0 0 0 0 0 0 127 0" result="hardAlpha"/>
<feOffset dy="4"/>
<feGaussianBlur stdDeviation="5"/>
<feComposite in2="hardAlpha" operator="out"/>
<feColorMatrix type="matrix" values="0 0 0 0 0 0 0 0 0 0 0 0 0 0 0 0 0 0 0.25 0"/>
<feBlend mode="normal" in2="BackgroundImageFix" result="effect1_dropShadow_187_776"/>
<feBlend mode="normal" in="SourceGraphic" in2="effect1_dropShadow_187_776" result="shape"/>
</filter>
<filter id="filter2_d_187_776" x="-59" y="72" width="1562" height="1651" filterUnits="userSpaceOnUse" color-interpolation-filters="sRGB">
<feFlood flood-opacity="0" result="BackgroundImageFix"/>
<feColorMatrix in="SourceAlpha" type="matrix" values="0 0 0 0 0 0 0 0 0 0 0 0 0 0 0 0 0 0 127 0" result="hardAlpha"/>
<feOffset dx="2" dy="-53"/>
<feGaussianBlur stdDeviation="30.5"/>
<feComposite in2="hardAlpha" operator="out"/>
<feColorMatrix type="matrix" values="0 0 0 0 0.00437498 0 0 0 0 0.1225 0 0 0 0 0.35 0 0 0 1 0"/>
<feBlend mode="normal" in2="BackgroundImageFix" result="effect1_dropShadow_187_776"/>
<feBlend mode="normal" in="SourceGraphic" in2="effect1_dropShadow_187_776" result="shape"/>
</filter>
<linearGradient id="paint0_linear_187_776" x1="1036.55" y1="143.513" x2="1081.63" y2="235.793" gradientUnits="userSpaceOnUse">
<stop stop-color="white"/>
<stop offset="1" stop-color="#7A8DB4"/>
</linearGradient>
<linearGradient id="paint1_linear_187_776" x1="1104.37" y1="198.797" x2="1079.42" y2="162.28" gradientUnits="userSpaceOnUse">
<stop stop-color="white"/>
<stop offset="1" stop-color="#39599B"/>
</linearGradient>
<linearGradient id="paint2_linear_187_776" x1="1063.49" y1="178.697" x2="1034.83" y2="139.087" gradientUnits="userSpaceOnUse">
<stop stop-color="#F1F6FC"/>
<stop offset="1" stop-color="#FEFEFE"/>
</linearGradient>
<linearGradient id="paint3_linear_187_776" x1="1096.24" y1="161.19" x2="1067.59" y2="121.58" gradientUnits="userSpaceOnUse">
<stop stop-color="#A9BACF"/>
<stop offset="1" stop-color="#FEFEFE"/>
</linearGradient>
<linearGradient id="paint4_linear_187_776" x1="1069.81" y1="173.85" x2="1051.06" y2="147.094" gradientUnits="userSpaceOnUse">
<stop stop-color="#6F92D4"/>
<stop offset="1" stop-color="#FEFEFE"/>
</linearGradient>
<linearGradient id="paint5_linear_187_776" x1="1085.65" y1="183.963" x2="1103.13" y2="115.491" gradientUnits="userSpaceOnUse">
<stop stop-color="#0B2E75"/>
<stop offset="1" stop-color="white"/>
</linearGradient>
<linearGradient id="paint6_linear_187_776" x1="1046.69" y1="160.822" x2="1075.22" y2="121.77" gradientUnits="userSpaceOnUse">
<stop stop-color="#A9BACF"/>
<stop offset="1" stop-color="#FEFEFE"/>
</linearGradient>
</defs>
</svg>
