<?xml version="1.0" encoding="UTF-8"?>
<!DOCTYPE svg PUBLIC "-//W3C//DTD SVG 1.1//EN" "http://www.w3.org/Graphics/SVG/1.1/DTD/svg11.dtd">
<!-- Creator: CorelDRAW 2020 (64-Bit) -->
<svg xmlns="http://www.w3.org/2000/svg" xml:space="preserve" width="213px" height="159px" version="1.1" style="shape-rendering:geometricPrecision; text-rendering:geometricPrecision; image-rendering:optimizeQuality; fill-rule:evenodd; clip-rule:evenodd"
viewBox="0 0 251.78 188.28"
 xmlns:xlink="http://www.w3.org/1999/xlink"
 xmlns:xodm="http://www.corel.com/coreldraw/odm/2003">
 <defs>
  <style type="text/css">
   <![CDATA[
    .fil0 {fill:#4D5759}
   ]]>
  </style>
 </defs>
 <g id="Слой_x0020_1">
  <metadata id="CorelCorpID_0Corel-Layer"/>
  <g id="_3020943915920">
   <path class="fil0" d="M26.09 35.83c0,-7.91 8.84,-13.83 16.97,-13.83 10.44,0 17.85,0.78 23.45,10.19 4.66,7.84 -2.74,6.47 15.53,6.47l0 21.06c-1.31,-0.35 -3.95,-3.49 -13.76,-6.04 -5.18,-1.34 -11.5,-2.17 -17.14,-2.98 -5.34,-0.77 -12.18,-1.73 -16.25,-3.55 -2.66,-1.19 -4.09,-1.98 -6.06,-4 -1.48,-1.52 -2.74,-4.44 -2.74,-7.32zm17.97 -35.83l2.14 0c7.42,0.14 14.66,1.65 20.55,4.29 11.01,4.95 13.32,9.98 15.29,11.43 0,-2.62 0,-5.24 0,-7.86 0,-3.03 -0.6,-6.6 0.94,-6.6l22.32 0 0 61.6c1.52,-1.01 2.45,-2.43 3.69,-3.84l7.23 -7.87c0.67,-0.66 1.28,-1.18 1.87,-1.89 3.45,-4.12 7.17,-7.71 10.56,-11.76 0.84,-1.01 4.91,-5.44 5.57,-5.44l28.29 0c1.99,0 -0.2,1.62 -0.71,2.12l-10.79 11.84c-0.83,1.08 -1.18,1.39 -2.1,2.3l-14.93 16.51c-1.22,1.38 -3.11,3.06 -4.16,4.64 0.65,1.22 1.35,2.32 2.14,3.56l23.18 38.38c0.87,1.44 7.97,12.75 8.31,14.01l-27.03 0 -20.1 -33.34c-0.96,-1.61 -1.97,-3.04 -2.85,-4.7 -1.1,0.74 -1.34,1.23 -2.15,2.25 -0.87,1.09 -6.02,6 -6.02,6.87l0 28.92 -22.32 0c-1.51,0 -0.94,-2.97 -0.94,-4.4 0,-1.79 0,-3.57 0,-5.35 -1.07,0.29 -0.82,0.41 -1.71,1.12l-4.48 3.07c-10.69,5.92 -17.44,6.81 -29.96,6.81 -9.54,0 -21.3,-3.27 -28.6,-8.8 -3.62,-2.73 -4.08,-3.19 -6.85,-6.36 -0.55,-0.62 -0.59,-0.62 -1.15,-1.36 -0.86,-1.13 -1.4,-1.95 -2.19,-3.15 -0.69,-1.06 -1.44,-2.22 -1.97,-3.37 -1.98,-4.27 -4.19,-10.82 -4.19,-16.88l24.84 0c0.11,5.36 4.23,10.49 7.66,12.77 8.4,5.57 22.16,5.32 31,0.75 9.16,-4.73 9.73,-17.19 1.36,-21.79 -7.2,-3.96 -15.86,-4.19 -24,-5.56 -7.56,-1.27 -16.18,-3.1 -22.57,-6.97 -3.82,-2.32 -7.26,-5.03 -9.94,-8.6 -4.44,-5.91 -6.78,-12.72 -6.78,-20.57 0,-5.63 2.11,-11.91 4.16,-15.66 2.54,-4.68 4.43,-7.22 8.49,-10.99 7.37,-6.82 18.19,-9.94 28.9,-10.13z"/>
   <path class="fil0" d="M188.28 186.39c0,1.46 2.51,0.95 4.09,0.95 1.67,-0.01 3.35,0 5.03,0 0.24,-1.05 4.18,-7.37 5.01,-8.82 0.85,-1.49 4.54,-8.18 5.36,-8.79l0 17.61c4.61,0 8.17,0.72 8.17,-0.95l0 -29.23 -8.8 0c-0.34,1.29 -8.29,14.17 -9.95,17.09l-0.74 1.14 0 -18.23 -8.17 0 0 29.23z"/>
   <path class="fil0" d="M14.14 177.28c0,2.86 -2.67,3.14 -4.71,3.14 -1.74,0 -2.1,-0.63 -3.46,-0.94l0 7.86c3.71,0.86 1.14,0.94 5.81,0.94l0.48 0c4.78,0 8.67,-6.37 10.28,-10.15l11.14 -25.64c0.66,-1.61 2.07,-4.31 2.47,-6.01l-9.43 0c-0.11,1.28 -5.85,16.1 -6.87,18.9 -0.46,1.27 -0.33,1.75 -1.3,2.47 -0.1,-1.13 -5.72,-14.05 -6.6,-16.04 -0.74,-1.7 -1.42,-3.7 -2.21,-5.33l-9.74 0c0.37,1.59 2.64,5.86 3.46,7.53 0.63,1.29 1.09,2.51 1.78,3.89 0.72,1.43 1.09,2.39 1.78,3.87 0.98,2.11 7.12,14.35 7.12,15.51z"/>
   <path class="fil0" d="M78.58 182.31c-1.73,0 -2.6,0.21 -3.72,-0.99 -1.54,-1.64 -1.82,-5.6 2.96,-6.69 1.24,-0.28 2.17,-0.4 3.41,-0.68 1.52,-0.35 2.13,-0.79 3.32,-1.07 0,3.57 0.03,9.43 -5.97,9.43zm-2.11 5.97l-1.77 0c-2.27,-0.15 -4.48,-0.9 -6.1,-2.28 -3.4,-2.91 -3.58,-10.04 -0.31,-13.67 4.83,-5.35 16.26,-1.7 16.26,-6.37 0,-1.89 -1.33,-3.14 -3.14,-3.14 -3.27,0 -6.22,-0.46 -6.6,4.09 -1.21,0 -7.08,0.22 -7.72,-0.15 -1.35,-0.79 1.57,-10.54 11.49,-10.54 7.94,0 14.21,0.9 14.15,10.68 -0.01,2.14 -0.42,16.34 0.39,17.84 0.18,0.33 0.48,0.63 0.54,0.72 0.72,0.91 0.64,-0.15 0.64,1.88l-8.8 0c-0.3,-1.27 -0.63,-1.51 -0.63,-3.15 -1.23,0.82 -2.01,1.9 -3.55,2.74 -1.43,0.78 -3.12,1.23 -4.85,1.35z"/>
   <path class="fil0" d="M221.6 186.39c0,1.67 3.56,0.95 8.17,0.95 0,-8.33 -1.16,-9.69 3.15,-12.58 0.69,1.31 1.17,1.81 2.01,3.02 0.81,1.17 1.32,2.07 2.16,3.18l4.31 6.38 10.38 0c-0.42,-1.54 -11.14,-14.88 -12.58,-17.61 1.9,-2.83 9.26,-8.56 11.95,-12.57 -2.62,0 -5.25,0.02 -7.87,0 -3.74,-0.04 -2.63,-0.08 -5.26,2.91 -1.33,1.51 -6.89,7.18 -8.25,8.09l0 -11 -8.17 0 0 29.23z"/>
   <path class="fil0" d="M155.28 187.34l8.17 0 0 -12.89 11 0 0 11.94c0,1.67 3.56,0.95 8.17,0.95l0 -30.18 -8.17 0 0 10.69 -11 0 0 -10.69 -8.17 0 0 30.18z"/>
   <path class="fil0" d="M109.7 188.28c4.42,0 7.17,-0.63 10.29,-3.23 2.01,-1.67 4.17,-5.46 4.17,-9.03 -13.11,0 -6.14,-0.27 -9.65,3.55 -2.35,2.56 -6.73,2.59 -8.64,-0.97 -0.44,-0.81 -0.73,-1.68 -0.84,-2.62 -0.42,-3.46 -0.57,-6.32 0.7,-9.59 1.91,-4.91 9.81,-4.39 9.94,1.46l8.49 0c0,-6.76 -6.1,-11.63 -11.95,-11.63 -5.27,0 -8.87,0.3 -12.62,4.97 -5.9,7.37 -4.71,27.09 10.11,27.09z"/>
   <path class="fil0" d="M35.52 168.48c0,7.35 7.2,9.03 12.07,8.31l6.16 -1.08 0 11.63c4.61,0 8.17,0.72 8.17,-0.95l0 -29.23 -8.17 0 0 12.57c-1.7,0.4 -10.06,2.87 -10.06,-2.19l0 -10.38 -8.17 0 0 11.32z"/>
   <path class="fil0" d="M126.04 162.82c0,0.72 0.22,0.94 0.95,0.94l8.17 0 0 23.58c4.61,0 8.17,0.72 8.17,-0.95l0 -22.63 8.18 0c1.55,0 0.94,-2.47 0.94,-6.6l-26.41 0 0 5.66z"/>
  </g>
 </g>
</svg>
