<svg width="57" height="41" viewBox="0 0 57 41" fill="none" xmlns="http://www.w3.org/2000/svg">
<path fill-rule="evenodd" clip-rule="evenodd" d="M5.90655 7.76814C5.90655 6.05321 7.90782 4.76972 9.74836 4.76972C12.1118 4.76972 13.7894 4.93883 15.0572 6.97897C16.1121 8.67872 14.4369 8.3817 18.573 8.3817V12.9476C18.2764 12.8717 17.6787 12.191 15.4579 11.6381C14.2852 11.3476 12.8544 11.1677 11.5776 10.992C10.3687 10.8251 8.82017 10.617 7.89877 10.2224C7.29657 9.96438 6.97284 9.79311 6.52685 9.35516C6.1918 9.02561 5.90655 8.39254 5.90655 7.76814V7.76814ZM9.97475 0H10.4592C12.139 0.0303528 13.7781 0.357729 15.1115 0.930096C17.604 2.00328 18.127 3.09381 18.573 3.40818C18.573 2.84015 18.573 2.27212 18.573 1.70409C18.573 1.04717 18.4371 0.273175 18.7858 0.273175H23.8388V13.6284C24.1829 13.4094 24.3934 13.1016 24.6741 12.7959L26.3109 11.0896C26.4626 10.9465 26.6007 10.8338 26.7343 10.6798C27.5153 9.7866 28.3575 9.00827 29.1249 8.13021C29.3151 7.91123 30.2365 6.95079 30.3859 6.95079H36.7904C37.2409 6.95079 36.7451 7.30201 36.6297 7.41041L34.187 9.97739C33.999 10.2115 33.9198 10.2787 33.7115 10.476L30.3316 14.0555C30.0554 14.3547 29.6275 14.7189 29.3898 15.0615C29.5369 15.326 29.6954 15.5645 29.8743 15.8333L35.1219 24.1543C35.3189 24.4665 36.9262 26.9186 37.0032 27.1917H30.8839L26.3335 19.9635C26.1162 19.6144 25.8876 19.3044 25.6883 18.9445C25.4393 19.1049 25.385 19.2111 25.2016 19.4323C25.0047 19.6686 23.8388 20.7331 23.8388 20.9217V27.1917H18.7858C18.4439 27.1917 18.573 26.5478 18.573 26.2378C18.573 25.8497 18.573 25.4638 18.573 25.0779C18.3307 25.1408 18.3873 25.1668 18.1858 25.3207L17.1716 25.9863C14.7515 27.2698 13.2234 27.4628 10.389 27.4628C8.22929 27.4628 5.56697 26.7538 3.91434 25.5549C3.09481 24.963 2.99067 24.8633 2.36358 24.176C2.23906 24.0416 2.23001 24.0416 2.10323 23.8811C1.90854 23.6361 1.78629 23.4584 1.60744 23.1982C1.45123 22.9684 1.28144 22.7169 1.16146 22.4676C0.713208 21.5418 0.212891 20.1217 0.212891 18.8079H5.83637C5.86127 19.97 6.79399 21.0822 7.5705 21.5765C9.47216 22.7841 12.5873 22.7299 14.5885 21.7391C16.6623 20.7136 16.7913 18.0122 14.8964 17.0149C13.2664 16.1563 11.3059 16.1065 9.46311 15.8095C7.75161 15.5341 5.80015 15.1374 4.35353 14.2983C3.48873 13.7953 2.70995 13.2078 2.10323 12.4338C1.09807 11.1525 0.56832 9.67603 0.56832 7.97411C0.56832 6.75349 1.046 5.39195 1.51009 4.57893C2.08512 3.56428 2.51299 3.0136 3.43213 2.19624C5.10061 0.717626 7.55013 0.041193 9.97475 0V0Z" fill="#6F7071"/>
<path fill-rule="evenodd" clip-rule="evenodd" d="M42.6245 40.4105C42.6245 40.727 43.1927 40.6164 43.5504 40.6164C43.9285 40.6143 44.3088 40.6164 44.6892 40.6164C44.7435 40.3888 45.6355 39.0186 45.8234 38.7042C46.0158 38.3812 46.8512 36.9307 47.0368 36.7985V40.6164C48.0805 40.6164 48.8864 40.7725 48.8864 40.4105V34.0732H46.8942C46.8172 34.3529 45.0174 37.1454 44.6416 37.7784L44.4741 38.0256V34.0732H42.6245V40.4105Z" fill="#6F7071"/>
<path fill-rule="evenodd" clip-rule="evenodd" d="M3.20113 38.4352C3.20113 39.0552 2.59667 39.1159 2.13484 39.1159C1.74092 39.1159 1.65942 38.9794 1.35154 38.9122V40.6162C2.19144 40.8027 1.60962 40.82 2.66685 40.82H2.77552C3.85765 40.82 4.7383 39.439 5.10279 38.6195L7.62475 33.0606C7.77417 32.7115 8.09338 32.1261 8.18393 31.7576H6.04909C6.02419 32.0351 4.72472 35.2481 4.4938 35.8552C4.38967 36.1305 4.4191 36.2346 4.1995 36.3907C4.17686 36.1457 2.90456 33.3446 2.70534 32.9131C2.53781 32.5446 2.38387 32.111 2.20502 31.7576H0C0.0837636 32.1023 0.597665 33.028 0.783303 33.3901C0.925927 33.6698 1.03007 33.9343 1.18627 34.2335C1.34927 34.5435 1.43304 34.7517 1.58924 35.0725C1.8111 35.53 3.20113 38.1837 3.20113 38.4352V38.4352Z" fill="#6F7071"/>
<path fill-rule="evenodd" clip-rule="evenodd" d="M17.7897 39.5258C17.398 39.5258 17.2011 39.5714 16.9475 39.3112C16.5989 38.9556 16.5355 38.0971 17.6176 37.8608C17.8983 37.8001 18.1089 37.7741 18.3896 37.7133C18.7337 37.6375 18.8718 37.5421 19.1412 37.4814C19.1412 38.2554 19.148 39.5258 17.7897 39.5258V39.5258ZM17.312 40.8202H16.9113C16.3974 40.7876 15.8971 40.625 15.5303 40.3259C14.7606 39.6949 14.7199 38.1491 15.4601 37.3621C16.5536 36.2022 19.1412 36.9936 19.1412 35.9811C19.1412 35.5713 18.8401 35.3003 18.4304 35.3003C17.6901 35.3003 17.0222 35.2006 16.9362 36.187C16.6623 36.187 15.3334 36.2347 15.1885 36.1545C14.8829 35.9832 15.5439 33.8694 17.7897 33.8694C19.5872 33.8694 21.0067 34.0645 20.9931 36.1849C20.9908 36.6488 20.898 39.7275 21.0814 40.0527C21.1221 40.1242 21.19 40.1893 21.2036 40.2088C21.3666 40.4061 21.3485 40.1763 21.3485 40.6164H19.3563C19.2884 40.341 19.2137 40.289 19.2137 39.9334C18.9352 40.1112 18.7586 40.3454 18.41 40.5275C18.0863 40.6966 17.7037 40.7942 17.312 40.8202V40.8202Z" fill="#6F7071"/>
<path fill-rule="evenodd" clip-rule="evenodd" d="M50.1675 40.4105C50.1675 40.7726 50.9734 40.6165 52.0171 40.6165C52.0171 38.8105 51.7545 38.5156 52.7302 37.8891C52.8864 38.1731 52.9951 38.2815 53.1852 38.5438C53.3686 38.7975 53.4841 38.9926 53.6742 39.2333L54.65 40.6165H56.9999C56.9048 40.2826 54.4779 37.3904 54.1519 36.7985C54.582 36.185 56.2483 34.9427 56.8572 34.0733C56.2641 34.0733 55.6687 34.0776 55.0756 34.0733C54.2289 34.0646 54.4802 34.0559 53.8848 34.7042C53.5837 35.0316 52.325 36.2608 52.0171 36.4581V34.0733H50.1675V40.4105V40.4105Z" fill="#6F7071"/>
<path fill-rule="evenodd" clip-rule="evenodd" d="M35.1533 40.6164H37.0029V37.8218H39.4932V40.4105C39.4932 40.7725 40.2991 40.6164 41.3428 40.6164V34.0732H39.4932V36.3909H37.0029V34.0732H35.1533V40.6164V40.6164Z" fill="#6F7071"/>
<path fill-rule="evenodd" clip-rule="evenodd" d="M24.8346 40.8202C25.8353 40.8202 26.4578 40.6836 27.1642 40.1199C27.6192 39.7578 28.1082 38.9361 28.1082 38.1621C25.1403 38.1621 26.7182 38.1036 25.9236 38.9318C25.3915 39.4868 24.4 39.4933 23.9676 38.7215C23.868 38.5459 23.8023 38.3573 23.7774 38.1535C23.6823 37.4033 23.6484 36.7833 23.9359 36.0743C24.3683 35.0098 26.1567 35.1225 26.1862 36.3908H28.1082C28.1082 34.9252 26.7272 33.8694 25.4029 33.8694C24.2098 33.8694 23.3948 33.9344 22.5458 34.9469C21.2102 36.5448 21.4796 40.8202 24.8346 40.8202V40.8202Z" fill="#6F7071"/>
<path fill-rule="evenodd" clip-rule="evenodd" d="M8.0415 36.5275C8.0415 38.121 9.6715 38.4852 10.774 38.3291L12.1686 38.095V40.6164C13.2122 40.6164 14.0181 40.7725 14.0181 40.4105V34.0732H12.1686V36.7985C11.7837 36.8852 9.89109 37.4207 9.89109 36.3237V34.0732H8.0415V36.5275V36.5275Z" fill="#6F7071"/>
<path fill-rule="evenodd" clip-rule="evenodd" d="M28.5342 35.3004C28.5342 35.4565 28.584 35.5042 28.7492 35.5042H30.5988V40.6164C31.6425 40.6164 32.4484 40.7725 32.4484 40.4105V35.5042H34.3003C34.6512 35.5042 34.5131 34.9686 34.5131 34.0732H28.5342V35.3004V35.3004Z" fill="#6F7071"/>
</svg>
