<svg width="217" height="168" viewBox="0 0 217 168" fill="none" xmlns="http://www.w3.org/2000/svg">
<g filter="url(#filter0_d_314_11)">
<path fill-rule="evenodd" clip-rule="evenodd" d="M32.2068 32.7498C32.2068 26.6236 39.0533 22.0387 45.3499 22.0387C53.4355 22.0387 59.1744 22.6428 63.5115 29.9307C67.1206 36.0027 61.3894 34.9416 75.5393 34.9416V51.2523C74.5247 50.9812 72.4801 48.5493 64.8824 46.5744C60.8705 45.5366 55.9758 44.8938 51.6077 44.2664C47.4719 43.6701 42.1745 42.9266 39.0223 41.517C36.9622 40.5954 35.8547 39.9835 34.3289 38.4191C33.1827 37.2418 32.2068 34.9803 32.2068 32.7498V32.7498ZM46.1243 5H47.7817C53.5284 5.10843 59.1357 6.2779 63.6974 8.32254C72.2245 12.1562 74.0136 16.0519 75.5393 17.1749C75.5393 15.1458 75.5393 13.1166 75.5393 11.0875C75.5393 8.74077 75.0746 5.97585 76.2673 5.97585H93.5538V53.6842C94.7311 52.9019 95.4513 51.8022 96.4117 50.7101L102.011 44.6149C102.53 44.1038 103.003 43.701 103.459 43.1512C106.131 39.9603 109.013 37.1799 111.638 34.0432C112.289 33.261 115.441 29.83 115.952 29.83H137.862C139.403 29.83 137.707 31.0847 137.312 31.4719L128.956 40.6418C128.313 41.4783 128.042 41.7184 127.329 42.4231L115.766 55.2099C114.821 56.2787 113.357 57.5798 112.544 58.8035C113.048 59.7484 113.59 60.6003 114.202 61.5607L132.154 91.2854C132.828 92.4007 138.327 101.16 138.59 102.136H117.656L102.089 76.3146C101.345 75.0677 100.563 73.9602 99.8814 72.6745C99.0294 73.2477 98.8436 73.6272 98.2162 74.4171C97.5424 75.2613 93.5538 79.0641 93.5538 79.7379V102.136H76.2673C75.0978 102.136 75.5393 99.8358 75.5393 98.7282C75.5393 97.3419 75.5393 95.9633 75.5393 94.5847C74.7106 94.8093 74.9042 94.9023 74.2149 95.4522L70.7452 97.8298C62.466 102.415 57.2382 103.104 47.5416 103.104C40.1531 103.104 31.0451 100.572 25.3914 96.2886C22.5877 94.1743 22.2315 93.818 20.0861 91.3629C19.6602 90.8827 19.6292 90.8827 19.1955 90.3096C18.5294 89.4344 18.1112 88.7993 17.4993 87.87C16.965 87.049 16.3841 86.1506 15.9736 85.2599C14.4401 81.9529 12.7285 76.88 12.7285 72.1866H31.9667C32.0519 76.3379 35.2428 80.311 37.8993 82.0768C44.405 86.3907 55.0619 86.1971 61.9084 82.6577C69.0026 78.9944 69.4441 69.3443 62.9617 65.7816C57.3854 62.7147 50.6783 62.5365 44.374 61.4755C38.5189 60.4919 31.8428 59.0746 26.8939 56.0773C23.9353 54.2805 21.2711 52.1817 19.1955 49.4167C15.7568 44.8395 13.9445 39.5653 13.9445 33.4856C13.9445 29.1252 15.5786 24.2615 17.1663 21.3571C19.1335 17.7325 20.5973 15.7653 23.7417 12.8455C29.4497 7.56355 37.8296 5.14715 46.1243 5V5Z" fill="white"/>
<path fill-rule="evenodd" clip-rule="evenodd" d="M157.82 149.356C157.82 150.487 159.764 150.092 160.988 150.092C162.281 150.084 163.582 150.092 164.884 150.092C165.069 149.279 168.121 144.384 168.764 143.261C169.422 142.107 172.28 136.926 172.915 136.454V150.092C176.485 150.092 179.243 150.65 179.243 149.356V126.718H172.427C172.164 127.717 166.007 137.693 164.721 139.954L164.148 140.837V126.718H157.82V149.356Z" fill="white"/>
<path fill-rule="evenodd" clip-rule="evenodd" d="M22.9512 142.301C22.9512 144.516 20.8833 144.733 19.3034 144.733C17.9558 144.733 17.677 144.245 16.6237 144.005V150.092C19.497 150.758 17.5066 150.82 21.1234 150.82H21.4952C25.1972 150.82 28.21 145.887 29.4569 142.959L38.0847 123.101C38.5958 121.855 39.6879 119.763 39.9977 118.447H32.6943C32.6091 119.438 28.1635 130.916 27.3735 133.085C27.0173 134.068 27.118 134.44 26.3667 134.998C26.2893 134.122 21.9366 124.116 21.2551 122.575C20.682 121.258 20.1553 119.709 19.5435 118.447H12C12.2866 119.678 14.0446 122.985 14.6797 124.279C15.1676 125.278 15.5239 126.223 16.0583 127.291C16.6159 128.399 16.9025 129.142 17.4369 130.289C18.1959 131.923 22.9512 141.403 22.9512 142.301V142.301Z" fill="white"/>
<path fill-rule="evenodd" clip-rule="evenodd" d="M72.8585 146.197C71.5187 146.197 70.8449 146.359 69.9775 145.43C68.7847 144.16 68.5679 141.093 72.2699 140.249C73.2303 140.032 73.9506 139.939 74.9109 139.722C76.0881 139.451 76.5606 139.11 77.4822 138.893C77.4822 141.658 77.5055 146.197 72.8585 146.197V146.197ZM71.2244 150.82H69.8535C68.0955 150.704 66.3838 150.123 65.1292 149.054C62.4959 146.801 62.3565 141.279 64.8891 138.467C68.6299 134.324 77.4822 137.151 77.4822 133.534C77.4822 132.07 76.4522 131.102 75.0503 131.102C72.5178 131.102 70.233 130.746 69.9387 134.269C69.0016 134.269 64.4554 134.44 63.9597 134.153C62.9141 133.541 65.1756 125.99 72.8585 125.99C79.008 125.99 83.864 126.687 83.8175 134.262C83.8098 135.919 83.4922 146.917 84.1196 148.079C84.259 148.334 84.4913 148.566 84.5378 148.636C85.0954 149.341 85.0335 148.52 85.0335 150.092H78.218C77.9856 149.109 77.7301 148.923 77.7301 147.653C76.7774 148.288 76.1733 149.124 74.9806 149.775C73.8731 150.379 72.5642 150.727 71.2244 150.82V150.82Z" fill="white"/>
<path fill-rule="evenodd" clip-rule="evenodd" d="M183.626 149.357C183.626 150.65 186.383 150.093 189.954 150.093C189.954 143.641 189.055 142.588 192.393 140.349C192.928 141.364 193.299 141.751 193.95 142.688C194.577 143.595 194.972 144.292 195.623 145.151L198.961 150.093H207C206.675 148.9 198.372 138.568 197.257 136.454C198.728 134.262 204.429 129.824 206.512 126.719C204.483 126.719 202.446 126.734 200.417 126.719C197.52 126.688 198.38 126.657 196.343 128.972C195.313 130.142 191.007 134.533 189.954 135.238V126.719H183.626V149.357V149.357Z" fill="white"/>
<path fill-rule="evenodd" clip-rule="evenodd" d="M132.262 150.092H138.589V140.109H147.109V149.356C147.109 150.65 149.866 150.092 153.436 150.092V126.718H147.109V134.998H138.589V126.718H132.262V150.092V150.092Z" fill="white"/>
<path fill-rule="evenodd" clip-rule="evenodd" d="M96.9614 150.82C100.385 150.82 102.514 150.332 104.931 148.319C106.488 147.025 108.16 144.09 108.16 141.325C98.0069 141.325 103.405 141.116 100.687 144.074C98.8666 146.057 95.4744 146.08 93.9951 143.323C93.6543 142.696 93.4297 142.022 93.3445 141.294C93.0192 138.614 92.9031 136.399 93.8867 133.867C95.3659 130.064 101.484 130.467 101.585 134.998H108.16C108.16 129.762 103.436 125.99 98.9053 125.99C94.8238 125.99 92.0356 126.223 89.1313 129.839C84.5618 135.547 85.4835 150.82 96.9614 150.82V150.82Z" fill="white"/>
<path fill-rule="evenodd" clip-rule="evenodd" d="M39.5098 135.485C39.5098 141.178 45.0861 142.479 48.8578 141.921L53.6286 141.085V150.092C57.199 150.092 59.9562 150.65 59.9562 149.356V126.718H53.6286V136.454C52.312 136.763 45.8373 138.676 45.8373 134.757V126.718H39.5098V135.485V135.485Z" fill="white"/>
<path fill-rule="evenodd" clip-rule="evenodd" d="M109.616 131.102C109.616 131.659 109.787 131.83 110.352 131.83H116.68V150.092C120.25 150.092 123.007 150.65 123.007 149.356V131.83H129.342C130.543 131.83 130.07 129.917 130.07 126.718H109.616V131.102V131.102Z" fill="white"/>
</g>
<defs>
<filter id="filter0_d_314_11" x="0" y="0" width="217" height="167.82" filterUnits="userSpaceOnUse" color-interpolation-filters="sRGB">
<feFlood flood-opacity="0" result="BackgroundImageFix"/>
<feColorMatrix in="SourceAlpha" type="matrix" values="0 0 0 0 0 0 0 0 0 0 0 0 0 0 0 0 0 0 127 0" result="hardAlpha"/>
<feOffset dx="-1" dy="6"/>
<feGaussianBlur stdDeviation="5.5"/>
<feComposite in2="hardAlpha" operator="out"/>
<feColorMatrix type="matrix" values="0 0 0 0 0.0431373 0 0 0 0 0.180392 0 0 0 0 0.458824 0 0 0 1 0"/>
<feBlend mode="normal" in2="BackgroundImageFix" result="effect1_dropShadow_314_11"/>
<feBlend mode="normal" in="SourceGraphic" in2="effect1_dropShadow_314_11" result="shape"/>
</filter>
</defs>
</svg>
