<svg width="452" height="282" viewBox="0 0 452 282" fill="none" xmlns="http://www.w3.org/2000/svg">
<path d="M7.91447 54.6778C6.10588 54.6778 4.67417 55.2818 3.62368 56.4854C2.57751 57.6911 2.05551 59.3407 2.05551 61.4361C2.05551 63.5944 2.55802 65.2591 3.56953 66.4324C4.57887 67.6079 6.02141 68.1967 7.89498 68.1967C9.04078 68.1967 10.3534 67.9888 11.8262 67.5775V69.2596C10.6848 69.6882 9.27687 69.9046 7.59824 69.9046C5.17018 69.9046 3.29661 69.1708 1.98187 67.6966C0.662788 66.2246 0 64.1334 0 61.421C0 59.7217 0.318398 58.2345 0.955195 56.9573C1.58983 55.6801 2.50387 54.6973 3.70598 54.0089C4.9016 53.3162 6.31382 52.9698 7.93613 52.9698C9.66891 52.9698 11.1764 53.2859 12.4695 53.9115L11.6573 55.5588C10.4118 54.97 9.16424 54.6778 7.91447 54.6778V54.6778ZM23.4727 58.9229H19.457V69.673H17.5877V58.9229H13.6153V57.3296H23.4727V58.9229V58.9229ZM33.512 69.673L33.1373 67.9174H33.0463C32.429 68.6902 31.8182 69.2163 31.2052 69.4933C30.5901 69.7661 29.8298 69.9046 28.9136 69.9046C27.6855 69.9046 26.7281 69.5886 26.0307 68.9587C25.3397 68.3244 24.9889 67.4282 24.9889 66.2592C24.9889 63.7633 26.9859 62.4557 30.9713 62.3367L33.0679 62.2674V61.5033C33.0679 60.5378 32.86 59.8212 32.4463 59.3601C32.0261 58.8991 31.3612 58.6696 30.4449 58.6696C29.4139 58.6696 28.2508 58.9835 26.9512 59.6156L26.3772 58.1847C26.9859 57.8535 27.6508 57.5915 28.3743 57.4032C29.102 57.2149 29.8298 57.124 30.5554 57.124C32.0304 57.124 33.1178 57.4487 33.8304 58.1024C34.543 58.7562 34.896 59.8039 34.896 61.2456V69.673H33.512V69.673ZM29.2818 68.359C30.4493 68.359 31.3633 68.0386 32.0261 67.4022C32.6911 66.7636 33.0268 65.8717 33.0268 64.7201V63.6052L31.1532 63.6875C29.6674 63.7373 28.593 63.9667 27.9367 64.378C27.2783 64.7872 26.9512 65.4236 26.9512 66.2852C26.9512 66.9627 27.1548 67.478 27.5664 67.8287C27.9757 68.1815 28.5476 68.359 29.2818 68.359ZM47.0883 58.9229H43.0726V69.673H41.2012V58.9229H37.2309V57.3296H47.0883V58.9229ZM51.4008 62.4298H55.215C58.3687 62.4298 59.9499 63.5901 59.9499 65.9085C59.9499 67.1273 59.5383 68.0581 58.7152 68.7054C57.8922 69.3505 56.6879 69.673 55.1024 69.673H49.5315V57.3296H51.4008V62.4298V62.4298ZM51.4008 64.0447V68.1057H55.0093C56.0034 68.1057 56.7637 67.9326 57.2879 67.5862C57.8142 67.2442 58.0806 66.7203 58.0806 66.0254C58.0806 65.3392 57.8337 64.8413 57.3507 64.5209C56.8655 64.2027 56.0684 64.0447 54.9573 64.0447H51.4008V64.0447ZM71.0613 69.9046C69.8072 69.9046 68.7329 69.6882 67.8492 69.2617V67.6014C68.2997 67.7745 68.787 67.9282 69.3155 68.0624C69.8375 68.1967 70.4418 68.2659 71.1263 68.2659C72.4345 68.2659 73.4439 67.9174 74.1522 67.2204C74.8626 66.5211 75.2546 65.4777 75.3283 64.0901H69.0773V62.499H75.3088C75.1853 61.2067 74.8084 60.2607 74.1738 59.661C73.5392 59.0614 72.6208 58.7605 71.4079 58.7605C70.6346 58.7605 69.6794 58.964 68.5466 59.3688L68.0181 57.7885C68.4296 57.5915 68.9451 57.4314 69.5603 57.295C70.1776 57.1651 70.7841 57.1002 71.384 57.1002C73.3096 57.1002 74.7716 57.65 75.7701 58.7497C76.7665 59.8537 77.2668 61.4405 77.2668 63.5143C77.2668 65.5362 76.7253 67.1056 75.6402 68.2248C74.555 69.344 73.028 69.9046 71.0613 69.9046V69.9046ZM88.6599 58.9229H84.642V69.673H82.7727V58.9229H78.8025V57.3296H88.6599V58.9229V58.9229ZM98.697 69.673L98.3244 67.9174H98.2313C97.6162 68.6902 97.0054 69.2163 96.3924 69.4933C95.7772 69.7661 95.0148 69.9046 94.1008 69.9046C92.8727 69.9046 91.9153 69.5886 91.2179 68.9587C90.5248 68.3244 90.176 67.4282 90.176 66.2592C90.176 63.7633 92.1731 62.4557 96.1585 62.3367L98.2551 62.2674V61.5033C98.2551 60.5378 98.0472 59.8212 97.6313 59.3601C97.2111 58.8991 96.5462 58.6696 95.63 58.6696C94.599 58.6696 93.438 58.9835 92.1384 59.6156L91.5644 58.1847C92.1731 57.8535 92.838 57.5915 93.5615 57.4032C94.2871 57.2149 95.0148 57.124 95.7426 57.124C97.2155 57.124 98.3049 57.4487 99.0175 58.1024C99.728 58.7562 100.083 59.8039 100.083 61.2456V69.673H98.697V69.673ZM94.469 68.359C95.6343 68.359 96.5505 68.0386 97.2111 67.4022C97.8782 66.7636 98.2118 65.8717 98.2118 64.7201V63.6052L96.3382 63.6875C94.8545 63.7373 93.7802 63.9667 93.1218 64.378C92.4655 64.7872 92.1384 65.4236 92.1384 66.2852C92.1384 66.9627 92.342 67.478 92.7535 67.8287C93.1608 68.1815 93.7347 68.359 94.469 68.359ZM113.153 69.673H111.26V58.9229H107.549C107.346 61.5985 107.062 63.7221 106.705 65.2894C106.343 66.8632 105.873 68.0127 105.299 68.7422C104.723 69.4695 103.991 69.8354 103.107 69.8354C102.7 69.8354 102.375 69.7899 102.137 69.7012V68.3136C102.303 68.359 102.492 68.3807 102.7 68.3807C103.564 68.3807 104.253 67.4693 104.764 65.6444C105.277 63.8217 105.661 61.0487 105.927 57.3296H113.153V69.673ZM127.78 63.4905C127.78 65.5059 127.273 67.0775 126.261 68.2096C125.245 69.3396 123.844 69.9046 122.055 69.9046C120.95 69.9046 119.969 69.647 119.111 69.1275C118.258 68.608 117.595 67.8633 117.129 66.8935C116.662 65.9237 116.43 64.7893 116.43 63.4905C116.43 61.4751 116.934 59.9078 117.942 58.7843C118.947 57.6608 120.346 57.1002 122.133 57.1002C123.863 57.1002 125.232 57.6738 126.253 58.8233C127.273 59.9728 127.78 61.5292 127.78 63.4905ZM118.368 63.4905C118.368 65.0664 118.685 66.27 119.315 67.097C119.947 67.9239 120.874 68.3352 122.1 68.3352C123.324 68.3352 124.255 67.9239 124.89 67.1013C125.525 66.2787 125.841 65.0751 125.841 63.4905C125.841 61.921 125.525 60.7304 124.89 59.9143C124.255 59.1004 123.318 58.6912 122.079 58.6912C120.851 58.6912 119.928 59.0917 119.304 59.8948C118.68 60.698 118.368 61.8994 118.368 63.4905V63.4905ZM132.932 57.3296V62.499H139.857V57.3296H141.726V69.673H139.857V64.1139H132.932V69.673H131.061V57.3296H132.932ZM156.355 63.4905C156.355 65.5059 155.846 67.0775 154.835 68.2096C153.819 69.3396 152.42 69.9046 150.631 69.9046C149.526 69.9046 148.545 69.647 147.687 69.1275C146.831 68.608 146.171 67.8633 145.705 66.8935C145.235 65.9237 145.006 64.7893 145.006 63.4905C145.006 61.4751 145.508 59.9078 146.517 58.7843C147.52 57.6608 148.922 57.1002 150.706 57.1002C152.437 57.1002 153.808 57.6738 154.826 58.8233C155.846 59.9728 156.355 61.5292 156.355 63.4905ZM146.944 63.4905C146.944 65.0664 147.258 66.27 147.891 67.097C148.521 67.9239 149.448 68.3352 150.676 68.3352C151.9 68.3352 152.831 67.9239 153.466 67.1013C154.1 66.2787 154.415 65.0751 154.415 63.4905C154.415 61.921 154.1 60.7304 153.466 59.9143C152.831 59.1004 151.891 58.6912 150.652 58.6912C149.426 58.6912 148.501 59.0917 147.88 59.8948C147.256 60.698 146.944 61.8994 146.944 63.4905V63.4905ZM166.05 67.8698L166.401 66.8242L166.884 65.4929L170.233 57.3534H172.609V69.673H170.956V59.4792L170.729 60.133L170.075 61.8561L166.884 69.673H165.316L162.125 61.8366C161.729 60.83 161.452 60.0464 161.302 59.4792V69.673H159.637V57.3534H161.922L165.162 65.179C165.485 66.0059 165.782 66.9043 166.05 67.8698V67.8698ZM184.467 69.9046C183.213 69.9046 182.139 69.6882 181.255 69.2617V67.6014C181.706 67.7745 182.193 67.9282 182.722 68.0624C183.244 68.1967 183.848 68.2659 184.532 68.2659C185.841 68.2659 186.85 67.9174 187.556 67.2204C188.269 66.5211 188.661 65.4777 188.734 64.0901H182.481V62.499H188.715C188.591 61.2067 188.215 60.2607 187.58 59.661C186.945 59.0614 186.025 58.7605 184.814 58.7605C184.041 58.7605 183.086 58.964 181.951 59.3688L181.424 57.7885C181.836 57.5915 182.351 57.4314 182.966 57.295C183.582 57.1651 184.19 57.1002 184.79 57.1002C186.714 57.1002 188.176 57.65 189.176 58.7497C190.173 59.8537 190.673 61.4405 190.673 63.5143C190.673 65.5362 190.131 67.1056 189.046 68.2248C187.961 69.344 186.434 69.9046 184.467 69.9046V69.9046ZM207.193 63.4905C207.193 65.363 206.662 66.8523 205.597 67.9585C204.535 69.0669 203.049 69.7012 201.139 69.8592V75.2104H199.291V69.8592C197.424 69.7163 195.951 69.0777 194.871 67.9434C193.79 66.8091 193.246 65.324 193.246 63.4905C193.246 61.6223 193.785 60.133 194.866 59.0268C195.945 57.9228 197.442 57.295 199.356 57.1456V52.1385H201.139V57.1456C203.028 57.3188 204.509 57.9682 205.581 59.0961C206.656 60.2217 207.193 61.6873 207.193 63.4905V63.4905ZM195.208 63.4905C195.208 64.9322 195.54 66.0622 196.203 66.8827C196.863 67.7009 197.914 68.1772 199.356 68.3136V58.7151C197.968 58.8428 196.928 59.2952 196.24 60.0724C195.551 60.8495 195.208 61.9903 195.208 63.4905ZM205.254 63.4905C205.254 60.6135 203.881 59.0311 201.139 58.7389V68.3136C202.568 68.1707 203.612 67.6901 204.269 66.8697C204.927 66.0514 205.254 64.9257 205.254 63.4905ZM223.695 63.4905C223.695 65.363 223.165 66.8523 222.099 67.9585C221.036 69.0669 219.552 69.7012 217.639 69.8592V75.2104H215.792V69.8592C213.927 69.7163 212.454 69.0777 211.371 67.9434C210.29 66.8091 209.749 65.324 209.749 63.4905C209.749 61.6223 210.288 60.133 211.369 59.0268C212.445 57.9228 213.942 57.295 215.859 57.1456V52.1385H217.639V57.1456C219.528 57.3188 221.01 57.9682 222.084 59.0961C223.156 60.2217 223.695 61.6873 223.695 63.4905V63.4905ZM211.711 63.4905C211.711 64.9322 212.042 66.0622 212.703 66.8827C213.366 67.7009 214.416 68.1772 215.859 68.3136V58.7151C214.468 58.8428 213.431 59.2952 212.742 60.0724C212.053 60.8495 211.711 61.9903 211.711 63.4905V63.4905ZM221.757 63.4905C221.757 60.6135 220.381 59.0311 217.639 58.7389V68.3136C219.071 68.1707 220.113 67.6901 220.771 66.8697C221.43 66.0514 221.757 64.9257 221.757 63.4905ZM232.18 69.9046C230.351 69.9046 228.911 69.3461 227.858 68.2356C226.799 67.1251 226.273 65.5773 226.273 63.6031C226.273 61.6093 226.76 60.0291 227.744 58.8579C228.723 57.6846 230.04 57.1002 231.694 57.1002C233.241 57.1002 234.467 57.6067 235.368 58.6263C236.269 59.6459 236.722 60.988 236.722 62.6527V63.8369H228.211C228.25 65.2872 228.617 66.3869 229.307 67.1403C230.005 67.8893 230.982 68.2659 232.249 68.2659C233.574 68.2659 234.891 67.9888 236.191 67.4325V69.1015C235.53 69.3894 234.902 69.5929 234.313 69.7206C233.726 69.8419 233.013 69.9046 232.18 69.9046V69.9046ZM231.671 58.6696C230.678 58.6696 229.89 58.9921 229.301 59.6372C228.707 60.2802 228.361 61.172 228.259 62.315H234.714C234.714 61.1374 234.452 60.2325 233.925 59.6069C233.399 58.9792 232.647 58.6696 231.671 58.6696V58.6696ZM247.114 57.3296H249.165L243.832 63.287L249.603 69.673H247.417L241.781 63.4212V69.673H239.912V57.3296H241.781V63.3325L247.114 57.3296V57.3296ZM260.227 58.9229H256.209V69.673H254.34V58.9229H250.369V57.3296H260.227V58.9229ZM264.427 57.3296V65.1552L264.346 67.2095L264.316 67.8503L271.002 57.3296H273.333V69.673H271.587V62.1289L271.622 60.6417L271.68 59.1761L265.001 69.673H262.67V57.3296H264.427V57.3296ZM287.323 60.4252C287.323 61.2305 287.093 61.841 286.63 62.2566C286.169 62.6722 285.519 62.9515 284.685 63.0943V63.1983C285.738 63.3411 286.507 63.6485 286.992 64.1204C287.477 64.5945 287.719 65.2483 287.719 66.0817C287.719 67.229 287.297 68.1166 286.45 68.74C285.603 69.3613 284.369 69.673 282.744 69.673H277.301V57.3296H282.723C285.787 57.3296 287.323 58.36 287.323 60.4252ZM285.846 65.9561C285.846 65.2894 285.592 64.8023 285.083 64.4971C284.577 64.194 283.738 64.0447 282.564 64.0447H279.17V68.1057H282.61C284.769 68.1057 285.846 67.3892 285.846 65.9561ZM285.495 60.6027C285.495 60.0031 285.265 59.5766 284.804 59.3212C284.341 59.0722 283.641 58.9445 282.703 58.9445H279.17V62.4298H282.341C283.498 62.4298 284.315 62.2869 284.787 62.0033C285.261 61.7132 285.495 61.2478 285.495 60.6027V60.6027ZM292.303 57.3296V62.499H299.227V57.3296H301.097V69.673H299.227V64.1139H292.303V69.673H290.431V57.3296H292.303ZM315.726 63.4905C315.726 65.5059 315.217 67.0775 314.205 68.2096C313.189 69.3396 311.788 69.9046 310.001 69.9046C308.896 69.9046 307.915 69.647 307.057 69.1275C306.202 68.608 305.541 67.8633 305.075 66.8935C304.605 65.9237 304.376 64.7893 304.376 63.4905C304.376 61.4751 304.878 59.9078 305.888 58.7843C306.89 57.6608 308.292 57.1002 310.077 57.1002C311.807 57.1002 313.178 57.6738 314.196 58.8233C315.216 59.9728 315.726 61.5292 315.726 63.4905V63.4905ZM306.314 63.4905C306.314 65.0664 306.628 66.27 307.261 67.097C307.891 67.9239 308.818 68.3352 310.046 68.3352C311.27 68.3352 312.199 67.9239 312.836 67.1013C313.471 66.2787 313.785 65.0751 313.785 63.4905C313.785 61.921 313.471 60.7304 312.836 59.9143C312.199 59.1004 311.261 58.6912 310.022 58.6912C308.797 58.6912 307.872 59.0917 307.248 59.8948C306.626 60.698 306.314 61.8994 306.314 63.4905V63.4905ZM323.943 69.9046C322.154 69.9046 320.768 69.3548 319.787 68.2551C318.806 67.1511 318.318 65.5946 318.318 63.5836C318.318 61.5141 318.814 59.9187 319.811 58.7908C320.807 57.6651 322.223 57.1002 324.067 57.1002C324.658 57.1002 325.251 57.1651 325.847 57.2928C326.438 57.4184 326.906 57.5699 327.244 57.7452L326.666 59.3342C326.254 59.1675 325.804 59.0333 325.316 58.9229C324.827 58.8146 324.396 58.7605 324.019 58.7605C321.511 58.7605 320.257 60.3603 320.257 63.5598C320.257 65.0751 320.56 66.2397 321.173 67.0515C321.788 67.8633 322.691 68.2659 323.896 68.2659C324.924 68.2659 325.981 68.043 327.062 67.6014V69.2617C326.235 69.6882 325.197 69.9046 323.943 69.9046V69.9046ZM338.327 58.9229H334.312V69.673H332.442V58.9229H328.47V57.3296H338.327V58.9229V58.9229ZM342.529 57.3296V65.1552L342.449 67.2095L342.417 67.8503L349.105 57.3296H351.436V69.673H349.69V62.1289L349.725 60.6417L349.781 59.1761L343.103 69.673H340.771V57.3296H342.529V57.3296ZM360.758 62.2761C360.758 59.5723 361.155 57.466 361.952 55.9507C362.747 54.4353 364.009 53.4937 365.738 53.117C367.884 52.6581 369.777 52.2857 371.415 52L371.766 53.6474C369.158 54.0825 367.295 54.4267 366.175 54.6821C365.086 54.9311 364.272 55.5156 363.726 56.4377C363.182 57.3621 362.883 58.622 362.831 60.2152H362.968C363.433 59.5788 364.033 59.0831 364.768 58.7259C365.506 58.3644 366.275 58.1847 367.079 58.1847C368.595 58.1847 369.78 58.6761 370.626 59.661C371.478 60.646 371.9 62.0098 371.9 63.7524C371.9 65.6834 371.408 67.19 370.423 68.2746C369.442 69.3613 368.068 69.9046 366.31 69.9046C364.575 69.9046 363.217 69.2401 362.231 67.9087C361.248 66.5818 360.758 64.7028 360.758 62.2761V62.2761ZM366.479 68.3352C368.772 68.3352 369.916 66.874 369.916 63.9559C369.916 61.1677 368.876 59.7758 366.795 59.7758C366.225 59.7758 365.675 59.8948 365.144 60.1308C364.618 60.3689 364.133 60.6806 363.693 61.0725C363.251 61.46 362.913 61.8648 362.675 62.2761C362.675 64.2525 362.987 65.7548 363.609 66.7852C364.233 67.82 365.19 68.3352 366.479 68.3352V68.3352ZM373.2 57.3296H375.205L377.915 64.3672C378.506 65.9735 378.877 67.1359 379.017 67.8481H379.106C379.206 67.4628 379.41 66.8091 379.721 65.8825C380.033 64.956 381.053 62.1072 382.784 57.3296H384.79L379.479 71.381C378.952 72.7729 378.342 73.7579 377.638 74.3381C376.932 74.9182 376.072 75.2104 375.047 75.2104C374.478 75.2104 373.912 75.1455 373.358 75.0221V73.5306C373.769 73.6194 374.231 73.6648 374.744 73.6648C376.028 73.6648 376.949 72.9418 377.495 71.5044L378.184 69.7423L373.2 57.3296V57.3296ZM392.542 69.9046C391.738 69.9046 391.002 69.7553 390.337 69.4587C389.676 69.1621 389.113 68.7054 388.663 68.0884H388.528C388.617 68.8093 388.663 69.4933 388.663 70.1384V75.2104H386.793V57.3296H388.314L388.576 59.0138H388.663C389.143 58.3384 389.707 57.8492 390.346 57.5504C390.982 57.2495 391.714 57.1002 392.542 57.1002C394.181 57.1002 395.446 57.6608 396.339 58.78C397.227 59.8992 397.673 61.4686 397.673 63.4905C397.673 65.521 397.22 67.097 396.315 68.2205C395.407 69.344 394.153 69.9046 392.542 69.9046V69.9046ZM392.273 58.6912C391.01 58.6912 390.094 59.0419 389.533 59.7368C388.968 60.4382 388.68 61.5487 388.663 63.0749V63.4905C388.663 65.2245 388.953 66.467 389.533 67.2117C390.109 67.9629 391.041 68.3352 392.319 68.3352C393.384 68.3352 394.223 67.9044 394.827 67.0385C395.431 66.1748 395.734 64.9863 395.734 63.4667C395.734 61.9297 395.431 60.7499 394.827 59.9251C394.223 59.1025 393.369 58.6912 392.273 58.6912V58.6912ZM406.157 69.9046C404.329 69.9046 402.891 69.3461 401.836 68.2356C400.779 67.1251 400.253 65.5773 400.253 63.6031C400.253 61.6093 400.74 60.0291 401.721 58.8579C402.702 57.6846 404.019 57.1002 405.672 57.1002C407.218 57.1002 408.447 57.6067 409.348 58.6263C410.246 59.6459 410.701 60.988 410.701 62.6527V63.8369H402.191C402.23 65.2872 402.594 66.3869 403.287 67.1403C403.985 67.8893 404.962 68.2659 406.226 68.2659C407.554 68.2659 408.869 67.9888 410.171 67.4325V69.1015C409.508 69.3894 408.882 69.5929 408.293 69.7206C407.704 69.8419 406.993 69.9046 406.157 69.9046V69.9046ZM405.65 58.6696C404.656 58.6696 403.868 58.9921 403.279 59.6372C402.687 60.2802 402.341 61.172 402.237 62.315H408.693C408.693 61.1374 408.431 60.2325 407.905 59.6069C407.377 58.9792 406.627 58.6696 405.65 58.6696V58.6696ZM415.761 57.3296V62.499H422.686V57.3296H424.555V69.673H422.686V64.1139H415.761V69.673H413.89V57.3296H415.761ZM430.28 57.3296V65.1552L430.199 67.2095L430.169 67.8503L436.855 57.3296H439.188V69.673H437.44V62.1289L437.475 60.6417L437.533 59.1761L430.854 69.673H428.523V57.3296H430.28V57.3296ZM443.774 69.673H441.584L445.136 64.456C444.181 64.2438 443.451 63.8368 442.942 63.2329C442.437 62.6289 442.184 61.8713 442.184 60.9534C442.184 59.8299 442.561 58.9445 443.319 58.2994C444.081 57.6543 445.138 57.3296 446.496 57.3296H452V69.673H450.124V64.7374H447.005L443.774 69.673V69.673ZM444.008 60.9751C444.008 62.406 445.047 63.1225 447.116 63.1225H450.124V58.9445H446.737C444.915 58.9445 444.008 59.6221 444.008 60.9751ZM25.721 88.7488V96.5744L25.6386 98.6287L25.6083 99.2695L32.2947 88.7488H34.6274V101.092H32.8795V93.548L32.9142 92.0609L32.9726 90.5953L26.2928 101.092H23.9622V88.7488H25.721V88.7488ZM49.5272 101.324C47.7381 101.324 46.354 100.774 45.3728 99.6743C44.3917 98.5703 43.9021 97.0138 43.9021 95.0028C43.9021 92.9333 44.3982 91.3378 45.3945 90.21C46.3909 89.0843 47.8074 88.5193 49.6506 88.5193C50.2441 88.5193 50.8354 88.5843 51.4311 88.712C52.0246 88.8375 52.4902 88.9869 52.8281 89.1644L52.252 90.7534C51.8404 90.5867 51.3899 90.4525 50.9004 90.3421C50.4131 90.2338 49.982 90.1797 49.6052 90.1797C47.0948 90.1797 45.8407 91.7794 45.8407 94.9789C45.8407 96.4943 46.1461 97.6589 46.7569 98.4707C47.372 99.2825 48.2774 99.6851 49.4817 99.6851C50.5084 99.6851 51.5675 99.4621 52.6484 99.0205V100.681C51.821 101.107 50.7813 101.324 49.5272 101.324V101.324ZM63.9136 90.3421H59.8957V101.092H58.0265V90.3421H54.0562V88.7488H63.9136V90.3421ZM73.9507 101.092L73.5782 99.3366H73.485C72.8699 100.109 72.2569 100.635 71.6461 100.913C71.031 101.185 70.2686 101.324 69.3524 101.324C68.1264 101.324 67.1669 101.008 66.4716 100.378C65.7785 99.7436 65.4276 98.8474 65.4276 97.6784C65.4276 95.1824 67.4246 93.8749 71.4122 93.7559L73.5089 93.6866V92.9224C73.5089 91.957 73.3009 91.2404 72.8851 90.7793C72.4649 90.3182 71.7999 90.0888 70.8837 90.0888C69.8527 90.0888 68.6917 90.4027 67.3921 91.0348L66.8182 89.6039C67.4246 89.2727 68.0918 89.0107 68.8152 88.8224C69.5408 88.6341 70.2686 88.5431 70.9963 88.5431C72.4692 88.5431 73.5587 88.8679 74.2691 89.5216C74.9817 90.1754 75.3348 91.2231 75.3348 92.6648V101.092H73.9507V101.092ZM69.7227 99.7782C70.888 99.7782 71.8042 99.4578 72.4649 98.8192C73.132 98.1828 73.4655 97.2909 73.4655 96.1393V95.0244L71.592 95.1067C70.1061 95.1565 69.034 95.3859 68.3755 95.7972C67.717 96.2064 67.3921 96.8428 67.3921 97.7044C67.3921 98.3819 67.5957 98.8971 68.0073 99.2478C68.4145 99.6007 68.9885 99.7782 69.7227 99.7782ZM81.0638 88.7488V93.9182H87.9906V88.7488H89.8598V101.092H87.9906V95.5331H81.0638V101.092H79.1945V88.7488H81.0638ZM104.56 105.361H102.745V101.092H94.1073V105.361H92.303V99.4773H93.2734C94.2806 98.1135 95.069 96.5094 95.643 94.6715C96.2126 92.8337 96.5072 90.8573 96.531 88.7488H102.791V99.4773H104.56V105.361V105.361ZM100.986 99.4773V90.2252H98.2118C98.1122 91.892 97.7938 93.5784 97.2458 95.2863C96.7 96.9943 96.0242 98.3906 95.2119 99.4773H100.986V99.4773ZM114.621 101.092L114.249 99.3366H114.156C113.54 100.109 112.93 100.635 112.317 100.913C111.701 101.185 110.939 101.324 110.023 101.324C108.797 101.324 107.84 101.008 107.142 100.378C106.449 99.7436 106.1 98.8474 106.1 97.6784C106.1 95.1824 108.097 93.8749 112.083 93.7559L114.179 93.6866V92.9224C114.179 91.957 113.971 91.2404 113.556 90.7793C113.135 90.3182 112.47 90.0888 111.554 90.0888C110.523 90.0888 109.362 90.4027 108.063 91.0348L107.489 89.6039C108.097 89.2727 108.762 89.0107 109.486 88.8224C110.211 88.6341 110.939 88.5431 111.667 88.5431C113.14 88.5431 114.229 88.8679 114.942 89.5216C115.652 90.1754 116.007 91.2231 116.007 92.6648V101.092H114.621V101.092ZM110.393 99.7782C111.559 99.7782 112.475 99.4578 113.135 98.8192C113.802 98.1828 114.136 97.2909 114.136 96.1393V95.0244L112.262 95.1067C110.779 95.1565 109.704 95.3859 109.046 95.7972C108.39 96.2064 108.063 96.8428 108.063 97.7044C108.063 98.3819 108.266 98.8971 108.678 99.2478C109.085 99.6007 109.659 99.7782 110.393 99.7782V99.7782ZM125.614 101.324C124.81 101.324 124.076 101.174 123.409 100.878C122.748 100.581 122.185 100.125 121.734 99.5076H121.6C121.689 100.228 121.734 100.913 121.734 101.558V106.63H119.865V88.7488H121.386L121.648 90.433H121.734C122.217 89.7576 122.778 89.2683 123.417 88.9696C124.056 88.6687 124.786 88.5193 125.614 88.5193C127.253 88.5193 128.518 89.08 129.411 90.1992C130.301 91.3184 130.747 92.8878 130.747 94.9097C130.747 96.9402 130.292 98.5161 129.389 99.6397C128.479 100.763 127.225 101.324 125.614 101.324ZM125.345 90.1104C124.082 90.1104 123.166 90.4611 122.605 91.156C122.04 91.8574 121.752 92.9679 121.734 94.494V94.9097C121.734 96.6436 122.025 97.8862 122.605 98.6309C123.181 99.382 124.113 99.7544 125.39 99.7544C126.456 99.7544 127.294 99.3236 127.899 98.4577C128.503 97.594 128.806 96.4055 128.806 94.8859C128.806 93.3489 128.503 92.1691 127.899 91.3443C127.294 90.5217 126.441 90.1104 125.345 90.1104V90.1104ZM142.118 90.3421H138.103V101.092H136.231V90.3421H132.261V88.7488H142.118V90.3421V90.3421ZM154.995 94.9097C154.995 96.9251 154.488 98.4967 153.477 99.6267C152.461 100.759 151.059 101.324 149.27 101.324C148.166 101.324 147.184 101.066 146.327 100.547C145.473 100.027 144.813 99.2825 144.347 98.3127C143.877 97.3429 143.645 96.2085 143.645 94.9097C143.645 92.8943 144.15 91.327 145.157 90.2035C146.162 89.08 147.564 88.5193 149.348 88.5193C151.079 88.5193 152.45 89.093 153.468 90.2425C154.488 91.392 154.995 92.9484 154.995 94.9097ZM145.586 94.9097C145.586 96.4856 145.9 97.6892 146.533 98.5161C147.163 99.3431 148.09 99.7544 149.318 99.7544C150.54 99.7544 151.471 99.3431 152.106 98.5205C152.742 97.6979 153.056 96.4943 153.056 94.9097C153.056 93.3402 152.742 92.1496 152.106 91.3335C151.471 90.5196 150.533 90.1104 149.294 90.1104C148.066 90.1104 147.143 90.5109 146.52 91.314C145.896 92.1171 145.586 93.3186 145.586 94.9097V94.9097ZM164.692 99.289L165.041 98.2434L165.526 96.9121L168.872 88.7726H171.251V101.092H169.596V90.8984L169.371 91.5521L168.716 93.2753L165.526 101.092H163.956L160.767 93.2558C160.371 92.2492 160.094 91.4656 159.944 90.8984V101.092H158.279V88.7726H160.564L163.802 96.5982C164.125 97.4251 164.421 98.3235 164.692 99.289V99.289ZM188.442 88.7488H190.491L185.158 94.7062L190.931 101.092H188.745L183.109 94.8404V101.092H181.238V88.7488H183.109V94.7516L188.442 88.7488ZM200.814 101.092L200.441 99.3366H200.348C199.733 100.109 199.122 100.635 198.509 100.913C197.894 101.185 197.132 101.324 196.218 101.324C194.99 101.324 194.032 101.008 193.335 100.378C192.642 99.7436 192.293 98.8474 192.293 97.6784C192.293 95.1824 194.29 93.8749 198.276 93.7559L200.372 93.6866V92.9224C200.372 91.957 200.164 91.2404 199.748 90.7793C199.33 90.3182 198.663 90.0888 197.747 90.0888C196.716 90.0888 195.555 90.4027 194.255 91.0348L193.681 89.6039C194.29 89.2727 194.955 89.0107 195.679 88.8224C196.406 88.6341 197.132 88.5431 197.86 88.5431C199.333 88.5431 200.422 88.8679 201.135 89.5216C201.845 90.1754 202.2 91.2231 202.2 92.6648V101.092H200.814V101.092ZM196.586 99.7782C197.751 99.7782 198.668 99.4578 199.33 98.8192C199.995 98.1828 200.329 97.2909 200.329 96.1393V95.0244L198.455 95.1067C196.972 95.1565 195.897 95.3859 195.239 95.7972C194.583 96.2064 194.255 96.8428 194.255 97.7044C194.255 98.3819 194.459 98.8971 194.871 99.2478C195.278 99.6007 195.852 99.7782 196.586 99.7782ZM207.706 88.7488V93.2558C207.706 94.6975 208.525 95.4162 210.171 95.4162C210.856 95.4162 211.51 95.3145 212.133 95.1023C212.757 94.8902 213.465 94.5373 214.254 94.033V88.7488H216.123V101.092H214.254V95.5093C213.465 96.0527 212.733 96.4315 212.06 96.6545C211.388 96.8753 210.626 96.9857 209.779 96.9857C208.544 96.9857 207.578 96.6631 206.883 96.018C206.181 95.3708 205.833 94.494 205.833 93.39V88.7488H207.706V88.7488ZM225.307 101.324C223.479 101.324 222.041 100.765 220.986 99.6548C219.929 98.5443 219.402 96.9965 219.402 95.0222C219.402 93.0285 219.89 91.4482 220.871 90.2771C221.852 89.1038 223.167 88.5193 224.822 88.5193C226.368 88.5193 227.596 89.0259 228.497 90.0455C229.396 91.0651 229.851 92.4072 229.851 94.0719V95.256H221.341C221.38 96.7043 221.744 97.8061 222.437 98.5594C223.134 99.3084 224.111 99.6851 225.376 99.6851C226.704 99.6851 228.019 99.408 229.32 98.8517V100.521C228.658 100.809 228.032 101.012 227.443 101.14C226.853 101.261 226.143 101.324 225.307 101.324V101.324ZM224.8 90.0888C223.806 90.0888 223.017 90.4113 222.428 91.0564C221.837 91.6994 221.49 92.5912 221.386 93.7342H227.843C227.843 92.5566 227.581 91.6517 227.053 91.0261C226.526 90.3983 225.777 90.0888 224.8 90.0888V90.0888ZM237.976 101.324C236.187 101.324 234.803 100.774 233.821 99.6743C232.84 98.5703 232.351 97.0138 232.351 95.0028C232.351 92.9333 232.849 91.3378 233.845 90.21C234.842 89.0843 236.256 88.5193 238.099 88.5193C238.693 88.5193 239.284 88.5843 239.882 88.712C240.473 88.8375 240.939 88.9869 241.277 89.1644L240.7 90.7534C240.289 90.5867 239.838 90.4525 239.351 90.3421C238.862 90.2338 238.431 90.1797 238.054 90.1797C235.545 90.1797 234.291 91.7794 234.291 94.9789C234.291 96.4943 234.595 97.6589 235.205 98.4707C235.823 99.2825 236.726 99.6851 237.93 99.6851C238.957 99.6851 240.016 99.4621 241.097 99.0205V100.681C240.269 101.107 239.23 101.324 237.976 101.324V101.324ZM252.362 90.3421H248.344V101.092H246.475V90.3421H242.505V88.7488H252.362V90.3421ZM264.827 91.8444C264.827 92.6497 264.598 93.2601 264.134 93.6758C263.673 94.0914 263.023 94.3706 262.189 94.5135V94.6174C263.242 94.7603 264.011 95.0677 264.496 95.5396C264.981 96.0137 265.224 96.6675 265.224 97.5009C265.224 98.6482 264.801 99.5357 263.954 100.159C263.107 100.78 261.873 101.092 260.248 101.092H254.805V88.7488H260.227C263.292 88.7488 264.827 89.7792 264.827 91.8444ZM263.35 97.3753C263.35 96.7086 263.097 96.2215 262.588 95.9163C262.081 95.6132 261.243 95.4638 260.069 95.4638H256.675V99.5249H260.114C262.274 99.5249 263.35 98.8084 263.35 97.3753ZM262.999 92.0219C262.999 91.4223 262.77 90.9958 262.308 90.7404C261.847 90.4914 261.145 90.3637 260.207 90.3637H256.675V93.8489H259.846C261.002 93.8489 261.819 93.7061 262.291 93.4225C262.765 93.1324 262.999 92.667 262.999 92.0219V92.0219ZM275.532 101.092L275.157 99.3366H275.066C274.451 100.109 273.838 100.635 273.227 100.913C272.612 101.185 271.849 101.324 270.933 101.324C269.705 101.324 268.748 101.008 268.052 100.378C267.359 99.7436 267.008 98.8474 267.008 97.6784C267.008 95.1824 269.005 93.8749 272.991 93.7559L275.087 93.6866V92.9224C275.087 91.957 274.882 91.2404 274.466 90.7793C274.046 90.3182 273.381 90.0888 272.465 90.0888C271.433 90.0888 270.27 90.4027 268.971 91.0348L268.397 89.6039C269.005 89.2727 269.67 89.0107 270.394 88.8224C271.122 88.6341 271.849 88.5431 272.577 88.5431C274.05 88.5431 275.139 88.8679 275.85 89.5216C276.563 90.1754 276.916 91.2231 276.916 92.6648V101.092H275.532V101.092ZM271.304 99.7782C272.469 99.7782 273.385 99.4578 274.046 98.8192C274.711 98.1828 275.046 97.2909 275.046 96.1393V95.0244L273.173 95.1067C271.687 95.1565 270.615 95.3859 269.956 95.7972C269.298 96.2064 268.971 96.8428 268.971 97.7044C268.971 98.3819 269.174 98.8971 269.586 99.2478C269.995 99.6007 270.567 99.7782 271.304 99.7782ZM288.532 88.7488V96.5744L288.452 98.6287L288.419 99.2695L295.108 88.7488H297.438V101.092H295.69V93.548L295.725 92.0609L295.783 90.5953L289.104 101.092H286.773V88.7488H288.532V88.7488ZM303.759 93.8706C306.098 93.8706 307.265 93.2255 307.265 91.9331C307.265 90.7187 306.319 90.1104 304.426 90.1104C303.847 90.1104 303.321 90.1645 302.847 90.2684C302.374 90.3724 301.755 90.5845 300.986 90.8984L300.319 89.3766C301.597 88.8029 302.994 88.5193 304.506 88.5193C305.924 88.5193 307.044 88.8116 307.865 89.3917C308.684 89.9762 309.091 90.7685 309.091 91.7751C309.091 93.1606 308.322 94.0633 306.78 94.494V94.5828C307.729 94.8599 308.417 95.256 308.857 95.7712C309.293 96.2865 309.511 96.9316 309.511 97.7044C309.511 98.8474 309.05 99.7349 308.129 100.369C307.207 101.003 305.937 101.324 304.313 101.324C302.533 101.324 301.155 101.058 300.185 100.523V98.8084C301.562 99.4557 302.951 99.7782 304.356 99.7782C305.441 99.7782 306.256 99.5942 306.81 99.2197C307.361 98.8474 307.638 98.3127 307.638 97.6134C307.638 96.1782 306.468 95.4638 304.133 95.4638H302.416V93.8706H303.759V93.8706ZM318.964 99.289L319.315 98.2434L319.8 96.9121L323.146 88.7726H325.524V101.092H323.87V90.8984L323.642 91.5521L322.988 93.2753L319.8 101.092H318.229L315.039 93.2558C314.643 92.2492 314.365 91.4656 314.216 90.8984V101.092H312.55V88.7726H314.835L318.076 96.5982C318.398 97.4251 318.695 98.3235 318.964 99.289V99.289Z" fill="white"/>
<path d="M334.73 101.324C332.904 101.324 331.463 100.765 330.411 99.6548C329.352 98.5443 328.825 96.9965 328.825 95.0223C328.825 93.0285 329.313 91.4483 330.294 90.2771C331.275 89.1038 332.592 88.5193 334.247 88.5193C335.793 88.5193 337.019 89.0259 337.92 90.0455C338.821 91.0651 339.274 92.4072 339.274 94.0719V95.2561H330.764C330.803 96.7043 331.169 97.8061 331.86 98.5595C332.557 99.3085 333.534 99.6851 334.799 99.6851C336.127 99.6851 337.444 99.408 338.743 98.8517V100.521C338.083 100.809 337.455 101.012 336.865 101.14C336.276 101.261 335.566 101.324 334.73 101.324V101.324ZM334.223 90.0888C333.231 90.0888 332.44 90.4113 331.853 91.0564C331.26 91.6994 330.913 92.5912 330.809 93.7342H337.266C337.266 92.5566 337.004 91.6517 336.478 91.0261C335.951 90.3984 335.2 90.0888 334.223 90.0888V90.0888ZM348.213 101.324C347.407 101.324 346.673 101.174 346.008 100.878C345.345 100.581 344.784 100.125 344.334 99.5076H344.199C344.288 100.228 344.334 100.913 344.334 101.558V106.63H342.464V88.7488H343.983L344.245 90.433H344.334C344.815 89.7576 345.376 89.2684 346.014 88.9696C346.653 88.6687 347.386 88.5193 348.213 88.5193C349.85 88.5193 351.118 89.08 352.01 90.1992C352.898 91.3184 353.344 92.8878 353.344 94.9097C353.344 96.9402 352.891 98.5162 351.986 99.6397C351.079 100.763 349.824 101.324 348.213 101.324ZM347.942 90.1104C346.679 90.1104 345.765 90.4611 345.202 91.156C344.637 91.8574 344.349 92.9679 344.334 94.4941V94.9097C344.334 96.6437 344.622 97.8862 345.202 98.6309C345.781 99.3821 346.712 99.7544 347.99 99.7544C349.055 99.7544 349.894 99.3236 350.498 98.4577C351.1 97.594 351.406 96.4055 351.406 94.8859C351.406 93.3489 351.1 92.1691 350.498 91.3443C349.894 90.5217 349.038 90.1104 347.942 90.1104V90.1104ZM361.828 101.324C360 101.324 358.562 100.765 357.507 99.6548C356.448 98.5443 355.922 96.9965 355.922 95.0223C355.922 93.0285 356.411 91.4483 357.392 90.2771C358.374 89.1038 359.688 88.5193 361.343 88.5193C362.89 88.5193 364.118 89.0259 365.017 90.0455C365.918 91.0651 366.372 92.4072 366.372 94.0719V95.2561H357.86C357.899 96.7043 358.265 97.8061 358.958 98.5595C359.654 99.3085 360.63 99.6851 361.898 99.6851C363.225 99.6851 364.54 99.408 365.84 98.8517V100.521C365.179 100.809 364.551 101.012 363.964 101.14C363.375 101.261 362.662 101.324 361.828 101.324V101.324ZM361.319 90.0888C360.327 90.0888 359.539 90.4113 358.95 91.0564C358.358 91.6994 358.012 92.5912 357.908 93.7342H364.362C364.362 92.5566 364.103 91.6517 363.574 91.0261C363.048 90.3984 362.296 90.0888 361.319 90.0888V90.0888ZM371.43 88.7488V93.9182H378.357V88.7488H380.226V101.092H378.357V95.5331H371.43V101.092H369.561V88.7488H371.43ZM385.951 88.7488V96.5744L385.871 98.6287L385.838 99.2695L392.527 88.7488H394.857V101.092H393.111V93.5481L393.146 92.0609L393.202 90.5953L386.525 101.092H384.192V88.7488H385.951V88.7488ZM400.582 88.7488V96.5744L400.502 98.6287L400.471 99.2695L407.158 88.7488H409.488V101.092H407.743V93.5481L407.777 92.0609L407.836 90.5953L401.156 101.092H398.825V88.7488H400.582V88.7488ZM404.11 87.1123C402.722 87.1123 401.71 86.8417 401.071 86.3048C400.432 85.7701 400.075 84.8804 399.997 83.6508H401.756C401.825 84.4323 402.029 84.9778 402.371 85.2852C402.713 85.5926 403.311 85.7463 404.156 85.7463C404.929 85.7463 405.503 85.5818 405.876 85.2506C406.25 84.9194 406.475 84.389 406.558 83.6508H408.327C408.239 84.8393 407.857 85.7117 407.188 86.2745C406.519 86.8308 405.496 87.1123 404.11 87.1123ZM429.476 91.8444C429.476 92.6497 429.246 93.2602 428.783 93.6758C428.322 94.0914 427.672 94.3707 426.838 94.5135V94.6175C427.89 94.7603 428.662 95.0677 429.145 95.5396C429.63 96.0137 429.872 96.6675 429.872 97.5009C429.872 98.6482 429.45 99.5358 428.603 100.159C427.756 100.781 426.522 101.092 424.897 101.092H419.454V88.7488H424.875C427.94 88.7488 429.476 89.7792 429.476 91.8444ZM427.999 97.3753C427.999 96.7086 427.745 96.2215 427.236 95.9163C426.73 95.6132 425.891 95.4639 424.717 95.4639H421.323V99.5249H424.763C426.922 99.5249 427.999 98.8084 427.999 97.3753ZM427.648 92.0219C427.648 91.4223 427.418 90.9958 426.957 90.7404C426.496 90.4914 425.794 90.3637 424.856 90.3637H421.323V93.849H424.494C425.651 93.849 426.467 93.7061 426.942 93.4225C427.414 93.1324 427.648 92.667 427.648 92.0219V92.0219ZM85.2354 120.168V125.337H92.1601V120.168H94.0293V132.511H92.1601V126.952H85.2354V132.511H83.3662V120.168H85.2354ZM103.213 132.743C101.387 132.743 99.9467 132.185 98.8941 131.074C97.8349 129.964 97.3086 128.416 97.3086 126.441C97.3086 124.448 97.7959 122.867 98.7793 121.696C99.7583 120.523 101.075 119.939 102.73 119.939C104.277 119.939 105.502 120.445 106.404 121.465C107.305 122.484 107.757 123.826 107.757 125.491V126.675H99.2471C99.2861 128.123 99.6522 129.225 100.343 129.979C101.041 130.728 102.017 131.104 103.285 131.104C104.61 131.104 105.927 130.827 107.227 130.271V131.94C106.566 132.228 105.938 132.431 105.349 132.559C104.762 132.68 104.049 132.743 103.213 132.743V132.743ZM102.706 121.508C101.714 121.508 100.926 121.831 100.337 122.476C99.7431 123.119 99.3966 124.01 99.2948 125.153H105.749C105.749 123.976 105.487 123.071 104.961 122.445C104.435 121.818 103.683 121.508 102.706 121.508ZM124.182 126.329C124.182 128.201 123.651 129.689 122.586 130.797C121.524 131.905 120.038 132.54 118.126 132.698V138.049H116.28V132.698C114.413 132.555 112.94 131.916 111.86 130.782C110.779 129.647 110.235 128.162 110.235 126.329C110.235 124.461 110.774 122.971 111.855 121.865C112.932 120.761 114.428 120.133 116.345 119.984V114.977H118.126V119.984C120.014 120.157 121.496 120.807 122.57 121.934C123.645 123.06 124.182 124.526 124.182 126.329V126.329ZM112.197 126.329C112.197 127.771 112.529 128.901 113.19 129.721C113.852 130.539 114.903 131.016 116.345 131.15V121.553C114.957 121.681 113.917 122.134 113.229 122.911C112.54 123.688 112.197 124.829 112.197 126.329V126.329ZM122.243 126.329C122.243 123.452 120.87 121.867 118.126 121.577V131.15C119.557 131.009 120.601 130.529 121.258 129.708C121.916 128.89 122.243 127.764 122.243 126.329ZM135.555 121.761H131.537V132.511H129.668V121.761H125.698V120.168H135.555V121.761ZM142.989 132.743C141.161 132.743 139.721 132.185 138.668 131.074C137.609 129.964 137.082 128.416 137.082 126.441C137.082 124.448 137.572 122.867 138.553 121.696C139.534 120.523 140.849 119.939 142.504 119.939C144.05 119.939 145.278 120.445 146.177 121.465C147.078 122.484 147.531 123.826 147.531 125.491V126.675H139.021C139.06 128.123 139.426 129.225 140.117 129.979C140.814 130.728 141.791 131.104 143.058 131.104C144.384 131.104 145.701 130.827 147 130.271V131.94C146.34 132.228 145.712 132.431 145.122 132.559C144.536 132.68 143.823 132.743 142.989 132.743V132.743ZM142.48 121.508C141.488 121.508 140.7 121.831 140.11 122.476C139.517 123.119 139.173 124.01 139.069 125.153H145.523C145.523 123.976 145.261 123.071 144.735 122.445C144.208 121.818 143.457 121.508 142.48 121.508ZM155.658 132.743C153.869 132.743 152.482 132.193 151.503 131.094C150.52 129.99 150.033 128.433 150.033 126.422C150.033 124.352 150.529 122.757 151.525 121.629C152.521 120.504 153.938 119.939 155.781 119.939C156.373 119.939 156.966 120.004 157.562 120.131C158.155 120.257 158.621 120.406 158.959 120.584L158.38 122.173C157.969 122.006 157.521 121.872 157.031 121.761C156.541 121.653 156.11 121.599 155.734 121.599C153.225 121.599 151.971 123.199 151.971 126.398C151.971 127.914 152.277 129.078 152.887 129.89C153.503 130.702 154.408 131.104 155.612 131.104C156.639 131.104 157.696 130.881 158.777 130.44V132.1C157.952 132.527 156.912 132.743 155.658 132.743V132.743ZM166.927 132.743C165.099 132.743 163.661 132.185 162.606 131.074C161.547 129.964 161.021 128.416 161.021 126.441C161.021 124.448 161.51 122.867 162.491 121.696C163.473 120.523 164.787 119.939 166.442 119.939C167.989 119.939 169.217 120.445 170.116 121.465C171.017 122.484 171.469 123.826 171.469 125.491V126.675H162.959C162.998 128.123 163.364 129.225 164.057 129.979C164.753 130.728 165.73 131.104 166.997 131.104C168.322 131.104 169.639 130.827 170.939 130.271V131.94C170.278 132.228 169.65 132.431 169.061 132.559C168.474 132.68 167.761 132.743 166.927 132.743V132.743ZM166.418 121.508C165.426 121.508 164.638 121.831 164.049 122.476C163.455 123.119 163.111 124.01 163.007 125.153H169.462C169.462 123.976 169.199 123.071 168.673 122.445C168.147 121.818 167.395 121.508 166.418 121.508ZM180.408 132.743C179.605 132.743 178.868 132.594 178.203 132.297C177.541 132.001 176.98 131.544 176.529 130.927H176.395C176.484 131.648 176.529 132.332 176.529 132.977V138.049H174.66V120.168H176.18L176.44 121.852H176.529C177.01 121.177 177.573 120.688 178.21 120.389C178.849 120.088 179.581 119.939 180.408 119.939C182.046 119.939 183.313 120.499 184.205 121.618C185.093 122.738 185.54 124.307 185.54 126.329C185.54 128.359 185.087 129.935 184.182 131.059C183.274 132.182 182.02 132.743 180.408 132.743V132.743ZM180.138 121.53C178.877 121.53 177.961 121.88 177.4 122.575C176.835 123.277 176.544 124.387 176.529 125.913V126.329C176.529 128.063 176.817 129.305 177.4 130.05C177.976 130.801 178.907 131.174 180.185 131.174C181.251 131.174 182.089 130.743 182.693 129.877C183.298 129.013 183.601 127.825 183.601 126.305C183.601 124.768 183.298 123.586 182.693 122.764C182.089 121.941 181.236 121.53 180.138 121.53V121.53ZM198.83 123.264C198.83 124.069 198.598 124.679 198.137 125.095C197.676 125.511 197.024 125.79 196.19 125.933V126.037C197.244 126.18 198.013 126.487 198.499 126.959C198.984 127.433 199.224 128.087 199.224 128.92C199.224 130.067 198.802 130.955 197.955 131.578C197.108 132.2 195.873 132.511 194.251 132.511H188.806V120.168H194.227C197.294 120.168 198.83 121.198 198.83 123.264V123.264ZM197.351 128.795C197.351 128.128 197.097 127.641 196.59 127.336C196.081 127.032 195.243 126.883 194.069 126.883H190.677V130.944H194.117C196.274 130.944 197.351 130.228 197.351 128.795ZM197.002 123.441C197.002 122.841 196.77 122.415 196.309 122.16C195.847 121.911 195.148 121.783 194.208 121.783H190.677V125.268H193.846C195.005 125.268 195.819 125.125 196.294 124.842C196.766 124.552 197.002 124.086 197.002 123.441V123.441ZM203.697 120.168V127.994L203.615 130.048L203.584 130.689L210.271 120.168H212.603V132.511H210.855V124.967L210.89 123.48L210.949 122.015L204.269 132.511H201.938V120.168H203.697V120.168ZM221.506 132.743C219.716 132.743 218.332 132.193 217.351 131.094C216.37 129.99 215.881 128.433 215.881 126.422C215.881 124.352 216.377 122.757 217.373 121.629C218.369 120.504 219.786 119.939 221.629 119.939C222.22 119.939 222.814 120.004 223.409 120.131C224.003 120.257 224.469 120.406 224.807 120.584L224.23 122.173C223.819 122.006 223.368 121.872 222.879 121.761C222.389 121.653 221.96 121.599 221.584 121.599C219.073 121.599 217.819 123.199 217.819 126.398C217.819 127.914 218.124 129.078 218.735 129.89C219.35 130.702 220.256 131.104 221.46 131.104C222.487 131.104 223.544 130.881 224.627 130.44V132.1C223.799 132.527 222.76 132.743 221.506 132.743ZM229.427 120.168V125.337H236.353V120.168H238.223V132.511H236.353V126.952H229.427V132.511H227.557V120.168H229.427ZM252.849 126.329C252.849 128.344 252.343 129.916 251.331 131.046C250.315 132.178 248.914 132.743 247.125 132.743C246.02 132.743 245.039 132.485 244.181 131.966C243.328 131.446 242.667 130.702 242.201 129.732C241.731 128.762 241.5 127.628 241.5 126.329C241.5 124.314 242.004 122.746 243.012 121.623C244.017 120.499 245.418 119.939 247.203 119.939C248.933 119.939 250.304 120.51 251.322 121.662C252.343 122.811 252.849 124.368 252.849 126.329V126.329ZM243.44 126.329C243.44 127.905 243.754 129.108 244.387 129.935C245.017 130.762 245.944 131.174 247.172 131.174C248.394 131.174 249.325 130.762 249.96 129.94C250.595 129.117 250.911 127.914 250.911 126.329C250.911 124.759 250.595 123.569 249.96 122.753C249.325 121.939 248.387 121.53 247.149 121.53C245.92 121.53 244.998 121.93 244.374 122.733C243.75 123.536 243.44 124.738 243.44 126.329V126.329ZM257.89 120.168V127.994L257.809 130.048L257.779 130.689L264.466 120.168H266.796V132.511H265.05V124.967L265.085 123.48L265.143 122.015L258.464 132.511H256.133V120.168H257.89ZM261.418 118.531C260.03 118.531 259.018 118.261 258.379 117.724C257.74 117.189 257.383 116.3 257.305 115.07H259.064C259.133 115.852 259.336 116.397 259.679 116.704C260.021 117.012 260.619 117.166 261.463 117.166C262.237 117.166 262.811 117.001 263.183 116.67C263.558 116.339 263.785 115.808 263.866 115.07H265.635C265.546 116.258 265.165 117.131 264.496 117.694C263.827 118.25 262.804 118.531 261.418 118.531ZM287.423 126.329C287.423 128.344 286.916 129.916 285.902 131.046C284.886 132.178 283.487 132.743 281.698 132.743C280.593 132.743 279.612 132.485 278.754 131.966C277.901 131.446 277.238 130.702 276.773 129.732C276.305 128.762 276.073 127.628 276.073 126.329C276.073 124.314 276.578 122.746 277.585 121.623C278.59 120.499 279.989 119.939 281.774 119.939C283.507 119.939 284.875 120.51 285.896 121.662C286.916 122.811 287.423 124.368 287.423 126.329V126.329ZM278.012 126.329C278.012 127.905 278.328 129.108 278.958 129.935C279.591 130.762 280.518 131.174 281.744 131.174C282.967 131.174 283.899 130.762 284.533 129.94C285.168 129.117 285.484 127.914 285.484 126.329C285.484 124.759 285.168 123.569 284.533 122.753C283.899 121.939 282.961 121.53 281.722 121.53C280.494 121.53 279.571 121.93 278.947 122.733C278.323 123.536 278.012 124.738 278.012 126.329ZM298.811 121.761H294.793V132.511H292.924V121.761H288.954V120.168H298.811V121.761ZM307.003 132.743C306.197 132.743 305.463 132.594 304.798 132.297C304.135 132.001 303.574 131.544 303.124 130.927H302.99C303.078 131.648 303.124 132.332 303.124 132.977V138.049H301.255V120.168H302.773L303.035 121.852H303.124C303.605 121.177 304.166 120.688 304.805 120.389C305.444 120.088 306.176 119.939 307.003 119.939C308.641 119.939 309.908 120.499 310.8 121.618C311.688 122.738 312.134 124.307 312.134 126.329C312.134 128.359 311.682 129.935 310.776 131.059C309.869 132.182 308.615 132.743 307.003 132.743V132.743ZM306.732 121.53C305.472 121.53 304.556 121.88 303.992 122.575C303.427 123.277 303.139 124.387 303.124 125.913V126.329C303.124 128.063 303.412 129.305 303.992 130.05C304.571 130.801 305.502 131.174 306.78 131.174C307.846 131.174 308.684 130.743 309.288 129.877C309.89 129.013 310.196 127.825 310.196 126.305C310.196 124.768 309.89 123.586 309.288 122.764C308.684 121.941 307.828 121.53 306.732 121.53V121.53ZM322.997 132.511L322.622 130.756H322.531C321.914 131.529 321.303 132.055 320.69 132.332C320.075 132.605 319.314 132.743 318.398 132.743C317.17 132.743 316.213 132.427 315.515 131.797C314.824 131.163 314.474 130.267 314.474 129.098C314.474 126.602 316.471 125.294 320.456 125.175L322.553 125.106V124.342C322.553 123.376 322.345 122.66 321.931 122.199C321.511 121.737 320.846 121.508 319.93 121.508C318.899 121.508 317.735 121.822 316.436 122.454L315.862 121.023C316.471 120.692 317.136 120.43 317.859 120.242C318.587 120.053 319.314 119.962 320.04 119.962C321.515 119.962 322.602 120.287 323.315 120.941C324.028 121.595 324.381 122.642 324.381 124.084V132.511H322.997V132.511ZM318.766 131.197C319.934 131.197 320.848 130.877 321.511 130.238C322.176 129.602 322.511 128.71 322.511 127.558V126.444L320.638 126.526C319.152 126.576 318.078 126.805 317.421 127.216C316.763 127.626 316.436 128.262 316.436 129.124C316.436 129.801 316.64 130.316 317.051 130.667C317.458 131.02 318.032 131.197 318.766 131.197V131.197ZM333.177 132.743C331.388 132.743 330.001 132.193 329.02 131.094C328.039 129.99 327.552 128.433 327.552 126.422C327.552 124.352 328.048 122.757 329.044 121.629C330.04 120.504 331.457 119.939 333.298 119.939C333.892 119.939 334.485 120.004 335.081 120.131C335.672 120.257 336.138 120.406 336.478 120.584L335.899 122.173C335.488 122.006 335.037 121.872 334.55 121.761C334.06 121.653 333.629 121.599 333.253 121.599C330.744 121.599 329.49 123.199 329.49 126.398C329.49 127.914 329.793 129.078 330.406 129.89C331.022 130.702 331.925 131.104 333.129 131.104C334.158 131.104 335.215 130.881 336.296 130.44V132.1C335.468 132.527 334.431 132.743 333.177 132.743ZM348.438 132.511H346.545V121.761H342.837C342.633 124.437 342.347 126.561 341.99 128.128C341.628 129.702 341.158 130.851 340.587 131.581C340.008 132.308 339.278 132.674 338.392 132.674C337.985 132.674 337.662 132.628 337.424 132.54V131.15C337.589 131.197 337.777 131.219 337.985 131.219C338.852 131.219 339.54 130.308 340.052 128.483C340.563 126.66 340.948 123.887 341.212 120.168H348.438V132.511V132.511ZM354.163 120.168V127.994L354.083 130.048L354.052 130.689L360.739 120.168H363.069V132.511H361.324V124.967L361.358 123.48L361.417 122.015L354.737 132.511H352.406V120.168H354.163ZM366.765 131.316C366.765 130.816 366.879 130.435 367.107 130.178C367.336 129.92 367.663 129.79 368.094 129.79C368.53 129.79 368.868 129.92 369.115 130.178C369.357 130.435 369.481 130.816 369.481 131.316C369.481 131.804 369.357 132.182 369.11 132.442C368.861 132.704 368.521 132.834 368.094 132.834C367.711 132.834 367.395 132.715 367.141 132.481C366.89 132.247 366.765 131.858 366.765 131.316V131.316Z" fill="white"/>
<path d="M69.1438 244.921H67.2291V230.155H58.7645V244.921H56.8476V228.449H69.1438V244.921ZM75.1544 232.578V240.403L75.0743 242.458L75.0418 243.098L81.7303 232.578H84.0609V244.921H82.3151V237.377L82.3498 235.89L82.4061 234.424L75.7284 244.921H73.3956V232.578H75.1544V232.578ZM98.6899 238.739C98.6899 240.754 98.1809 242.326 97.1694 243.458C96.1535 244.588 94.7521 245.153 92.963 245.153C91.8606 245.153 90.8794 244.895 90.0216 244.376C89.1661 243.856 88.5055 243.111 88.0398 242.142C87.5698 241.172 87.3402 240.037 87.3402 238.739C87.3402 236.723 87.8427 235.156 88.852 234.032C89.8549 232.909 91.2563 232.348 93.041 232.348C94.7716 232.348 96.1427 232.922 97.1607 234.071C98.1809 235.221 98.6899 236.777 98.6899 238.739ZM89.2787 238.739C89.2787 240.314 89.5928 241.518 90.2253 242.345C90.8555 243.172 91.7826 243.583 93.0107 243.583C94.2345 243.583 95.1637 243.172 95.8005 242.349C96.4351 241.527 96.7492 240.323 96.7492 238.739C96.7492 237.169 96.4351 235.978 95.8005 235.162C95.1637 234.348 94.2258 233.939 92.9869 233.939C91.7609 233.939 90.8361 234.34 90.2123 235.143C89.5906 235.946 89.2787 237.147 89.2787 238.739V238.739ZM103.841 232.578V237.747H110.765V232.578H112.637V244.921H110.765V239.362H103.841V244.921H101.971V232.578H103.841V232.578ZM121.82 245.153C119.992 245.153 118.552 244.594 117.499 243.484C116.44 242.373 115.914 240.828 115.914 238.851C115.914 236.857 116.403 235.277 117.384 234.106C118.366 232.933 119.68 232.348 121.335 232.348C122.882 232.348 124.108 232.855 125.009 233.874C125.91 234.894 126.362 236.236 126.362 237.901V239.085H117.852C117.891 240.535 118.257 241.635 118.948 242.388C119.646 243.137 120.623 243.514 121.89 243.514C123.215 243.514 124.532 243.237 125.832 242.681V244.35C125.171 244.637 124.543 244.841 123.954 244.969C123.367 245.09 122.654 245.153 121.82 245.153V245.153ZM121.311 233.918C120.319 233.918 119.531 234.24 118.942 234.885C118.348 235.528 118.002 236.42 117.9 237.563H124.355C124.355 236.385 124.092 235.483 123.566 234.855C123.04 234.227 122.288 233.918 121.311 233.918ZM135.301 245.153C134.496 245.153 133.761 245.003 133.096 244.707C132.434 244.41 131.873 243.953 131.422 243.339H131.288C131.377 244.057 131.422 244.741 131.422 245.386V250.458H129.553V232.578H131.071L131.333 234.264H131.422C131.903 233.586 132.466 233.097 133.103 232.798C133.742 232.498 134.474 232.348 135.301 232.348C136.939 232.348 138.206 232.909 139.098 234.028C139.986 235.147 140.433 236.717 140.433 238.739C140.433 240.769 139.98 242.345 139.074 243.469C138.167 244.592 136.913 245.153 135.301 245.153V245.153ZM135.031 233.939C133.77 233.939 132.854 234.29 132.293 234.985C131.725 235.686 131.437 236.797 131.422 238.323V238.739C131.422 240.473 131.71 241.715 132.293 242.46C132.869 243.211 133.8 243.583 135.078 243.583C136.144 243.583 136.982 243.152 137.586 242.289C138.191 241.423 138.494 240.234 138.494 238.715C138.494 237.178 138.191 235.998 137.586 235.173C136.982 234.351 136.127 233.939 135.031 233.939V233.939ZM145.57 237.678H148.941C150.509 237.678 151.672 237.97 152.43 238.55C153.184 239.13 153.561 240.005 153.561 241.157C153.561 242.399 153.16 243.334 152.361 243.969C151.559 244.603 150.383 244.921 148.828 244.921H143.699V232.578H145.57V237.678V237.678ZM157.505 244.921H155.633V232.578H157.505V244.921ZM145.57 239.293V243.354H148.735C150.721 243.354 151.713 242.661 151.713 241.273C151.713 240.581 151.483 240.081 151.024 239.765C150.567 239.451 149.785 239.293 148.683 239.293H145.57V239.293ZM179.522 249.19H177.648V244.921H167.473V232.578H169.342V243.306H175.903V232.578H177.776V243.306H179.522V249.19V249.19ZM183.681 232.578V240.403L183.6 242.458L183.57 243.098L190.256 232.578H192.587V244.921H190.841V237.377L190.876 235.89L190.934 234.424L184.255 244.921H181.924V232.578H183.681V232.578ZM209.789 238.739C209.789 240.611 209.259 242.1 208.193 243.207C207.132 244.315 205.646 244.949 203.733 245.107V250.458H201.888V245.107C200.021 244.964 198.548 244.326 197.467 243.191C196.386 242.057 195.843 240.572 195.843 238.739C195.843 236.87 196.382 235.381 197.463 234.275C198.539 233.171 200.036 232.545 201.953 232.394V227.387H203.733V232.394C205.622 232.567 207.103 233.216 208.178 234.344C209.252 235.47 209.789 236.935 209.789 238.739V238.739ZM197.805 238.739C197.805 240.18 198.136 241.31 198.797 242.131C199.46 242.949 200.51 243.425 201.953 243.562V233.963C200.564 234.091 199.525 234.543 198.836 235.32C198.147 236.098 197.805 237.238 197.805 238.739V238.739ZM207.851 238.739C207.851 235.862 206.477 234.279 203.733 233.987V243.562C205.165 243.419 206.209 242.938 206.865 242.118C207.524 241.299 207.851 240.174 207.851 238.739ZM218.804 245.153C218 245.153 217.266 245.003 216.599 244.707C215.938 244.41 215.375 243.953 214.927 243.339H214.79C214.879 244.057 214.927 244.741 214.927 245.386V250.458H213.056V232.578H214.576L214.838 234.264H214.927C215.408 233.586 215.969 233.097 216.608 232.798C217.247 232.498 217.977 232.348 218.804 232.348C220.444 232.348 221.709 232.909 222.601 234.028C223.491 235.147 223.937 236.717 223.937 238.739C223.937 240.769 223.483 242.345 222.579 243.469C221.67 244.592 220.416 245.153 218.804 245.153V245.153ZM218.535 233.939C217.273 233.939 216.356 234.29 215.795 234.985C215.23 235.686 214.942 236.797 214.927 238.323V238.739C214.927 240.473 215.215 241.715 215.795 242.46C216.372 243.211 217.303 243.583 218.581 243.583C219.647 243.583 220.485 243.152 221.089 242.289C221.693 241.423 221.997 240.234 221.997 238.715C221.997 237.178 221.693 235.998 221.089 235.173C220.485 234.351 219.631 233.939 218.535 233.939V233.939ZM237.865 238.739C237.865 240.754 237.356 242.326 236.344 243.458C235.328 244.588 233.929 245.153 232.14 245.153C231.035 245.153 230.054 244.895 229.196 244.376C228.341 243.856 227.68 243.111 227.215 242.142C226.744 241.172 226.515 240.037 226.515 238.739C226.515 236.723 227.017 235.156 228.027 234.032C229.03 232.909 230.431 232.348 232.216 232.348C233.949 232.348 235.317 232.922 236.338 234.071C237.356 235.221 237.865 236.777 237.865 238.739V238.739ZM228.453 238.739C228.453 240.314 228.77 241.518 229.4 242.345C230.03 243.172 230.957 243.583 232.185 243.583C233.409 243.583 234.341 243.172 234.975 242.349C235.61 241.527 235.924 240.323 235.924 238.739C235.924 237.169 235.61 235.978 234.975 235.162C234.341 234.348 233.401 233.939 232.162 233.939C230.936 233.939 230.011 234.34 229.389 235.143C228.765 235.946 228.453 237.147 228.453 238.739V238.739ZM251.168 235.673C251.168 236.479 250.938 237.089 250.475 237.505C250.014 237.92 249.364 238.2 248.53 238.342V238.446C249.583 238.589 250.354 238.897 250.837 239.368C251.322 239.843 251.564 240.496 251.564 241.33C251.564 242.477 251.142 243.365 250.295 243.988C249.448 244.609 248.214 244.921 246.589 244.921H241.146V232.578H246.568C249.632 232.578 251.168 233.61 251.168 235.673V235.673ZM249.691 241.204C249.691 240.537 249.437 240.05 248.928 239.745C248.422 239.442 247.583 239.293 246.409 239.293H243.015V243.354H246.455C248.614 243.354 249.691 242.637 249.691 241.204ZM249.34 235.851C249.34 235.251 249.11 234.825 248.649 234.571C248.188 234.32 247.486 234.193 246.548 234.193H243.015V237.678H246.186C247.343 237.678 248.159 237.535 248.634 237.251C249.106 236.961 249.34 236.496 249.34 235.851V235.851ZM256.148 237.678H259.518C261.086 237.678 262.249 237.97 263.007 238.55C263.761 239.13 264.138 240.005 264.138 241.157C264.138 242.399 263.737 243.334 262.938 243.969C262.137 244.603 260.96 244.921 259.405 244.921H254.276V232.578H256.148V237.678ZM268.082 244.921H266.211V232.578H268.082V244.921ZM256.148 239.293V243.354H259.312C261.298 243.354 262.29 242.661 262.29 241.273C262.29 240.581 262.061 240.081 261.602 239.765C261.145 239.451 260.363 239.293 259.26 239.293H256.148ZM275.026 238.604L270.731 232.578H272.865L276.118 237.308L279.367 232.578H281.474L277.181 238.604L281.702 244.921H279.581L276.122 239.923L272.624 244.921H270.506L275.026 238.604V238.604ZM295.893 245.153C295.09 245.153 294.355 245.003 293.69 244.707C293.028 244.41 292.467 243.953 292.016 243.339H291.882C291.971 244.057 292.016 244.741 292.016 245.386V250.458H290.147V232.578H291.665L291.927 234.264H292.016C292.497 233.586 293.058 233.097 293.697 232.798C294.336 232.498 295.068 232.348 295.893 232.348C297.533 232.348 298.8 232.909 299.692 234.028C300.58 235.147 301.027 236.717 301.027 238.739C301.027 240.769 300.572 242.345 299.669 243.469C298.761 244.592 297.507 245.153 295.893 245.153V245.153ZM295.625 233.939C294.362 233.939 293.448 234.29 292.885 234.985C292.319 235.686 292.031 236.797 292.016 238.323V238.739C292.016 240.473 292.304 241.715 292.885 242.46C293.463 243.211 294.394 243.583 295.67 243.583C296.736 243.583 297.576 243.152 298.181 242.289C298.783 241.423 299.088 240.234 299.088 238.715C299.088 237.178 298.783 235.998 298.181 235.173C297.576 234.351 296.721 233.939 295.625 233.939V233.939ZM309.511 245.153C307.683 245.153 306.244 244.594 305.19 243.484C304.13 242.373 303.604 240.828 303.604 238.851C303.604 236.857 304.094 235.277 305.075 234.106C306.056 232.933 307.371 232.348 309.026 232.348C310.572 232.348 311.8 232.855 312.699 233.874C313.6 234.894 314.053 236.236 314.053 237.901V239.085H305.543C305.582 240.535 305.948 241.635 306.641 242.388C307.336 243.137 308.313 243.514 309.58 243.514C310.908 243.514 312.223 243.237 313.522 242.681V244.35C312.862 244.637 312.233 244.841 311.644 244.969C311.057 245.09 310.345 245.153 309.511 245.153V245.153ZM309.002 233.918C308.01 233.918 307.221 234.24 306.632 234.885C306.039 235.528 305.694 236.42 305.59 237.563H312.045C312.045 236.385 311.783 235.483 311.257 234.855C310.73 234.227 309.979 233.918 309.002 233.918V233.918ZM326.451 243.306H331.924V232.578H333.817V244.921H317.243V232.578H319.113V243.306H324.579V232.578H326.451V243.306V243.306ZM343.01 245.153C341.182 245.153 339.743 244.594 338.689 243.484C337.629 242.373 337.103 240.828 337.103 238.851C337.103 236.857 337.593 235.277 338.574 234.106C339.555 232.933 340.87 232.348 342.525 232.348C344.071 232.348 345.299 232.855 346.198 233.874C347.099 234.894 347.554 236.236 347.554 237.901V239.085H339.042C339.081 240.535 339.447 241.635 340.14 242.388C340.835 243.137 341.812 243.514 343.079 243.514C344.407 243.514 345.722 243.237 347.021 242.681V244.35C346.36 244.637 345.732 244.841 345.145 244.969C344.556 245.09 343.844 245.153 343.01 245.153V245.153ZM342.501 233.918C341.509 233.918 340.72 234.24 340.131 234.885C339.54 235.528 339.193 236.42 339.089 237.563H345.544C345.544 236.385 345.284 235.483 344.755 234.855C344.229 234.227 343.478 233.918 342.501 233.918V233.918ZM352.611 232.578V237.747H359.538V232.578H361.408V244.921H359.538V239.362H352.611V244.921H350.742V232.578H352.611ZM367.132 232.578V240.403L367.052 242.458L367.02 243.098L373.708 232.578H376.039V244.921H374.293V237.377L374.328 235.89L374.384 234.424L367.706 244.921H365.373V232.578H367.132V232.578ZM381.763 232.578V240.403L381.683 242.458L381.653 243.098L388.339 232.578H390.67V244.921H388.924V237.377L388.959 235.89L389.017 234.424L382.337 244.921H380.007V232.578H381.763V232.578ZM385.292 230.941C383.903 230.941 382.892 230.671 382.253 230.134C381.614 229.599 381.257 228.711 381.179 227.48H382.937C383.007 228.261 383.21 228.807 383.552 229.114C383.895 229.421 384.492 229.575 385.337 229.575C386.11 229.575 386.684 229.411 387.057 229.079C387.432 228.748 387.657 228.218 387.739 227.48H389.509C389.42 228.668 389.039 229.541 388.37 230.103C387.7 230.66 386.678 230.941 385.292 230.941V230.941ZM394.365 243.726C394.365 243.226 394.48 242.845 394.707 242.587C394.937 242.33 395.264 242.2 395.695 242.2C396.13 242.2 396.468 242.33 396.715 242.587C396.958 242.845 397.081 243.226 397.081 243.726C397.081 244.213 396.958 244.592 396.711 244.852C396.462 245.114 396.122 245.244 395.695 245.244C395.312 245.244 394.995 245.125 394.742 244.891C394.491 244.657 394.365 244.267 394.365 243.726V243.726ZM68.9857 276.34H67.0688V261.574H61.7167L61.368 264.278C60.9088 267.874 60.5059 270.5 60.155 272.164C59.8063 273.827 59.3471 274.983 58.7731 275.637C58.2056 276.29 57.4476 276.611 56.501 276.596C55.9422 276.596 55.4419 276.503 55 276.314V274.71C55.405 274.907 55.8317 275.002 56.2736 275.002C56.6743 275.002 57.0209 274.838 57.3154 274.511C57.6122 274.184 57.8742 273.619 58.1038 272.812C58.3356 272.004 58.6237 270.469 58.9746 268.212C59.3211 265.956 59.7045 263.174 60.129 259.869H68.9857V276.34V276.34ZM74.9984 263.997V271.822L74.9183 273.877L74.8858 274.518L81.5743 263.997H83.9049V276.34H82.1592V268.796L82.1938 267.309L82.2501 265.843L75.5724 276.34H73.2397V263.997H74.9984V263.997ZM98.6054 280.609H96.7903V276.34H88.1524V280.609H86.3482V274.725H87.3185C88.3257 273.362 89.1141 271.757 89.6881 269.92C90.2577 268.082 90.5545 266.105 90.5761 263.997H96.8358V274.725H98.6054V280.609V280.609ZM95.0316 274.725V265.473H92.2591C92.1573 267.14 91.8389 268.826 91.2931 270.534C90.7451 272.242 90.0693 273.639 89.2571 274.725H95.0316V274.725ZM106.29 276.572C104.462 276.572 103.022 276.013 101.969 274.903C100.91 273.792 100.384 272.247 100.384 270.27C100.384 268.277 100.871 266.696 101.854 265.525C102.833 264.352 104.15 263.767 105.805 263.767C107.352 263.767 108.578 264.274 109.479 265.294C110.38 266.313 110.832 267.655 110.832 269.32V270.504H102.322C102.361 271.954 102.727 273.054 103.418 273.807C104.116 274.556 105.093 274.933 106.36 274.933C107.685 274.933 109.002 274.656 110.302 274.1V275.769C109.641 276.057 109.013 276.26 108.424 276.388C107.837 276.509 107.124 276.572 106.29 276.572V276.572ZM105.781 265.337C104.789 265.337 104.001 265.659 103.412 266.304C102.818 266.947 102.472 267.839 102.37 268.982H108.824C108.824 267.805 108.562 266.902 108.036 266.274C107.51 265.646 106.758 265.337 105.781 265.337ZM119.771 276.572C118.966 276.572 118.231 276.422 117.566 276.126C116.904 275.829 116.343 275.373 115.892 274.756H115.758C115.847 275.476 115.892 276.161 115.892 276.806V281.878H114.023V263.997H115.541L115.803 265.683H115.892C116.373 265.006 116.936 264.516 117.573 264.218C118.212 263.917 118.944 263.767 119.771 263.767C121.409 263.767 122.676 264.328 123.568 265.447C124.456 266.566 124.903 268.136 124.903 270.158C124.903 272.188 124.45 273.764 123.544 274.888C122.637 276.011 121.383 276.572 119.771 276.572V276.572ZM119.501 265.358C118.24 265.358 117.324 265.709 116.763 266.404C116.195 267.105 115.907 268.216 115.892 269.742V270.158C115.892 271.892 116.18 273.134 116.763 273.879C117.339 274.63 118.27 275.002 119.548 275.002C120.614 275.002 121.452 274.572 122.056 273.708C122.661 272.842 122.964 271.654 122.964 270.134C122.964 268.597 122.661 267.417 122.056 266.592C121.452 265.77 120.597 265.358 119.501 265.358V265.358ZM130.038 269.097H133.41C134.979 269.097 136.142 269.389 136.9 269.969C137.654 270.55 138.03 271.422 138.03 272.576C138.03 273.818 137.63 274.753 136.831 275.388C136.029 276.022 134.853 276.34 133.298 276.34H128.169V263.997H130.038V269.097V269.097ZM141.975 276.34H140.103V263.997H141.975V276.34ZM130.038 270.712V274.773H133.205C135.191 274.773 136.183 274.08 136.183 272.693C136.183 272 135.953 271.5 135.494 271.184C135.037 270.87 134.255 270.712 133.153 270.712H130.038V270.712ZM153.812 263.997V269.166H160.739V263.997H162.608V276.34H160.739V270.781H153.812V276.34H151.943V263.997H153.812ZM177.235 270.158C177.235 272.173 176.728 273.745 175.716 274.877C174.7 276.007 173.299 276.572 171.51 276.572C170.405 276.572 169.424 276.314 168.566 275.795C167.713 275.275 167.05 274.531 166.585 273.561C166.117 272.591 165.885 271.457 165.885 270.158C165.885 268.142 166.39 266.575 167.397 265.452C168.402 264.328 169.801 263.767 171.588 263.767C173.319 263.767 174.687 264.341 175.708 265.491C176.728 266.64 177.235 268.196 177.235 270.158ZM167.823 270.158C167.823 271.734 168.14 272.937 168.77 273.764C169.402 274.591 170.33 275.002 171.555 275.002C172.779 275.002 173.711 274.591 174.345 273.769C174.98 272.946 175.296 271.742 175.296 270.158C175.296 268.588 174.98 267.398 174.345 266.582C173.711 265.768 172.773 265.358 171.534 265.358C170.306 265.358 169.383 265.759 168.759 266.562C168.135 267.365 167.823 268.567 167.823 270.158V270.158ZM190.54 267.092C190.54 267.898 190.308 268.508 189.847 268.924C189.386 269.339 188.734 269.619 187.9 269.762V269.865C188.955 270.008 189.724 270.316 190.209 270.788C190.694 271.262 190.937 271.915 190.937 272.749C190.937 273.896 190.512 274.784 189.665 275.407C188.82 276.028 187.584 276.34 185.961 276.34H180.516V263.997H185.938C189.005 263.997 190.54 265.029 190.54 267.092V267.092ZM189.063 272.623C189.063 271.957 188.807 271.47 188.301 271.164C187.792 270.861 186.953 270.712 185.779 270.712H182.387V274.773H185.827C187.984 274.773 189.063 274.056 189.063 272.623V272.623ZM188.712 267.27C188.712 266.67 188.48 266.244 188.019 265.991C187.558 265.739 186.858 265.612 185.918 265.612H182.387V269.097H185.556C186.715 269.097 187.53 268.954 188.004 268.671C188.476 268.38 188.712 267.915 188.712 267.27V267.27ZM204.309 270.158C204.309 272.173 203.8 273.745 202.789 274.877C201.773 276.007 200.374 276.572 198.585 276.572C197.48 276.572 196.499 276.314 195.641 275.795C194.788 275.275 194.125 274.531 193.659 273.561C193.189 272.591 192.96 271.457 192.96 270.158C192.96 268.142 193.464 266.575 194.471 265.452C195.476 264.328 196.876 263.767 198.66 263.767C200.393 263.767 201.762 264.341 202.782 265.491C203.8 266.64 204.309 268.196 204.309 270.158ZM194.898 270.158C194.898 271.734 195.214 272.937 195.845 273.764C196.475 274.591 197.402 275.002 198.63 275.002C199.854 275.002 200.785 274.591 201.42 273.769C202.055 272.946 202.371 271.742 202.371 270.158C202.371 268.588 202.055 267.398 201.42 266.582C200.785 265.768 199.845 265.358 198.606 265.358C197.38 265.358 196.456 265.759 195.834 266.562C195.21 267.365 194.898 268.567 194.898 270.158V270.158ZM215.024 265.59H209.46V276.34H207.586V263.997H215.024V265.59ZM227.91 270.158C227.91 272.173 227.401 273.745 226.389 274.877C225.373 276.007 223.974 276.572 222.185 276.572C221.08 276.572 220.099 276.314 219.242 275.795C218.386 275.275 217.725 274.531 217.26 273.561C216.79 272.591 216.56 271.457 216.56 270.158C216.56 268.142 217.063 266.575 218.072 265.452C219.075 264.328 220.476 263.767 222.261 263.767C223.992 263.767 225.363 264.341 226.381 265.491C227.401 266.64 227.91 268.196 227.91 270.158V270.158ZM218.499 270.158C218.499 271.734 218.813 272.937 219.445 273.764C220.075 274.591 221.002 275.002 222.231 275.002C223.454 275.002 224.386 274.591 225.02 273.769C225.655 272.946 225.969 271.742 225.969 270.158C225.969 268.588 225.655 267.398 225.02 266.582C224.386 265.768 223.446 265.358 222.207 265.358C220.981 265.358 220.056 265.759 219.434 266.562C218.811 267.365 218.499 268.567 218.499 270.158V270.158ZM239.058 263.997V269.166H245.985V263.997H247.854V276.34H245.985V270.781H239.058V276.34H237.189V263.997H239.058ZM257.038 276.572C255.21 276.572 253.772 276.013 252.717 274.903C251.66 273.792 251.131 272.247 251.131 270.27C251.131 268.277 251.621 266.696 252.602 265.525C253.583 264.352 254.898 263.767 256.553 263.767C258.099 263.767 259.327 264.274 260.226 265.294C261.127 266.313 261.582 267.655 261.582 269.32V270.504H253.072C253.109 271.954 253.475 273.054 254.168 273.807C254.863 274.556 255.84 274.933 257.107 274.933C258.435 274.933 259.75 274.656 261.051 274.1V275.769C260.389 276.057 259.763 276.26 259.173 276.388C258.584 276.509 257.872 276.572 257.038 276.572V276.572ZM256.529 265.337C255.537 265.337 254.748 265.659 254.159 266.304C253.568 266.947 253.221 267.839 253.117 268.982H259.572C259.572 267.805 259.312 266.902 258.784 266.274C258.257 265.646 257.508 265.337 256.529 265.337V265.337ZM278.007 270.158C278.007 272.03 277.476 273.52 276.408 274.626C275.347 275.734 273.863 276.368 271.951 276.526V281.878H270.103V276.526C268.238 276.384 266.763 275.745 265.682 274.611C264.601 273.476 264.06 271.991 264.06 270.158C264.06 268.29 264.597 266.8 265.678 265.694C266.757 264.59 268.253 263.964 270.168 263.813V258.806H271.951V263.813C273.839 263.986 275.321 264.635 276.393 265.763C277.467 266.889 278.007 268.354 278.007 270.158V270.158ZM266.022 270.158C266.022 271.599 266.352 272.729 267.014 273.55C267.675 274.368 268.725 274.844 270.168 274.981V265.382C268.78 265.51 267.742 265.962 267.053 266.74C266.365 267.517 266.022 268.658 266.022 270.158V270.158ZM276.066 270.158C276.066 267.281 274.693 265.698 271.951 265.406V274.981C273.38 274.838 274.424 274.357 275.083 273.537C275.739 272.719 276.066 271.593 276.066 270.158ZM289.378 265.59H285.362V276.34H283.493V265.59H279.521V263.997H289.378V265.59ZM296.812 276.572C294.984 276.572 293.545 276.013 292.49 274.903C291.434 273.792 290.905 272.247 290.905 270.27C290.905 268.277 291.395 266.696 292.376 265.525C293.357 264.352 294.672 263.767 296.326 263.767C297.873 263.767 299.101 264.274 300.002 265.294C300.901 266.313 301.356 267.655 301.356 269.32V270.504H292.846C292.883 271.954 293.249 273.054 293.942 273.807C294.637 274.556 295.616 274.933 296.881 274.933C298.209 274.933 299.523 274.656 300.825 274.1V275.769C300.162 276.057 299.536 276.26 298.947 276.388C298.358 276.509 297.646 276.572 296.812 276.572V276.572ZM296.305 265.337C295.311 265.337 294.522 265.659 293.933 266.304C293.342 266.947 292.995 267.839 292.891 268.982H299.348C299.348 267.805 299.086 266.902 298.557 266.274C298.031 265.646 297.282 265.337 296.305 265.337V265.337ZM309.48 276.572C307.691 276.572 306.307 276.022 305.326 274.922C304.345 273.818 303.855 272.262 303.855 270.251C303.855 268.181 304.351 266.586 305.35 265.458C306.346 264.332 307.761 263.767 309.604 263.767C310.197 263.767 310.789 263.832 311.384 263.96C311.978 264.086 312.443 264.237 312.781 264.412L312.205 266.001C311.794 265.837 311.343 265.7 310.854 265.59C310.366 265.482 309.935 265.428 309.558 265.428C307.05 265.428 305.796 267.027 305.796 270.227C305.796 271.742 306.099 272.907 306.71 273.719C307.327 274.531 308.231 274.933 309.435 274.933C310.462 274.933 311.521 274.71 312.602 274.269V275.929C311.774 276.355 310.735 276.572 309.48 276.572V276.572ZM320.75 276.572C318.922 276.572 317.484 276.013 316.429 274.903C315.372 273.792 314.843 272.247 314.843 270.27C314.843 268.277 315.333 266.696 316.314 265.525C317.295 264.352 318.61 263.767 320.265 263.767C321.811 263.767 323.039 264.274 323.94 265.294C324.839 266.313 325.294 267.655 325.294 269.32V270.504H316.784C316.821 271.954 317.187 273.054 317.88 273.807C318.575 274.556 319.554 274.933 320.819 274.933C322.147 274.933 323.462 274.656 324.764 274.1V275.769C324.101 276.057 323.475 276.26 322.886 276.388C322.297 276.509 321.586 276.572 320.75 276.572V276.572ZM320.243 265.337C319.249 265.337 318.461 265.659 317.871 266.304C317.28 266.947 316.934 267.839 316.83 268.982H323.286C323.286 267.805 323.024 266.902 322.496 266.274C321.969 265.646 321.22 265.337 320.243 265.337V265.337ZM334.231 276.572C333.427 276.572 332.693 276.422 332.026 276.126C331.365 275.829 330.802 275.373 330.354 274.756H330.217C330.306 275.476 330.354 276.161 330.354 276.806V281.878H328.483V263.997H330.003L330.265 265.683H330.354C330.835 265.006 331.396 264.516 332.035 264.218C332.674 263.917 333.404 263.767 334.231 263.767C335.871 263.767 337.136 264.328 338.028 265.447C338.918 266.566 339.364 268.136 339.364 270.158C339.364 272.188 338.91 273.764 338.006 274.888C337.097 276.011 335.843 276.572 334.231 276.572V276.572ZM333.962 265.358C332.7 265.358 331.783 265.709 331.222 266.404C330.657 267.105 330.369 268.216 330.354 269.742V270.158C330.354 271.892 330.642 273.134 331.222 273.879C331.799 274.63 332.73 275.002 334.008 275.002C335.074 275.002 335.912 274.572 336.516 273.708C337.12 272.842 337.424 271.654 337.424 270.134C337.424 268.597 337.12 267.417 336.516 266.592C335.912 265.77 335.058 265.358 333.962 265.358V265.358ZM352.653 267.092C352.653 267.898 352.421 268.508 351.96 268.924C351.498 269.339 350.848 269.619 350.012 269.762V269.865C351.067 270.008 351.836 270.316 352.321 270.788C352.806 271.262 353.049 271.915 353.049 272.749C353.049 273.896 352.624 274.784 351.78 275.407C350.933 276.028 349.698 276.34 348.074 276.34H342.631V263.997H348.05C351.117 263.997 352.653 265.029 352.653 267.092V267.092ZM351.175 272.623C351.175 271.957 350.922 271.47 350.413 271.164C349.906 270.861 349.066 270.712 347.894 270.712H344.5V274.773H347.939C350.097 274.773 351.175 274.056 351.175 272.623ZM350.825 267.27C350.825 266.67 350.595 266.244 350.131 265.991C349.67 265.739 348.97 265.612 348.033 265.612H344.5V269.097H347.671C348.828 269.097 349.644 268.954 350.116 268.671C350.591 268.38 350.825 267.915 350.825 267.27V267.27ZM357.52 263.997V271.822L357.439 273.877L357.407 274.518L364.095 263.997H366.426V276.34H364.68V268.796L364.715 267.309L364.771 265.843L358.094 276.34H355.761V263.997H357.52V263.997ZM375.328 276.572C373.539 276.572 372.155 276.022 371.174 274.922C370.193 273.818 369.703 272.262 369.703 270.251C369.703 268.181 370.201 266.586 371.198 265.458C372.194 264.332 373.608 263.767 375.452 263.767C376.045 263.767 376.636 263.832 377.234 263.96C377.826 264.086 378.291 264.237 378.629 264.412L378.053 266.001C377.641 265.837 377.191 265.7 376.704 265.59C376.214 265.482 375.783 265.428 375.406 265.428C372.898 265.428 371.644 267.027 371.644 270.227C371.644 271.742 371.947 272.907 372.558 273.719C373.175 274.531 374.078 274.933 375.283 274.933C376.309 274.933 377.369 274.71 378.449 274.269V275.929C377.622 276.355 376.582 276.572 375.328 276.572V276.572ZM388.976 276.34L388.601 274.585H388.51C387.895 275.357 387.282 275.883 386.671 276.161C386.056 276.433 385.294 276.572 384.378 276.572C383.15 276.572 382.192 276.256 381.497 275.626C380.804 274.992 380.453 274.095 380.453 272.926C380.453 270.43 382.45 269.123 386.435 269.004L388.534 268.935V268.17C388.534 267.205 388.326 266.491 387.91 266.027C387.49 265.566 386.825 265.337 385.909 265.337C384.878 265.337 383.717 265.651 382.415 266.283L381.843 264.852C382.45 264.521 383.117 264.259 383.838 264.07C384.566 263.882 385.294 263.791 386.022 263.791C387.495 263.791 388.584 264.118 389.294 264.772C390.007 265.426 390.36 266.471 390.36 267.913V276.34H388.976V276.34ZM384.748 275.026C385.913 275.026 386.83 274.706 387.49 274.069C388.157 273.431 388.491 272.539 388.491 271.387V270.272L386.617 270.355C385.131 270.404 384.059 270.634 383.401 271.045C382.742 271.454 382.415 272.093 382.415 272.952C382.415 273.63 382.619 274.145 383.03 274.496C383.44 274.849 384.012 275.026 384.748 275.026ZM393.947 275.145C393.947 274.645 394.062 274.264 394.289 274.007C394.521 273.749 394.846 273.619 395.277 273.619C395.712 273.619 396.05 273.749 396.297 274.007C396.54 274.264 396.663 274.645 396.663 275.145C396.663 275.632 396.54 276.011 396.293 276.271C396.044 276.533 395.706 276.663 395.277 276.663C394.893 276.663 394.577 276.544 394.324 276.31C394.073 276.076 393.947 275.686 393.947 275.145V275.145Z" fill="white"/>
<path d="M135.244 30H130.718V20.7568H122.236V30H117.695V8.58398H122.236V16.9775H130.718V8.58398H135.244V30ZM156.274 30L154.722 24.9023H146.914L145.361 30H140.469L148.027 8.49609H153.579L161.167 30H156.274ZM153.638 21.0938C152.202 16.4746 151.392 13.8623 151.206 13.2568C151.03 12.6514 150.903 12.1729 150.825 11.8213C150.503 13.0713 149.58 16.1621 148.057 21.0938H153.638ZM182.139 26.2207H188.789V8.58398H193.315V30H166.377V8.58398H170.918V26.2207H177.568V8.58398H182.139V26.2207ZM214.331 30L212.778 24.9023H204.971L203.418 30H198.525L206.084 8.49609H211.636L219.224 30H214.331ZM211.694 21.0938C210.259 16.4746 209.448 13.8623 209.263 13.2568C209.087 12.6514 208.96 12.1729 208.882 11.8213C208.56 13.0713 207.637 16.1621 206.113 21.0938H211.694ZM251.675 26.3965H254.868V36.2402H250.488V30H234.727V8.58398H239.268V26.2207H247.148V8.58398H251.675V26.3965ZM272.998 30H260.664V8.58398H272.998V12.3047H265.205V17.0068H272.456V20.7275H265.205V26.25H272.998V30ZM296.929 30H292.402V12.3633H287.158L286.924 14.3262C286.318 19.3164 285.781 22.8223 285.312 24.8438C284.854 26.8555 284.18 28.2715 283.291 29.0918C282.402 29.9121 281.201 30.3125 279.688 30.293C278.867 30.293 278.145 30.1855 277.52 29.9707V26.25C278.086 26.4453 278.618 26.543 279.116 26.543C279.634 26.543 280.044 26.3086 280.347 25.8398C280.649 25.3613 280.933 24.4824 281.196 23.2031C281.47 21.9141 281.826 19.8096 282.266 16.8896C282.715 13.96 283.096 11.1914 283.408 8.58398H296.929V30ZM319.922 23.3057C319.922 27.7686 316.973 30 311.074 30H304.834V8.58398H309.375V16.8018H311.162C313.955 16.8018 316.113 17.3682 317.637 18.501C319.16 19.6338 319.922 21.2354 319.922 23.3057ZM309.375 26.2793H310.898C312.432 26.2793 313.555 26.0352 314.268 25.5469C314.98 25.0488 315.337 24.3018 315.337 23.3057C315.337 22.3193 314.976 21.6113 314.253 21.1816C313.53 20.7422 312.29 20.5225 310.532 20.5225H309.375V26.2793Z" fill="white"/>
<path d="M96.2441 206H91.7178V196.757H83.2363V206H78.6953V184.584H83.2363V192.978H91.7178V184.584H96.2441V206ZM117.274 206L115.722 200.902H107.914L106.361 206H101.469L109.027 184.496H114.579L122.167 206H117.274ZM114.638 197.094C113.202 192.475 112.392 189.862 112.206 189.257C112.03 188.651 111.903 188.173 111.825 187.821C111.503 189.071 110.58 192.162 109.057 197.094H114.638ZM143.139 202.221H149.789V184.584H154.315V206H127.377V184.584H131.918V202.221H138.568V184.584H143.139V202.221ZM174.555 206H162.221V184.584H174.555V188.305H166.762V193.007H174.013V196.728H166.762V202.25H174.555V206ZM191.83 184.584H198.495C201.532 184.584 203.734 185.019 205.102 185.888C206.479 186.747 207.167 188.119 207.167 190.004C207.167 191.283 206.864 192.333 206.259 193.153C205.663 193.974 204.867 194.467 203.871 194.633V194.779C205.229 195.082 206.205 195.648 206.801 196.479C207.406 197.309 207.709 198.412 207.709 199.789C207.709 201.742 207.001 203.266 205.585 204.359C204.179 205.453 202.265 206 199.843 206H191.83V184.584ZM196.371 193.065H199.008C200.238 193.065 201.127 192.875 201.674 192.494C202.23 192.113 202.509 191.483 202.509 190.604C202.509 189.784 202.206 189.198 201.601 188.847C201.005 188.485 200.058 188.305 198.759 188.305H196.371V193.065ZM196.371 196.669V202.25H199.33C200.58 202.25 201.503 202.011 202.099 201.532C202.694 201.054 202.992 200.321 202.992 199.335C202.992 197.558 201.723 196.669 199.184 196.669H196.371ZM214.486 184.584H218.573V194.926L218.515 197.694L218.368 200.844H218.456L228.344 184.584H233.778V206H229.735V195.717C229.735 194.34 229.823 192.299 229.999 189.594H229.882L219.95 206H214.486V184.584ZM239.135 202.221H240.79C242.206 199.389 243.324 196.562 244.145 193.739C244.965 190.907 245.575 187.855 245.976 184.584H258.456V202.221H261.312V212.24H256.933V206H243.515V212.24H239.135V202.221ZM249.579 188.363C249.267 190.6 248.744 192.968 248.012 195.468C247.289 197.968 246.474 200.219 245.565 202.221H253.93V188.363H249.579ZM279.457 206H267.123V184.584H279.457V188.305H271.664V193.007H278.915V196.728H271.664V202.25H279.457V206ZM303.988 206H299.462V196.757H290.98V206H286.439V184.584H290.98V192.978H299.462V184.584H303.988V206ZM311.908 184.584H315.995V194.926L315.937 197.694L315.79 200.844H315.878L325.766 184.584H331.2V206H327.157V195.717C327.157 194.34 327.245 192.299 327.421 189.594H327.304L317.372 206H311.908V184.584ZM351.439 206H339.105V184.584H351.439V188.305H343.646V193.007H350.897V196.728H343.646V202.25H351.439V206Z" fill="white"/>
</svg>
