<svg width="442" height="299" viewBox="0 0 442 299" fill="none" xmlns="http://www.w3.org/2000/svg">
<path d="M3.30127 131.056V113.002H6.98088V120.12H14.065V113.002H17.7446V131.056H14.065V123.181H6.98088V131.056H3.30127Z" fill="#0C2E75"/>
<path d="M37.7936 131.056H33.8733L32.2914 126.964H25.0697L23.5566 131.056H19.7051L26.7204 113.002H30.572L37.7936 131.056V131.056ZM31.1222 123.903L28.6118 117.232L26.1702 123.903H31.1222Z" fill="#0C2E75"/>
<path d="M39.8223 113.002H43.4675V128.03H48.6602V113.002H52.3398V128.03H57.7045V113.002H61.3497V131.09L39.8223 131.056V113.002Z" fill="#0C2E75"/>
<path d="M81.3983 131.056H77.4436L75.8961 126.964H68.6401L67.1269 131.056H63.2754L70.2907 113.002H74.1423L81.3983 131.056ZM74.6925 123.903L72.1821 117.232L69.7405 123.903H74.6925Z" fill="#0C2E75"/>
<path d="M90.3052 131.056V113.002H95.773L99.0399 125.313L102.238 113.002H107.706V131.056H104.336V116.853L100.759 131.056H97.2517L93.7097 116.853L93.6753 131.056H90.3052Z" fill="#0C2E75"/>
<path d="M111.42 113.002H114.824V125.038L122.149 113.002H125.794V131.056H122.39V119.226L115.065 131.056H111.42V113.002Z" fill="#0C2E75"/>
<path d="M141.063 124.419L144.605 125.485C144.055 127.48 143.161 128.958 141.888 129.921C140.65 130.884 139.034 131.366 137.108 131.366C134.701 131.366 132.741 130.54 131.193 128.924C129.646 127.273 128.855 125.038 128.855 122.184C128.855 119.192 129.646 116.853 131.193 115.168C132.741 113.518 134.804 112.658 137.315 112.658C139.55 112.658 141.338 113.346 142.714 114.653C143.539 115.409 144.158 116.51 144.571 117.988L140.96 118.848C140.754 117.885 140.306 117.163 139.619 116.613C138.931 116.062 138.106 115.787 137.143 115.787C135.802 115.787 134.701 116.269 133.876 117.232C133.05 118.195 132.638 119.776 132.638 121.909C132.638 124.178 133.05 125.829 133.841 126.792C134.667 127.755 135.733 128.236 137.074 128.236C138.037 128.236 138.862 127.927 139.584 127.308C140.272 126.689 140.788 125.726 141.063 124.419Z" fill="#0C2E75"/>
<path d="M159.289 124.419L162.831 125.485C162.281 127.48 161.387 128.958 160.114 129.921C158.876 130.884 157.26 131.366 155.334 131.366C152.927 131.366 150.967 130.54 149.419 128.924C147.872 127.273 147.081 125.038 147.081 122.184C147.081 119.192 147.872 116.853 149.419 115.168C150.967 113.518 153.03 112.658 155.541 112.658C157.776 112.658 159.564 113.346 160.94 114.653C161.765 115.409 162.384 116.51 162.797 117.988L159.186 118.848C158.98 117.885 158.533 117.163 157.845 116.613C157.157 116.062 156.332 115.787 155.369 115.787C154.028 115.787 152.927 116.269 152.102 117.232C151.276 118.195 150.864 119.776 150.864 121.909C150.864 124.178 151.276 125.829 152.067 126.792C152.893 127.755 153.959 128.236 155.3 128.236C156.263 128.236 157.088 127.927 157.81 127.308C158.498 126.689 159.014 125.726 159.289 124.419Z" fill="#0C2E75"/>
<path d="M166.029 113.002H169.434V125.038L176.759 113.002H180.369V131.056H176.965V119.226L169.64 131.056H166.029V113.002Z" fill="#0C2E75"/>
<path d="M194.916 131.056V123.525H194.159C193.025 123.525 192.199 123.697 191.718 124.041C191.271 124.385 190.445 125.416 189.311 127.136L186.697 131.056H182.33L184.53 127.548C185.39 126.138 186.078 125.175 186.594 124.591C187.11 124.041 187.763 123.525 188.554 123.112C186.869 122.837 185.665 122.252 184.909 121.324C184.152 120.43 183.774 119.329 183.774 118.091C183.774 116.991 184.049 115.994 184.634 115.134C185.184 114.309 185.906 113.724 186.8 113.449C187.729 113.139 189.07 113.002 190.892 113.002H198.561V131.056H194.916V131.056ZM194.916 116.062H192.062C190.617 116.062 189.654 116.097 189.207 116.166C188.76 116.234 188.382 116.441 188.038 116.819C187.694 117.197 187.557 117.679 187.557 118.298C187.557 118.951 187.694 119.433 188.038 119.811C188.348 120.189 188.726 120.43 189.242 120.499C189.723 120.602 190.72 120.636 192.199 120.636H194.916V116.062Z" fill="#0C2E75"/>
<path fill-rule="evenodd" clip-rule="evenodd" d="M59.8022 16.1971C59.8022 18.1573 60.6276 18.2949 62.4502 19.4985C63.585 20.255 64.6167 20.874 65.7171 21.6306L78.8537 30.0902C80.0573 30.8468 80.9514 31.4658 81.7767 32.5662C82.6021 33.6667 83.0835 34.5952 83.5649 36.1427C84.3903 38.8938 83.7369 66.3705 83.8744 73.6265C83.9432 76.8935 87.2789 77.4093 88.7577 75.9994C89.2391 75.5523 89.6518 75.2084 89.6518 74.3831V48.3851C92.8156 48.3851 92.5748 48.11 92.5748 49.6919C92.5404 53.2339 92.4029 74.0736 92.6436 74.8989C93.2626 77.0998 96.6327 77.3405 97.7675 75.5523C98.3178 74.727 98.1458 73.5921 98.1458 72.2854C98.1458 66.4393 97.9739 58.1859 98.1458 52.6149L98.2146 45.6684C98.3522 42.8485 98.1114 38.6187 98.249 35.9707C98.3522 34.0793 97.3893 34.3201 101.413 34.3201C101.963 34.3201 108.291 38.6875 109.322 38.9282C109.46 37.2431 109.7 35.3517 109.7 33.5291C107.775 32.2223 100.931 27.4767 99.1775 26.7201C97.8707 26.1699 96.22 25.6197 94.5006 25.6197C94.5006 29.4025 95.2572 32.3255 95.2572 36.0395C95.2572 36.0395 93.3658 38.8594 93.1594 39.1689C92.7124 39.8567 91.5088 41.8168 91.0273 42.1951C90.7178 41.6449 90.4083 41.1634 90.0644 40.682C85.8346 34.7671 87.0382 36.5553 87.3477 30.8468C87.4509 29.1617 87.726 27.4767 87.726 25.6197C79.9885 25.6197 79.1288 24.4505 73.6953 21.1835L65.0637 15.922C64.1009 15.303 62.8629 14.2714 61.728 14.2714C60.662 14.2714 59.8022 15.1655 59.8022 16.1971V16.1971Z" fill="#0C2E75"/>
<path fill-rule="evenodd" clip-rule="evenodd" d="M116.647 79.0256C116.647 76.2401 116.166 76.6872 119.33 76.6872V79.6102C117.473 79.6102 116.647 79.8509 116.647 79.0256ZM120.877 69.775H123.594V72.2854C122.803 72.423 121.703 72.4573 120.877 72.2854V69.775ZM101.035 73.2483C101.035 77.6501 97.8023 80.0229 94.1571 79.3695C92.472 79.0256 91.853 78.0971 91.1996 77.6501C90.0648 77.9596 89.4114 79.7478 86.5227 79.4727C84.3906 79.2663 83.1526 78.4066 82.2241 77.0311C81.0893 75.346 81.1925 73.9361 81.1925 71.3225C81.1925 68.9841 81.1925 66.68 81.1925 64.376C80.1264 64.9262 79.2323 65.3389 78.1662 65.9579C77.1002 66.6112 76.2749 67.2646 75.2088 67.8492C76.5156 70.2908 76.7563 69.6718 76.7563 73.042C76.7563 75.6899 74.5898 78.1659 72.5953 78.8881C70.5319 79.679 68.7437 79.7478 66.646 78.7161C65.9238 78.3378 65.7863 78.0283 64.9953 77.8564L62.313 82.2926H139.757L138.072 79.3695C137.762 78.9225 137.728 78.9568 137.453 78.441C136.49 78.6817 135.974 79.4039 133.945 79.4727C130.265 79.6102 126.655 76.7216 126.655 72.4573C126.655 70.4284 127.136 69.9126 127.824 68.6058L121.427 64.5823C121.152 64.4447 120.946 64.3416 120.671 64.204L117.473 62.7597C116.028 62.2095 116.235 62.0031 116.063 62.8285L115.444 71.632C115.203 73.5234 115.444 73.8673 114.378 75.2085C111.867 78.3722 106.812 75.965 106.812 73.2483C106.812 68.709 107.603 65.0981 107.603 60.1117C106.503 60.1117 105.54 59.8022 104.508 59.7335C103.133 59.6647 102.307 59.5615 101.035 59.5615V73.2483V73.2483Z" fill="#0C2E75"/>
<path fill-rule="evenodd" clip-rule="evenodd" d="M136.489 5.77734H139.378V8.49406H136.489V5.77734V5.77734ZM130.918 5.77734H133.601V8.49406H130.918V5.77734V5.77734ZM125.141 5.77734H128.03V8.49406C124.866 8.49406 125.141 8.80355 125.21 7.29045C125.21 6.87778 125.313 6.22439 125.141 5.77734V5.77734ZM119.914 20.0487H142.095V2.88867H120.705C120.705 4.0235 120.602 6.08684 120.43 7.25606L119.742 16.1972C119.673 18.2949 118.882 20.0487 119.914 20.0487Z" fill="#0C2E75"/>
<path fill-rule="evenodd" clip-rule="evenodd" d="M111.042 74.0048C112.899 74.0048 112.761 71.9071 112.796 70.7379C112.83 69.3279 113.139 67.3334 113.174 65.9234L113.93 56.2602C114.102 53.1652 114.377 49.7263 114.687 46.8032C114.962 44.1897 114.928 40.3037 115.409 37.1056L117.988 3.47327C118.057 1.5475 118.607 0 116.441 0C113.999 0 114.928 4.74566 114.481 8.21894C114.068 11.2452 114.068 14.6497 113.724 17.8822L112.589 32.188C112.624 33.8042 112.28 35.3517 112.211 37.0024L111.454 46.4593C111.282 49.7607 110.939 52.9932 110.698 56.0882C110.423 59.3208 110.491 62.3126 109.976 65.6139L109.563 72.8012C109.632 73.1451 109.769 73.4546 110.044 73.6609C110.216 73.7985 110.801 74.0048 111.042 74.0048V74.0048Z" fill="#0C2E75"/>
<path fill-rule="evenodd" clip-rule="evenodd" d="M82.5332 13.8931C82.5332 16.5067 83.1866 18.6044 85.1811 20.4958C92.8499 27.7862 104.886 17.2633 97.3204 8.35654C92.8155 3.02627 82.5332 6.29321 82.5332 13.8931Z" fill="#0C2E75"/>
<path fill-rule="evenodd" clip-rule="evenodd" d="M66.9209 75.7243C68.5028 76.5841 68.0901 76.6872 70.1878 76.6872C71.9417 76.6872 74.0394 74.8302 74.0394 73.2483C74.0394 71.2882 74.2113 71.2538 73.0765 69.5687L70.1878 72.0447C70.0159 72.1823 69.9471 72.2511 69.7752 72.423L68.6747 73.6266C67.9526 74.4176 67.4023 74.8646 66.9209 75.7243V75.7243Z" fill="#0C2E75"/>
<path fill-rule="evenodd" clip-rule="evenodd" d="M91.4056 37.2088C91.9902 34.664 92.8155 37.8966 92.1965 31.9473C92.0934 30.8469 92.059 29.7808 91.9558 28.7148C91.9214 27.7519 91.6807 26.5483 91.5775 25.6198C89.7893 25.6198 90.6147 26.2731 90.3395 28.0614C90.1676 29.2994 90.1676 30.2966 89.9957 31.5346C89.583 34.8016 89.4454 34.8016 90.3739 36.3147C90.7178 36.8649 90.7522 37.0369 91.4056 37.2088Z" fill="#0C2E75"/>
<path fill-rule="evenodd" clip-rule="evenodd" d="M117.61 44.3272C118.71 44.568 120.223 46.4937 121.771 45.015C122.046 44.7743 122.424 43.9834 122.424 43.5707C122.424 41.8169 121.702 41.5761 120.705 40.854C119.776 40.2006 119.02 39.6504 117.988 39.1345L117.61 44.3272V44.3272Z" fill="#0C2E75"/>
<path fill-rule="evenodd" clip-rule="evenodd" d="M129.371 72.2854C129.371 76.3089 133.154 77.4437 135.527 76.3089C135.32 75.4836 134.289 74.6582 133.67 73.9361L132.294 72.423C132.122 72.251 132.053 72.1822 131.881 72.0447C131.881 72.0103 131.813 71.9759 131.813 71.9759L129.956 70.3596C129.646 70.9098 129.371 71.4257 129.371 72.2854V72.2854Z" fill="#0C2E75"/>
<path d="M2.75111 176.38H11.2108V188.657H12.4488V193.541H10.8325V190.308H1.61628V193.541H0V188.657H1.06605C2.20089 186.972 2.75111 183.568 2.75111 178.409V176.38V176.38ZM9.38816 178.031H4.53933V178.719C4.53933 179.923 4.40177 181.539 4.19544 183.602C3.98911 185.665 3.57644 187.351 2.95744 188.657H9.38816V178.031Z" fill="#0C2E75"/>
<path d="M14.6841 190.308V176.38H24.7256V178.031H16.5411V182.295H24.2098V183.912H16.5411V188.657H25.0351V190.308H14.6841Z" fill="#0C2E75"/>
<path d="M28.6114 176.38H37.3118V190.308H35.4548V178.031H30.4684V185.184C30.4684 186.628 30.3996 187.694 30.2621 188.382C30.1245 189.07 29.8494 189.586 29.4023 189.964C28.9553 190.342 28.4051 190.514 27.7517 190.514C27.339 190.514 26.8232 190.446 26.2729 190.274L26.6168 188.657C26.8919 188.795 27.1671 188.864 27.3734 188.864C27.7861 188.864 28.0956 188.726 28.3019 188.417C28.5082 188.107 28.6114 187.351 28.6114 186.181V176.38V176.38Z" fill="#0C2E75"/>
<path d="M38.8252 190.308L44.1555 176.38H46.15L51.8242 190.308H49.7265L48.1102 186.078H42.2641L40.751 190.308H38.8252V190.308ZM42.8143 184.599H47.56L46.0812 180.748C45.6686 179.544 45.3247 178.581 45.084 177.825C44.912 178.719 44.6369 179.613 44.3274 180.507L42.8143 184.599Z" fill="#0C2E75"/>
<path d="M55.2974 190.308V178.031H50.7236V176.38H61.7281V178.031H57.1544V190.308H55.2974Z" fill="#0C2E75"/>
<path d="M63.688 176.38H65.545V182.33H68.8463C70.3938 182.33 71.5286 182.502 72.2164 182.846C72.9042 183.224 73.42 183.705 73.6951 184.324C74.0046 184.943 74.1766 185.597 74.1766 186.25C74.1766 187.316 73.7983 188.279 73.0761 189.07C72.3196 189.895 70.9784 190.308 68.9839 190.308H63.688V176.38ZM65.545 188.726H68.9151C70.2563 188.726 71.1504 188.485 71.563 188.004C71.9757 187.522 72.182 186.938 72.182 186.25C72.182 185.7 72.0445 185.218 71.735 184.84C71.4255 184.427 71.0472 184.187 70.5314 184.084C70.0499 183.98 69.1902 183.912 68.021 183.912H65.545V188.726V188.726Z" fill="#0C2E75"/>
<path d="M87.2446 176.38H96.2545V178.031H89.0672V182.33H92.403C93.6066 182.33 94.6038 182.433 95.326 182.674C96.0482 182.914 96.6328 183.327 97.0454 183.98C97.4925 184.634 97.6988 185.39 97.6988 186.25C97.6988 186.938 97.5613 187.626 97.2518 188.21C96.9423 188.829 96.4608 189.345 95.8418 189.723C95.2228 190.102 94.1568 190.308 92.6781 190.308H87.2446V176.38V176.38ZM89.0672 188.726H92.7468C93.7441 188.726 94.5007 188.52 94.9821 188.107C95.498 187.694 95.7387 187.11 95.7387 186.284C95.7387 185.734 95.6011 185.253 95.2916 184.875C95.0165 184.462 94.6382 184.221 94.1224 184.084C93.6066 183.98 92.7468 183.912 91.5432 183.912H89.0672V188.726V188.726Z" fill="#0C2E75"/>
<path d="M98.0425 176.38H99.8995L104.439 184.943L108.394 176.38H110.216L105.023 187.213C104.37 188.554 103.82 189.448 103.407 189.861C102.994 190.274 102.375 190.48 101.619 190.48C101.137 190.48 100.553 190.377 99.8651 190.17V188.589C100.381 188.864 100.897 189.001 101.447 189.001C101.894 189.001 102.272 188.864 102.582 188.589C102.926 188.279 103.27 187.626 103.682 186.594L98.0425 176.38V176.38Z" fill="#0C2E75"/>
<path d="M111.798 190.308V176.38H117.025C117.954 176.38 118.642 176.449 119.158 176.518C119.845 176.656 120.396 176.862 120.877 177.171C121.324 177.481 121.702 177.928 121.977 178.513C122.253 179.097 122.39 179.716 122.39 180.404C122.39 181.573 122.012 182.57 121.29 183.396C120.533 184.221 119.158 184.634 117.197 184.634H113.621V190.308H111.798V190.308ZM113.621 182.983H117.232C118.401 182.983 119.261 182.777 119.742 182.33C120.258 181.883 120.499 181.264 120.499 180.473C120.499 179.888 120.361 179.372 120.052 178.96C119.777 178.547 119.364 178.272 118.882 178.134C118.573 178.066 118.023 178.031 117.197 178.031H113.621V182.983V182.983Z" fill="#0C2E75"/>
<path d="M124.763 190.308V176.38H134.804V178.031H126.62V182.295H134.288V183.912H126.62V188.657H135.148V190.308H124.763Z" fill="#0C2E75"/>
<path d="M137.762 190.308V176.38H139.619V182.123H146.772V176.38H148.629V190.308H146.772V183.74H139.619V190.308H137.762Z" fill="#0C2E75"/>
<path d="M151.724 176.38H153.409V187.385L160.802 176.38H162.625V190.308H160.974V179.304L153.581 190.308H151.724V176.38Z" fill="#0C2E75"/>
<path d="M165.686 190.308V176.38H175.727V178.031H167.543V182.295H175.211V183.912H167.543V188.657H176.071V190.308H165.686Z" fill="#0C2E75"/>
<path d="M193.747 182.33V183.946H198.905C198.836 185.494 198.389 186.732 197.598 187.626C196.807 188.52 195.776 188.967 194.538 188.967C192.302 188.967 190.927 187.798 190.377 185.459L188.588 185.941C189.414 189.001 191.339 190.514 194.4 190.514C196.601 190.514 198.217 189.827 199.318 188.417C200.384 187.007 200.865 185.253 200.796 183.19C200.796 181.917 200.556 180.782 200.109 179.716C199.627 178.685 198.871 177.825 197.908 177.171C196.91 176.484 195.741 176.174 194.366 176.174C192.921 176.174 191.718 176.518 190.755 177.24C189.758 177.928 189.104 178.925 188.76 180.198L190.583 180.679C191.099 178.719 192.371 177.756 194.4 177.756C195.741 177.756 196.807 178.169 197.564 178.994C198.355 179.819 198.767 180.92 198.836 182.33H193.747V182.33Z" fill="#0C2E75"/>
<path d="M208.362 178.031V176.277H210.116V178.031C211.87 178.134 213.28 178.685 214.311 179.647C215.309 180.61 215.824 181.814 215.824 183.258C215.824 184.668 215.343 185.872 214.346 186.869C213.348 187.866 211.939 188.417 210.116 188.52V190.308H208.362V188.52C206.746 188.451 205.37 187.935 204.27 187.007C203.169 186.078 202.619 184.806 202.619 183.258C202.619 181.711 203.169 180.473 204.27 179.544C205.37 178.616 206.711 178.1 208.362 178.031V178.031ZM210.116 179.613V186.938C211.285 186.869 212.214 186.525 212.901 185.906C213.589 185.253 213.933 184.393 213.933 183.258C213.933 182.192 213.589 181.333 212.936 180.679C212.248 180.026 211.32 179.682 210.116 179.613ZM208.362 179.647C207.227 179.682 206.299 180.026 205.611 180.645C204.889 181.264 204.545 182.158 204.545 183.258C204.545 184.393 204.889 185.253 205.577 185.906C206.264 186.525 207.227 186.869 208.362 186.904V179.647Z" fill="#0C2E75"/>
<path d="M223.149 178.031V176.277H224.869V178.031C226.622 178.134 228.032 178.685 229.064 179.647C230.096 180.61 230.577 181.814 230.577 183.258C230.577 184.668 230.096 185.872 229.098 186.869C228.101 187.866 226.691 188.417 224.869 188.52V190.308H223.149V188.52C221.499 188.451 220.123 187.935 219.023 187.007C217.922 186.078 217.406 184.806 217.406 183.258C217.406 181.711 217.922 180.473 219.023 179.544C220.123 178.616 221.499 178.1 223.149 178.031V178.031ZM224.869 179.613V186.938C226.038 186.869 227.001 186.525 227.654 185.906C228.342 185.253 228.686 184.393 228.686 183.258C228.686 182.192 228.342 181.333 227.689 180.679C227.001 180.026 226.072 179.682 224.869 179.613ZM223.149 179.647C221.98 179.682 221.051 180.026 220.364 180.645C219.642 181.264 219.298 182.158 219.298 183.258C219.298 184.393 219.642 185.253 220.329 185.906C221.051 186.525 221.98 186.869 223.149 186.904V179.647V179.647Z" fill="#0C2E75"/>
<path d="M232.916 190.308V176.38H242.957V178.031H234.738V182.295H242.407V183.912H234.738V188.657H243.267V190.308H232.916Z" fill="#0C2E75"/>
<path d="M245.846 176.38H247.703V182.502C248.529 182.502 249.148 182.33 249.457 181.986C249.801 181.676 250.248 180.885 250.764 179.647C251.176 178.719 251.486 178.1 251.727 177.722C251.967 177.343 252.346 176.999 252.793 176.759C253.274 176.518 253.79 176.38 254.34 176.38C255.028 176.38 255.406 176.38 255.441 176.38V177.997C255.372 177.997 255.269 177.997 255.097 177.962C254.89 177.962 254.753 177.962 254.719 177.962C254.134 177.962 253.687 178.1 253.412 178.409C253.102 178.685 252.793 179.269 252.414 180.198C251.933 181.401 251.555 182.123 251.211 182.433C250.901 182.742 250.523 182.983 250.076 183.189C250.97 183.43 251.864 184.256 252.724 185.665L255.578 190.308H253.309L250.97 186.525C250.317 185.494 249.801 184.771 249.354 184.359C248.941 183.98 248.391 183.774 247.703 183.774V190.308H245.846V176.38Z" fill="#0C2E75"/>
<path d="M260.667 190.308V178.031H256.094V176.38H267.098V178.031H262.49V190.308H260.667Z" fill="#0C2E75"/>
<path d="M269.024 176.38H270.709V187.385L278.103 176.38H279.925V190.308H278.24V179.304L270.881 190.308H269.024V176.38Z" fill="#0C2E75"/>
<path d="M282.883 190.308V176.38H288.076C289.142 176.38 290.001 176.518 290.655 176.828C291.274 177.103 291.79 177.515 292.133 178.1C292.512 178.685 292.684 179.304 292.684 179.957C292.684 180.542 292.512 181.092 292.202 181.642C291.893 182.158 291.411 182.57 290.758 182.88C291.583 183.155 292.237 183.568 292.684 184.152C293.131 184.737 293.371 185.459 293.371 186.25C293.371 186.903 293.234 187.522 292.959 188.073C292.684 188.623 292.34 189.07 291.927 189.379C291.514 189.689 291.033 189.895 290.414 190.067C289.795 190.205 289.038 190.308 288.179 190.308H282.883V190.308ZM284.705 182.227H287.732C288.523 182.227 289.107 182.192 289.485 182.089C289.933 181.951 290.276 181.711 290.517 181.367C290.758 181.057 290.895 180.645 290.895 180.163C290.895 179.716 290.758 179.304 290.552 178.96C290.345 178.581 290.001 178.341 289.589 178.203C289.176 178.1 288.488 178.031 287.491 178.031H284.705V182.227ZM284.705 188.657H288.179C288.763 188.657 289.176 188.623 289.417 188.589C289.864 188.52 290.208 188.382 290.483 188.21C290.758 188.038 290.999 187.763 291.205 187.454C291.377 187.11 291.48 186.697 291.48 186.25C291.48 185.734 291.342 185.287 291.067 184.909C290.792 184.531 290.414 184.256 289.967 184.084C289.485 183.946 288.798 183.877 287.938 183.877H284.705V188.657V188.657Z" fill="#0C2E75"/>
<path d="M295.985 190.308V176.38H297.807V182.123H304.995V176.38H306.852V190.308H304.995V183.74H297.807V190.308H295.985Z" fill="#0C2E75"/>
<path d="M310.016 176.38H311.838V182.33H315.174C317.34 182.33 318.75 182.708 319.438 183.533C320.126 184.324 320.47 185.253 320.47 186.25C320.47 187.316 320.092 188.279 319.369 189.07C318.647 189.895 317.272 190.308 315.277 190.308H310.016V176.38ZM311.838 188.726H315.208C316.343 188.726 317.203 188.52 317.719 188.141C318.235 187.763 318.51 187.144 318.51 186.284C318.51 185.7 318.338 185.218 318.028 184.806C317.719 184.427 317.306 184.187 316.79 184.084C316.309 183.946 315.483 183.912 314.314 183.912H311.838V188.726V188.726ZM322.155 176.38H323.977V190.308H322.155V176.38Z" fill="#0C2E75"/>
<path d="M327.073 190.308V176.38H329.824L333.091 186.216C333.4 187.144 333.641 187.832 333.779 188.279C333.916 187.798 334.191 187.041 334.501 186.078L337.871 176.38H340.312V190.308H338.559V178.65L334.501 190.308H332.85L328.827 178.444V190.308H327.073V190.308Z" fill="#0C2E75"/>
<path d="M343.51 190.308V188.348H345.436V190.308C345.436 190.996 345.333 191.58 345.058 192.027C344.817 192.474 344.404 192.818 343.854 193.059L343.373 192.302C343.751 192.165 344.026 191.924 344.198 191.615C344.37 191.305 344.439 190.858 344.473 190.308H343.51V190.308Z" fill="#0C2E75"/>
<path d="M1.51318 211.079H12.4145V225.006H10.5918V212.73H3.37018V225.006H1.51318V211.079Z" fill="#0C2E75"/>
<path d="M15.4409 225.006V211.079H20.7024C21.6309 211.079 22.3187 211.148 22.8001 211.216C23.4879 211.354 24.0725 211.56 24.5196 211.87C25.001 212.179 25.3793 212.626 25.6544 213.211C25.9295 213.796 26.0671 214.415 26.0671 215.102C26.0671 216.272 25.6888 217.269 24.9322 218.094C24.1757 218.92 22.8345 219.332 20.8744 219.332H17.2979V225.006H15.4409V225.006ZM17.2979 217.682H20.8744C22.078 217.682 22.9033 217.475 23.4191 217.028C23.935 216.581 24.1757 215.962 24.1757 215.171C24.1757 214.587 24.0381 214.071 23.7286 213.658C23.4191 213.245 23.0409 212.97 22.5594 212.833C22.2499 212.764 21.6653 212.73 20.84 212.73H17.2979V217.682Z" fill="#0C2E75"/>
<path d="M27.4082 218.232C27.4082 215.928 28.0272 214.105 29.2652 212.833C30.5032 211.526 32.1195 210.873 34.0796 210.873C35.352 210.873 36.5213 211.182 37.5529 211.767C38.5846 212.386 39.3411 213.245 39.8914 214.346C40.4416 215.446 40.7167 216.684 40.7167 218.06C40.7167 219.47 40.4072 220.742 39.857 221.843C39.2724 222.943 38.4814 223.803 37.4498 224.387C36.3837 224.938 35.2489 225.213 34.0453 225.213C32.7385 225.213 31.5693 224.903 30.5376 224.284C29.5059 223.665 28.7494 222.805 28.1991 221.705C27.6833 220.605 27.4082 219.435 27.4082 218.232V218.232ZM29.2996 218.266C29.2996 219.951 29.7466 221.258 30.6751 222.221C31.5693 223.184 32.7041 223.665 34.0453 223.665C35.4208 223.665 36.5556 223.184 37.4498 222.186C38.3439 221.224 38.7909 219.848 38.7909 218.06C38.7909 216.925 38.619 215.962 38.2407 215.102C37.8624 214.277 37.2778 213.624 36.5556 213.142C35.8335 212.695 35.0081 212.454 34.0796 212.454C32.7729 212.454 31.6724 212.901 30.7095 213.796C29.781 214.69 29.2996 216.168 29.2996 218.266V218.266Z" fill="#0C2E75"/>
<path d="M43.1235 211.079H44.9461V223.356H52.1678V211.079H54.0248V223.356H55.2972V228.858H53.6465V225.006H43.1235V211.079Z" fill="#0C2E75"/>
<path d="M57.4639 225.006V211.079H67.5054V212.73H59.3209V216.994H66.9896V218.644H59.3209V223.356H67.8493V225.006H57.4639Z" fill="#0C2E75"/>
<path d="M80.298 220.123L82.1206 220.57C81.7423 222.083 81.0545 223.253 80.0572 224.043C79.06 224.834 77.822 225.213 76.3776 225.213C74.8989 225.213 73.6609 224.938 72.7324 224.319C71.8039 223.7 71.0818 222.805 70.6003 221.671C70.1189 220.501 69.8438 219.263 69.8438 217.957C69.8438 216.512 70.1189 215.24 70.7035 214.14C71.2537 213.073 72.0102 212.248 73.0419 211.698C74.0736 211.148 75.174 210.873 76.412 210.873C77.7876 210.873 78.9568 211.216 79.9197 211.939C80.8482 212.626 81.536 213.624 81.8798 214.896L80.0916 215.343C79.7821 214.311 79.3007 213.589 78.6817 213.142C78.0627 212.661 77.3061 212.42 76.3776 212.42C75.3116 212.42 74.4175 212.695 73.6953 213.211C73.0075 213.727 72.4917 214.415 72.1822 215.274C71.9071 216.134 71.7695 217.028 71.7695 217.922C71.7695 219.126 71.9415 220.158 72.2854 221.017C72.6293 221.911 73.1451 222.565 73.8672 223.012C74.5894 223.424 75.3804 223.665 76.2401 223.665C77.2717 223.665 78.1315 223.356 78.8536 222.771C79.5414 222.186 80.0229 221.292 80.298 220.123Z" fill="#0C2E75"/>
<path d="M94.2943 220.123L96.1513 220.57C95.7731 222.083 95.0853 223.253 94.088 224.043C93.0563 224.834 91.8527 225.213 90.4084 225.213C88.8953 225.213 87.6917 224.938 86.7632 224.319C85.8003 223.7 85.1125 222.805 84.5967 221.671C84.1152 220.501 83.8745 219.263 83.8745 217.957C83.8745 216.512 84.1496 215.24 84.6998 214.14C85.2501 213.073 86.041 212.248 87.0727 211.698C88.07 211.148 89.2048 210.873 90.4428 210.873C91.8183 210.873 92.9876 211.216 93.9504 211.939C94.8789 212.626 95.5323 213.624 95.9106 214.896L94.1224 215.343C93.7785 214.311 93.3314 213.589 92.7124 213.142C92.0934 212.661 91.3369 212.42 90.4084 212.42C89.3423 212.42 88.4482 212.695 87.7261 213.211C87.0039 213.727 86.5225 214.415 86.213 215.274C85.9378 216.134 85.7659 217.028 85.7659 217.922C85.7659 219.126 85.9378 220.158 86.2817 221.017C86.6256 221.911 87.1758 222.565 87.898 223.012C88.6202 223.424 89.4111 223.665 90.2365 223.665C91.2681 223.665 92.1622 223.356 92.85 222.771C93.5722 222.186 94.0536 221.292 94.2943 220.123V220.123Z" fill="#0C2E75"/>
<path d="M98.5244 211.079H100.381V217.028H103.683C105.849 217.028 107.259 217.406 107.947 218.232C108.635 219.023 108.979 219.951 108.979 220.948C108.979 222.049 108.635 222.977 107.878 223.768C107.156 224.594 105.78 225.006 103.82 225.006H98.5244V211.079V211.079ZM100.381 223.424H103.717C104.852 223.424 105.712 223.218 106.228 222.84C106.743 222.462 107.018 221.843 107.018 220.983C107.018 220.398 106.847 219.917 106.537 219.504C106.228 219.126 105.815 218.885 105.299 218.782C104.818 218.679 103.992 218.61 102.823 218.61H100.381V223.424ZM110.664 211.079H112.486V225.006H110.664V211.079Z" fill="#0C2E75"/>
<path d="M126.414 211.079H137.315V225.006H135.492V212.73H128.271V225.006H126.414V211.079Z" fill="#0C2E75"/>
<path d="M140.341 225.006V211.079H145.602C146.531 211.079 147.219 211.148 147.734 211.216C148.388 211.354 148.972 211.56 149.419 211.87C149.901 212.179 150.279 212.626 150.554 213.211C150.829 213.796 150.967 214.415 150.967 215.102C150.967 216.272 150.589 217.269 149.832 218.094C149.11 218.92 147.734 219.332 145.774 219.332H142.198V225.006H140.341ZM142.198 217.682H145.774C146.978 217.682 147.838 217.475 148.319 217.028C148.835 216.581 149.076 215.962 149.076 215.171C149.076 214.587 148.938 214.071 148.629 213.658C148.319 213.245 147.941 212.97 147.459 212.833C147.15 212.764 146.6 212.73 145.74 212.73H142.198V217.682V217.682Z" fill="#0C2E75"/>
<path d="M152.309 218.232C152.309 215.928 152.928 214.105 154.166 212.833C155.404 211.526 157.02 210.873 158.98 210.873C160.252 210.873 161.422 211.182 162.453 211.767C163.485 212.386 164.276 213.245 164.792 214.346C165.342 215.446 165.617 216.684 165.617 218.06C165.617 219.47 165.342 220.742 164.757 221.843C164.173 222.943 163.382 223.803 162.35 224.387C161.284 224.938 160.184 225.213 158.946 225.213C157.639 225.213 156.47 224.903 155.438 224.284C154.406 223.665 153.65 222.805 153.1 221.705C152.584 220.605 152.309 219.435 152.309 218.232V218.232ZM154.2 218.266C154.2 219.951 154.681 221.258 155.576 222.221C156.47 223.184 157.604 223.665 158.946 223.665C160.321 223.665 161.49 223.184 162.385 222.186C163.279 221.224 163.726 219.848 163.726 218.06C163.726 216.925 163.519 215.962 163.141 215.102C162.763 214.277 162.178 213.624 161.456 213.142C160.734 212.695 159.909 212.454 158.98 212.454C157.673 212.454 156.573 212.901 155.61 213.796C154.681 214.69 154.2 216.168 154.2 218.266V218.266Z" fill="#0C2E75"/>
<path d="M167.233 221.086L168.952 220.639C169.09 221.292 169.468 221.98 170.018 222.634C170.603 223.321 171.36 223.665 172.322 223.665C173.285 223.665 174.076 223.39 174.627 222.909C175.177 222.393 175.486 221.808 175.486 221.086C175.486 220.329 175.177 219.71 174.592 219.263C174.008 218.816 173.182 218.576 172.185 218.576H171.291V216.994C172.151 216.994 172.77 216.925 173.217 216.822C173.664 216.719 174.076 216.478 174.42 216.1C174.764 215.687 174.936 215.24 174.936 214.724C174.936 214.105 174.695 213.589 174.214 213.142C173.767 212.695 173.113 212.489 172.322 212.489C171.635 212.489 171.05 212.661 170.534 213.005C170.053 213.349 169.709 213.83 169.537 214.415C169.331 214.965 169.227 215.412 169.227 215.687L167.474 215.274C167.921 212.351 169.537 210.873 172.357 210.873C173.698 210.873 174.764 211.251 175.555 212.007C176.346 212.764 176.759 213.624 176.759 214.621C176.759 215.928 176.14 216.925 174.902 217.647C175.624 217.854 176.208 218.232 176.69 218.851C177.171 219.47 177.412 220.158 177.412 221.017C177.412 222.221 176.965 223.218 176.036 224.009C175.108 224.834 173.87 225.213 172.357 225.213C169.709 225.213 168.024 223.837 167.233 221.086V221.086Z" fill="#0C2E75"/>
<path d="M179.716 225.006V211.079H184.943C185.872 211.079 186.594 211.148 187.076 211.216C187.763 211.354 188.314 211.56 188.795 211.87C189.242 212.179 189.62 212.626 189.895 213.211C190.171 213.796 190.308 214.415 190.308 215.102C190.308 216.272 189.964 217.269 189.208 218.094C188.451 218.92 187.076 219.332 185.115 219.332H181.539V225.006H179.716ZM181.539 217.682H185.15C186.319 217.682 187.179 217.475 187.66 217.028C188.176 216.581 188.417 215.962 188.417 215.171C188.417 214.587 188.279 214.071 187.97 213.658C187.695 213.245 187.282 212.97 186.835 212.833C186.491 212.764 185.941 212.73 185.115 212.73H181.539V217.682V217.682Z" fill="#0C2E75"/>
<path d="M189.826 225.006L195.156 211.079H197.185L202.86 225.006H200.762L199.146 220.777H193.299L191.786 225.006H189.826ZM193.815 219.298H198.561L197.117 215.446C196.67 214.277 196.36 213.28 196.119 212.523C195.913 213.452 195.672 214.311 195.363 215.206L193.815 219.298Z" fill="#0C2E75"/>
<path d="M212.695 225.006H210.873V219.401C209.222 220.02 207.778 220.329 206.54 220.329C205.577 220.329 204.717 220.089 203.961 219.642C203.238 219.195 202.723 218.61 202.482 217.922C202.241 217.234 202.104 216.306 202.104 215.171V211.079H203.961V214.999C203.961 216.547 204.236 217.544 204.786 218.025C205.336 218.472 205.989 218.713 206.78 218.713C208.087 218.713 209.428 218.438 210.873 217.853V211.079H212.695V225.006V225.006Z" fill="#0C2E75"/>
<path d="M215.79 225.006V211.079H217.647V216.822H224.834V211.079H226.691V225.006H224.834V218.438H217.647V225.006H215.79Z" fill="#0C2E75"/>
<path d="M229.855 211.079H231.678V217.028H235.014C237.18 217.028 238.59 217.406 239.278 218.232C239.966 219.023 240.31 219.951 240.31 220.948C240.31 222.049 239.931 222.977 239.209 223.768C238.487 224.594 237.112 225.006 235.117 225.006H229.855V211.079V211.079ZM231.678 223.424H235.048C236.183 223.424 237.043 223.218 237.559 222.84C238.074 222.462 238.315 221.843 238.315 220.983C238.315 220.398 238.178 219.917 237.868 219.504C237.524 219.126 237.146 218.885 236.63 218.782C236.149 218.679 235.323 218.61 234.154 218.61H231.678V223.424V223.424ZM241.96 211.079H243.817V225.006H241.96V211.079Z" fill="#0C2E75"/>
<path d="M246.912 225.006V211.079H249.663L252.93 220.948C253.24 221.843 253.48 222.53 253.618 222.977C253.755 222.496 253.996 221.739 254.34 220.777L257.676 211.079H260.152V225.006H258.398V213.383L254.34 225.006H252.689L248.666 213.142V225.006H246.912V225.006Z" fill="#0C2E75"/>
<path d="M263.144 211.079H264.829V222.118L272.222 211.079H274.045V225.006H272.36V214.002L265.001 225.006H263.144V211.079Z" fill="#0C2E75"/>
<path d="M277.277 225.006V223.046H279.238V225.006C279.238 225.694 279.1 226.279 278.859 226.726C278.619 227.173 278.206 227.517 277.656 227.757L277.174 227.001C277.553 226.863 277.793 226.623 277.965 226.313C278.137 226.004 278.24 225.557 278.275 225.006H277.277Z" fill="#0C2E75"/>
<path d="M1.54736 245.812H3.36997V258.054H10.5916V245.812H12.4486V258.054H13.721V263.556H12.0704V259.705H1.54736V245.812Z" fill="#0C2E75"/>
<path d="M15.8877 259.705V245.812H25.9292V247.428H17.7447V251.692H25.4134V253.343H17.7447V258.054H26.2731V259.705H15.8877Z" fill="#0C2E75"/>
<path d="M29.8494 245.812H38.5154V259.705H36.6584V247.428H31.672V254.581C31.672 256.06 31.6032 257.126 31.4657 257.779C31.3281 258.467 31.053 258.983 30.6059 259.361C30.1589 259.739 29.6087 259.945 28.9553 259.945C28.5426 259.945 28.0612 259.842 27.4766 259.67L27.8205 258.054C28.13 258.192 28.3707 258.295 28.577 258.295C28.9897 258.295 29.2992 258.123 29.5055 257.813C29.7462 257.504 29.8494 256.747 29.8494 255.578V245.812Z" fill="#0C2E75"/>
<path d="M41.5762 245.812H43.2612V256.816L50.6548 245.812H52.4774V259.705H50.7924V248.735L43.4332 259.705H41.5762V245.812Z" fill="#0C2E75"/>
<path d="M67.5397 245.812H75.9993V258.054H77.2717V262.937H75.6211V259.705H66.4392V262.937H64.7886V258.054H65.8546C66.9895 256.369 67.5397 252.965 67.5397 247.841V245.812V245.812ZM74.1767 247.428H69.3279V248.15C69.3279 249.319 69.2247 250.936 68.984 252.999C68.7777 255.062 68.365 256.747 67.746 258.054H74.1767V247.428V247.428Z" fill="#0C2E75"/>
<path d="M78.8882 252.93C78.8882 250.626 79.5072 248.838 80.7452 247.531C81.9832 246.224 83.5651 245.571 85.5252 245.571C86.832 245.571 87.9668 245.88 88.9985 246.499C90.0302 247.084 90.8211 247.944 91.3713 249.044C91.8872 250.145 92.1623 251.383 92.1623 252.758C92.1623 254.168 91.8872 255.44 91.3026 256.541C90.7523 257.676 89.927 258.501 88.8953 259.086C87.8637 259.636 86.7288 259.945 85.5252 259.945C84.2185 259.945 83.0492 259.601 82.0176 258.982C80.9859 258.363 80.195 257.504 79.6791 256.403C79.1289 255.303 78.8882 254.168 78.8882 252.93V252.93ZM80.7796 252.964C80.7796 254.649 81.2266 255.956 82.1207 256.919C83.0148 257.882 84.1497 258.363 85.5252 258.363C86.9008 258.363 88.0356 257.882 88.9297 256.885C89.8238 255.922 90.2709 254.546 90.2709 252.758C90.2709 251.623 90.0646 250.66 89.6863 249.801C89.308 248.975 88.7578 248.322 88.0356 247.84C87.2791 247.393 86.4537 247.153 85.5252 247.153C84.2528 247.153 83.118 247.6 82.1895 248.494C81.261 249.388 80.7796 250.867 80.7796 252.964V252.964Z" fill="#0C2E75"/>
<path d="M104.439 254.821L106.296 255.303C105.883 256.782 105.195 257.951 104.198 258.742C103.201 259.533 101.997 259.945 100.519 259.945C99.0398 259.945 97.8362 259.636 96.8733 259.017C95.9448 258.398 95.2226 257.538 94.7412 256.369C94.2598 255.2 94.019 253.962 94.019 252.655C94.019 251.211 94.2942 249.938 94.8444 248.872C95.3946 247.772 96.1855 246.946 97.1828 246.396C98.2145 245.846 99.3493 245.571 100.553 245.571C101.963 245.571 103.132 245.915 104.061 246.637C105.023 247.325 105.677 248.322 106.055 249.594L104.233 250.041C103.923 249.01 103.442 248.288 102.857 247.84C102.238 247.359 101.447 247.153 100.519 247.153C99.4525 247.153 98.5584 247.393 97.8706 247.909C97.1484 248.425 96.6326 249.113 96.3575 249.973C96.048 250.832 95.9104 251.726 95.9104 252.621C95.9104 253.824 96.0824 254.856 96.4263 255.716C96.7702 256.61 97.3204 257.263 98.0425 257.71C98.7647 258.157 99.5557 258.363 100.381 258.363C101.413 258.363 102.272 258.054 102.995 257.469C103.717 256.885 104.198 255.991 104.439 254.821V254.821Z" fill="#0C2E75"/>
<path d="M111.455 259.705V247.428H106.881V245.812H117.885V247.428H113.277V259.705H111.455Z" fill="#0C2E75"/>
<path d="M119.811 245.812H121.496V256.816L128.89 245.812H130.712V259.705H129.027V248.735L121.668 259.705H119.811V245.812Z" fill="#0C2E75"/>
<path d="M142.129 245.812V251.898C143.023 251.898 143.642 251.726 143.986 251.383C144.33 251.073 144.743 250.282 145.293 249.044C145.671 248.116 145.981 247.497 146.221 247.118C146.462 246.74 146.84 246.431 147.287 246.156C147.769 245.915 148.25 245.777 148.801 245.777C149.42 245.777 149.798 245.777 149.935 245.812V247.394C149.867 247.394 149.763 247.394 149.592 247.394C149.385 247.359 149.248 247.359 149.213 247.359C148.629 247.359 148.182 247.497 147.906 247.806C147.597 248.081 147.287 248.7 146.909 249.629C146.497 250.626 146.153 251.314 145.843 251.692C145.568 252.036 145.121 252.345 144.571 252.586C145.465 252.861 146.359 253.652 147.219 255.062L150.073 259.705H147.803L145.465 255.922C144.846 254.925 144.33 254.237 143.917 253.824C143.505 253.412 142.886 253.205 142.129 253.205V259.705H140.238V253.205C139.653 253.205 139.103 253.343 138.656 253.687C138.174 253.996 137.659 254.684 137.04 255.75L136.902 255.922L134.564 259.705H132.294L135.148 255.062C136.042 253.652 136.902 252.827 137.831 252.586C137.315 252.38 136.902 252.105 136.593 251.761C136.283 251.451 135.905 250.729 135.458 249.629C135.079 248.631 134.736 248.012 134.426 247.737C134.151 247.497 133.738 247.359 133.154 247.359L132.431 247.394V245.812C132.5 245.777 132.844 245.777 133.498 245.777C134.082 245.777 134.632 245.915 135.079 246.156C135.526 246.396 135.87 246.706 136.111 247.084C136.386 247.462 136.696 248.116 137.108 249.044C137.624 250.282 138.071 251.073 138.381 251.383C138.725 251.726 139.344 251.864 140.238 251.898V245.812H142.129V245.812Z" fill="#0C2E75"/>
<path d="M151.689 245.812H153.374V256.816L160.768 245.812H162.59V259.705H160.905V248.735L153.546 259.705H151.689V245.812Z" fill="#0C2E75"/>
<path d="M165.583 259.705V245.812H168.334L171.601 255.647C171.91 256.541 172.151 257.229 172.288 257.71C172.426 257.194 172.701 256.438 173.011 255.475L176.381 245.812H178.822V259.705H177.068V248.081L173.011 259.705H171.36L167.336 247.841V259.705H165.583V259.705Z" fill="#0C2E75"/>
<path d="M181.883 245.812H183.705V251.727H187.041C189.208 251.727 190.618 252.105 191.305 252.93C191.993 253.721 192.337 254.65 192.337 255.647C192.337 256.747 191.959 257.676 191.237 258.501C190.514 259.292 189.139 259.705 187.144 259.705H181.883V245.812V245.812ZM183.705 258.123H187.076C188.21 258.123 189.07 257.917 189.586 257.538C190.102 257.16 190.377 256.541 190.377 255.681C190.377 255.097 190.205 254.615 189.895 254.203C189.586 253.824 189.173 253.584 188.657 253.48C188.176 253.377 187.351 253.308 186.181 253.308H183.705V258.123V258.123ZM194.022 245.812H195.845V259.705H194.022V245.812Z" fill="#0C2E75"/>
<path d="M198.939 259.705V245.812H201.691L204.958 255.647C205.267 256.541 205.508 257.229 205.645 257.71C205.783 257.194 206.058 256.438 206.367 255.475L209.738 245.812H212.179V259.705H210.425V248.081L206.367 259.705H204.717L200.693 247.841V259.705H198.939V259.705Z" fill="#0C2E75"/>
<path d="M215.171 245.812H216.856V256.816L224.25 245.812H226.072V259.705H224.387V248.735L217.028 259.705H215.171V245.812Z" fill="#0C2E75"/>
<path d="M229.339 259.705V257.745H231.265V259.705C231.265 260.427 231.127 260.977 230.887 261.424C230.646 261.871 230.233 262.215 229.683 262.456L229.202 261.734C229.58 261.562 229.855 261.321 229.993 261.011C230.165 260.702 230.268 260.289 230.302 259.705H229.339V259.705Z" fill="#0C2E75"/>
<path d="M1.40967 294.403V280.51H6.63677C7.70283 280.51 8.52816 280.647 9.18155 280.923C9.83494 281.198 10.3164 281.645 10.6947 282.229C11.0729 282.814 11.2449 283.399 11.2449 284.052C11.2449 284.637 11.0729 285.221 10.7634 285.737C10.4539 286.253 9.9381 286.665 9.3191 287.009C10.1444 287.25 10.7978 287.663 11.2449 288.247C11.6919 288.866 11.9327 289.554 11.9327 290.379C11.9327 291.033 11.7951 291.617 11.52 292.202C11.2449 292.752 10.901 293.165 10.4883 293.474C10.0757 293.784 9.55983 294.025 8.97522 294.162C8.35622 294.334 7.59966 294.403 6.70555 294.403H1.40967V294.403ZM3.26667 286.356H6.2585C7.08383 286.356 7.66844 286.287 8.01233 286.184C8.49377 286.046 8.83766 285.806 9.07838 285.496C9.31911 285.152 9.42227 284.774 9.42227 284.258C9.42227 283.811 9.31911 283.399 9.11277 283.055C8.87205 282.711 8.56255 282.47 8.14988 282.332C7.73722 282.195 7.04944 282.126 6.05216 282.126H3.26667V286.356V286.356ZM3.26667 292.752H6.73994C7.32455 292.752 7.73722 292.752 7.97794 292.684C8.39061 292.615 8.76888 292.512 9.04399 292.305C9.31911 292.133 9.55983 291.893 9.73177 291.549C9.9381 291.205 10.0069 290.827 10.0069 290.379C10.0069 289.864 9.86933 289.417 9.6286 289.004C9.35349 288.626 8.97522 288.351 8.49377 288.213C8.04672 288.041 7.35894 287.972 6.46483 287.972H3.26667V292.752V292.752Z" fill="#0C2E75"/>
<path d="M14.4092 294.403V280.51H17.1603L20.4616 290.345C20.7711 291.239 20.9775 291.927 21.115 292.408C21.287 291.893 21.5277 291.136 21.8716 290.173L25.2073 280.51H27.6489V294.403H25.8951V282.78L21.8372 294.403H20.1865L16.163 282.573V294.403H14.4092V294.403Z" fill="#0C2E75"/>
<path d="M30.6401 294.403V280.51H40.6817V282.126H32.4971V286.39H40.1659V288.041H32.4971V292.752H41.0256V294.403H30.6401Z" fill="#0C2E75"/>
<path d="M53.4745 289.52L55.2971 290.001C54.9188 291.514 54.2311 292.649 53.2338 293.44C52.2365 294.231 50.9985 294.644 49.5542 294.644C48.0755 294.644 46.8375 294.334 45.909 293.715C44.9805 293.096 44.2583 292.236 43.7769 291.067C43.2954 289.898 43.0547 288.66 43.0547 287.353C43.0547 285.909 43.3298 284.637 43.88 283.57C44.4302 282.47 45.2212 281.679 46.2185 281.094C47.2501 280.544 48.385 280.269 49.5886 280.269C50.9985 280.269 52.1677 280.613 53.0962 281.335C54.0591 282.023 54.7125 283.02 55.0908 284.327L53.2682 284.74C52.9587 283.742 52.4772 282.986 51.8582 282.539C51.2736 282.057 50.4827 281.851 49.5542 281.851C48.4881 281.851 47.594 282.092 46.8718 282.608C46.1841 283.123 45.6682 283.811 45.3931 284.671C45.0836 285.531 44.9461 286.425 44.9461 287.319C44.9461 288.523 45.118 289.554 45.4619 290.414C45.8058 291.308 46.3216 291.961 47.0438 292.408C47.8003 292.855 48.5569 293.062 49.4166 293.062C50.4483 293.062 51.308 292.752 52.0302 292.168C52.718 291.583 53.1994 290.689 53.4745 289.52V289.52Z" fill="#0C2E75"/>
<path d="M60.4899 294.403V282.126H55.8818V280.51H66.8863V282.126H62.3126V294.403H60.4899Z" fill="#0C2E75"/>
<path d="M68.8462 294.403V280.51H78.8877V282.126H70.6688V286.39H78.3375V288.041H70.6688V292.752H79.1972V294.403H68.8462Z" fill="#0C2E75"/>
<path d="M92.5063 294.403V280.51H95.2575L98.5588 290.345C98.8339 291.239 99.0746 291.927 99.2122 292.408C99.3497 291.893 99.6248 291.136 99.9343 290.173L103.304 280.51H105.746V294.403H103.992V282.78L99.9343 294.403H98.2837L94.2602 282.573V294.403H92.5063V294.403Z" fill="#0C2E75"/>
<path d="M108.806 280.51H110.663V286.425H113.964C116.131 286.425 117.575 286.837 118.229 287.628C118.916 288.419 119.26 289.348 119.26 290.345C119.26 291.446 118.916 292.374 118.16 293.199C117.438 293.99 116.097 294.403 114.102 294.403H108.806V280.51V280.51ZM110.663 292.821H113.999C115.168 292.821 115.993 292.649 116.509 292.237C117.025 291.858 117.3 291.239 117.3 290.379C117.3 289.795 117.128 289.313 116.819 288.935C116.509 288.522 116.097 288.282 115.581 288.179C115.099 288.075 114.274 288.007 113.105 288.007H110.663V292.821V292.821ZM120.945 280.51H122.768V294.403H120.945V280.51Z" fill="#0C2E75"/>
<path d="M146.6 289.52L148.422 290.001C148.044 291.514 147.356 292.649 146.359 293.44C145.362 294.231 144.124 294.644 142.679 294.644C141.201 294.644 139.963 294.334 139.034 293.715C138.106 293.096 137.384 292.236 136.902 291.067C136.421 289.898 136.146 288.66 136.146 287.353C136.146 285.909 136.421 284.637 137.005 283.57C137.555 282.47 138.312 281.679 139.344 281.094C140.375 280.544 141.476 280.269 142.714 280.269C144.089 280.269 145.259 280.613 146.221 281.335C147.15 282.023 147.838 283.02 148.182 284.327L146.393 284.74C146.084 283.742 145.602 282.986 144.983 282.539C144.364 282.057 143.608 281.851 142.679 281.851C141.613 281.851 140.719 282.092 139.997 282.608C139.309 283.123 138.793 283.811 138.484 284.671C138.209 285.531 138.071 286.425 138.071 287.319C138.071 288.523 138.243 289.554 138.587 290.414C138.931 291.308 139.447 291.961 140.169 292.408C140.891 292.855 141.682 293.062 142.542 293.062C143.574 293.062 144.433 292.752 145.155 292.168C145.843 291.583 146.325 290.689 146.6 289.52V289.52Z" fill="#0C2E75"/>
<path d="M149.729 287.628C149.729 285.324 150.348 283.536 151.586 282.229C152.824 280.923 154.406 280.269 156.366 280.269C157.673 280.269 158.808 280.579 159.839 281.198C160.871 281.782 161.662 282.642 162.212 283.742C162.728 284.843 163.003 286.081 163.003 287.456C163.003 288.866 162.728 290.139 162.143 291.239C161.593 292.374 160.768 293.199 159.736 293.784C158.704 294.334 157.57 294.644 156.366 294.644C155.059 294.644 153.89 294.3 152.858 293.681C151.827 293.062 151.036 292.202 150.52 291.102C149.97 290.001 149.729 288.866 149.729 287.628V287.628ZM151.62 287.663C151.62 289.348 152.067 290.655 152.962 291.617C153.856 292.58 154.991 293.062 156.366 293.062C157.742 293.062 158.876 292.58 159.771 291.617C160.665 290.62 161.112 289.245 161.112 287.456C161.112 286.356 160.905 285.359 160.527 284.499C160.149 283.674 159.599 283.02 158.876 282.539C158.12 282.092 157.295 281.851 156.4 281.851C155.094 281.851 153.959 282.298 153.03 283.192C152.102 284.086 151.62 285.565 151.62 287.663V287.663Z" fill="#0C2E75"/>
<path d="M164.619 290.483L166.373 290.036C166.511 290.689 166.854 291.377 167.439 292.065C168.024 292.718 168.78 293.062 169.743 293.062C170.706 293.062 171.463 292.821 172.047 292.305C172.597 291.824 172.872 291.205 172.872 290.483C172.872 289.726 172.563 289.107 171.978 288.66C171.394 288.213 170.603 288.007 169.571 288.007H168.711V286.39C169.537 286.39 170.19 286.322 170.637 286.253C171.084 286.15 171.463 285.875 171.806 285.496C172.15 285.084 172.322 284.637 172.322 284.121C172.322 283.536 172.082 282.986 171.634 282.539C171.153 282.092 170.534 281.885 169.743 281.885C169.021 281.885 168.436 282.057 167.955 282.401C167.439 282.745 167.13 283.227 166.923 283.811C166.751 284.396 166.648 284.808 166.648 285.084L164.86 284.705C165.307 281.748 166.923 280.269 169.743 280.269C171.084 280.269 172.185 280.647 172.976 281.404C173.767 282.161 174.145 283.02 174.145 284.052C174.145 285.324 173.526 286.356 172.322 287.044C173.044 287.25 173.629 287.663 174.11 288.247C174.558 288.866 174.798 289.589 174.798 290.414C174.798 291.617 174.351 292.615 173.423 293.406C172.494 294.231 171.291 294.644 169.743 294.644C167.13 294.644 165.41 293.234 164.619 290.483V290.483Z" fill="#0C2E75"/>
<path d="M178.375 280.51H186.835V292.752H188.073V297.636H186.457V294.403H177.24V297.636H175.624V292.752H176.69C177.791 291.067 178.375 287.663 178.375 282.539V280.51V280.51ZM184.978 282.126H180.129V282.848C180.129 284.018 180.026 285.634 179.819 287.697C179.613 289.761 179.166 291.446 178.547 292.752H184.978V282.126V282.126Z" fill="#0C2E75"/>
<path d="M188.726 294.403L194.056 280.51H196.085L201.725 294.403H199.662L198.045 290.173H192.199L190.686 294.403H188.726ZM192.715 288.694H197.461L196.017 284.843C195.569 283.674 195.26 282.711 195.019 281.92C194.813 282.848 194.572 283.742 194.263 284.602L192.715 288.694Z" fill="#0C2E75"/>
<path d="M203.238 294.403V280.51H213.28V282.126H205.095V286.39H212.764V288.041H205.095V292.752H213.589V294.403H203.238ZM205.577 279.65V277.69H207.365V279.65H205.577ZM209.119 279.65V277.69H210.907V279.65H209.119Z" fill="#0C2E75"/>
<path d="M216.134 294.403V280.51H218.885L222.152 290.345C222.461 291.239 222.702 291.927 222.84 292.408C222.977 291.893 223.252 291.136 223.562 290.173L226.932 280.51H229.373V294.403H227.62V282.78L223.562 294.403H221.911L217.888 282.573V294.403H216.134V294.403Z" fill="#0C2E75"/>
<path d="M243.198 280.51H252.208V282.126H245.055V286.425H248.357C249.595 286.425 250.557 286.528 251.28 286.769C252.002 287.009 252.586 287.456 253.033 288.11C253.481 288.729 253.687 289.485 253.687 290.345C253.687 291.067 253.515 291.721 253.205 292.34C252.896 292.924 252.414 293.44 251.795 293.818C251.176 294.197 250.145 294.403 248.632 294.403H243.198V280.51ZM245.055 292.821H248.735C249.698 292.821 250.454 292.615 250.97 292.237C251.452 291.824 251.692 291.205 251.692 290.414C251.692 289.829 251.555 289.348 251.28 288.97C251.005 288.591 250.592 288.316 250.076 288.213C249.595 288.075 248.7 288.007 247.497 288.007H245.055V292.821Z" fill="#0C2E75"/>
<path d="M253.996 280.51H255.853L260.427 289.038L264.382 280.51H266.17L260.977 291.308C260.324 292.649 259.773 293.543 259.361 293.956C258.948 294.403 258.363 294.609 257.573 294.609C257.125 294.609 256.541 294.472 255.853 294.265V292.684C256.335 292.959 256.85 293.131 257.401 293.131C257.848 293.131 258.226 292.959 258.57 292.684C258.879 292.408 259.258 291.755 259.636 290.723L253.996 280.51V280.51Z" fill="#0C2E75"/>
<path d="M268.13 280.51H276.59V292.752H277.828V297.636H276.211V294.403H266.995V297.636H265.379V292.752H266.445C267.58 291.067 268.13 287.663 268.13 282.539V280.51V280.51ZM274.767 282.126H269.918V282.848C269.918 284.018 269.781 285.634 269.574 287.697C269.368 289.761 268.955 291.446 268.336 292.752H274.767V282.126V282.126Z" fill="#0C2E75"/>
<path d="M278.825 280.51H280.682L285.222 289.038L289.176 280.51H290.999L285.806 291.308C285.153 292.649 284.603 293.543 284.19 293.956C283.777 294.403 283.193 294.609 282.402 294.609C281.92 294.609 281.37 294.472 280.682 294.265V292.684C281.164 292.959 281.679 293.131 282.23 293.131C282.677 293.131 283.055 292.959 283.399 292.684C283.708 292.408 284.087 291.755 284.465 290.723L278.825 280.51V280.51Z" fill="#0C2E75"/>
<path d="M292.615 280.51H294.472V292.752H299.045V280.51H300.902V292.752H305.511V280.51H307.333V292.752H308.606V298.255H306.955V294.403H292.615V280.51Z" fill="#0C2E75"/>
<path d="M310.807 294.403V280.51H320.848V282.126H312.664V286.39H320.332V288.041H312.664V292.752H321.192V294.403H310.807Z" fill="#0C2E75"/>
<path d="M323.771 294.403V280.51H333.813V282.126H325.594V286.39H333.262V288.041H325.594V292.752H334.122V294.403H323.771Z" fill="#0C2E75"/>
<path d="M357.369 289.52L359.192 290.001C358.813 291.514 358.126 292.649 357.128 293.44C356.131 294.231 354.893 294.644 353.449 294.644C351.97 294.644 350.732 294.334 349.804 293.715C348.875 293.096 348.153 292.236 347.671 291.067C347.19 289.898 346.949 288.66 346.949 287.353C346.949 285.909 347.224 284.637 347.775 283.57C348.325 282.47 349.116 281.679 350.113 281.094C351.145 280.544 352.279 280.269 353.483 280.269C354.893 280.269 356.062 280.613 356.991 281.335C357.954 282.023 358.607 283.02 358.985 284.327L357.163 284.74C356.853 283.742 356.372 282.986 355.753 282.539C355.168 282.057 354.377 281.851 353.449 281.851C352.383 281.851 351.489 282.092 350.766 282.608C350.079 283.123 349.563 283.811 349.288 284.671C348.978 285.531 348.841 286.425 348.841 287.319C348.841 288.523 349.013 289.554 349.356 290.414C349.7 291.308 350.216 291.961 350.938 292.408C351.695 292.855 352.451 293.062 353.311 293.062C354.343 293.062 355.203 292.752 355.925 292.168C356.612 291.583 357.094 290.689 357.369 289.52V289.52Z" fill="#0C2E75"/>
<path d="M361.53 294.403V280.51H371.572V282.126H363.353V286.39H371.022V288.041H363.353V292.752H371.881V294.403H361.53Z" fill="#0C2E75"/>
<path d="M374.46 280.51H383.47V282.126H376.317V294.403H374.46V280.51Z" fill="#0C2E75"/>
<path d="M383.298 287.628C383.298 285.324 383.917 283.536 385.155 282.229C386.393 280.923 387.975 280.269 389.935 280.269C391.242 280.269 392.377 280.579 393.409 281.198C394.44 281.782 395.231 282.642 395.781 283.742C396.332 284.843 396.572 286.081 396.572 287.456C396.572 288.866 396.297 290.139 395.747 291.239C395.163 292.374 394.372 293.199 393.306 293.784C392.274 294.334 391.139 294.644 389.935 294.644C388.629 294.644 387.459 294.3 386.428 293.681C385.396 293.062 384.605 292.202 384.089 291.102C383.539 290.001 383.298 288.866 383.298 287.628V287.628ZM385.19 287.663C385.19 289.348 385.637 290.655 386.531 291.617C387.425 292.58 388.56 293.062 389.935 293.062C391.311 293.062 392.446 292.58 393.34 291.617C394.234 290.62 394.681 289.245 394.681 287.456C394.681 286.356 394.509 285.359 394.096 284.499C393.718 283.674 393.168 283.02 392.446 282.539C391.689 282.092 390.864 281.851 389.97 281.851C388.663 281.851 387.528 282.298 386.6 283.192C385.671 284.086 385.19 285.565 385.19 287.663V287.663Z" fill="#0C2E75"/>
<path d="M399.771 280.51H408.265V292.752H409.503V297.636H407.852V294.403H398.67V297.636H397.02V292.752H398.086C399.22 291.067 399.771 287.663 399.771 282.539V280.51V280.51ZM406.408 282.126H401.559V282.848C401.559 284.018 401.456 285.634 401.249 287.697C401.009 289.761 400.596 291.446 399.977 292.752H406.408V282.126V282.126Z" fill="#0C2E75"/>
<path d="M411.738 294.403V280.51H413.595V286.218H420.782V280.51H422.605V294.403H420.782V287.869H413.595V294.403H411.738Z" fill="#0C2E75"/>
<path d="M436.67 294.403V280.51H430.514C429.276 280.51 428.348 280.613 427.694 280.888C427.041 281.129 426.525 281.576 426.147 282.195C425.769 282.814 425.562 283.536 425.562 284.293C425.562 285.29 425.906 286.115 426.525 286.769C427.179 287.456 428.142 287.869 429.483 288.075C429.001 288.316 428.623 288.522 428.382 288.763C427.832 289.245 427.316 289.864 426.869 290.62L424.462 294.403H426.766L428.589 291.514C429.139 290.655 429.551 290.036 429.895 289.589C430.274 289.141 430.583 288.832 430.858 288.66C431.133 288.488 431.408 288.351 431.684 288.282C431.89 288.247 432.234 288.213 432.715 288.213H434.847V294.403H436.67V294.403ZM434.847 286.631H430.893C430.033 286.631 429.38 286.562 428.932 286.356C428.451 286.184 428.073 285.909 427.832 285.531C427.591 285.152 427.488 284.74 427.488 284.293C427.488 283.639 427.729 283.089 428.176 282.676C428.657 282.229 429.414 282.023 430.446 282.023H434.847V286.631V286.631Z" fill="#0C2E75"/>
<path d="M440.418 290.93L439.902 283.57V280.51H442V283.57L441.519 290.93H440.418V290.93ZM439.971 294.403V292.443H441.931V294.403H439.971Z" fill="#0C2E75"/>
</svg>
